<svg id="OBJEKTS" xmlns="http://www.w3.org/2000/svg" xmlns:xlink="http://www.w3.org/1999/xlink" viewBox="0 0 500 500"><style>.st0{opacity:.41;fill:#95eab6}.st1{fill:none;stroke:#fff;stroke-width:2;stroke-miterlimit:10}.st2{opacity:.41;fill:#73d897}.st3{opacity:.75;fill:none;stroke:#fff;stroke-miterlimit:10}.st4{fill:#161616}.st5{fill:#49484c}.st6{fill:#fff}.st7{fill:#f4cc8d}.st8{fill:#f5ba00}.st9{fill:#ff735f}.st10{fill:#e5b97f}.st11{fill:#414142}.st12{fill:none;stroke:#69686d;stroke-miterlimit:10}.st13{fill:url(#SVGID_1_)}.st14{fill:url(#SVGID_2_)}.st15{fill:url(#SVGID_3_)}.st16{fill:#605443}.st17{fill:url(#SVGID_4_)}.st18{fill:url(#SVGID_5_)}.st19{opacity:.49;fill:url(#SVGID_6_)}.st20{fill:url(#SVGID_7_)}.st21{clip-path:url(#SVGID_10_)}.st22{opacity:.41;fill:none;stroke:#66bf85;stroke-miterlimit:10}.st23{fill:url(#SVGID_11_)}.st24{fill:none;stroke:#a0a0a0;stroke-width:2;stroke-miterlimit:10}.st25{font-family:&amp;apos;MarkerFelt-Wide&amp;apos;}.st26{font-size:38.2521px}</style><circle class="st0" cx="259.4" cy="262.3" r="158.6"/><path class="st1" d="M214.7 268.5h-98c-12.7 0-23-10.3-23-23v-7.8c0-12.7 10.3-23 23-23h75c12.7 0 23 10.3 23 23v30.8z"/><path class="st2" d="M387.6 286.6c-.2-44.7-12.5-87.6-48.9-116.4-44.9-35.5-107.6-35.1-153.4-1.9-30 21.7-51 54.3-62.8 89.4-11.8 35.1-14.8 72.6-13.6 109.6l273 .9c1.1-12.5 2.3-25.1 3.4-37.6 1.3-14.6 2.4-29.3 2.3-44z"/><path class="st3" d="M229.7 263.5h-98c-12.7 0-23-10.3-23-23v-7.8c0-12.7 10.3-23 23-23h75c12.7 0 23 10.3 23 23v30.8zM328.6 174.7H193.5c-16.8 0-30.5-13.6-30.5-30.5v-10.4c0-16.8 13.6-30.5 30.5-30.5h104.7c16.8 0 30.5 13.6 30.5 30.5v40.9z"/><path class="st4" d="M155.4 360.1c-.3-.3-.8-.6-1.2-.9-1.4-1.1-1.7-3.1-1.9-4.9-1.8-22 1.5-44.2.4-66.2-.2-5.3-4.5-2.7-8-2-.5.1-7.4 1.4-7.3.6-.6 6.3-1.4 13-5.6 17.7-2.9 3.3-7 5.2-10.6 7.6-13.6 9.2-21.5 26.9-23.4 42.9 0-.4-.1-.7-.1-1.1-.3-3.2-.5-6.4-.6-9.6-.3-6.7-.4-13.4-.3-20.1.1-5 .7-10.5-2.3-14.8-2.6-3.7-5.4-4-9.1-4.3-1-2-.8-5.9-.8-7.7 0-2.9.5-6.1 2.6-8.3 3.4-3.6 8.7-1.4 13.1-2.5 9.8-2.5 6.3-15 5.7-22.2-.4-4.5-7.4-4.5-7 0 .3 3.6 1 7.4 1 11 0 2.3 0 3.8-2.4 4.6-1 .3-2.4 0-3.4 0-5.1 0-9.5 1.1-12.8 5.2-3.6 4.5-4.1 10.3-3.5 15.8.4 4.2.6 10 5.7 10.9 4.7.8 6.2 1.8 6.3 6.8.1 3.4-.2 6.8-.2 10.2 0 7.7.2 15.4.8 23 .3 4.4-.4 12.3 3.3 15.6 1.9 1.6 4.1 1.7 5.9.8 5.8.3 19.6-.5 21.1-.5h17.8c3 0 8.2 1 11.1-.4 1.5-.8 4.3-2.2 5.4-3.6 1-.9 1.2-2.6.3-3.6z"/><path class="st5" d="M153 294.5c0-1.8 0-3.6-.1-5.4 0-.3-.1-.7-.1-1-.1-.4-.2-.7-.3-1.1-1.3-2.5-5.9-.3-7.7.5-2 1-3.8 2.3-5.6 3.6-1 .8-2.2 1.7-2.7 2.9-.6 1.3-.2 3.3-.1 4.7.1 1 .3 2.1.9 2.9.6.8 1.8 1.3 2.7.7.2 1.1.4 2.2.9 3.2.4.8 1.1 1.3 2 1.5.6.2.5.1.7.7v.1c.1.5.3.9.5 1.3v.1c.2.3.3.6.6.8.1.1.3.2.5.3.3.2.7.3 1.1.4 1 .1 2.1-.2 2.6-1.1.6-1 .5-2.1.4-3.2.8 0 1.5-.4 1.8-1.3.4-.8.3-1.9.3-2.8 0-1.1 0-2.1-.1-3.2 2.1.1 1.7-3.1 1.7-4.6z"/><path class="st4" d="M129.9 330.3c3.5 2.1 5.9 6.4 5.4 10.6-.4 4.3-3.9 7.8-7 10.4-3.3 2.8-7 5.3-9.1 9.1 2.2-.3 4.4-.4 6.5-.5 1.9-.1 4 .1 5.1 1.6 1.1 1.6.5 3.8.8 5.7.2.1.5.1.7-.1.1.5.1.5.6.5 1.7-.1 3.2-1.4 4-3 .8-1.6 1.1-3.3 1.3-5.1.7-6.2 1.1-12.5.7-18.8-.1-2-.4-4-1.4-5.7-1.5-2.8-4.3-4.9-7.6-4.7zM121.2 272.2l-.3-.9c0 .1.8.4 1 .5.4.2.7.4 1.1.6l2.1 1.2c.7.4 1.4.8 2.1 1.3.3.2.5.4.8.3.5-.1 1-.4 1.5-.6.6-.2 1.2-.5 1.8-.7 1.2-.5 2.4-1 3.6-1.4 2.4-.9 4.8-1.9 7.1-2.9.9-.4 3-.9 3.3-1.9.1-.4.1-.7.1-1.1.1-1.9.5-5.5.5-5.5s1.4 1.2 1.7 1.5c.5.6 1 1.3 1.5 1.9 1 1.3 1.8 2.6 2.6 4.1 1.7 3 3.1 6.1 4.2 9.3.9 2.6 1.4 5.2-.3 7.5-1.6 2.2-4.2 3.5-6.5 4.7-4.8 2.5-9.9 5.2-15.3 5.7-1.4.1-2.8.1-4-.5-1.2-.6-2.1-1.8-2.8-3.1-3.3-6.3-4-13.3-5.8-20z"/><path class="st5" d="M147.9 286c-1.6-.5-3.2-.6-4.8-1.1.1-.2.2-.3.3-.5.2-.4.5-.8.7-1.3.2-.3 0-.6-.3-.7-.5-.2-1.4.3-1.9.5-.8.3-1.5.6-2.2 1-.4.2-.3.8.1.9.7.2 1.3.4 2 .6-.7 1.7-1.3 3.4-1.8 5.2-.2.6.8.9 1 .3.5-1.7 1-3.4 1.7-5 1.6.5 3.3.6 4.9 1.1.6.2.9-.8.3-1z"/><path class="st6" d="M134.1 281.8c-.2-.1-.5-.1-.6 0-.1 0-.3 0-.4.2-.1.1-.2.3-.2.4 0 .1-.1.2-.1.2 0 .2 0 .3.1.4.1.1.1.3.3.4.4.4 1.1.2 1.4-.3.4-.5.1-1.1-.5-1.3zM149.1 275.8c-.2-.1-.5-.1-.6 0-.1 0-.3 0-.4.2-.1.1-.2.3-.2.4 0 .1-.1.2-.1.2 0 .2 0 .3.1.4.1.1.1.3.3.4.4.4 1.1.2 1.4-.3.4-.5.1-1.1-.5-1.3z"/><path class="st3" d="M373.3 230h-71.1v-24.4c0-13.5 10.9-24.4 24.4-24.4h46.7c13.5 0 24.4 10.9 24.4 24.4 0 13.5-10.9 24.4-24.4 24.4z"/><path class="st7" d="M175 340.7c-1.9 6.5-3.5 14.1.3 19.7 4.6 6.7 15.3 6.7 22 1.9 6.7-4.7 10.3-12.6 13.4-20.2 5.2-12.8 9.8-25.9 11.6-39.6 1.1-8 .1-17.9-7.1-21.4-11.2-5.4-20.7 3.2-24.3 12.7-5.9 15.4-11.2 31-15.9 46.9z"/><path class="st8" d="M208.9 258.2c-2.9 3.1-5.4 6.4-7.7 9.9-3.1 4.9-5.3 10.1-7.7 15.4-.9 1.8-8.1 17.8-6.5 18.9 9.1 6.5 18.1 13.7 28.5 17.7.4.1-1.6 7.8-1.8 8.5-.7 2.8-1.4 5.7-1.9 8.5-1.1 5.7-2 11.5-3 17.2-.6 3.2-1.1 6.4-1.6 9.6-.2 1.4 45.2 4.5 49.3 4.5 12 .2 30.9 3.6 38.2-8.7 1.7-2.9 2.6-6.2 3.4-9.5 4.5-19.3 6.4-39.2 6-59-.1-4.7-.4-9.3-1.5-13.8-1.6-6.6-5.1-12.5-8.7-18.1-3.3-5.2-8.5-8-14-10.7-16.5-7.9-36.5-10.5-53.2-3.1-6.9 3-12.8 7.4-17.8 12.7z"/><path class="st9" d="M284.4 305c-.5 1-.9 2.1-1.4 3.1-1.7 4-6.1 11-6.1 15.4-2 6.4-3 13.3-1.8 19.9.5 2.6 1.3 5.2 2.2 7.8 1.1 3.2 2.3 6.4 4.3 9.2 1.8 2.4 6.2 6.3 9.6 5 3.5-1.4 6.2-7.8 7.5-11 8-18.8 11.2-39.5 13.1-59.8.1-1.4.3-2.9 0-4.3-.4-2.1-1.8-3.8-3.1-5.5-1.8-2.2-3.8-4.5-6.6-5-2.6-.5-5.4.9-7.2 2.9-1.8 2-2.9 4.5-4 7-2.1 5.2-4.3 10.2-6.5 15.3z"/><path class="st8" d="M299 302.9c-1.5-.4-23.1-5.7-23.1-3 .2-11.7.8-23.4 1.9-35.1.4-3.7.8-7.5 2.2-10.9 1.4-3.5 4-6.6 7.4-7.9 2.6-1 5.4-.9 8.1-.3 8.5 1.8 15.6 8.8 17.7 17.2.9 3.6.9 7.4.9 11.1-.1 11-.9 22-1.6 33-4.6-.1-9.1-2.9-13.5-4.1z"/><path class="st10" d="M309.9 243.5c.3 1 .5 2 .6 3.1.5 7-4.2 12.9-8.8 17.6-1.8 1.9-4.4 3.1-6 5.1-1.9 2.2-1.8 5.8-5 6.8-1.4.4-3-.1-4-1.2-1.2-1.3-1.2-2.8-.6-4.4.7-1.9 1.3-4.3 2.5-5.9.9-1.3 2.7-2.2 4.1-3 2.7-1.6 4.9-4.7 5.3-7.8.8-5.9 0-12.6 2-18.2.4-1 .8-1.9 1.6-2.6.8-.7 1.9-1.1 2.9-.7 1.4.5 2 2.2 2.5 3.6.9 2.5 2.2 5 2.9 7.6z"/><path class="st10" d="M302.2 317.8c.7 12.6.5 25.5-2.9 37.8-1 3.7-2.7 8.9-6.3 10.9-4 2.3-10.3.4-14-1.7-2.5-1.4-4.8-3.1-6.4-5.5-2.4-3.7-2.6-8.5-2.3-12.9.8-12 3.7-23.1 6.1-34.8 2.5-12.7 5.5-25.3 8.9-37.9 1.4-5.3 3.3-9.3 7.8-12.7 3.2-2.4 8.5-5.6 8.8.7.9 18.6-.7 37.3.3 56.1z"/><path class="st7" d="M251.8 253.8c-.4.7-.7 1.4-.9 2.1-.2 1-.1 2 0 2.9.9 7.3 2.4 14.5 10.3 16.8 5.2 1.5 11.6 1 16.4-1.7 1.5-.9 3-1.8 4.2-3.1 1.2-1.3 2.1-2.9 2.1-4.7 5.3 1.2 10.7-4.2 13.4-8 6.3-8.8 8.4-19.9 7.4-30.5-.2-2.6-.6-5.4-2.2-7.5-1.1-1.5-2.7-2.5-4.2-3.5-7.2-4.6-14.9-4.9-22.7-1.2-7.1 3.3-12.1 10.4-15.5 17.2-1.4 2.9-1.6 6.7-2.8 9.7-1.3 3.6-3 7.1-5 10.4-.2.5-.4.8-.5 1.1z"/><path class="st11" d="M261.7 216.8c1.6-3.6 4-7 7-9 5.4-3.8 13.2-3.1 19.3-1.7 3.5.8 7 2.3 10.7 2.3 3.3 0 6.7-3.3 9.9-2.2 1.4.5 2.5 1.7 2.8 3.2.5 2.4-1 4.7-2.1 6.9-.9 1.7-1.7 3.5-2.8 5.1-1.5 2-4 3.7-6.5 4-.9.1-1.7 0-2.6-.1-5.2-.5-9.5-2-13.5 2.1-2.7 2.8-4 6.6-6 9.8-.5.8-1 1.6-1.8 2.1-1 .6-2.4.6-3.5.9-5.1 1.2-8.5 9.8-13.9 7.9-4.6-1.6-3.6-5.8-1.8-9.1 2.3-4.2 1.8-9.2 2.5-13.9.2-2.7 1.1-5.6 2.3-8.3z"/><path class="st7" d="M263 236.6c-1.2 1.6-1.8 3.5-2.2 5.4-.3 1.7-.5 3.4 0 5s1.8 3.1 3.5 3.4c1.3.2 2.7-.3 3.7-1.2 2.4-2.1 5.2-8.5 4.5-11.8-1-4.6-7.2-3.8-9.5-.8z"/><path class="st12" d="M267.7 238.4c-1.3.5-2.3 1.6-3 2.9-.6 1.3-.9 2.7-1.1 4.1"/><ellipse transform="rotate(-12.967 300.465 239.566)" class="st11" cx="300.5" cy="239.6" rx="1.2" ry="1.2"/><ellipse transform="rotate(-9.439 287.455 240.602)" class="st11" cx="287.4" cy="240.5" rx="1.2" ry="1.2"/><linearGradient id="SVGID_1_" gradientUnits="userSpaceOnUse" x1="274.649" y1="370.159" x2="288.863" y2="339.193"><stop offset="0" stop-color="#201b59" stop-opacity=".915"/><stop offset=".555" stop-color="#fc0" stop-opacity="0"/></linearGradient><path class="st13" d="M271.5 336.5c-.5 3.3-.9 6.5-1.1 9.8-.3 4.5-.2 9.2 2.3 12.9 1.6 2.4 3.9 4.1 6.4 5.5 3.7 2.1 10 4 14 1.7 3.5-2 5.2-7.3 6.3-10.9 1.7-6.2 2.6-12.6 3-19h-30.9z"/><linearGradient id="SVGID_2_" gradientUnits="userSpaceOnUse" x1="214.545" y1="314.312" x2="231.46" y2="330.577"><stop offset="0" stop-color="#201b59" stop-opacity=".915"/><stop offset=".555" stop-color="#fc0" stop-opacity="0"/></linearGradient><path class="st14" d="M235.6 317.1c-1.8-5.2-3.6-10.4-5.5-15.6.1.4-1 2.1-1.2 2.5l-1.2 2.7c-.8 1.9-1.7 3.7-2.5 5.5-1.6 3.5-3.2 7.1-5.2 10.4-1.6-.5-3.1-1.3-4.4-2.4-.5 3.2-1.5 6.1-2.2 9.3-.3 1.6-.6 3.3-.9 4.9-.2.8-.3 1.7-.5 2.5-.1.3-.2 2.1-.5 2.3 8.5-5 16.3-11.2 23.1-18.3.5-.6 1.1-1.2 1.2-2 .2-.6 0-1.2-.2-1.8z"/><path class="st11" d="M302.5 233c-1.6-.2-3.2.2-4.6 1.1-.6.4-1 1.2-.6 1.9.3.6 1.3 1 1.9.6 1-.7 2-.9 3.1-.7.8.1 1.4-.6 1.5-1.3 0-1-.6-1.5-1.3-1.6zM291.1 235.2c-2-.9-4.1-.5-6.1 0-1.5.4-1.2 2.9.4 2.5 1.6-.4 3.2-.9 4.7-.2s2.5-1.7 1-2.3z"/><linearGradient id="SVGID_3_" gradientUnits="userSpaceOnUse" x1="266.941" y1="236.664" x2="255.247" y2="250.363" gradientTransform="rotate(-12.967 375.272 185.014)"><stop offset=".265" stop-color="#201b59" stop-opacity=".915"/><stop offset=".555" stop-color="#ff735f" stop-opacity="0"/></linearGradient><path class="st15" d="M273.5 261.9l-.3 7.8c0 1.4-.1 2.7-.1 4.1 0 .2-.1.7-.1 1.2 1.6-.4 3.2-.7 4.7-1.3 2.1-1 4.2-2.3 5.3-4.5.4-.8.7-1.7.9-2.6-3.6-.8-7.7-2.2-10.4-4.7z"/><path class="st7" d="M246 367.8c13.5 1.6 28.5 3.4 41.5-.5-2.1-3-4.2-6-6.9-8.6-2.7-2.5-6-4.5-9.7-4.9-1.9-.2-3.9-.1-5.8.2-3.4.4-7.7 2.2-11.1 1.9-2.8-.2-6.5-2.7-9.2-3.7-18.1-7.2-39.6-16.9-59.5-11.7-10 2.6-16.1 11-9.1 20.4 3.9 5.3 10.1 4.3 16.2 4.4 16.4.3 32.9.1 49.2 2 1.5.2 2.9.4 4.4.5z"/><path class="st16" d="M286.9 255.8l-1-.2c.6-2.1 1.3-3.7 2.3-5 1.3-1.6 3-2.7 4.8-2.9.6-.1 1.2 0 1.7.1 1 .3 2 1.2 2.5 2.4l-.9.4c-.4-.9-1.1-1.6-1.9-1.9-.4-.1-.8-.2-1.3-.1-1.5.2-3 1.1-4.1 2.5-1 1.2-1.6 2.7-2.1 4.7z"/><linearGradient id="SVGID_4_" gradientUnits="userSpaceOnUse" x1="209.409" y1="347.529" x2="200.709" y2="329.866"><stop offset=".265" stop-color="#201b59" stop-opacity=".915"/><stop offset=".555" stop-color="#ff735f" stop-opacity="0"/></linearGradient><path class="st17" d="M212 334.5c-.1-.2-.3-.5-.4-.7-.9-1.5-1.8-3.1-2.7-4.7-1.3 1.2-2.5 2.4-3.9 3.5-1.9 1.3-3.6 2.9-5.2 4.5-1 1-1.9 2.1-2.8 3.1.2.6.5 1.1.7 1.7.1.3.2.6.4.9.6-.2 1.3-.4 1.9-.6 3.2-.9 7.5-2.2 11-1.7.2-2 1-3.8 1.1-5.8 0 0-.1-.1-.1-.2z"/><path class="st10" d="M290.9 259.8c-.6 0-1.4.4-1.7.9-.1.3-.1.6.1.8 0 .2.2.4.4.4.7.2 1.3-.2 1.8-.7.4-.6.1-1.4-.6-1.4zM291.9 232.2c-.7-.3-1.5-.5-2.2-.6-.6-.1-.6.9 0 1 .7.1 1.3.3 2 .5.5.3.8-.6.2-.9zM298.1 230.8c-.5.2-1 .3-1.6.5-.6.2-.4 1.2.3 1 .5-.2 1-.3 1.6-.5.6-.3.3-1.2-.3-1z"/><g><linearGradient id="SVGID_5_" gradientUnits="userSpaceOnUse" x1="153.041" y1="127.017" x2="318.628" y2="127.017"><stop offset="0" stop-color="#fcf916"/><stop offset=".679" stop-color="#fe9807"/><stop offset="1" stop-color="#ff6f00"/></linearGradient><path class="st18" d="M318.6 162.7H183.5c-16.8 0-30.5-13.6-30.5-30.5v-10.4c0-16.8 13.6-30.5 30.5-30.5h104.7c16.8 0 30.5 13.6 30.5 30.5v40.9z"/><path class="st6" d="M213.4 133.8h-3.1v5.4h-7.4v-5.4h-11.1v-5.5l11.5-16.9h6.9v16.8h3.1v5.6zm-10.5-5.6V125c0-.6 0-1.4.1-2.5 0-1 .1-1.6.1-1.6h-.2c-.4 1-.9 1.9-1.5 2.7l-3.1 4.6h4.6zM243.1 125.3c0 4.9-.8 8.5-2.5 10.8-1.6 2.3-4.2 3.4-7.5 3.4s-5.8-1.2-7.5-3.6c-1.7-2.4-2.5-5.9-2.5-10.6 0-4.9.8-8.5 2.5-10.8 1.6-2.3 4.2-3.5 7.5-3.5s5.8 1.2 7.5 3.6c1.7 2.4 2.5 6 2.5 10.7zm-12.6 0c0 3.1.2 5.3.6 6.5.4 1.2 1 1.8 2 1.8.9 0 1.6-.6 2-1.8.4-1.2.6-3.3.6-6.4 0-3.1-.2-5.2-.6-6.5-.4-1.2-1-1.8-2-1.8-.9 0-1.6.6-2 1.8-.4 1.1-.6 3.2-.6 6.4zM274.4 133.8h-3.1v5.4H264v-5.4h-11.1v-5.5l11.5-16.9h6.9v16.8h3.1v5.6zm-10.4-5.6V125c0-.6 0-1.4.1-2.5 0-1 .1-1.6.1-1.6h-.2c-.4 1-.9 1.9-1.5 2.7l-3.1 4.6h4.6z"/></g><g><path class="st6" d="M241.7 233.5h-98c-12.7 0-23-10.3-23-23v-7.8c0-12.7 10.3-23 23-23h75c12.7 0 23 10.3 23 23v30.8z"/><path class="st9" d="M158.8 212.5c-1.7 0-3-.5-3.9-1.4-.9-.9-1.4-2.2-1.4-3.9 0-1.7.4-3.1 1.3-4 .9-.9 2.1-1.4 3.6-1.4s2.6.4 3.4 1.2c.8.8 1.2 2 1.2 3.4v1.4h-6.7c0 .8.3 1.4.7 1.9.4.4 1.1.7 1.9.7.6 0 1.2-.1 1.8-.2.6-.1 1.1-.3 1.7-.6v2.2c-.5.2-1 .4-1.6.5-.5.1-1.2.2-2 .2zm-.4-8.7c-.6 0-1.1.2-1.4.6-.3.4-.5.9-.6 1.6h4c0-.7-.2-1.2-.5-1.6-.4-.4-.9-.6-1.5-.6zM172.9 201.8c.4 0 .7 0 1 .1l-.2 2.6c-.2-.1-.5-.1-.8-.1-.9 0-1.6.2-2.1.7-.5.5-.8 1.1-.8 1.9v5.3h-2.8V202h2.1l.4 1.7h.1c.3-.6.8-1 1.3-1.4.6-.4 1.2-.5 1.8-.5zM183.4 201.8c.4 0 .7 0 1 .1l-.2 2.6c-.2-.1-.5-.1-.8-.1-.9 0-1.6.2-2.1.7-.5.5-.8 1.1-.8 1.9v5.3h-2.8V202h2.1l.4 1.7h.1c.3-.6.8-1 1.3-1.4.6-.4 1.2-.5 1.8-.5zM197.5 207.1c0 1.7-.4 3-1.3 3.9-.9.9-2.1 1.4-3.7 1.4-1 0-1.9-.2-2.6-.7-.8-.4-1.3-1.1-1.7-1.9-.4-.8-.6-1.8-.6-2.8 0-1.7.4-3 1.3-3.9.9-.9 2.1-1.4 3.7-1.4 1 0 1.9.2 2.6.6.8.4 1.3 1 1.7 1.9.4.9.6 1.8.6 2.9zm-7.1 0c0 1 .2 1.8.5 2.3.3.5.9.8 1.6.8.8 0 1.3-.3 1.6-.8.3-.5.5-1.3.5-2.3 0-1-.2-1.8-.5-2.3-.3-.5-.9-.8-1.6-.8-.8 0-1.3.3-1.6.8-.4.5-.5 1.3-.5 2.3zM207.5 201.8c.4 0 .7 0 1 .1l-.2 2.6c-.2-.1-.5-.1-.8-.1-.9 0-1.6.2-2.1.7-.5.5-.8 1.1-.8 1.9v5.3h-2.8V202h2.1l.4 1.7h.1c.3-.6.8-1 1.3-1.4.6-.4 1.1-.5 1.8-.5z"/></g><linearGradient id="SVGID_6_" gradientUnits="userSpaceOnUse" x1="326.151" y1="303.977" x2="251.549" y2="222.868"><stop offset=".004" stop-color="#fff"/><stop offset=".551" stop-color="#fff" stop-opacity=".3"/></linearGradient><path class="st19" d="M342.8 343.6L316.9 247c-3.6-13.6-15.8-23.1-29.9-23.4-26.7-.6-42.1 30.1-25.6 51.2 27.1 34.5 57 73.3 57 73.3l24.4-4.5z"/><linearGradient id="SVGID_7_" gradientUnits="userSpaceOnUse" x1="320.228" y1="191.307" x2="410.408" y2="191.307"><stop offset=".004" stop-color="#00ea6b"/><stop offset=".055" stop-color="#00e868"/><stop offset=".666" stop-color="#00d447"/><stop offset="1" stop-color="#00cc3a"/></linearGradient><path class="st20" d="M391.5 213.4h-71.3v-25.3c0-10.4 8.5-18.9 18.9-18.9h52.4c10.4 0 18.9 8.5 18.9 18.9v6.4c0 10.5-8.4 18.9-18.9 18.9z"/><g><path class="st6" d="M185.8 354.9c-1.4 0-2.7-.1-3.8-.4l.4-2.1c4.4.9 11.5 0 13.5-4.2.6-1.3.6-2.9 0-4.1-.7-1.3-1.7-2.2-3.1-2.6-2.7-.8-6.2.1-8.5 1.4l-1.1-1.9c2.5-1.4 6.7-2.7 10.2-1.6 2 .6 3.5 1.9 4.4 3.7.9 1.9 1 4.2 0 6-2 4.3-7.4 5.8-12 5.8z"/><path class="st6" d="M175.6 362.1h-7.4c-7.6 0-13.7-6.1-13.7-13.7v-14.2h34.8v14.2c0 7.6-6.1 13.7-13.7 13.7z"/><path class="st6" d="M199 364.2h-53.5c-.9 0-1.6-.7-1.6-1.6 0-.9.7-1.6 1.6-1.6H199c.9 0 1.6.7 1.6 1.6 0 .9-.7 1.6-1.6 1.6z"/></g><g><defs><path id="SVGID_8_" d="M401.1 328.3c.3-1.9.9-3.7 2.5-4.5 2.2-1.3 5.1-.2 7.6-.7 7.1-1.3 7-11.2 6.9-16.6-.1-3.5-.2-6.9-.5-10.4-.1-.9-.1-1.9-.6-2.7-.9-1.4-2.8-1.8-4.4-1.4-3.1.9-4.8 4.2-5.4 7.4-.5 3.2-.3 6.5-1.1 9.6-.2.6-.4 1.2-.7 1.7-.4.6-.9 1-1.5 1.3-.9.4-2 .5-2.9 0-1-.6-.8-1.4-.8-2.4 0-1.1-.2-2.3-.3-3.5-.3-2.6-.6-5.2-.8-7.8-.5-5.1-.9-10.3-1.4-15.4-.2-2.3-.5-4.8-1.7-6.9-5.1-9.1-12.8-1.1-13.5 5.5-1.6 15.1 6.2 29.3 5.6 44.3 0 .6-.1 1.3-.3 1.9-1.2 2.4-5 1.9-6.7.6-2.7-2.1-1.8-6.8-1.8-9.5 0-2.3-.7-4.8-2.9-5.9-2.5-1.2-5.7.2-7.2 2.5-1.8 2.9-1.6 7.8-1.4 11 .2 2.3.7 4.6 2.1 6.6 1.4 2 3.6 3.5 6.1 3.6 1.5.1 3.1-.2 4.2.7 1.4 1.1.9 3 .9 4.7.1 3.2 2.9 6 6.1 7.4 3.2 1.4 6.9 1.6 10.4 1.8 3-4.8 3.2-10.4 3.4-15.8 0-1.9-.2-4.6.1-7.1z"/></defs><linearGradient id="SVGID_9_" gradientUnits="userSpaceOnUse" x1="367.563" y1="311.544" x2="418.038" y2="311.544"><stop offset=".004" stop-color="#00ea6b"/><stop offset=".055" stop-color="#00e868"/><stop offset=".666" stop-color="#00d447"/><stop offset="1" stop-color="#00cc3a"/></linearGradient><use xlink:href="#SVGID_8_" overflow="visible" fill="url(#SVGID_9_)"/><clipPath id="SVGID_10_"><use xlink:href="#SVGID_8_" overflow="visible"/></clipPath><g class="st21"><path class="st22" d="M391.6 272.5c3.6 25 6.7 50.5 2.3 75.4M388.1 272.4c-1 4.7-2 9.4-2 14.1 0 9.1 3.9 17.7 5.4 26.7 1.7 10 .4 20.2-.8 30.3"/><path class="st22" d="M395.9 316.6c4.4-.6 9.6-1.3 12.3-4.7.4-.5.7-1 .9-1.6.7-2.4.4-5.1.4-7.5v-9.5M392 333.2c-3.9.6-8.2 1.2-11.6-.7-2.1-1.2-3.5-3.2-4.2-5.3-.7-2.1-.9-4.4-.9-6.6 0-2.4.2-4.8.6-7.2"/><path class="st22" d="M396 320.6c5-.7 9.9-2 14.5-3.8 1-.4 2-.8 2.7-1.5.8-.8 1.1-1.8 1.4-2.8.7-2.3 1-17.8.2-21.5"/></g><linearGradient id="SVGID_11_" gradientUnits="userSpaceOnUse" x1="377.426" y1="353.083" x2="406.747" y2="353.083"><stop offset="0" stop-color="#fcf916"/><stop offset=".679" stop-color="#fe9807"/><stop offset="1" stop-color="#ff6f00"/></linearGradient><path class="st23" d="M377.4 342.8l29.3-.6-2.9 21.8h-22.4z"/></g><g><path class="st6" d="M370 365.4H246.2c-1.4 0-2.5-1.1-2.5-2.5v-.9c0-1.4 1.1-2.5 2.5-2.5H370c1.4 0 2.5 1.1 2.5 2.5v.9c0 1.4-1.2 2.5-2.5 2.5z"/><path class="st6" d="M372.9 365.4h-110l9.6-63.2c.3-2.2 2.2-3.8 4.4-3.8h101.3c2.6 0 4.6 2.4 4.2 5l-9.5 62z"/><circle class="st24" cx="327.9" cy="327.4" r="5.3"/><path class="st1" d="M333.3 293.5c-.7-2.9-1-5.9-1-8.8 0-2.9.4-5 2.4-7.2 1.3-1.5 3.1-3.4 4.7-4.6 4.4-3.5 6.1-9.9 3.9-15.1M342.6 285c-.6-2.5.8-5 2.5-6.9 1.7-1.9 3.9-3.4 5.4-5.4 3.2-4.4 3.1-8.5 2.5-16.7-.4-5.8-.3-12.3 3.8-16.3"/></g><path class="st5" d="M409.3 370.3H89.9c-1.7 0-3-1.3-3-3v-1c0-1.7 1.3-3 3-3h319.4c1.7 0 3 1.3 3 3v1c0 1.7-1.4 3-3 3z"/><text transform="translate(356.661 205)" class="st6 st25 st26">%</text></svg>