<svg id="Слой_1" xmlns="http://www.w3.org/2000/svg" viewBox="0 0 338.7 392.2"><style>.st0{fill:url(#SVGID_1_)}.st1{fill:url(#SVGID_2_)}.st2{fill:#fff}.st3{fill:#e0eaef}.st4{fill:#696e73}.st5{fill:#373c41}.st6{fill:url(#SVGID_3_)}.st7{fill:url(#SVGID_4_)}</style><g id="surface1"><linearGradient id="SVGID_1_" gradientUnits="userSpaceOnUse" x1="28.566" y1="194.884" x2="312.238" y2="194.884"><stop offset=".004" stop-color="#01e971"/><stop offset=".642" stop-color="#00d351"/><stop offset="1" stop-color="#00cb44"/></linearGradient><path class="st0" d="M297.3 250.8c-9 24.3-22.5 45.4-40.3 62.7-20.2 19.7-46.7 35.4-78.7 46.6-1 .4-2.1.7-3.2.9-1.5.3-2.9.4-4.4.5h-.3c-1.6 0-3.1-.2-4.7-.5-1.1-.2-2.2-.5-3.2-.9-32-11.2-58.5-26.8-78.8-46.6-17.8-17.3-31.3-38.4-40.2-62.7-16.3-44.1-15.3-92.7-14.6-131.8v-.6c.1-3.2.2-6.6.3-10.4.3-18.4 14.9-33.6 33.2-34.6 38.3-2.1 67.9-14.6 93.2-39.3l.2-.2c4.2-3.9 9.5-5.7 14.8-5.7 5.1.1 10.1 2 14.2 5.7l.2.2c25.3 24.7 54.9 37.2 93.2 39.3 18.4 1 33 16.2 33.2 34.6.1 3.8.1 7.1.3 10.4v.3c1 39.1 1.9 87.8-14.4 132.1z"/><linearGradient id="SVGID_2_" gradientUnits="userSpaceOnUse" x1="170.692" y1="194.885" x2="312.238" y2="194.885"><stop offset=".004" stop-color="#01e971"/><stop offset=".642" stop-color="#00d351"/><stop offset="1" stop-color="#00cb44"/></linearGradient><path class="st1" d="M297.3 250.8c-9 24.3-22.5 45.4-40.3 62.7-20.2 19.7-46.7 35.4-78.7 46.6-1 .4-2.1.7-3.2.9-1.5.3-2.9.4-4.4.5V28.3c5.1.1 10.1 2 14.2 5.7l.2.2c25.3 24.7 54.9 37.2 93.2 39.3 18.4 1 33 16.2 33.2 34.6.1 3.8.1 7.1.3 10.4v.3c.9 39 1.8 87.7-14.5 132z"/><path class="st2" d="M253.4 194.9c0 45.7-37.1 82.9-82.7 83h-.3c-45.8 0-83-37.2-83-83s37.2-83 83-83h.3c45.6.1 82.7 37.3 82.7 83z"/><path class="st3" d="M253.4 194.9c0 45.7-37.1 82.9-82.7 83v-166c45.6.1 82.7 37.3 82.7 83z"/></g><g id="surface1_1_"><path class="st4" d="M193.8 160.4v24.8h-18.7v-25c0-2.7-2.2-4.9-4.9-5h-.1c-2.7 0-5 2.2-5 5v25h-18.7v-24.8c0-13 10.6-23.6 23.6-23.6h.1c13.2 0 23.7 10.6 23.7 23.6z"/><path class="st5" d="M193.8 160.4v24.8h-18.7v-25c0-2.7-2.2-4.9-4.9-5v-18.4c13.1 0 23.6 10.6 23.6 23.6z"/><linearGradient id="SVGID_3_" gradientUnits="userSpaceOnUse" x1="133.629" y1="215.896" x2="206.706" y2="215.896"><stop offset=".004" stop-color="#01e971"/><stop offset=".642" stop-color="#00d351"/><stop offset="1" stop-color="#00cb44"/></linearGradient><path class="st6" d="M206.7 186.6v58.6c0 2.6-2.1 4.8-4.8 4.8h-63.6c-2.6 0-4.8-2.1-4.8-4.8v-58.6c0-2.6 2.1-4.8 4.8-4.8H202c2.6 0 4.7 2.2 4.7 4.8z"/><linearGradient id="SVGID_4_" gradientUnits="userSpaceOnUse" x1="170.267" y1="215.896" x2="206.706" y2="215.896"><stop offset=".004" stop-color="#01e971"/><stop offset=".642" stop-color="#00d351"/><stop offset="1" stop-color="#00cb44"/></linearGradient><path class="st7" d="M206.7 186.6v58.6c0 2.6-2.1 4.8-4.8 4.8h-31.7v-68.1H202c2.6-.1 4.7 2.1 4.7 4.7z"/><path class="st2" d="M191.1 204.8l-20.8 20.8-5.9 5.9c-.6.6-1.5 1-2.3 1s-1.7-.3-2.3-1l-10.2-10.2a3.32 3.32 0 0 1 0-4.7c1.3-1.3 3.4-1.3 4.7 0l7.9 7.9 24.4-24.4c1.3-1.3 3.4-1.3 4.7 0 1.1 1.3 1.1 3.4-.2 4.7z"/><path class="st3" d="M191.1 204.8l-20.8 20.8v-9.4l16.1-16.1c1.3-1.3 3.4-1.3 4.7 0 1.3 1.3 1.3 3.4 0 4.7z"/></g></svg>