<svg id="Слой_1" xmlns="http://www.w3.org/2000/svg" viewBox="0 0 505 370.6"><style>.st0{opacity:.41;fill:#99eab8}.st1{opacity:.4}.st2{fill:url(#SVGID_1_)}.st3{fill:#fde0c1}.st4{opacity:.5}.st5{fill:url(#SVGID_2_)}.st6{fill:url(#SVGID_3_)}.st7{fill:url(#SVGID_4_)}.st8{fill:url(#SVGID_5_)}.st9{fill:url(#SVGID_6_)}.st10{fill:url(#SVGID_7_)}.st11{fill:#e1e1e1}.st12{fill:#ececec}.st13{fill:#f5f5f5}.st14{fill:#ff9e03}.st15{fill:#1b2e35}.st16{fill:url(#SVGID_8_)}.st17{fill:url(#SVGID_9_)}.st18{fill:#ff515f}.st19{opacity:.3}.st20{fill:url(#SVGID_10_)}.st21{fill:url(#SVGID_11_)}.st22{fill:url(#SVGID_12_)}.st23{fill:#1f1f1f}.st24{fill:#434443}.st25{fill:#fafafa}.st26{fill:#395a64}.st27{fill:url(#SVGID_13_)}.st28{fill:#0c0c0c}.st29{fill:#ffbfa0}.st30{fill:#fff}.st31{fill:#ff9a71}.st32{fill:url(#SVGID_14_)}.st33{fill:url(#SVGID_15_)}.st34{fill:url(#SVGID_16_)}.st35{fill:url(#SVGID_17_)}.st36{fill:url(#SVGID_18_)}.st37{fill:url(#SVGID_19_)}.st38{fill:url(#SVGID_20_)}.st39{fill:url(#SVGID_21_)}.st40{fill:url(#SVGID_22_)}.st41{fill:url(#SVGID_23_)}.st42{fill:url(#SVGID_24_)}.st43{fill:url(#SVGID_25_)}.st44{fill:url(#SVGID_26_)}.st45{fill:url(#SVGID_27_)}.st46{fill:url(#SVGID_28_)}.st47{fill:url(#SVGID_29_)}.st48{fill:url(#SVGID_30_)}.st49{fill:url(#SVGID_31_)}.st50{fill:url(#SVGID_32_)}.st51{fill:url(#SVGID_33_)}.st52{fill:url(#SVGID_34_)}.st53{font-family:&amp;apos;MyriadPro-Bold&amp;apos;}.st54{font-size:6px}</style><circle class="st0" cx="261.5" cy="197.5" r="173.1"/><g class="st1"><linearGradient id="SVGID_1_" gradientUnits="userSpaceOnUse" x1="93.775" y1="68.211" x2="111.636" y2="68.211"><stop offset=".004" stop-color="#01e971"/><stop offset=".642" stop-color="#00d351"/><stop offset="1" stop-color="#00cb44"/></linearGradient><circle class="st2" cx="102.7" cy="68.2" r="8.9"/><path class="st3" d="M103.5 67.4c.2.1.4.1.6.2.2.1.4.2.6.2.2.1.4.2.5.3.2.1.3.3.4.4.1.2.2.3.3.6.1.2.1.5.1.7 0 .4-.1.8-.2 1.1-.1.4-.3.7-.6.9-.3.3-.6.5-1 .7-.4.2-.8.3-1.3.3l-.1.9c0 .1-.1.2-.1.3-.1.1-.2.1-.3.1h-.7l.1-1.4c-.2 0-.5-.1-.7-.2-.2-.1-.5-.2-.7-.3l-.6-.3c-.2-.1-.4-.3-.5-.4l.5-.8c0-.1.1-.1.2-.2.1 0 .2-.1.3-.1.1 0 .2 0 .3.1.1.1.2.1.4.2.1.1.3.2.4.3.2.1.4.2.6.2l.2-2.7c-.2-.1-.4-.1-.6-.2-.2-.1-.4-.2-.6-.2-.2-.1-.4-.2-.5-.3-.2-.1-.3-.3-.4-.5l-.3-.6c-.1-.2-.1-.5-.1-.8 0-.3.1-.7.2-1 .1-.3.3-.6.6-.8.3-.2.6-.5.9-.6.4-.2.8-.3 1.3-.3l.1-.8c0-.1.1-.2.1-.3.1-.1.2-.1.3-.1h.7l-.1 1.3c.5.1.9.2 1.2.4l.9.6-.4.6c-.1.1-.1.2-.2.2s-.2.1-.2.1c-.1 0-.1 0-.2-.1-.1 0-.2-.1-.3-.1-.1-.1-.2-.1-.4-.2-.1-.1-.3-.1-.4-.1l-.3 2.7zm-.9-2.5c-.2 0-.4.1-.6.1-.2.1-.3.1-.4.2-.1.1-.2.2-.2.3 0 .1-.1.2-.1.4 0 .1 0 .3.1.4 0 .1.1.2.2.3.1.1.2.2.3.2.1.1.3.1.4.2l.3-2.1zm.5 6.5c.4-.1.7-.2.9-.4.2-.2.3-.5.3-.9 0-.1 0-.3-.1-.4-.1-.1-.1-.2-.2-.3-.1-.1-.2-.2-.3-.2-.1-.1-.3-.1-.4-.2l-.2 2.4z"/></g><g class="st4"><linearGradient id="SVGID_2_" gradientUnits="userSpaceOnUse" x1="222.189" y1="5.312" x2="232.812" y2="5.312"><stop offset=".004" stop-color="#01e971"/><stop offset=".642" stop-color="#00d351"/><stop offset="1" stop-color="#00cb44"/></linearGradient><path class="st5" d="M227.5 10.6c-2.9 0-5.3-2.4-5.3-5.3s2.4-5.3 5.3-5.3 5.3 2.4 5.3 5.3-2.4 5.3-5.3 5.3zm0-8.6c-1.8 0-3.3 1.5-3.3 3.4 0 1.8 1.5 3.4 3.3 3.4 1.8 0 3.4-1.5 3.4-3.4S229.3 2 227.5 2z"/><linearGradient id="SVGID_3_" gradientUnits="userSpaceOnUse" x1="440.165" y1="45.88" x2="450.788" y2="45.88"><stop offset="0" stop-color="#fdf83c"/><stop offset=".676" stop-color="#fe9828"/><stop offset="1" stop-color="#ff6f1f"/></linearGradient><path class="st6" d="M445.5 51.2c-2.9 0-5.3-2.4-5.3-5.3s2.4-5.3 5.3-5.3 5.3 2.4 5.3 5.3-2.4 5.3-5.3 5.3zm0-8.7c-1.8 0-3.3 1.5-3.3 3.4 0 1.8 1.5 3.4 3.3 3.4 1.8 0 3.4-1.5 3.4-3.4-.1-1.9-1.6-3.4-3.4-3.4z"/><linearGradient id="SVGID_4_" gradientUnits="userSpaceOnUse" x1="487.224" y1="153.419" x2="497.847" y2="153.419"><stop offset=".004" stop-color="#01e971"/><stop offset=".642" stop-color="#00d351"/><stop offset="1" stop-color="#00cb44"/></linearGradient><path class="st7" d="M492.5 158.7c-2.9 0-5.3-2.4-5.3-5.3s2.4-5.3 5.3-5.3 5.3 2.4 5.3 5.3-2.3 5.3-5.3 5.3zm0-8.6c-1.8 0-3.3 1.5-3.3 3.4 0 1.8 1.5 3.4 3.3 3.4 1.8 0 3.4-1.5 3.4-3.4s-1.5-3.4-3.4-3.4z"/><g><linearGradient id="SVGID_5_" gradientUnits="userSpaceOnUse" x1="126.6" y1="45.88" x2="137.223" y2="45.88"><stop offset=".004" stop-color="#01e971"/><stop offset=".642" stop-color="#00d351"/><stop offset="1" stop-color="#00cb44"/></linearGradient><path class="st8" d="M131.9 51.2c-2.9 0-5.3-2.4-5.3-5.3s2.4-5.3 5.3-5.3 5.3 2.4 5.3 5.3-2.4 5.3-5.3 5.3zm0-8.7c-1.8 0-3.3 1.5-3.3 3.4 0 1.8 1.5 3.4 3.3 3.4 1.8 0 3.4-1.5 3.4-3.4s-1.5-3.4-3.4-3.4z"/></g><g><linearGradient id="SVGID_6_" gradientUnits="userSpaceOnUse" x1="6.335" y1="115.211" x2="16.959" y2="115.211"><stop offset=".004" stop-color="#01e971"/><stop offset=".642" stop-color="#00d351"/><stop offset="1" stop-color="#00cb44"/></linearGradient><path class="st9" d="M11.6 120.5c-2.9 0-5.3-2.4-5.3-5.3s2.4-5.3 5.3-5.3 5.3 2.4 5.3 5.3c.1 2.9-2.3 5.3-5.3 5.3zm0-8.6c-1.8 0-3.3 1.5-3.3 3.4 0 1.8 1.5 3.3 3.3 3.3 1.8 0 3.4-1.5 3.4-3.3 0-1.9-1.5-3.4-3.4-3.4z"/></g></g><linearGradient id="SVGID_7_" gradientUnits="userSpaceOnUse" x1="19.464" y1="209.905" x2="127.407" y2="209.905"><stop offset=".004" stop-color="#01e971"/><stop offset=".642" stop-color="#00d351"/><stop offset="1" stop-color="#00cb44"/></linearGradient><path class="st10" d="M110.5 268.3c17.2-15.1 18.8-39.7 15.6-61.3-.5-3.6-.5-7.5-2.6-10.5s-6.3-4.7-9.4-2.8c-2.6 1.6-3.4 4.8-4.6 7.6-1.6 3.7-4.3 6.8-7.6 9.1-2.2 1.5-5 2.5-7.4 1.5-3.3-1.4-4.2-5.7-4.5-9.3-.7-6.7-1.4-13.5-2.1-20.2-.4-3.6-.8-7.3-2.3-10.6-1.5-3.3-4.3-6.2-7.9-6.8-3.5-.6-7.6 1.9-7.9 5.5-.1 1.5.3 3 .4 4.5.1 1.5-.4 3.2-1.8 3.8-1.4.6-2.9-.3-4.1-1.2-4.1-3.2-7.2-7.6-10-12-2.9-4.4-5.7-8.9-9.5-12.5-3.8-3.6-8.8-6.2-14-6-5.2.3-10.3 4.1-11.1 9.3-.7 5.2 2.8 10.1 6.5 13.8 5.5 5.6 11.7 10.4 18.5 14.1 1.2.7 2.6 1.4 3.1 2.7 1 2.3-1 5-3.3 6-2.6 1.2-5.5 1.2-8.3 1.9-2.8.6-5.7 2.2-6.5 5-1.1 3.8 2.4 7.4 5.8 9.6 6.6 4.4 14 7.6 21.7 9.5 2.8.7 5.6 1.2 8 2.8 2.3 1.6 4 4.7 3 7.4s-4.2 3.9-7.1 3.7c-2.8-.2-5.5-1.4-8.2-2.1-5.2-1.3-11.5-.3-14.2 4.4-1.8 3-1.5 7-.1 10.2 1.4 3.2 3.9 5.9 6.5 8.3 9 8.4 20 14.8 31.9 17.5 11.7 2.6 22.5 2.5 33.5-2.9"/><path class="st11" d="M112.5 284.4c-1.7-8.5-4.7-18.5-9.2-29.1-4.4-10.6-10.2-21.8-16.7-33.4-1.6-2.9-3.2-5.7-4.8-8.5-1.6-2.8-3.2-5.6-4.9-8.2-3.4-5.2-7.1-10-10.7-14.5-3.6-4.4-7.2-8.5-10.6-12.3-3.4-3.8-6.6-7.3-9.7-10.3-6.1-6.1-11.7-10.4-15.6-13.2-2-1.4-3.5-2.5-4.6-3.2-.5-.3-.9-.6-1.2-.8-.3-.2-.4-.3-.4-.2 0 0 .1.1.4.3.3.2.7.5 1.2.8 1 .7 2.6 1.8 4.5 3.3 3.9 2.9 9.3 7.2 15.4 13.3 3.1 3 6.3 6.5 9.6 10.3 3.4 3.8 6.9 7.9 10.5 12.3 3.6 4.4 7.2 9.2 10.6 14.4 1.7 2.6 3.3 5.4 4.8 8.2 1.6 2.8 3.2 5.6 4.8 8.5 6.5 11.5 12.3 22.7 16.7 33.3 4.4 10.6 7.5 20.5 9.3 28.9"/><path class="st11" d="M76.8 205.2s.1-.6.2-1.6.1-2.5.2-4.3c.1-3.6.1-8.7.1-14.2 0-5.6 0-10.6.2-14.2.1-1.8.2-3.3.2-4.3.1-1 .1-1.6 0-1.6 0 0-.1.6-.3 1.6-.1 1-.3 2.5-.4 4.3-.3 3.6-.4 8.7-.4 14.3.1 5.5.1 10.4.1 14.2v4.3c.1.9.1 1.5.1 1.5z"/><path class="st11" d="M29.5 201.6h1.9c1.2 0 2.9-.1 5.1-.1 4.3 0 10.2.2 16.8.7 6.5.5 12.4 1.2 16.7 1.9 2.1.3 3.8.6 5 .8 1.2.2 1.8.3 1.9.2 0 0-.6-.2-1.8-.5-1.2-.3-2.9-.6-5-1-4.2-.8-10.2-1.6-16.7-2.1-6.6-.5-12.5-.6-16.8-.5-2.2 0-3.9.2-5.1.3-1.3.2-2 .3-2 .3zM102.7 254.5l.3-.6c.2-.5.4-1.1.6-1.8.5-1.5 1.2-3.8 2-6.6 1.7-5.6 3.7-13.3 5.8-21.9 2.1-8.6 4.1-16.3 5.6-21.9.8-2.7 1.4-4.9 1.8-6.6.2-.7.4-1.3.5-1.8.1-.4.1-.6.1-.6l-.3.6c-.2.5-.4 1.1-.6 1.8-.5 1.5-1.2 3.8-2 6.6-1.7 5.6-3.7 13.3-5.8 21.9-2.1 8.6-4.1 16.3-5.6 21.9-.8 2.7-1.4 4.9-1.8 6.6-.2.7-.4 1.3-.5 1.8-.1.4-.1.6-.1.6zM38.9 241.4s.2.1.6.2c.5.1 1.1.2 1.9.4 1.7.4 4 .8 6.8 1.4 5.8 1.2 13.7 2.9 22.5 4.9 8.8 1.9 16.8 3.6 22.6 4.7 2.9.5 5.2.9 6.9 1.2.8.1 1.4.2 1.9.3.4.1.7.1.7.1s-.2-.1-.6-.2c-.5-.1-1.1-.2-1.9-.4-1.7-.4-4-.8-6.8-1.4-5.8-1.2-13.7-2.9-22.5-4.9-8.8-1.9-16.8-3.6-22.6-4.7-2.9-.5-5.2-.9-6.9-1.2-.8-.1-1.4-.2-1.9-.3-.5-.1-.7-.1-.7-.1z"/><path class="st12" d="M118.4.7l48.8 31-19.9 33.9-50-32.9z"/><path class="st11" d="M167.2 31.7s-.1 0-.2.1c-.1 0-.3.1-.5.1-.5.1-1.2.2-2.1.4-1.8.3-4.5.8-7.7 1.3-6.5 1.1-15.5 2.5-25.5 4.2h-.2l-.1-.2c-.1-.4-.3-.8-.4-1.2-3.4-9.8-6.5-18.7-8.7-25.2-1.1-3.2-2-5.8-2.6-7.7-.3-.9-.5-1.6-.7-2.1-.1-.2-.1-.4-.2-.5 0-.1-.1-.2 0-.2 0 0 0 .1.1.2s.1.3.2.5c.2.5.4 1.2.8 2.1.7 1.8 1.6 4.4 2.7 7.6 2.3 6.5 5.4 15.3 8.8 25.2.1.4.3.8.4 1.2l-.2-.1c10-1.6 19-3 25.5-4.1 3.2-.5 5.8-.9 7.7-1.2.9-.1 1.6-.2 2.1-.3.2 0 .4 0 .5-.1h.3z"/><ellipse transform="rotate(-14.033 112.117 28.992)" class="st11" cx="112.1" cy="29" rx="15.3" ry=".2"/><ellipse transform="rotate(-8.811 144.962 50.797)" class="st11" cx="145" cy="50.8" rx=".2" ry="14.9"/><path class="st13" d="M442.1 93.5l46.7-7.6 6.2 31.6-48.5 7.1z"/><path class="st11" d="M488.8 85.9s-.1.2-.3.5c-.3.3-.6.8-1.1 1.4-1 1.2-2.3 2.9-4 5-3.4 4.2-8.1 10-13.3 16.4l-.1.1-.2-.1c-.3-.2-.6-.3-.9-.5-7.4-4.2-14.1-7.9-19-10.7-2.4-1.4-4.4-2.5-5.7-3.3-.6-.4-1.2-.7-1.6-.9-.4-.2-.5-.3-.5-.3l.6.3c.4.2.9.5 1.6.8 1.4.8 3.4 1.8 5.8 3.2 4.9 2.7 11.7 6.5 19.1 10.6.3.2.6.3.9.5l-.3.1c5.2-6.4 10-12.2 13.4-16.4 1.7-2 3.1-3.7 4.1-4.9.5-.5.8-1 1.1-1.3.3-.4.4-.5.4-.5z"/><ellipse transform="rotate(-55.66 453.624 114.205)" class="st11" cx="453.6" cy="114.2" rx="12.5" ry=".2"/><ellipse transform="rotate(-50.446 485.613 109.703)" class="st11" cx="485.6" cy="109.7" rx=".2" ry="12.2"/><path class="st14" d="M312.1 54.6L392 33.2 408.4 87l-83.1 20.8z"/><ellipse transform="rotate(-61.431 335.284 89.45)" class="st15" cx="335.3" cy="89.4" rx="20.9" ry=".2"/><ellipse transform="rotate(-56.213 390.535 75.09)" class="st15" cx="390.5" cy="75.1" rx=".2" ry="21.5"/><path class="st15" d="M312.1 54.6s.1 0 .3.1l.8.4c.7.3 1.7.8 2.9 1.4 2.5 1.2 6.2 3 10.7 5.2 9 4.5 21.5 10.6 35.2 17.4.1.1.3.1.4.2l-.3.1c8.2-12.8 15.7-24.3 21.1-32.7 2.7-4.2 4.9-7.5 6.4-9.9.8-1.1 1.3-2 1.8-2.7.2-.3.4-.5.5-.7.1-.2.2-.2.2-.2s0 .1-.1.3c-.1.2-.3.4-.4.7-.4.6-1 1.6-1.7 2.7-1.5 2.4-3.7 5.8-6.3 9.9-5.4 8.4-12.8 20-21 32.8l-.1.2-.2-.1c-.1-.1-.3-.1-.4-.2-13.7-6.8-26.1-13-35.1-17.5-4.5-2.2-8.1-4.1-10.6-5.3-1.2-.6-2.2-1.1-2.9-1.5-.3-.2-.6-.3-.7-.4l-.5-.2z"/><g><linearGradient id="SVGID_8_" gradientUnits="userSpaceOnUse" x1="30.227" y1="107.829" x2="114.815" y2="107.829"><stop offset=".004" stop-color="#01e971"/><stop offset=".642" stop-color="#00d351"/><stop offset="1" stop-color="#00cb44"/></linearGradient><path class="st16" d="M36.4 77.2l78.4 7.8-3.5 53.5-81.1-9.5z"/><ellipse transform="rotate(-40.718 45.338 116.042)" class="st15" cx="45.3" cy="116" rx="19.9" ry=".2"/><ellipse transform="rotate(-35.502 99.407 121.864)" class="st15" cx="99.4" cy="121.9" rx=".2" ry="20.4"/><g><path class="st15" d="M36.4 77.2l.2.2.6.6c.5.5 1.2 1.3 2.1 2.2 1.9 2 4.5 4.8 7.8 8.3 6.5 7 15.5 16.7 25.5 27.3l.3.3h-.3c11.7-8.6 22.2-16.4 29.8-22 3.8-2.8 6.9-5 9.1-6.6 1.1-.8 1.9-1.4 2.5-1.8.3-.2.5-.3.6-.5.1-.1.2-.1.2-.1l-.2.2c-.2.1-.4.3-.6.5-.6.4-1.4 1.1-2.4 1.8-2.1 1.6-5.2 3.9-9 6.7-7.6 5.7-18.1 13.5-29.8 22.1l-.2.1-.1-.1-.3-.3c-9.9-10.7-18.9-20.4-25.4-27.4-3.2-3.5-5.8-6.4-7.7-8.3-.9-1-1.6-1.7-2.1-2.3-.2-.3-.4-.4-.5-.6 0-.3-.1-.3-.1-.3z"/></g></g><g><linearGradient id="SVGID_9_" gradientUnits="userSpaceOnUse" x1="399.632" y1="224.681" x2="487.623" y2="224.681"><stop offset=".004" stop-color="#01e971"/><stop offset=".642" stop-color="#00d351"/><stop offset="1" stop-color="#00cb44"/></linearGradient><path class="st17" d="M484.1 157.8s-7-4.6-15.4 12.2c-8.4 16.8-11.5 26.5-11.5 26.5s-2.2 3.5-4.7 1.3c-2.4-2.3-5.8-8.7-9.9-7.5-4.2 1.2-5.6 6-4.7 13 .9 7 2.2 22.3 2.3 23.7.1 1.4-.6 3.4-2.6 2.1-1.9-1.3-12.9-13.3-18.3-7.8-5.4 5.6.2 24.5.8 26.6.6 2.1.2 3-.8 3.5s-4.3-3.9-7.6-7.2c-3.3-3.3-7.6-6.5-10.5-3.1-2.8 3.5-3.6 17.8 10.1 40.8l7.1 10.3 12.5-.8c26.7-3.3 37.4-12.8 38.4-17.1s-4.3-5.8-8.9-6.4c-4.6-.5-10.1-.5-10.3-1.6-.2-1.1.3-2 2.3-2.8 2-.8 20.4-8.1 21.5-15.8 1.1-7.7-15.2-8.9-17.4-9.6-2.2-.7-1.1-2.5.1-3.3 1.2-.8 14.1-9.1 20.1-12.7 6-3.6 8.9-7.6 7.3-11.7-1.6-4-8.7-2.6-12-3.1-3.3-.5-1.9-4.4-1.9-4.4s5.7-8.4 13.8-25.4-.1-19.7-.1-19.7"/><path class="st15" d="M476.6 172.8s0 .1-.1.4c-.1.3-.3.6-.5 1.1-.4.9-1.1 2.3-1.9 4-1.6 3.5-4 8.5-7 14.8-6 12.4-14.4 29.5-23.8 48.4s-17.8 36-23.9 48.4c-3 6.2-5.5 11.2-7.2 14.7-.8 1.7-1.5 3.1-1.9 4l-.5 1c-.1.2-.2.3-.2.3s0-.1.1-.4c.1-.3.3-.6.5-1.1.4-.9 1.1-2.3 1.9-4 1.6-3.5 4-8.5 7-14.8 6-12.4 14.4-29.5 23.8-48.4s17.8-35.9 23.9-48.3c3-6.2 5.5-11.2 7.2-14.7.8-1.7 1.5-3.1 1.9-4l.5-1c.1-.3.2-.4.2-.4z"/><path class="st15" d="M447 199.4s.1.3.3.8c.2.5.4 1.4.7 2.3.6 2 1.3 4.8 2.1 7.8.7 3 1.4 5.8 1.9 7.9.2.9.4 1.7.6 2.4.1.6.2.9.2.9s-.1-.3-.3-.8c-.2-.6-.4-1.4-.7-2.4-.6-2-1.3-4.8-2-7.8-.8-3-1.4-5.7-2-7.9-.2-.9-.4-1.7-.6-2.4-.2-.4-.3-.7-.2-.8z"/><ellipse transform="rotate(-16.518 466.509 218.054)" class="st15" cx="466.6" cy="218.1" rx="13.2" ry=".2"/><path class="st15" d="M438.2 250.1s.3 0 .9-.1h2.5c2.1 0 5 0 8.3-.2 3.2-.1 6.1-.4 8.2-.6 1-.1 1.8-.2 2.5-.2.6 0 .9-.1.9 0 0 0-.3.1-.9.2-.6.1-1.4.2-2.5.3-2.1.3-5 .5-8.3.7-3.2.2-6.2.1-8.3.1-1.1 0-1.9-.1-2.5-.1-.4 0-.8 0-.8-.1zM427.5 231.3s.2.2.5.7c.3.5.7 1.1 1.2 2 1 1.7 2.4 4 3.9 6.6 1.5 2.6 2.9 4.9 3.8 6.6.5.9.9 1.5 1.1 2 .3.5.4.8.4.8s-.2-.2-.5-.7c-.3-.5-.7-1.1-1.2-2-1-1.7-2.4-4-3.9-6.6-1.5-2.6-2.9-4.9-3.8-6.6-.5-.9-.9-1.5-1.1-2-.3-.5-.4-.8-.4-.8zM410.5 254.5l.6.9c.4.7.9 1.5 1.6 2.5 1.3 2.1 3.1 5.1 5.1 8.4 2 3.3 3.7 6.3 5 8.4.6 1 1.1 1.9 1.5 2.6l.5 1-.6-.9c-.4-.7-.9-1.5-1.6-2.5-1.3-2.1-3.1-5.1-5.1-8.4-2-3.3-3.7-6.3-5-8.4-.6-1-1.1-1.9-1.5-2.6-.4-.6-.5-1-.5-1z"/><g><path class="st15" d="M424.5 277.6s.4-.1 1.2-.1c.8 0 1.9-.1 3.2-.1 2.7-.1 6.4-.3 10.5-.6s7.8-.7 10.4-.9c1.3-.1 2.3-.2 3.2-.3.7-.1 1.2-.1 1.2-.1s-.4.1-1.1.2c-.7.1-1.8.3-3.1.5-2.7.4-6.4.8-10.4 1.1-4.1.3-7.8.4-10.5.5h-3.2c-.9-.1-1.4-.1-1.4-.2z"/></g></g><g><path class="st18" d="M75.6 268.9c-3.9.5-7.3 2.7-10.1 5.4-1.5 1.5-2.9 3.2-3.2 5.3-.3 2.1 1.1 4.5 3.2 4.6 1.2.1 2.4-.6 3.4-1.3 2.4-1.8 4.9-4.1 7.9-4 1.7.1 3.5.9 5.1.4 1.6-.5 2.5-2.3 2.4-4-.1-1.7-1.2-3.2-2.4-4.3 0 .1-2.4-2.6-6.3-2.1z"/><g class="st19"><linearGradient id="SVGID_10_" gradientUnits="userSpaceOnUse" x1="62.236" y1="276.55" x2="84.284" y2="276.55"><stop offset="0" stop-color="#fdf83c"/><stop offset=".676" stop-color="#fe9828"/><stop offset="1" stop-color="#ff6f1f"/></linearGradient><path class="st20" d="M75.6 268.9c-3.9.5-7.3 2.7-10.1 5.4-1.5 1.5-2.9 3.2-3.2 5.3-.3 2.1 1.1 4.5 3.2 4.6 1.2.1 2.4-.6 3.4-1.3 2.4-1.8 4.9-4.1 7.9-4 1.7.1 3.5.9 5.1.4 1.6-.5 2.5-2.3 2.4-4-.1-1.7-1.2-3.2-2.4-4.3 0 .1-2.4-2.6-6.3-2.1z"/></g><path class="st18" d="M73.3 251.8c0 3.7-3.9 5.2-6.6 4.8-2.6-.4-4.8-2.1-6.9-3.8-4.7-3.8-9.6-7.9-12-13.4-.7-1.7-1.2-3.5-.9-5.3.3-1.8 1.4-3.5 3.1-4.2 2-.7 4.2.2 6.1 1.2 5.5 3.1 10.3 7.4 14 12.6 1.6 2.4 3.1 5.1 3.2 8.1"/><g class="st19"><linearGradient id="SVGID_11_" gradientUnits="userSpaceOnUse" x1="46.762" y1="243.143" x2="73.261" y2="243.143"><stop offset="0" stop-color="#fdf83c"/><stop offset=".676" stop-color="#fe9828"/><stop offset="1" stop-color="#ff6f1f"/></linearGradient><path class="st21" d="M73.3 251.8c0 3.7-3.9 5.2-6.6 4.8-2.6-.4-4.8-2.1-6.9-3.8-4.7-3.8-9.6-7.9-12-13.4-.7-1.7-1.2-3.5-.9-5.3.3-1.8 1.4-3.5 3.1-4.2 2-.7 4.2.2 6.1 1.2 5.5 3.1 10.3 7.4 14 12.6 1.6 2.4 3.1 5.1 3.2 8.1"/></g><linearGradient id="SVGID_12_" gradientUnits="userSpaceOnUse" x1="72.521" y1="235.277" x2="90.133" y2="235.277"><stop offset="0" stop-color="#fdf83c"/><stop offset=".676" stop-color="#fe9828"/><stop offset="1" stop-color="#ff6f1f"/></linearGradient><path class="st22" d="M80.5 252c-3.5-.9-6.1-3.9-7.2-7.3-1.1-3.4-.9-7.1-.1-10.6 1-4.1 2.7-8 5.2-11.4 1-1.3 2.1-2.6 3.5-3.5 1.4-.8 3.3-1.1 4.7-.3 2.2 1.1 2.8 3.9 3 6.3.5 4.3.6 8.6.4 12.9-.2 3.5-.6 7.1-2.5 9.9-1.9 2.9-4.8 4.7-7.4 3.8"/><path class="st15" d="M99.6 289.1s-.4-.3-.9-1c-.7-.8-1.5-1.7-2.5-2.9-1.1-1.2-2.3-2.6-3.9-4-1.5-1.4-3.4-2.8-5.4-4.2-2-1.3-4.1-2.3-6.1-2.9-2-.6-3.9-.7-5.4-.4-1.5.2-2.7.7-3.5 1.1-.8.4-1.2.7-1.2.6 0 0 .4-.3 1.1-.8.8-.5 2-1 3.6-1.3 1.6-.3 3.6-.3 5.6.3 2.1.6 4.2 1.6 6.3 2.9 2 1.4 3.9 2.8 5.4 4.3 1.5 1.5 2.8 2.9 3.8 4.1 1 1.2 1.8 2.3 2.3 3 .6.8.9 1.2.8 1.2z"/><path class="st15" d="M97.8 286.9s-.2-.2-.4-.5c-.3-.4-.6-.9-1-1.5-.9-1.3-2.2-3.2-3.9-5.4-3.4-4.6-8.3-10.7-14-17.2-5.7-6.5-11.2-12.1-15.3-16-1-1-2-1.9-2.8-2.6-.8-.8-1.5-1.4-2.2-1.9-.6-.5-1-.9-1.4-1.2-.3-.3-.5-.4-.5-.5 0 0 .2.1.5.4.4.3.9.7 1.4 1.1.6.5 1.4 1.1 2.2 1.9.9.7 1.8 1.6 2.9 2.5 4.2 3.8 9.7 9.4 15.5 15.9 5.7 6.5 10.6 12.7 13.9 17.3 1.7 2.3 2.9 4.2 3.8 5.6.4.6.7 1.1 1 1.6.2.3.3.5.3.5z"/><g><path class="st15" d="M89 274.5s-.4-.5-1.1-1.6c-.6-1-1.5-2.6-2.5-4.6-.9-2-2-4.4-2.9-7.1-1-2.7-1.9-5.8-2.5-9.1-1.4-6.6-1.4-12.8-.7-17.1.1-1.1.4-2.1.6-2.9l.3-1.2c.1-.3.2-.7.4-1 .4-1.2.7-1.8.7-1.8.1 0-1 2.5-1.6 6.9-.6 4.3-.5 10.4.9 16.9.7 3.3 1.5 6.3 2.5 9 .9 2.7 1.9 5.1 2.8 7.1.9 2 1.7 3.6 2.3 4.6.5 1.3.9 1.9.8 1.9z"/></g></g><g><path class="st23" d="M407.7 313.3H110.4c-8 0-14.6-6.5-14.6-14.6V112c0-8 6.5-14.6 14.6-14.6h297.3c8 0 14.6 6.5 14.6 14.6v186.7c0 8-6.6 14.6-14.6 14.6z"/><path class="st23" d="M418 316.2H100c-9.8 0-17.8-8-17.8-17.8v-1.1h353.6v1.1c0 9.8-7.9 17.8-17.8 17.8z"/><path class="st24" d="M104.6 106h308v182.3h-308zM226.9 297.3l4.4 7H293l4.1-7z"/><g><path class="st12" d="M403.6 287.7H114.2c-1.8 0-3.3-1.5-3.3-3.3v-169c0-1.8 1.5-3.3 3.3-3.3h289.4c1.8 0 3.3 1.5 3.3 3.3v169c0 1.8-1.5 3.3-3.3 3.3z"/><path class="st25" d="M111 125h295.9v162.7H111z"/><circle class="st26" cx="132.9" cy="118.9" r="2.4"/><circle class="st26" cx="118.5" cy="118.9" r="2.4"/><circle class="st26" cx="125.4" cy="118.9" r="2.4"/></g><g><path class="st26" d="M419.5 297.3c0 .1-72.4.2-161.8.2s-161.8-.1-161.8-.2 72.4-.2 161.8-.2c89.3 0 161.8.1 161.8.2z"/></g></g><g><ellipse transform="matrix(.06905 -.9976 .9976 .06905 -65.504 377.823)" class="st25" cx="169.7" cy="224" rx="5.9" ry=".2"/><linearGradient id="SVGID_13_" gradientUnits="userSpaceOnUse" x1="153.048" y1="210.737" x2="386.342" y2="210.737"><stop offset=".004" stop-color="#01e971"/><stop offset=".642" stop-color="#00d351"/><stop offset="1" stop-color="#00cb44"/></linearGradient><path class="st27" d="M376.8 214.1c-16.6-25.7-33.9-54.5-33.9-54.5-15-18.3-27.1-24.7-50.8-25.7l-46-.2c-9.1.5-30.1-4.2-49.6 23.8l-.1-.1s-17.3 28.8-33.9 54.5c-18.6 28.8-7.5 58.8 12.4 60.5 20.1 1.8 32.6 2.3 39.3 2.5l-.3 12.9 106.8-.2-1.1-14.5c10.7 0 40.4-.1 44.7-.7 19.9-2.4 31.2-29.4 12.5-58.3zm-161-5.7l-.7 30-18.7.1 19.4-30.1zm105.9 32.2l2.9-28.5 18.4 28.5h-21.3z"/><path class="st15" d="M290.4 132.5v.7c0 .4 0 1.1-.1 1.9-.1.8-.3 1.8-.6 3-.3 1.1-.7 2.4-1.4 3.8-1.3 2.7-3.3 5.7-6.4 8.3-3.1 2.5-7.3 4.3-11.9 4.6-4.6.3-9-1-12.3-3.2-3.3-2.2-5.5-5.2-6.8-7.9-1.3-2.7-1.9-5.1-2.1-6.7-.1-.8-.2-1.5-.2-1.9v-.7s0 .2.1.7c0 .4.1 1.1.2 1.9.3 1.6.9 4 2.2 6.6 1.4 2.6 3.5 5.5 6.8 7.7 3.2 2.2 7.6 3.4 12 3.1 4.5-.3 8.6-2 11.6-4.5 3.1-2.4 5.1-5.4 6.4-8.1.6-1.3 1.1-2.6 1.4-3.7.3-1.1.5-2.1.6-2.9.1-.8.2-1.5.2-1.9.2-.5.2-.8.3-.8z"/><ellipse transform="matrix(.04387 -.999 .999 .04387 122.628 505.587)" class="st15" cx="325.5" cy="188.7" rx="27.5" ry=".2"/><path class="st15" d="M218 161.3v7.1c0 4.4-.1 10.4-.4 17.1-.3 6.7-.8 12.7-1.2 17-.2 2.2-.4 3.9-.5 5.1-.1.6-.1 1-.2 1.4 0 .3-.1.5-.1.5v-.5c0-.4.1-.8.1-1.4.1-1.3.2-3 .4-5.2.3-4.4.7-10.4 1-17 .3-6.7.5-12.7.5-17 0-2.1.1-3.9.1-5.2v-1.4c.3-.4.3-.5.3-.5zM315.7 272s0-.2-.1-.6c0-.4-.1-1-.2-1.8-.1-1.6-.3-3.8-.6-6.6-.4-5.6-1.1-13.5-1.8-22.5v-.2h.2c3.3.1 6.9.1 10.5.2 11.6.2 22.1.4 29.8.5 3.8.1 6.9.2 9 .2 1 0 1.9.1 2.5.1H365.6h-3.1c-2.2 0-5.2 0-9-.1-7.6-.1-18.1-.3-29.8-.4-3.6-.1-7.2-.1-10.5-.2l.2-.2c.7 9 1.2 16.9 1.6 22.5.2 2.8.3 5 .4 6.6 0 .7.1 1.3.1 1.8.2.5.2.7.2.7z"/><path class="st15" d="M361.8 235.3c0 .1-1.2 0-3 .1s-4.4.4-7.1 1.2c-2.7.8-5 2-6.6 2.9-1.6.9-2.5 1.6-2.5 1.6s.2-.2.6-.5c.4-.3 1-.8 1.8-1.3 1.6-1 3.9-2.2 6.6-3.1 2.7-.8 5.3-1.1 7.2-1.1.9 0 1.7 0 2.2.1.6 0 .8 0 .8.1zM220.4 275.1v-.2c0-.1 0-.3.1-.5.1-.5.2-1.2.3-2.1.3-1.9.6-4.5 1-7.8.9-6.6 2.2-15.8 3.7-26.1l.2.2c-1.8 0-3.7-.1-5.7-.1-11.8-.1-22.5.1-30.2.1-3.9 0-7-.1-9.2-.1-1.1 0-1.9-.1-2.5-.1h-.8 12.5c7.7 0 18.4-.3 30.2-.2 2 0 3.9.1 5.7.1h.2v.2c-1.5 10.3-2.8 19.5-3.8 26.1-.5 3.3-.9 5.9-1.2 7.7-.1.9-.3 1.6-.3 2.1 0 .2-.1.4-.1.5-.1.1-.1.2-.1.2z"/><path class="st15" d="M196 238.8s-.7-.5-1.6-1.4c-1-.9-2.2-2.2-3.6-3.8-1.3-1.5-2.4-3-3.2-4.1-.8-1.1-1.2-1.8-1.1-1.8.1 0 .6.6 1.4 1.7.8 1 1.9 2.5 3.2 4 1.3 1.5 2.5 2.9 3.4 3.8 1 .9 1.5 1.5 1.5 1.6z"/><ellipse transform="rotate(-26.735 240.595 163.065)" class="st25" cx="240.6" cy="163.1" rx=".2" ry="7"/><path class="st25" d="M289.5 168.7s-.6.7-1.6 1.7c-1.1 1-2.6 2.3-4.4 3.6-1.8 1.3-3.5 2.4-4.7 3.1-1.3.7-2.1 1.1-2.1 1 0-.1.7-.5 1.9-1.3s2.9-1.9 4.6-3.1c1.8-1.3 3.3-2.5 4.4-3.5 1.1-.9 1.8-1.5 1.9-1.5z"/><ellipse transform="rotate(-37.172 306.935 158.834)" class="st25" cx="306.9" cy="158.8" rx=".2" ry="7.4"/><ellipse transform="rotate(-28.586 305.02 195.952)" class="st25" cx="305" cy="196" rx="5.6" ry=".2"/><ellipse transform="matrix(.02072 -.9998 .9998 .02072 146.798 525.714)" class="st25" cx="341.8" cy="187.9" rx="7.7" ry=".2"/><ellipse transform="rotate(-3.444 346.367 218.34)" class="st25" cx="346.4" cy="218.3" rx="8.4" ry=".2"/><ellipse transform="rotate(-3.696 375.474 226.302) scale(.99998)" class="st25" cx="375.5" cy="226.3" rx=".2" ry="8"/><ellipse transform="rotate(-43.679 360.976 260.72)" class="st25" cx="361" cy="260.7" rx="8.4" ry=".2"/><path class="st25" d="M331.7 261.5s-.6-.2-1.5-.7c-.9-.5-2.1-1.3-3.2-2.3-1.1-1.1-2-2.2-2.6-3-.6-.8-.8-1.4-.8-1.4.1-.1 1.4 2.1 3.7 4.1 2.2 2.1 4.4 3.2 4.4 3.3z"/><ellipse transform="rotate(-40.527 233.37 192.526)" class="st25" cx="233.4" cy="192.5" rx="7.2" ry=".2"/><path class="st25" d="M261.4 198.9c-.1.1-1.3-1.4-2.2-3.4-.9-2.1-1.2-3.9-1.1-3.9.1 0 .6 1.7 1.5 3.7.9 2.1 1.9 3.6 1.8 3.6z"/><ellipse transform="rotate(-38.875 215.01 148.322)" class="st25" cx="215" cy="148.3" rx="8.9" ry=".2"/><path class="st25" d="M206.3 185.5c-.1 0-1-2.7-2.6-5.8-1.5-3.2-3.1-5.6-3-5.6 0 0 .5.5 1.1 1.5.6 1 1.5 2.4 2.2 3.9.8 1.6 1.4 3.1 1.7 4.2.5 1.1.6 1.8.6 1.8zM199.8 203.4s-.7.4-2 .9c-1.3.4-3.1.9-5.2 1.3-2.1.3-3.9.5-5.3.4-1.4 0-2.2-.1-2.2-.1 0-.1.8-.1 2.2-.2 1.3-.1 3.2-.2 5.2-.6 2-.3 3.8-.8 5.1-1.2 1.4-.3 2.2-.5 2.2-.5z"/><ellipse transform="rotate(-32.167 175.548 253.148)" class="st25" cx="175.5" cy="253.1" rx="8.4" ry=".2"/><ellipse transform="rotate(-19.881 201.419 255.494)" class="st25" cx="201.4" cy="255.5" rx=".2" ry="10.2"/><ellipse transform="rotate(-24.824 226.37 225.638)" class="st25" cx="226.4" cy="225.6" rx=".2" ry="5.8"/><path class="st25" d="M319.2 216.2c.1 0-.2.7-.7 1.8-.5 1.1-1.1 2.6-1.7 4.3-.7 1.7-1.2 3.3-1.6 4.4-.4 1.1-.7 1.8-.7 1.8-.1 0 .1-.7.4-1.9.3-1.2.9-2.7 1.5-4.5.7-1.7 1.3-3.2 1.9-4.3.5-1 .9-1.7.9-1.6zM243.3 282.2c0 .1-.9 0-2.2 0-1.4 0-3.3 0-5.4.3-2.1.2-4 .6-5.3.9-1.3.3-2.2.5-2.2.5s.8-.4 2.1-.8 3.2-.8 5.3-1c2.1-.2 4-.2 5.4-.1 1.4 0 2.3.1 2.3.2zM265.2 283.8c-.1.1-1.4-2.2-3.5-4.6-2.1-2.4-4.2-4-4.1-4.1 0 0 .6.3 1.4.9.8.7 1.9 1.6 3 2.9 1.1 1.2 1.9 2.4 2.4 3.3.6.9.8 1.5.8 1.6z"/><ellipse transform="rotate(-31.035 284.26 280.413)" class="st25" cx="284.3" cy="280.4" rx="5.9" ry=".2"/><g><ellipse transform="rotate(-84.019 311.418 282.235)" class="st25" cx="311.4" cy="282.2" rx=".2" ry="3.6"/></g><g><path class="st28" d="M284 77.1c-.3 1.4.2 2.9 1.3 3.7 1.1.8 2.8.9 4 .2 2.3-1.3 2.4-4.6 1.8-7.2-.6-2.6-1.7-5.3-.7-7.8.7-1.9 2.5-3.2 3.8-4.7 2.3-2.7 3.4-6.5 2.6-9.9-.8-3.5-3.6-6.5-7.1-7.2-3.5-.8-7.8.5-10.5-1.8-2-1.7-2.3-4.7-3.8-6.8-2.5-3.3-7.3-3.5-11.3-2.7-4 .8-8 2.3-12 1.5-3.3-.6-6.2-2.8-9.4-4-6.9-2.7-15.4-.5-20.1 5.1-4.8 5.6-5.5 14.4-1.7 20.7 1.4 2.3 3.3 4.3 5.8 5.2"/><path class="st29" d="M270.5 152.6c-11.1.9-20.9-7.4-21.9-18.5-.5-6.4-1-11.7-1-11.7S231.3 121 230 105c-1.3-16.1-1.1-51.1-1.1-51.1v-2.1c18.1-9.3 39.9-6.4 56.8 4.9l.2 3.3 3.2 72.2c.2 10.5-8 19.5-18.6 20.4z"/><path class="st15" d="M236.8 78.9c2-.9 1.9-3.6-.1-4.4-.5-.2-1.1-.2-1.7.1-2 .9-1.9 3.6.1 4.4.6.2 1.2.2 1.7-.1z"/><path class="st15" d="M231 75.6c.3.3 1.8-1.1 4-1.2 2.2-.2 3.9.9 4.1.6.1-.1-.2-.6-.9-1.1-.7-.5-1.9-.9-3.3-.8-1.4.1-2.5.7-3.1 1.3-.7.5-.9 1-.8 1.2z"/><ellipse transform="rotate(-35.6 259.077 77.03)" class="st15" cx="259.1" cy="77" rx="2.3" ry="2.3"/><path class="st15" d="M254.6 75.9c.3.3 1.8-1.1 4-1.2 2.2-.2 3.9.9 4.1.6.1-.1-.2-.6-.9-1.1-.7-.5-1.9-.9-3.3-.8-1.4.1-2.5.7-3.1 1.3-.7.6-.9 1.1-.8 1.2zM247 94.8c0-.2-1.4-.3-3.6-.5-.6 0-1.1-.1-1.1-.4-.1-.4.1-1 .3-1.7.5-1.5.9-3 1.4-4.6 2-6.6 3.3-12 3-12.1-.3-.1-2.2 5.2-4.1 11.8-.5 1.6-.9 3.1-1.3 4.7-.2.7-.5 1.5-.2 2.4.2.5.7.8 1 .8.4.1.7.1 1 .1 2.2-.2 3.6-.3 3.6-.5z"/><g><path class="st30" d="M254.4 96.8c2.2-1.5-6.1 3.8-10.6 3.9 0 0 2.9 4 7.4 1.9 4.6-2.1 3.2-5.8 3.2-5.8z"/></g><g><path class="st31" d="M247.6 122.1s10.2.1 20.6-7.4c0 0-4.1 11.9-20.3 11.6l-.3-4.2z"/></g><g><path class="st29" d="M285.7 70.6c.3-.1 11.9-1.7 10.9 12s-14.5 8.2-14.5 7.8c0-.4 3.6-19.8 3.6-19.8z"/><path class="st31" d="M286.7 85.9c.1 0 .2.2.6.4.4.2 1 .4 1.8.2 1.5-.4 2.9-2.6 3.1-5.1.1-1.2-.1-2.5-.4-3.5-.3-1-.9-1.8-1.7-2-.7-.2-1.3.2-1.5.6-.2.4-.1.6-.2.7 0 0-.3-.3-.1-.8.1-.3.3-.6.6-.8.3-.2.8-.3 1.3-.3 1.1.1 1.9 1.2 2.3 2.3.5 1.1.7 2.5.6 3.9-.3 2.8-1.9 5.2-3.9 5.7-1 .2-1.8-.2-2.2-.5-.3-.5-.4-.8-.3-.8z"/></g><g><path class="st15" d="M264 67.3c-.4.5-2.8-.7-5.9-.7-3.2-.1-5.6 1.1-5.9.6-.2-.2.3-.9 1.3-1.5s2.7-1.2 4.6-1.2c1.9 0 3.6.6 4.6 1.3 1 .6 1.4 1.2 1.3 1.5z"/></g><g><path class="st15" d="M238.8 68.2c-.1.6-1.9.7-3.9.7s-3.7 0-3.9-.5c-.2-.5 1.5-1.5 3.9-1.6 2.3 0 4 .9 3.9 1.4z"/></g><g><path class="st15" d="M225.5 60.6s9.9 4.3 22.3-2.4c8.1-4.5 17.7-6.8 19.9-5.2 2.2 1.6 3 10.1 11.3 12.3 0 0 0 16.3 6.5 15.5 6.5-.8 1.5-26 1.5-26l-15.3-10.2-17.5-2.6-19.1 2.8-10.6 7 1 8.8zM287.7 41.1c0 .1-1.7 0-3.6.8-1.9.8-2.9 2.2-3 2.1 0 0 .2-.4.6-.9.5-.5 1.2-1.1 2.2-1.6 1-.4 2-.6 2.6-.6.8 0 1.2.2 1.2.2zM280.7 35c.1 0 .2.5.4 1.5.1.9.3 2.2.1 3.6-.1 1.4-.5 2.7-.9 3.5-.4.8-.8 1.3-.8 1.3-.1 0 .2-.5.5-1.4.3-.9.7-2.1.8-3.4.1-1.4.1-2.6 0-3.6s-.1-1.5-.1-1.5z"/></g><g><path class="st26" d="M280.1 41.9s0 .1-.1.4c-.1.3-.2.7-.5 1.2-.5 1-1.4 2.6-3.2 3.9-.9.7-2 1.2-3.3 1.6-1.3.4-2.8.4-4.3.1-1.5-.3-3.1-1.1-4.5-2.3-1.3-1.2-2.5-2.8-3-4.7-.3-1-.3-2-.2-3 .2-1 .6-2.1 1.5-2.8.8-.8 1.9-1.3 3.1-1.2 1.2.1 2.3.8 3 1.7.7 1 1.1 2.2 1 3.4-.1 1.2-.6 2.4-1.4 3.4-1.5 2-3.7 3.4-6.2 4.4-2.4.9-5.2 1.3-7.9 1.1-2.7-.3-5.5-1.2-7.8-2.8-1.2-.8-2.2-1.9-2.9-3.2-.3-.6-.6-1.3-.7-2.1-.1-.7-.1-1.5.1-2.2.2-.7.5-1.4 1-2 .5-.6 1.1-1.1 1.9-1.3 1.5-.5 3.2 0 4.4.8 1.3.9 2.2 2.2 2.8 3.6.5 1.4.7 3 .5 4.4-.5 3-2.5 5.5-5 6.9-2.5 1.5-5.5 1.8-8.2 1.4-2.7-.4-5.3-1.5-7.3-3.2-1-.9-1.8-1.9-2.4-3.1-.5-1.2-.7-2.5-.6-3.7.2-1.2.7-2.5 1.7-3.3.9-.8 2.2-1.3 3.4-1.1 1.2.2 2.2.9 2.9 1.9.6 1 .9 2.1.8 3.2-.2 2.2-1.4 4.2-3.1 5.2-1.7 1.1-3.7 1.3-5.5 1.2-1.8-.2-3.4-.7-4.8-1.5-2.8-1.5-4.4-4.1-4.6-6.3-.2-2.2.6-3.9 1.4-4.8.4-.4.7-.7 1-.9.2-.2.4-.2.4-.2s-.6.3-1.3 1.2c-.7.9-1.5 2.5-1.3 4.7.2 2.2 1.8 4.6 4.5 6.1 1.3.7 2.9 1.3 4.7 1.4 1.7.1 3.6-.1 5.3-1.2 1.6-1 2.8-2.9 3-5 .1-1-.2-2.1-.8-3-.6-.9-1.5-1.6-2.6-1.7-1.1-.2-2.2.3-3.1 1.1-.9.8-1.4 1.9-1.5 3.1-.2 1.2 0 2.4.5 3.5s1.3 2.1 2.3 3c1.9 1.6 4.5 2.7 7.1 3.1 2.6.4 5.5.1 7.9-1.3 2.4-1.4 4.3-3.8 4.8-6.6.2-1.4.1-2.9-.5-4.2-.5-1.3-1.4-2.6-2.6-3.4-1.2-.8-2.7-1.2-4.1-.8-.7.2-1.2.6-1.7 1.2-.4.5-.7 1.2-.9 1.9-.2.7-.2 1.4-.1 2.1.1.7.4 1.3.7 2 .7 1.2 1.7 2.2 2.8 3 2.3 1.6 5 2.5 7.6 2.7 2.7.2 5.3-.1 7.7-1 2.4-.9 4.6-2.3 6-4.3.7-1 1.2-2.1 1.3-3.2.1-1.1-.2-2.3-.9-3.2-.6-.9-1.6-1.6-2.7-1.6-1.1-.1-2.1.4-2.8 1.1-.8.7-1.2 1.7-1.4 2.7-.2 1-.1 2 .2 2.9.5 1.9 1.6 3.4 2.9 4.6 1.3 1.2 2.8 1.9 4.3 2.2 1.5.3 3 .3 4.2 0 1.3-.3 2.4-.9 3.3-1.5 1.8-1.3 2.7-2.8 3.2-3.8.2-.5.4-.9.5-1.2 0-.5.1-.7.1-.7z"/></g><g><path class="st26" d="M296 58l-.1.1c-.1.1-.2.2-.4.3-.3.3-.8.6-1.6.9-.7.3-1.7.5-2.8.5-1.1 0-2.4-.4-3.6-1.2-1.2-.8-2.2-2-2.7-3.6-.3-.8-.4-1.7-.2-2.6.1-.4.3-.9.7-1.2.4-.3 1-.4 1.5-.2s.8.6 1 1.1c.2.4.3.9.4 1.5 0 1-.2 2-.7 2.9-.9 1.8-2.7 3.3-4.9 3.6-2.2.3-4.4-.5-5.7-2.1-.7-.8-1.1-1.9-.8-2.9.2-1 1-1.9 2-2 1-.1 2 .3 2.5 1 .6.7.8 1.6.8 2.5 0 1.7-1 3.2-2.1 4-1.1.9-2.5 1.2-3.6 1.1-1.1-.1-2-.5-2.7-.9-.6-.5-1-.9-1.3-1.3-.2-.3-.3-.5-.3-.5s.4.8 1.7 1.7c.6.4 1.5.8 2.6.8 1.1.1 2.3-.3 3.4-1.1 1-.8 1.9-2.2 1.9-3.8 0-.8-.2-1.6-.7-2.2-.5-.6-1.4-1-2.2-.9-.8.1-1.5.9-1.7 1.7-.2.9.2 1.8.8 2.5 1.2 1.5 3.3 2.2 5.4 1.9 2-.2 3.8-1.6 4.6-3.4.4-.9.6-1.8.6-2.7 0-.9-.4-1.8-1.1-2.2-.4-.2-.8-.1-1.1.1-.3.2-.5.6-.6 1-.2.8-.1 1.6.2 2.4.5 1.5 1.5 2.7 2.6 3.5 1.1.8 2.3 1.1 3.4 1.2 1.1.1 2-.1 2.7-.4 1.5-.5 2.1-1.2 2.1-1.1z"/></g></g><g><linearGradient id="SVGID_14_" gradientUnits="userSpaceOnUse" x1="234.186" y1="245.088" x2="304.9" y2="245.088"><stop offset="0" stop-color="#fdf83c"/><stop offset=".676" stop-color="#fe9828"/><stop offset="1" stop-color="#ff6f1f"/></linearGradient><path class="st32" d="M235.8 221.3l68.3 1.1.8 46.5-70.7-2.4z"/><path class="st29" d="M235.8 221.3l35.4-27.3 32.9 28.4"/><ellipse transform="rotate(-45.442 246.89 253.659)" class="st15" cx="246.9" cy="253.6" rx="18.1" ry=".2"/><ellipse transform="rotate(-40.226 293.48 255.427)" class="st15" cx="293.5" cy="255.4" rx=".2" ry="17.7"/><g><path class="st15" d="M304.1 222.4L269.2 249l-33.4-27.7"/></g><g><path class="st30" d="M239.2 223.9l.4-19.9h59.8l.2 21.8-30.4 22.8z"/></g><g><path class="st29" d="M235.2 238s-1 10.3 1.5 10.3c4.4-.1 21.1-4.4 22.3-1.2s-4.3 6.3-4.3 6.3 5.4 1 2.7 3.8c-2.6 2.8-11.6 16.5-17.4 16.8-8.3.4-19-2.4-19-2.4l4.4-30.3 9.8-3.3z"/><path class="st31" d="M256.7 251.8s-.2.2-.7.5c-.5.3-1.2.7-2 1.2-1.8 1-4.3 2.1-7.2 3.2-2.9 1-5.6 1.7-7.6 2-1 .2-1.8.3-2.3.4-.6.1-.9.1-.9.1 0-.1 1.2-.3 3.2-.7 1.9-.4 4.6-1.1 7.5-2.1 2.9-1 5.4-2.2 7.2-3 1.7-1 2.8-1.6 2.8-1.6zM256.3 259.1l-.6.6c-.4.4-1 .9-1.8 1.5-1.6 1.2-3.9 2.8-6.7 4-2.8 1.2-5.5 1.8-7.5 2.1-1 .1-1.8.2-2.4.2h-.9c0-.1 1.2-.2 3.2-.5s4.6-1 7.4-2.2c2.8-1.2 5.1-2.7 6.7-3.8 1.6-1.1 2.5-1.9 2.6-1.9z"/></g><g><path class="st29" d="M304.4 237.8s.9 8.6-2.3 9.8c-4.1 1.5-21.1-4.4-22.3-1.2-1.2 3.2 4.3 6.3 4.3 6.3s-5.4 1-2.7 3.8c2.6 2.8 11.6 16.5 17.4 16.8 8.3.4 17-1.2 17-1.2l-2.4-31.5-9-2.8z"/><path class="st31" d="M282 251.1c0-.1 1.1.5 2.9 1.4 1.8.9 4.3 2 7.2 3 2.9 1 5.5 1.7 7.5 2.1 1.9.4 3.2.6 3.2.7 0 0-.3 0-.9-.1-.6-.1-1.4-.2-2.3-.4-2-.4-4.7-1-7.6-2-2.9-1-5.4-2.2-7.2-3.2-.9-.5-1.6-.9-2-1.2-.6-.1-.8-.3-.8-.3zM282.9 258.4c0-.1.9.8 2.5 1.9 1.6 1.2 3.8 2.6 6.5 3.8 2.7 1.2 5.3 1.9 7.2 2.2 1.9.3 3.1.4 3.1.5h-.9c-.5 0-1.3-.1-2.3-.2-1.9-.3-4.6-.9-7.4-2.1-2.7-1.2-5-2.8-6.5-4-.8-.6-1.4-1.1-1.7-1.5-.3-.4-.5-.6-.5-.6z"/></g></g></g><g><linearGradient id="SVGID_15_" gradientUnits="userSpaceOnUse" x1="126.612" y1="198.235" x2="133.665" y2="198.235"><stop offset="0" stop-color="#fdf83c"/><stop offset=".676" stop-color="#fe9828"/><stop offset="1" stop-color="#ff6f1f"/></linearGradient><ellipse class="st33" cx="130.1" cy="198.2" rx="3.5" ry=".2"/><linearGradient id="SVGID_16_" gradientUnits="userSpaceOnUse" x1="137.198" y1="191.205" x2="137.622" y2="191.205"><stop offset="0" stop-color="#fdf83c"/><stop offset=".676" stop-color="#fe9828"/><stop offset="1" stop-color="#ff6f1f"/></linearGradient><ellipse class="st34" cx="137.4" cy="191.2" rx=".2" ry="4.2"/><linearGradient id="SVGID_17_" gradientUnits="userSpaceOnUse" x1="141.399" y1="197.967" x2="148.452" y2="197.967"><stop offset="0" stop-color="#fdf83c"/><stop offset=".676" stop-color="#fe9828"/><stop offset="1" stop-color="#ff6f1f"/></linearGradient><ellipse class="st35" cx="144.9" cy="198" rx="3.5" ry=".2"/><g><linearGradient id="SVGID_18_" gradientUnits="userSpaceOnUse" x1="137.442" y1="204.997" x2="137.865" y2="204.997"><stop offset="0" stop-color="#fdf83c"/><stop offset=".676" stop-color="#fe9828"/><stop offset="1" stop-color="#ff6f1f"/></linearGradient><ellipse class="st36" cx="137.7" cy="205" rx=".2" ry="4.2"/></g><g><linearGradient id="SVGID_19_" gradientUnits="userSpaceOnUse" x1="140.834" y1="202.615" x2="143.365" y2="202.615"><stop offset="0" stop-color="#fdf83c"/><stop offset=".676" stop-color="#fe9828"/><stop offset="1" stop-color="#ff6f1f"/></linearGradient><path class="st37" d="M143.4 204.4c-.1.1-.7-.7-1.4-1.6-.7-1-1.2-1.8-1.1-1.9.1-.1.7.7 1.4 1.6.7 1 1.1 1.8 1.1 1.9z"/></g><g><linearGradient id="SVGID_20_" gradientUnits="userSpaceOnUse" x1="140.41" y1="193.19" x2="143.034" y2="193.19"><stop offset="0" stop-color="#fdf83c"/><stop offset=".676" stop-color="#fe9828"/><stop offset="1" stop-color="#ff6f1f"/></linearGradient><path class="st38" d="M143 191.7c.1.1-.4.8-1.1 1.7-.7.8-1.4 1.5-1.5 1.4-.1-.1.4-.8 1.1-1.7.8-.9 1.4-1.5 1.5-1.4z"/></g><g><linearGradient id="SVGID_21_" gradientUnits="userSpaceOnUse" x1="132.453" y1="193.689" x2="134.949" y2="193.689"><stop offset="0" stop-color="#fdf83c"/><stop offset=".676" stop-color="#fe9828"/><stop offset="1" stop-color="#ff6f1f"/></linearGradient><path class="st39" d="M134.9 194.9c-.1.1-.7-.4-1.4-1.1-.7-.7-1.2-1.3-1.1-1.4.1-.1.7.4 1.4 1.1.7.7 1.2 1.3 1.1 1.4z"/></g><g><linearGradient id="SVGID_22_" gradientUnits="userSpaceOnUse" x1="132.248" y1="202.014" x2="134.635" y2="202.014"><stop offset="0" stop-color="#fdf83c"/><stop offset=".676" stop-color="#fe9828"/><stop offset="1" stop-color="#ff6f1f"/></linearGradient><path class="st40" d="M134.6 200.5c.1.1-.4.8-1 1.6-.7.8-1.3 1.5-1.3 1.4-.1-.1.4-.8 1-1.6.6-.9 1.2-1.5 1.3-1.4z"/></g></g><g><linearGradient id="SVGID_23_" gradientUnits="userSpaceOnUse" x1="357.854" y1="158.413" x2="362.571" y2="158.413"><stop offset="0" stop-color="#fdf83c"/><stop offset=".676" stop-color="#fe9828"/><stop offset="1" stop-color="#ff6f1f"/></linearGradient><ellipse class="st41" cx="360.2" cy="158.4" rx="2.4" ry=".2"/><linearGradient id="SVGID_24_" gradientUnits="userSpaceOnUse" x1="364.864" y1="154.39" x2="365.287" y2="154.39"><stop offset="0" stop-color="#fdf83c"/><stop offset=".676" stop-color="#fe9828"/><stop offset="1" stop-color="#ff6f1f"/></linearGradient><ellipse class="st42" cx="365.1" cy="154.4" rx=".2" ry="2.4"/><linearGradient id="SVGID_25_" gradientUnits="userSpaceOnUse" x1="367.743" y1="158.259" x2="372.46" y2="158.259"><stop offset="0" stop-color="#fdf83c"/><stop offset=".676" stop-color="#fe9828"/><stop offset="1" stop-color="#ff6f1f"/></linearGradient><ellipse class="st43" cx="370.1" cy="158.3" rx="2.4" ry=".2"/><g><linearGradient id="SVGID_26_" gradientUnits="userSpaceOnUse" x1="365.027" y1="162.282" x2="365.45" y2="162.282"><stop offset="0" stop-color="#fdf83c"/><stop offset=".676" stop-color="#fe9828"/><stop offset="1" stop-color="#ff6f1f"/></linearGradient><ellipse class="st44" cx="365.2" cy="162.3" rx=".2" ry="2.4"/></g><g><linearGradient id="SVGID_27_" gradientUnits="userSpaceOnUse" x1="367.358" y1="160.919" x2="369.066" y2="160.919"><stop offset="0" stop-color="#fdf83c"/><stop offset=".676" stop-color="#fe9828"/><stop offset="1" stop-color="#ff6f1f"/></linearGradient><path class="st45" d="M369.1 161.9c-.1.1-.5-.3-1-.9-.5-.6-.8-1.1-.7-1.1.1-.1.5.3 1 .9.4.5.7 1 .7 1.1z"/></g><g><linearGradient id="SVGID_28_" gradientUnits="userSpaceOnUse" x1="367.076" y1="155.525" x2="368.843" y2="155.525"><stop offset="0" stop-color="#fdf83c"/><stop offset=".676" stop-color="#fe9828"/><stop offset="1" stop-color="#ff6f1f"/></linearGradient><path class="st46" d="M368.8 154.6c.1.1-.2.5-.7 1-.5.5-.9.8-1 .7-.1-.1.2-.5.7-1 .5-.4.9-.7 1-.7z"/></g><g><linearGradient id="SVGID_29_" gradientUnits="userSpaceOnUse" x1="361.755" y1="155.811" x2="363.435" y2="155.811"><stop offset="0" stop-color="#fdf83c"/><stop offset=".676" stop-color="#fe9828"/><stop offset="1" stop-color="#ff6f1f"/></linearGradient><path class="st47" d="M363.4 156.5c-.1.1-.5-.1-1-.5s-.8-.8-.7-.9c.1-.1.5.1 1 .5s.8.8.7.9z"/></g><g><linearGradient id="SVGID_30_" gradientUnits="userSpaceOnUse" x1="361.616" y1="160.575" x2="363.227" y2="160.575"><stop offset="0" stop-color="#fdf83c"/><stop offset=".676" stop-color="#fe9828"/><stop offset="1" stop-color="#ff6f1f"/></linearGradient><path class="st48" d="M363.2 159.7c.1.1-.2.5-.6 1-.4.5-.9.8-.9.7-.1-.1.2-.5.6-1 .4-.4.8-.8.9-.7z"/></g></g><g><linearGradient id="SVGID_31_" gradientUnits="userSpaceOnUse" x1="392.991" y1="155.811" x2="398.88" y2="155.811"><stop offset="0" stop-color="#fdf83c"/><stop offset=".676" stop-color="#fe9828"/><stop offset="1" stop-color="#ff6f1f"/></linearGradient><path class="st49" d="M395.9 152.9l.2.6c.4 1 1.2 1.7 2.2 2.1l.6.2-.6.2c-1 .4-1.8 1.2-2.2 2.2l-.2.4-.2-.5c-.4-.9-1.2-1.6-2.2-2l-.5-.1.7-.3c.9-.4 1.5-1.1 1.9-2l.3-.8z"/></g><g><linearGradient id="SVGID_32_" gradientUnits="userSpaceOnUse" x1="166.27" y1="166.035" x2="172.159" y2="166.035"><stop offset="0" stop-color="#fdf83c"/><stop offset=".676" stop-color="#fe9828"/><stop offset="1" stop-color="#ff6f1f"/></linearGradient><path class="st50" d="M169.2 163.2l.2.6c.4 1 1.2 1.7 2.2 2.1l.6.2-.6.2c-1 .4-1.8 1.2-2.2 2.2l-.2.4-.2-.5c-.4-.9-1.2-1.6-2.2-2l-.5-.2.7-.3c.9-.4 1.5-1.1 1.9-2l.3-.7z"/></g><g><linearGradient id="SVGID_33_" gradientUnits="userSpaceOnUse" x1="138.948" y1="242.308" x2="141.893" y2="242.308"><stop offset="0" stop-color="#fdf83c"/><stop offset=".676" stop-color="#fe9828"/><stop offset="1" stop-color="#ff6f1f"/></linearGradient><path class="st51" d="M140.4 240.9l.1.3c.2.5.6.9 1.1 1.1l.3.1-.3.1c-.5.2-.9.6-1.1 1.1l-.1.2-.1-.3c-.2-.5-.6-.8-1.1-1l-.3-.1.3-.2c.4-.2.8-.6 1-1l.2-.3z"/></g><g><linearGradient id="SVGID_34_" gradientUnits="userSpaceOnUse" x1="334.478" y1="131.748" x2="340.367" y2="131.748"><stop offset="0" stop-color="#fdf83c"/><stop offset=".676" stop-color="#fe9828"/><stop offset="1" stop-color="#ff6f1f"/></linearGradient><path class="st52" d="M337.4 128.9l.2.6c.4 1 1.2 1.7 2.2 2.1l.6.2-.6.2c-1 .4-1.8 1.2-2.2 2.2l-.2.4-.2-.5c-.4-.9-1.2-1.6-2.2-2l-.5-.2.7-.3c.9-.4 1.5-1.1 1.9-2l.3-.7z"/></g><text transform="translate(242.164 218.885)" class="st53 st54">CONGRATULATIONS</text></svg>