<svg id="Capa_1" xmlns="http://www.w3.org/2000/svg" viewBox="0 0 218.6 218.6"><style>.st0{fill:#8b919b}</style><path class="st0" d="M160.8 64.5c-1.2-1.9-2.7-3.1-4-4 0-2.3-.2-5.6-.7-9.4.4-4.5 1.7-29.4-13.5-40.6C133.1 3.7 122.7 0 112.3 0c-8.4 0-16.5 2.4-22.6 6.8-5.5 3.9-8.6 8.2-10.2 11.2-4.8.2-14.7 2.1-19.1 14.7-4.1 11.9-.8 19.3 1.7 22.7-.2 2-.2 3.7-.2 5.1-1.4.9-2.8 2.1-4 4-2.7 4.2-3.2 9.9-1.4 16.9 3.4 13 11.3 15.9 15.6 16.5 2.6 5.2 8.3 15.9 14.1 21.2 2.3 2.1 5.3 3.9 8.9 5.4 4.6 1.8 9.4 2.7 14.4 2.7s9.8-.9 14.4-2.7c3.6-1.4 6.6-3.2 8.9-5.4 5.7-5.4 11.5-16 14.1-21.2 4.2-.6 12.2-3.4 15.6-16.5 1.5-7 1-12.6-1.7-16.9zm-8.3 14.4c-2.1 7.9-5.8 9.1-7.8 9.1h-.3c-2.3-.6-4.5.6-5.5 2.8-2 4.3-8.2 16.3-13.2 21-1.4 1.3-3.3 2.4-5.7 3.4-6.8 2.7-14.6 2.7-21.4 0-2.4-1-4.3-2.1-5.7-3.4-5-4.7-11.2-16.7-13.2-21-.8-1.8-2.5-3-4.3-3-.4 0-.8 0-1.2.1h-.3c-2 0-5.7-1.2-7.8-9.1-1-3.9-1-7 0-8.8.6-1 1.5-1.4 1.7-1.4 2.7-.3 4.3-2.6 4.1-5.3 0-.1-.2-2.4 0-5.9 3.4-1.5 8.9-4.4 13.6-9.4 2.4-2.5 4.1-5.7 5.3-8.5 3.4 2.7 8.1 6 14.4 8.7 10.8 4.8 32.2 7 41.3 7.8.4 4.3.2 7.3.1 7.3-.2 2.7 1.4 5.1 4.1 5.4.3.1 1.1.4 1.7 1.4 1.1 1.8 1.1 4.9.1 8.8zm32.1 66.7l-43.7-17.5c-1.3-.5-2.7-.5-3.9.1-1.2.6-2.2 1.6-2.7 2.9l-11 30.4-2.2-6.3 3.5-8.5c.6-1.5.5-3.3-.5-4.7-.9-1.4-2.5-2.2-4.2-2.2H98.6c-1.7 0-3.2.8-4.2 2.2-.9 1.4-1.1 3.1-.5 4.7l3.5 8.5-2.2 6.3-11-30.4c-.5-1.3-1.4-2.3-2.7-2.9-1.2-.6-2.6-.6-3.9-.1L34 145.6c-13.4 5.4-22.1 18.2-22.1 32.6v35.3c0 2.8 2.2 5 5 5h184.8c2.8 0 5-2.2 5-5v-35.3c0-14.4-8.7-27.2-22.1-32.6zm-1.5 47.1c0 2.8-2.2 5-5 5h-33.6c-2.8 0-5-2.2-5-5v-15.6c0-2.8 2.2-5 5-5h33.6c2.8 0 5 2.2 5 5v15.6z"/></svg>