<?xml version="1.0" encoding="utf-8"?>
<!-- Generator: Adobe Illustrator 19.2.0, SVG Export Plug-In . SVG Version: 6.00 Build 0)  -->
<svg version="1.1" id="Слой_1" xmlns="http://www.w3.org/2000/svg" xmlns:xlink="http://www.w3.org/1999/xlink" x="0px" y="0px"
	 viewBox="0 0 396.8 354.4" style="enable-background:new 0 0 396.8 354.4;" xml:space="preserve">
<style type="text/css">
	.st0{opacity:0.41;fill:#99EAB8;enable-background:new    ;}
	.st1{fill:url(#SVGID_1_);}
	.st2{fill:#FDE0C1;}
	.st3{opacity:0.4;}
	.st4{fill:url(#SVGID_2_);}
	.st5{fill:#D6E3F7;}
	.st6{fill:url(#SVGID_3_);}
	.st7{fill:url(#SVGID_4_);}
	.st8{fill:url(#SVGID_5_);}
	.st9{fill:url(#SVGID_6_);}
	.st10{fill:url(#SVGID_7_);}
	.st11{opacity:0.5;}
	.st12{fill:url(#SVGID_8_);}
	.st13{fill:url(#SVGID_9_);}
	.st14{fill:url(#SVGID_10_);}
	.st15{fill:url(#SVGID_11_);}
	.st16{fill:url(#SVGID_12_);}
	.st17{fill:url(#SVGID_13_);}
	.st18{fill:url(#SVGID_14_);}
	.st19{fill:url(#SVGID_15_);}
	.st20{fill:#FFFFFF;}
	.st21{fill:#D97530;}
	.st22{fill:url(#SVGID_16_);}
	.st23{fill:url(#SVGID_17_);}
	.st24{fill:#FCA842;}
	.st25{fill:#1F1F1F;}
	.st26{fill:#333333;}
</style>
<circle class="st0" cx="197.1" cy="178.4" r="173.1"/>
<g>
	
		<linearGradient id="SVGID_1_" gradientUnits="userSpaceOnUse" x1="280.6333" y1="79.13" x2="356.9334" y2="79.13" gradientTransform="matrix(1 0 0 -1 0 356.28)">
		<stop  offset="3.745990e-03" style="stop-color:#01E971"/>
		<stop  offset="0.6424" style="stop-color:#00D351"/>
		<stop  offset="1" style="stop-color:#00CB44"/>
	</linearGradient>
	<path class="st1" d="M355.4,269.1h-8.9c-0.6-2.1-1.4-4-2.4-5.9l6.3-6.3c0.6-0.6,0.6-1.5,0-2.1l-9.3-9.3c-0.6-0.6-1.5-0.6-2.1,0
		l-6.3,6.3c-1.8-1-3.8-1.8-5.9-2.4v-8.9c0-0.8-0.7-1.5-1.5-1.5h-13.1c-0.8,0-1.5,0.7-1.5,1.5v8.9c-2.1,0.6-4,1.4-5.9,2.4l-6.3-6.3
		c-0.6-0.6-1.5-0.6-2.1,0l-9.3,9.3c-0.6,0.6-0.6,1.5,0,2.1l6.3,6.3c-1,1.8-1.8,3.8-2.4,5.9h-8.9c-0.8,0-1.5,0.7-1.5,1.5v13.1
		c0,0.8,0.7,1.5,1.5,1.5h8.9c0.6,2.1,1.4,4,2.4,5.9l-6.3,6.3c-0.6,0.6-0.6,1.5,0,2.1l9.3,9.3c0.6,0.6,1.5,0.6,2.1,0l6.3-6.3
		c1.8,1,3.8,1.8,5.9,2.4v8.9c0,0.8,0.7,1.5,1.5,1.5h13.1c0.8,0,1.5-0.7,1.5-1.5v-8.9c2.1-0.6,4-1.4,5.9-2.4l6.3,6.3
		c0.6,0.6,1.5,0.6,2.1,0l9.3-9.3c0.6-0.6,0.6-1.5,0-2.1l-6.3-6.3c1-1.8,1.8-3.8,2.4-5.9h8.9c0.8,0,1.5-0.7,1.5-1.5v-13.1
		C356.9,269.8,356.2,269.1,355.4,269.1z M318.7,289.2c-6.6,0-12-5.4-12-12s5.4-12,12-12s12,5.4,12,12S325.4,289.2,318.7,289.2z"/>
	<g>
		<circle class="st2" cx="318.7" cy="257.5" r="1.8"/>
		<circle class="st2" cx="318.7" cy="257.5" r="1.8"/>
		
			<ellipse transform="matrix(0.7071 -0.7071 0.7071 0.7071 -88.7778 312.3516)" class="st2" cx="332.7" cy="263.3" rx="1.8" ry="1.8"/>
		<circle class="st2" cx="338.4" cy="277.2" r="1.8"/>
		
			<ellipse transform="matrix(0.7071 -0.7071 0.7071 0.7071 -108.411 320.4955)" class="st2" cx="332.7" cy="291.1" rx="1.8" ry="1.8"/>
		<circle class="st2" cx="318.7" cy="296.8" r="1.8"/>
		
			<ellipse transform="matrix(0.7071 -0.7071 0.7071 0.7071 -116.4753 300.8697)" class="st2" cx="304.9" cy="291" rx="1.8" ry="1.8"/>
		<circle class="st2" cx="299.1" cy="277.2" r="1.8"/>
		
			<ellipse transform="matrix(0.7071 -0.7071 0.7071 0.7071 -96.8424 292.7251)" class="st2" cx="304.9" cy="263.3" rx="1.8" ry="1.8"/>
	</g>
</g>
<g class="st3">
	
		<linearGradient id="SVGID_2_" gradientUnits="userSpaceOnUse" x1="331.0135" y1="234.48" x2="348.8744" y2="234.48" gradientTransform="matrix(1 0 0 -1 0 356.28)">
		<stop  offset="3.745990e-03" style="stop-color:#01E971"/>
		<stop  offset="0.6424" style="stop-color:#00D351"/>
		<stop  offset="1" style="stop-color:#00CB44"/>
	</linearGradient>
	<circle class="st4" cx="339.9" cy="121.8" r="8.9"/>
	<g>
		<path class="st5" d="M340.7,121c0.2,0.1,0.4,0.1,0.6,0.2c0.2,0.1,0.4,0.2,0.6,0.2c0.2,0.1,0.4,0.2,0.5,0.3
			c0.2,0.1,0.3,0.3,0.4,0.4c0.1,0.2,0.2,0.3,0.3,0.6c0.1,0.2,0.1,0.5,0.1,0.7c0,0.4-0.1,0.8-0.2,1.1c-0.1,0.4-0.3,0.7-0.6,0.9
			c-0.3,0.3-0.6,0.5-1,0.7s-0.8,0.3-1.3,0.3l-0.1,0.9c0,0.1-0.1,0.2-0.1,0.3c-0.1,0.1-0.2,0.1-0.3,0.1h-0.7l0.1-1.4
			c-0.2,0-0.5-0.1-0.7-0.2s-0.5-0.2-0.7-0.3c-0.2-0.1-0.4-0.2-0.6-0.3c-0.2-0.1-0.4-0.3-0.5-0.4l0.5-0.8c0-0.1,0.1-0.1,0.2-0.2
			c0.1,0,0.2-0.1,0.3-0.1s0.2,0,0.3,0.1s0.2,0.1,0.4,0.2c0.1,0.1,0.3,0.2,0.4,0.3c0.2,0.1,0.4,0.2,0.6,0.2l0.2-2.7
			c-0.2-0.1-0.4-0.1-0.6-0.2c-0.2-0.1-0.4-0.2-0.6-0.2c-0.2-0.1-0.4-0.2-0.5-0.3c-0.2-0.1-0.3-0.3-0.4-0.5c-0.1-0.2-0.2-0.4-0.3-0.6
			s-0.1-0.5-0.1-0.8s0.1-0.7,0.2-1s0.3-0.6,0.6-0.8c0.3-0.2,0.6-0.5,0.9-0.6c0.4-0.2,0.8-0.3,1.3-0.3l0.1-0.8c0-0.1,0.1-0.2,0.1-0.3
			c0.1-0.1,0.2-0.1,0.3-0.1h0.7l-0.1,1.3c0.5,0.1,0.9,0.2,1.2,0.4c0.3,0.2,0.6,0.4,0.9,0.6l-0.4,0.6c-0.1,0.1-0.1,0.2-0.2,0.2
			c-0.1,0-0.2,0.1-0.2,0.1c-0.1,0-0.1,0-0.2-0.1c-0.1,0-0.2-0.1-0.3-0.1c-0.1-0.1-0.2-0.1-0.4-0.2c-0.1-0.1-0.3-0.1-0.4-0.1
			L340.7,121z M339.8,118.4c-0.2,0-0.4,0.1-0.6,0.1c-0.2,0.1-0.3,0.1-0.4,0.2c-0.1,0.1-0.2,0.2-0.2,0.3c0,0.1-0.1,0.2-0.1,0.4
			c0,0.1,0,0.3,0.1,0.4c0,0.1,0.1,0.2,0.2,0.3c0.1,0.1,0.2,0.2,0.3,0.2c0.1,0.1,0.3,0.1,0.4,0.2L339.8,118.4z M340.3,125
			c0.4-0.1,0.7-0.2,0.9-0.4c0.2-0.2,0.3-0.5,0.3-0.9c0-0.1,0-0.3-0.1-0.4s-0.1-0.2-0.2-0.3c-0.1-0.1-0.2-0.2-0.3-0.2
			c-0.1-0.1-0.3-0.1-0.4-0.2L340.3,125z"/>
	</g>
</g>
<g>
	
		<linearGradient id="SVGID_3_" gradientUnits="userSpaceOnUse" x1="81.8773" y1="239.63" x2="95.7499" y2="239.63" gradientTransform="matrix(1 0 0 -1 0 356.28)">
		<stop  offset="3.745990e-03" style="stop-color:#01E971"/>
		<stop  offset="0.6424" style="stop-color:#00D351"/>
		<stop  offset="1" style="stop-color:#00CB44"/>
	</linearGradient>
	<rect x="81.8" y="103.3" class="st6" width="13.9" height="26.7"/>
	
		<linearGradient id="SVGID_4_" gradientUnits="userSpaceOnUse" x1="98.8908" y1="243.83" x2="112.7635" y2="243.83" gradientTransform="matrix(1 0 0 -1 0 356.28)">
		<stop  offset="3.745990e-03" style="stop-color:#01E971"/>
		<stop  offset="0.6424" style="stop-color:#00D351"/>
		<stop  offset="1" style="stop-color:#00CB44"/>
	</linearGradient>
	<rect x="98.9" y="94.9" class="st7" width="13.9" height="35.1"/>
	
		<linearGradient id="SVGID_5_" gradientUnits="userSpaceOnUse" x1="115.9041" y1="248.08" x2="129.7767" y2="248.08" gradientTransform="matrix(1 0 0 -1 0 356.28)">
		<stop  offset="3.745990e-03" style="stop-color:#01E971"/>
		<stop  offset="0.6424" style="stop-color:#00D351"/>
		<stop  offset="1" style="stop-color:#00CB44"/>
	</linearGradient>
	<rect x="115.9" y="86.4" class="st8" width="13.9" height="43.6"/>
	
		<linearGradient id="SVGID_6_" gradientUnits="userSpaceOnUse" x1="132.9175" y1="252.28" x2="146.7901" y2="252.28" gradientTransform="matrix(1 0 0 -1 0 356.28)">
		<stop  offset="3.745990e-03" style="stop-color:#01E971"/>
		<stop  offset="0.6424" style="stop-color:#00D351"/>
		<stop  offset="1" style="stop-color:#00CB44"/>
	</linearGradient>
	<rect x="132.9" y="78" class="st9" width="13.9" height="52"/>
	
		<linearGradient id="SVGID_7_" gradientUnits="userSpaceOnUse" x1="81.0333" y1="278.28" x2="146.8333" y2="278.28" gradientTransform="matrix(1 0 0 -1 0 356.28)">
		<stop  offset="3.745990e-03" style="stop-color:#01E971"/>
		<stop  offset="0.6424" style="stop-color:#00D351"/>
		<stop  offset="1" style="stop-color:#00CB44"/>
	</linearGradient>
	<polygon class="st10" points="146.8,61.2 134,57.3 135.1,62 111.3,67.5 104.3,84 81,95.2 82.7,98.7 107.3,86.9 114.1,70.8 
		135.9,65.7 137,70.3 	"/>
</g>
<g class="st11">
	
		<linearGradient id="SVGID_8_" gradientUnits="userSpaceOnUse" x1="330.3332" y1="175.78" x2="342.8512" y2="175.78" gradientTransform="matrix(1 0 0 -1 0 356.28)">
		<stop  offset="3.745990e-03" style="stop-color:#01E971"/>
		<stop  offset="0.6424" style="stop-color:#00D351"/>
		<stop  offset="1" style="stop-color:#00CB44"/>
	</linearGradient>
	<path class="st12" d="M341.3,182h-9.6c-0.8,0-1.5-0.7-1.5-1.5s0.7-1.5,1.5-1.5h9.6c0.8,0,1.5,0.7,1.5,1.5S342.2,182,341.3,182z"/>
</g>
<g class="st11">
	
		<linearGradient id="SVGID_9_" gradientUnits="userSpaceOnUse" x1="41.0911" y1="100.78" x2="53.6088" y2="100.78" gradientTransform="matrix(1 0 0 -1 0 356.28)">
		<stop  offset="0" style="stop-color:#FDF83C"/>
		<stop  offset="0.6764" style="stop-color:#FE9828"/>
		<stop  offset="1" style="stop-color:#FF6F1F"/>
	</linearGradient>
	<path class="st13" d="M52.1,257h-9.6c-0.8,0-1.5-0.7-1.5-1.5s0.7-1.5,1.5-1.5h9.6c0.8,0,1.5,0.7,1.5,1.5S52.9,257,52.1,257z"/>
</g>
<g class="st11">
	
		<linearGradient id="SVGID_10_" gradientUnits="userSpaceOnUse" x1="34.8333" y1="274.18" x2="47.351" y2="274.18" gradientTransform="matrix(1 0 0 -1 0 356.28)">
		<stop  offset="0" style="stop-color:#FDF83C"/>
		<stop  offset="0.6764" style="stop-color:#FE9828"/>
		<stop  offset="1" style="stop-color:#FF6F1F"/>
	</linearGradient>
	<path class="st14" d="M45.8,83.6h-9.5c-0.8,0-1.5-0.7-1.5-1.5s0.7-1.5,1.5-1.5h9.6c0.8,0,1.5,0.7,1.5,1.5
		C47.3,83,46.7,83.6,45.8,83.6z"/>
</g>
<g>
	
		<linearGradient id="SVGID_11_" gradientUnits="userSpaceOnUse" x1="195.1333" y1="350.98" x2="205.7568" y2="350.98" gradientTransform="matrix(1 0 0 -1 0 356.28)">
		<stop  offset="3.745990e-03" style="stop-color:#01E971"/>
		<stop  offset="0.6424" style="stop-color:#00D351"/>
		<stop  offset="1" style="stop-color:#00CB44"/>
	</linearGradient>
	<path class="st15" d="M200.4,10.6c-2.9,0-5.3-2.4-5.3-5.3s2.4-5.3,5.3-5.3s5.3,2.4,5.3,5.3S203.3,10.6,200.4,10.6z M200.4,2
		c-1.8,0-3.3,1.5-3.3,3.4c0,1.8,1.5,3.4,3.3,3.4s3.4-1.5,3.4-3.4S202.3,2,200.4,2z"/>
</g>
<g>
	
		<linearGradient id="SVGID_12_" gradientUnits="userSpaceOnUse" x1="285.4334" y1="279.38" x2="296.0568" y2="279.38" gradientTransform="matrix(1 0 0 -1 0 356.28)">
		<stop  offset="0" style="stop-color:#FDF83C"/>
		<stop  offset="0.6764" style="stop-color:#FE9828"/>
		<stop  offset="1" style="stop-color:#FF6F1F"/>
	</linearGradient>
	<path class="st16" d="M290.7,82.2c-2.9,0-5.3-2.4-5.3-5.3s2.4-5.3,5.3-5.3c2.9,0,5.3,2.4,5.3,5.3C296,79.8,293.6,82.2,290.7,82.2z
		 M290.7,73.5c-1.8,0-3.3,1.5-3.3,3.4c0,1.8,1.5,3.4,3.3,3.4s3.4-1.5,3.4-3.4C294.1,75,292.6,73.5,290.7,73.5z"/>
</g>
<g>
	
		<linearGradient id="SVGID_13_" gradientUnits="userSpaceOnUse" x1="370.1488" y1="199.48" x2="380.7721" y2="199.48" gradientTransform="matrix(1 0 0 -1 0 356.28)">
		<stop  offset="3.745990e-03" style="stop-color:#01E971"/>
		<stop  offset="0.6424" style="stop-color:#00D351"/>
		<stop  offset="1" style="stop-color:#00CB44"/>
	</linearGradient>
	<path class="st17" d="M375.4,162.1c-2.9,0-5.3-2.4-5.3-5.3s2.4-5.3,5.3-5.3c2.9,0,5.3,2.4,5.3,5.3
		C380.7,159.7,378.4,162.1,375.4,162.1z M375.4,153.4c-1.8,0-3.3,1.5-3.3,3.4c0,1.8,1.5,3.4,3.3,3.4s3.3-1.5,3.3-3.4
		C378.8,154.9,377.3,153.4,375.4,153.4z"/>
</g>
<g>
	
		<linearGradient id="SVGID_14_" gradientUnits="userSpaceOnUse" x1="99.5518" y1="310.38" x2="110.1751" y2="310.38" gradientTransform="matrix(1 0 0 -1 0 356.28)">
		<stop  offset="3.745990e-03" style="stop-color:#01E971"/>
		<stop  offset="0.6424" style="stop-color:#00D351"/>
		<stop  offset="1" style="stop-color:#00CB44"/>
	</linearGradient>
	<path class="st18" d="M104.8,51.2c-2.9,0-5.3-2.4-5.3-5.3s2.4-5.3,5.3-5.3s5.3,2.4,5.3,5.3C110.1,48.8,107.8,51.2,104.8,51.2z
		 M104.8,42.5c-1.8,0-3.3,1.5-3.3,3.4c0,1.8,1.5,3.4,3.3,3.4s3.4-1.5,3.4-3.4S106.7,42.5,104.8,42.5z"/>
</g>
<g>
	
		<linearGradient id="SVGID_15_" gradientUnits="userSpaceOnUse" x1="24.0188" y1="145.38" x2="34.6422" y2="145.38" gradientTransform="matrix(1 0 0 -1 0 356.28)">
		<stop  offset="3.745990e-03" style="stop-color:#01E971"/>
		<stop  offset="0.6424" style="stop-color:#00D351"/>
		<stop  offset="1" style="stop-color:#00CB44"/>
	</linearGradient>
	<path class="st19" d="M29.3,216.2c-2.9,0-5.3-2.4-5.3-5.3c0-2.9,2.4-5.3,5.3-5.3s5.3,2.4,5.3,5.3S32.2,216.2,29.3,216.2z
		 M29.3,207.5c-1.8,0-3.3,1.5-3.3,3.3s1.5,3.4,3.3,3.4s3.4-1.5,3.4-3.4C32.6,209,31.1,207.5,29.3,207.5z"/>
</g>
<g>
	<g>
		<g>
			<path class="st20" d="M75.4,107.7c-11.6,1.4-12.7,2.5-14.1,14.1c-1.4-11.6-2.5-12.7-14.1-14.1c11.6-1.4,12.7-2.5,14.1-14.1
				C62.7,105.3,63.9,106.4,75.4,107.7z"/>
		</g>
	</g>
	<g>
		<g>
			<path class="st20" d="M223.4,46c-11.6,1.4-12.7,2.5-14.1,14.1c-1.4-11.6-2.5-12.7-14.1-14.1c11.6-1.4,12.7-2.5,14.1-14.1
				C210.7,43.5,211.8,44.6,223.4,46z"/>
		</g>
	</g>
</g>
<g>
	<g>
		<g>
			<path class="st21" d="M183.7,189c-0.5,1.7-0.8,3.6-0.8,5.5c0,2.5,0.5,4.9,1.4,7.1c-0.9-2.2-1.4-4.6-1.4-7.1
				C182.9,192.6,183.2,190.7,183.7,189z"/>
			<path class="st21" d="M188.1,181.5c0.1-0.1,0.1-0.1,0.2-0.2C188.2,181.4,188.2,181.5,188.1,181.5z"/>
			<path class="st21" d="M189,180.7c0.1-0.1,0.1-0.1,0.2-0.2C189.1,180.5,189.1,180.6,189,180.7z"/>
			<path class="st21" d="M185.7,184.6c0.1-0.1,0.2-0.3,0.3-0.4C185.9,184.4,185.8,184.5,185.7,184.6z"/>
			<path class="st21" d="M191.6,210.3l-3.4,14.3L191.6,210.3z"/>
			<path class="st21" d="M194.3,177.3c0.1,0,0.1-0.1,0.2-0.1C194.4,177.2,194.4,177.3,194.3,177.3z"/>
			<path class="st21" d="M195.5,176.8c0.1,0,0.1,0,0.2-0.1C195.6,176.8,195.5,176.8,195.5,176.8z"/>
			<path class="st21" d="M196.7,176.5c0.1,0,0.1,0,0.2-0.1C196.8,176.4,196.8,176.5,196.7,176.5z"/>
			<path class="st21" d="M199.3,176c0.1,0,0.1,0,0.2,0C199.4,176,199.3,176,199.3,176z"/>
			<path class="st21" d="M187.2,182.5c0.1-0.1,0.1-0.2,0.2-0.3C187.4,182.3,187.3,182.4,187.2,182.5z"/>
			<path class="st21" d="M198,176.2c0.1,0,0.1,0,0.2,0C198.1,176.2,198,176.2,198,176.2z"/>
			<path class="st21" d="M186.4,183.5c0.1-0.1,0.1-0.2,0.2-0.3C186.6,183.3,186.5,183.4,186.4,183.5z"/>
			<path class="st21" d="M190,179.8c0.1,0,0.1-0.1,0.2-0.2C190.1,179.7,190,179.8,190,179.8z"/>
			<path class="st21" d="M218.2,186.1c1.3,2.5,2,5.4,2,8.4c0,5.1-2,9.6-5.3,13c-1.5,1.5-3.2,2.8-5.1,3.7l7.6,31.8l0,0l-7.6-31.8
				c1.9-0.9,3.6-2.2,5.1-3.7c3.3-3.4,5.3-7.9,5.3-13C220.2,191.5,219.5,188.6,218.2,186.1c-1.5-3-3.9-5.6-6.7-7.4
				C214.3,180.5,216.7,183.1,218.2,186.1z"/>
			<path class="st21" d="M191,179.1c0.1,0,0.1-0.1,0.2-0.1C191.1,179,191.1,179.1,191,179.1z"/>
			<path class="st21" d="M192,178.4c0.1,0,0.1-0.1,0.2-0.1C192.2,178.4,192.1,178.4,192,178.4z"/>
			<path class="st21" d="M188.4,207.8c0.1,0.1,0.2,0.2,0.3,0.2C188.6,207.9,188.5,207.8,188.4,207.8L188.4,207.8z"/>
			<path class="st21" d="M193.1,177.8c0.1,0,0.1-0.1,0.2-0.1C193.3,177.8,193.2,177.8,193.1,177.8z"/>
			<path class="st21" d="M184.9,186c0.1-0.2,0.2-0.5,0.4-0.7C185.2,185.5,185,185.7,184.9,186z"/>
			<path class="st21" d="M201.1,175.8L201.1,175.8L201.1,175.8c-0.1,0-0.3,0-0.4,0h-0.1C200.8,175.9,200.9,175.8,201.1,175.8z"/>
			<path class="st21" d="M200.6,175.9c-0.4,0-0.8,0-1.2,0.1c-0.1,0-0.1,0-0.2,0c-0.4,0-0.7,0.1-1.1,0.2c-0.1,0-0.1,0-0.2,0
				c-0.4,0.1-0.7,0.1-1.1,0.2c-0.1,0-0.1,0-0.2,0.1c-0.3,0.1-0.7,0.2-1,0.3c-0.1,0-0.1,0-0.2,0.1c-0.3,0.1-0.7,0.2-1,0.4
				c-0.1,0-0.1,0.1-0.2,0.1c-0.3,0.1-0.6,0.3-1,0.4c-0.1,0-0.1,0.1-0.2,0.1c-0.3,0.2-0.6,0.3-0.9,0.5c-0.1,0-0.1,0.1-0.2,0.1
				c-0.3,0.2-0.6,0.4-0.9,0.5c-0.1,0-0.1,0.1-0.2,0.1c-0.3,0.2-0.6,0.4-0.8,0.6c-0.1,0-0.1,0.1-0.2,0.2c-0.3,0.2-0.5,0.4-0.8,0.6
				c-0.1,0.1-0.1,0.1-0.2,0.2c-0.2,0.2-0.5,0.4-0.7,0.7c-0.1,0.1-0.1,0.1-0.2,0.2c-0.2,0.2-0.4,0.5-0.6,0.7
				c-0.1,0.1-0.1,0.2-0.2,0.3c-0.2,0.2-0.4,0.5-0.6,0.7c-0.1,0.1-0.2,0.2-0.2,0.3c-0.2,0.2-0.3,0.5-0.5,0.7
				c-0.1,0.1-0.2,0.3-0.3,0.4c-0.1,0.2-0.3,0.4-0.4,0.7c-0.1,0.2-0.2,0.5-0.4,0.7c-0.1,0.1-0.2,0.3-0.2,0.4c-0.4,0.8-0.7,1.7-1,2.6
				c-0.5,1.7-0.8,3.6-0.8,5.5c0,2.5,0.5,4.9,1.4,7.1c1,2.3,2.4,4.4,4.1,6.2c0.1,0.1,0.2,0.2,0.3,0.2c0.9,0.9,1.9,1.7,3,2.3l0,0l0,0
				l-3.4,14.3l-4.4,18.4h16.9h16.7l-7.6-31.8c1.9-0.9,3.6-2.2,5.1-3.7c3.3-3.4,5.3-7.9,5.3-13c0-3-0.7-5.9-2-8.4
				c-1.5-3-3.9-5.6-6.7-7.4c-2.9-1.8-6.3-2.9-9.9-2.9c-0.1,0-0.2,0-0.4,0H201C200.9,175.8,200.8,175.9,200.6,175.9z"/>
			<path class="st21" d="M151.5,207.1c0-27.2,22.1-49.2,49.2-49.2v-21.7h-72.5c-9.3,0-16.8,7.5-16.8,16.8v110.2
				c0,9.3,7.5,16.8,16.8,16.8h72.5v-23.6C173.5,256.4,151.5,234.3,151.5,207.1z"/>
			<path class="st21" d="M273.9,136.1h-73.2v21.7c-27.2,0-49.2,22.1-49.2,49.2c0,27.2,22.1,49.2,49.2,49.2v23.6h73.2
				c9.3,0,16.8-7.5,16.8-16.8V152.9C290.7,143.7,283.2,136.1,273.9,136.1z M217.4,243.1h-33.6l4.4-18.4l3.4-14.3
				c-1.1-0.7-2-1.4-3-2.3c-0.1-0.1-0.2-0.2-0.3-0.2c-1.8-1.7-3.2-3.9-4.1-6.2c-0.9-2.2-1.4-4.6-1.4-7.1c0-1.9,0.3-3.8,0.8-5.5
				c0.3-0.9,0.6-1.7,1-2.6c0.1-0.1,0.2-0.3,0.2-0.4c0.1-0.2,0.2-0.5,0.4-0.7c0.1-0.2,0.3-0.4,0.4-0.7c0.1-0.1,0.2-0.3,0.3-0.4
				c0.2-0.2,0.3-0.5,0.5-0.7c0.1-0.1,0.2-0.2,0.2-0.3c0.2-0.2,0.4-0.5,0.6-0.7c0.1-0.1,0.1-0.2,0.2-0.3c0.2-0.2,0.4-0.5,0.7-0.7
				c0.1-0.1,0.1-0.1,0.2-0.2c0.2-0.2,0.5-0.4,0.7-0.7c0.1-0.1,0.1-0.1,0.2-0.2c0.3-0.2,0.5-0.4,0.8-0.6c0.1-0.1,0.1-0.1,0.2-0.2
				c0.3-0.2,0.5-0.4,0.8-0.6c0.1-0.1,0.1-0.1,0.2-0.1c0.3-0.2,0.6-0.4,0.9-0.5c0.1,0,0.1-0.1,0.2-0.1c0.3-0.2,0.6-0.3,0.9-0.5
				c0.1,0,0.1-0.1,0.2-0.1c0.3-0.2,0.6-0.3,1-0.4c0.1,0,0.1-0.1,0.2-0.1c0.3-0.1,0.7-0.3,1-0.4c0.1,0,0.1-0.1,0.2-0.1
				c0.3-0.1,0.7-0.2,1-0.3c0.1,0,0.1,0,0.2-0.1c0.4-0.1,0.7-0.2,1.1-0.2c0.1,0,0.1,0,0.2,0c0.4-0.1,0.7-0.1,1.1-0.2
				c0.1,0,0.1,0,0.2,0c0.4-0.1,0.8-0.1,1.2-0.1h0.1c0.1,0,0.3,0,0.4,0h0.1c0.1,0,0.2,0,0.4,0c3.7,0,7.1,1,9.9,2.9
				c2.9,1.8,5.2,4.4,6.7,7.4c1.3,2.5,2,5.4,2,8.4c0,5.1-2,9.6-5.3,13c-1.5,1.5-3.2,2.8-5.1,3.7L217.4,243.1z"/>
			<path class="st21" d="M188.4,207.8L188.4,207.8c-1.8-1.7-3.2-3.8-4.1-6.2C185.2,203.9,186.6,206,188.4,207.8z"/>
			<path class="st21" d="M189.2,180.5c0.3-0.2,0.5-0.4,0.8-0.6C189.7,180.1,189.5,180.3,189.2,180.5z"/>
			<path class="st21" d="M187.5,182.2c0.2-0.2,0.4-0.5,0.6-0.7C187.9,181.8,187.7,182,187.5,182.2z"/>
			<path class="st21" d="M190.2,179.7c0.3-0.2,0.5-0.4,0.8-0.6C190.7,179.3,190.4,179.5,190.2,179.7z"/>
			<path class="st21" d="M188.3,181.3c0.2-0.2,0.5-0.5,0.7-0.7C188.8,180.9,188.5,181.1,188.3,181.3z"/>
			<path class="st21" d="M185.9,184.2c0.2-0.2,0.3-0.5,0.5-0.7C186.3,183.8,186.1,184,185.9,184.2z"/>
			<path class="st21" d="M186.7,183.2c0.2-0.2,0.4-0.5,0.6-0.7C187,182.7,186.9,183,186.7,183.2z"/>
			<path class="st21" d="M185.3,185.3c0.1-0.2,0.3-0.4,0.4-0.7C185.6,184.9,185.4,185.1,185.3,185.3z"/>
			<path class="st21" d="M184.9,186c-0.1,0.1-0.2,0.3-0.2,0.4c-0.4,0.8-0.7,1.7-1,2.6c0.3-0.9,0.6-1.8,1-2.6
				C184.8,186.3,184.9,186.1,184.9,186z"/>
			<path class="st21" d="M199.4,176c0.4,0,0.8-0.1,1.2-0.1C200.2,175.9,199.8,175.9,199.4,176z"/>
			<polygon class="st21" points="183.8,243.1 188.2,224.6 183.8,243.1 200.7,243.1 200.7,243.1 			"/>
			<path class="st21" d="M188.7,208c0.9,0.9,1.9,1.7,3,2.3l0,0C190.6,209.7,189.6,208.9,188.7,208z"/>
			<path class="st21" d="M198.2,176.1c0.4-0.1,0.7-0.1,1.1-0.2C198.9,176,198.5,176.1,198.2,176.1z"/>
			<path class="st21" d="M193.3,177.7c0.3-0.2,0.6-0.3,1-0.4C194,177.4,193.7,177.6,193.3,177.7z"/>
			<path class="st21" d="M192.2,178.3c0.3-0.2,0.6-0.3,0.9-0.5C192.8,178,192.5,178.1,192.2,178.3z"/>
			<path class="st21" d="M196.9,176.4c0.4-0.1,0.7-0.2,1.1-0.2C197.6,176.3,197.3,176.3,196.9,176.4z"/>
			<path class="st21" d="M191.2,179c0.3-0.2,0.6-0.4,0.9-0.5C191.8,178.6,191.5,178.8,191.2,179z"/>
			<path class="st21" d="M195.7,176.8c0.3-0.1,0.7-0.2,1-0.3C196.4,176.6,196,176.7,195.7,176.8z"/>
			<path class="st21" d="M194.5,177.2c0.3-0.1,0.7-0.3,1-0.4C195.1,177,194.8,177.1,194.5,177.2z"/>
			<polygon class="st21" points="200.7,243.1 217.4,243.1 217.4,243.1 			"/>
			<path class="st21" d="M211.5,178.7c-2.9-1.8-6.3-2.9-9.9-2.9c-0.1,0-0.2,0-0.4,0c0.1,0,0.2,0,0.4,0
				C205.2,175.8,208.6,176.9,211.5,178.7z"/>
		</g>
		<path d="M266.8,136.1h-19.7c-1-6.6-3.3-12.8-6.8-18.2c-8.2-12.8-22.4-21.3-38.7-21.5c-0.1,0-0.3,0-0.4,0
			c-16.4,0-30.9,8.6-39.2,21.5c-3.5,5.4-5.8,11.6-6.8,18.2h-19.7c0.6-6.4,2.2-12.5,4.5-18.2c9.9-24.1,27.2-41.1,52.5-41.1h9.1
			c27.4,0.2,50.9,17.1,60.7,41.1C264.6,123.7,266.1,129.8,266.8,136.1z"/>
	</g>
	<g>
		<g>
			<path class="st21" d="M175.7,189c-0.5,1.7-0.8,3.6-0.8,5.5c0,2.5,0.5,4.9,1.4,7.1c-0.9-2.2-1.4-4.6-1.4-7.1
				C174.9,192.6,175.2,190.7,175.7,189z"/>
			<path class="st21" d="M180.1,181.5c0.1-0.1,0.1-0.1,0.2-0.2C180.2,181.4,180.2,181.5,180.1,181.5z"/>
			<path class="st21" d="M181,180.7c0.1-0.1,0.1-0.1,0.2-0.2C181.1,180.5,181.1,180.6,181,180.7z"/>
			<path class="st21" d="M177.7,184.6c0.1-0.1,0.2-0.3,0.3-0.4C177.9,184.4,177.8,184.5,177.7,184.6z"/>
			<path class="st21" d="M183.6,210.3l-3.4,14.3L183.6,210.3z"/>
			<path class="st21" d="M186.3,177.3c0.1,0,0.1-0.1,0.2-0.1C186.4,177.2,186.4,177.3,186.3,177.3z"/>
			<path class="st21" d="M187.5,176.8c0.1,0,0.1,0,0.2-0.1C187.6,176.8,187.6,176.8,187.5,176.8z"/>
			<path class="st21" d="M188.7,176.5c0.1,0,0.1,0,0.2-0.1C188.8,176.4,188.8,176.5,188.7,176.5z"/>
			<path class="st21" d="M191.3,176c0.1,0,0.1,0,0.2,0C191.4,176,191.3,176,191.3,176z"/>
			<path class="st21" d="M179.2,182.5c0.1-0.1,0.1-0.2,0.2-0.3C179.4,182.3,179.3,182.4,179.2,182.5z"/>
			<path class="st21" d="M190,176.2c0.1,0,0.1,0,0.2,0C190.1,176.2,190,176.2,190,176.2z"/>
			<path class="st21" d="M178.4,183.5c0.1-0.1,0.1-0.2,0.2-0.3C178.6,183.3,178.5,183.4,178.4,183.5z"/>
			<path class="st21" d="M182,179.8c0.1,0,0.1-0.1,0.2-0.2C182.1,179.7,182.1,179.8,182,179.8z"/>
			<path class="st21" d="M210.2,186.1c1.3,2.5,2,5.4,2,8.4c0,5.1-2,9.6-5.3,13c-1.5,1.5-3.2,2.8-5.1,3.7l7.6,31.8l0,0l-7.6-31.8
				c1.9-0.9,3.6-2.2,5.1-3.7c3.3-3.4,5.3-7.9,5.3-13C212.2,191.5,211.5,188.6,210.2,186.1c-1.5-3-3.9-5.6-6.7-7.4
				C206.3,180.5,208.7,183.1,210.2,186.1z"/>
			<path class="st21" d="M183,179.1c0.1,0,0.1-0.1,0.2-0.1C183.1,179,183.1,179.1,183,179.1z"/>
			<path class="st21" d="M184.1,178.4c0.1,0,0.1-0.1,0.2-0.1C184.2,178.4,184.1,178.4,184.1,178.4z"/>
			<path class="st21" d="M180.4,207.8c0.1,0.1,0.2,0.2,0.3,0.2C180.6,207.9,180.5,207.8,180.4,207.8L180.4,207.8z"/>
			<path class="st21" d="M185.2,177.8c0.1,0,0.1-0.1,0.2-0.1C185.3,177.8,185.2,177.8,185.2,177.8z"/>
			<path class="st21" d="M176.9,186c0.1-0.2,0.2-0.5,0.4-0.7C177.2,185.5,177.1,185.7,176.9,186z"/>
			<path class="st21" d="M193.1,175.8L193.1,175.8L193.1,175.8c-0.1,0-0.3,0-0.4,0h-0.1C192.8,175.9,192.9,175.8,193.1,175.8z"/>
			<path class="st21" d="M192.6,175.9c-0.4,0-0.8,0-1.2,0.1c-0.1,0-0.1,0-0.2,0c-0.4,0-0.7,0.1-1.1,0.2c-0.1,0-0.1,0-0.2,0
				c-0.4,0.1-0.7,0.1-1.1,0.2c-0.1,0-0.1,0-0.2,0.1c-0.3,0.1-0.7,0.2-1,0.3c-0.1,0-0.1,0-0.2,0.1c-0.3,0.1-0.7,0.2-1,0.4
				c-0.1,0-0.1,0.1-0.2,0.1c-0.3,0.1-0.6,0.3-1,0.4c-0.1,0-0.1,0.1-0.2,0.1c-0.3,0.2-0.6,0.3-0.9,0.5c-0.1,0-0.1,0.1-0.2,0.1
				c-0.3,0.2-0.6,0.4-0.9,0.5c-0.1,0-0.1,0.1-0.2,0.1c-0.3,0.2-0.6,0.4-0.8,0.6c-0.1,0-0.1,0.1-0.2,0.2c-0.3,0.2-0.5,0.4-0.8,0.6
				c-0.1,0.1-0.1,0.1-0.2,0.2c-0.2,0.2-0.5,0.4-0.7,0.7c-0.1,0.1-0.1,0.1-0.2,0.2c-0.2,0.2-0.4,0.5-0.6,0.7
				c-0.1,0.1-0.1,0.2-0.2,0.3c-0.2,0.2-0.4,0.5-0.6,0.7c-0.1,0.1-0.2,0.2-0.2,0.3c-0.2,0.2-0.3,0.5-0.5,0.7
				c-0.1,0.1-0.2,0.3-0.3,0.4c-0.1,0.2-0.3,0.4-0.4,0.7c-0.1,0.2-0.2,0.5-0.4,0.7c-0.1,0.1-0.2,0.3-0.2,0.4c-0.4,0.8-0.7,1.7-1,2.6
				c-0.5,1.7-0.8,3.6-0.8,5.5c0,2.5,0.5,4.9,1.4,7.1c1,2.3,2.4,4.4,4.1,6.2c0.1,0.1,0.2,0.2,0.3,0.2c0.9,0.9,1.9,1.7,3,2.3l0,0l0,0
				l-3.4,14.3l-4.4,18.4h16.9h16.7l-7.6-31.8c1.9-0.9,3.6-2.2,5.1-3.7c3.3-3.4,5.3-7.9,5.3-13c0-3-0.7-5.9-2-8.4
				c-1.5-3-3.9-5.6-6.7-7.4c-2.9-1.8-6.3-2.9-9.9-2.9c-0.1,0-0.2,0-0.4,0H193C192.9,175.8,192.8,175.9,192.6,175.9z"/>
			
				<linearGradient id="SVGID_16_" gradientUnits="userSpaceOnUse" x1="258.4007" y1="148.1801" x2="116.2765" y2="148.1801" gradientTransform="matrix(1 0 0 -1 0 356.28)">
				<stop  offset="0" style="stop-color:#E68E3E"/>
				<stop  offset="1" style="stop-color:#FDDB47"/>
			</linearGradient>
			<path class="st22" d="M143.5,207.1c0-27.2,22.1-49.2,49.2-49.2v-21.7h-72.5c-9.3,0-16.8,7.5-16.8,16.8v110.2
				c0,9.3,7.5,16.8,16.8,16.8h72.5v-23.6C165.5,256.4,143.5,234.3,143.5,207.1z"/>
			
				<linearGradient id="SVGID_17_" gradientUnits="userSpaceOnUse" x1="145.2723" y1="148.33" x2="361.3177" y2="148.33" gradientTransform="matrix(1 0 0 -1 0 356.28)">
				<stop  offset="0" style="stop-color:#E68E3E"/>
				<stop  offset="1" style="stop-color:#FDDB47"/>
			</linearGradient>
			<path class="st23" d="M265.9,136.1h-73.2v21.7c-27.2,0-49.2,22.1-49.2,49.2c0,27.2,22.1,49.2,49.2,49.2v23.6h73.2
				c9.3,0,16.8-7.5,16.8-16.8V152.9C282.7,143.7,275.2,136.1,265.9,136.1z M209.4,243.1h-33.6l4.4-18.4l3.4-14.3
				c-1.1-0.7-2-1.4-3-2.3c-0.1-0.1-0.2-0.2-0.3-0.2c-1.8-1.7-3.2-3.9-4.1-6.2c-0.9-2.2-1.4-4.6-1.4-7.1c0-1.9,0.3-3.8,0.8-5.5
				c0.3-0.9,0.6-1.7,1-2.6c0.1-0.1,0.2-0.3,0.2-0.4c0.1-0.2,0.2-0.5,0.4-0.7c0.1-0.2,0.3-0.4,0.4-0.7c0.1-0.1,0.2-0.3,0.3-0.4
				c0.2-0.2,0.3-0.5,0.5-0.7c0.1-0.1,0.2-0.2,0.2-0.3c0.2-0.2,0.4-0.5,0.6-0.7c0.1-0.1,0.1-0.2,0.2-0.3c0.2-0.2,0.4-0.5,0.7-0.7
				c0.1-0.1,0.1-0.1,0.2-0.2c0.2-0.2,0.5-0.4,0.7-0.7c0.1-0.1,0.1-0.1,0.2-0.2c0.3-0.2,0.5-0.4,0.8-0.6c0.1-0.1,0.1-0.1,0.2-0.2
				c0.3-0.2,0.5-0.4,0.8-0.6c0.1-0.1,0.1-0.1,0.2-0.1c0.3-0.2,0.6-0.4,0.9-0.5c0.1,0,0.1-0.1,0.2-0.1c0.3-0.2,0.6-0.3,0.9-0.5
				c0.1,0,0.1-0.1,0.2-0.1c0.3-0.2,0.6-0.3,1-0.4c0.1,0,0.1-0.1,0.2-0.1c0.3-0.1,0.7-0.3,1-0.4c0.1,0,0.1-0.1,0.2-0.1
				c0.3-0.1,0.7-0.2,1-0.3c0.1,0,0.1,0,0.2-0.1c0.4-0.1,0.7-0.2,1.1-0.2c0.1,0,0.1,0,0.2,0c0.4-0.1,0.7-0.1,1.1-0.2
				c0.1,0,0.1,0,0.2,0c0.4-0.1,0.8-0.1,1.2-0.1h0.1c0.1,0,0.3,0,0.4,0h0.1c0.1,0,0.2,0,0.4,0c3.7,0,7.1,1,9.9,2.9
				c2.9,1.8,5.2,4.4,6.7,7.4c1.3,2.5,2,5.4,2,8.4c0,5.1-2,9.6-5.3,13c-1.5,1.5-3.2,2.8-5.1,3.7L209.4,243.1z"/>
			<path class="st24" d="M180.4,207.8L180.4,207.8c-1.8-1.7-3.2-3.8-4.1-6.2C177.2,203.9,178.6,206,180.4,207.8z"/>
			<path class="st24" d="M181.2,180.5c0.3-0.2,0.5-0.4,0.8-0.6C181.7,180.1,181.5,180.3,181.2,180.5z"/>
			<path class="st24" d="M179.5,182.2c0.2-0.2,0.4-0.5,0.6-0.7C179.9,181.8,179.7,182,179.5,182.2z"/>
			<path class="st24" d="M182.2,179.7c0.3-0.2,0.5-0.4,0.8-0.6C182.7,179.3,182.4,179.5,182.2,179.7z"/>
			<path class="st24" d="M180.3,181.3c0.2-0.2,0.5-0.5,0.7-0.7C180.8,180.9,180.5,181.1,180.3,181.3z"/>
			<path class="st24" d="M178,184.2c0.2-0.2,0.3-0.5,0.5-0.7C178.3,183.8,178.1,184,178,184.2z"/>
			<path class="st24" d="M178.7,183.2c0.2-0.2,0.4-0.5,0.6-0.7C179.1,182.7,178.9,183,178.7,183.2z"/>
			<path class="st24" d="M177.3,185.3c0.1-0.2,0.3-0.4,0.4-0.7C177.6,184.9,177.4,185.1,177.3,185.3z"/>
			<path class="st24" d="M176.9,186c-0.1,0.1-0.2,0.3-0.2,0.4c-0.4,0.8-0.7,1.7-1,2.6c0.3-0.9,0.6-1.8,1-2.6
				C176.8,186.3,176.9,186.1,176.9,186z"/>
			<path class="st24" d="M191.4,176c0.4,0,0.8-0.1,1.2-0.1C192.2,175.9,191.8,175.9,191.4,176z"/>
			<polygon class="st24" points="175.8,243.1 180.2,224.6 175.8,243.1 192.7,243.1 192.7,243.1 			"/>
			<path class="st24" d="M180.7,208c0.9,0.9,1.9,1.7,3,2.3l0,0C182.6,209.7,181.6,208.9,180.7,208z"/>
			<path class="st24" d="M190.2,176.1c0.4-0.1,0.7-0.1,1.1-0.2C190.9,176,190.5,176.1,190.2,176.1z"/>
			<path class="st24" d="M185.4,177.7c0.3-0.2,0.6-0.3,1-0.4C186,177.4,185.7,177.6,185.4,177.7z"/>
			<path class="st24" d="M184.2,178.3c0.3-0.2,0.6-0.3,0.9-0.5C184.8,178,184.5,178.1,184.2,178.3z"/>
			<path class="st24" d="M188.9,176.4c0.4-0.1,0.7-0.2,1.1-0.2C189.6,176.3,189.3,176.3,188.9,176.4z"/>
			<path class="st24" d="M183.2,179c0.3-0.2,0.6-0.4,0.9-0.5C183.8,178.6,183.5,178.8,183.2,179z"/>
			<path class="st24" d="M187.7,176.8c0.3-0.1,0.7-0.2,1-0.3C188.4,176.6,188,176.7,187.7,176.8z"/>
			<path class="st24" d="M186.5,177.2c0.3-0.1,0.7-0.3,1-0.4C187.2,177,186.8,177.1,186.5,177.2z"/>
			<polygon class="st24" points="192.7,243.1 209.4,243.1 209.4,243.1 			"/>
			<path class="st24" d="M203.5,178.7c-2.9-1.8-6.3-2.9-9.9-2.9c-0.1,0-0.2,0-0.4,0c0.1,0,0.2,0,0.4,0
				C197.2,175.8,200.6,176.9,203.5,178.7z"/>
		</g>
		<path class="st25" d="M258.8,136.1h-19.7c-1-6.6-3.3-12.8-6.8-18.2c-8.2-12.8-22.4-21.3-38.7-21.5c-0.1,0-0.3,0-0.4,0
			c-16.4,0-30.9,8.6-39.2,21.5c-3.5,5.4-5.8,11.6-6.8,18.2h-19.7c0.6-6.4,2.2-12.5,4.5-18.2c9.9-24.1,33.6-41.1,61.2-41.1h0.4
			C221,77,244.5,94,254.3,117.9C256.6,123.7,258.1,129.8,258.8,136.1z"/>
		<path class="st26" d="M245.3,136.1h-6.2c-1-6.6-3.3-12.8-6.8-18.2c-8.2-12.8-22.4-21.3-38.7-21.5c-0.1,0-0.3,0-0.4,0
			c-16.4,0-30.9,8.6-39.2,21.5c-3.5,5.4-5.8,11.6-6.8,18.2h-7c0.5-5.1,1.8-10,3.6-14.6c7.9-19.3,26.9-32.9,48.9-32.9h0.4
			c21.9,0.2,40.7,13.7,48.6,32.9C243.5,126.2,244.8,131,245.3,136.1z"/>
	</g>
</g>
</svg>
