<svg id="Слой_1" xmlns="http://www.w3.org/2000/svg" viewBox="0 0 396.8 354.4"><style>.st0{opacity:.41;fill:#99eab8;enable-background:new}.st1{fill:url(#SVGID_1_)}.st2{fill:#fde0c1}.st3{opacity:.4}.st4{fill:url(#SVGID_2_)}.st5{fill:#d6e3f7}.st6{fill:url(#SVGID_3_)}.st7{fill:url(#SVGID_4_)}.st8{fill:url(#SVGID_5_)}.st9{fill:url(#SVGID_6_)}.st10{fill:url(#SVGID_7_)}.st11{opacity:.5}.st12{fill:url(#SVGID_8_)}.st13{fill:url(#SVGID_9_)}.st14{fill:url(#SVGID_10_)}.st15{fill:url(#SVGID_11_)}.st16{fill:url(#SVGID_12_)}.st17{fill:url(#SVGID_13_)}.st18{fill:url(#SVGID_14_)}.st19{fill:url(#SVGID_15_)}.st20{fill:#fff}.st21{fill:#d97530}.st22{fill:url(#SVGID_16_)}.st23{fill:url(#SVGID_17_)}.st24{fill:#fca842}.st25{fill:#1f1f1f}.st26{fill:#333}</style><circle class="st0" cx="197.1" cy="178.4" r="173.1"/><linearGradient id="SVGID_1_" gradientUnits="userSpaceOnUse" x1="280.633" y1="79.13" x2="356.933" y2="79.13" gradientTransform="matrix(1 0 0 -1 0 356.28)"><stop offset=".004" stop-color="#01e971"/><stop offset=".642" stop-color="#00d351"/><stop offset="1" stop-color="#00cb44"/></linearGradient><path class="st1" d="M355.4 269.1h-8.9c-.6-2.1-1.4-4-2.4-5.9l6.3-6.3c.6-.6.6-1.5 0-2.1l-9.3-9.3c-.6-.6-1.5-.6-2.1 0l-6.3 6.3c-1.8-1-3.8-1.8-5.9-2.4v-8.9c0-.8-.7-1.5-1.5-1.5h-13.1c-.8 0-1.5.7-1.5 1.5v8.9c-2.1.6-4 1.4-5.9 2.4l-6.3-6.3c-.6-.6-1.5-.6-2.1 0l-9.3 9.3c-.6.6-.6 1.5 0 2.1l6.3 6.3c-1 1.8-1.8 3.8-2.4 5.9h-8.9c-.8 0-1.5.7-1.5 1.5v13.1c0 .8.7 1.5 1.5 1.5h8.9c.6 2.1 1.4 4 2.4 5.9l-6.3 6.3c-.6.6-.6 1.5 0 2.1l9.3 9.3c.6.6 1.5.6 2.1 0l6.3-6.3c1.8 1 3.8 1.8 5.9 2.4v8.9c0 .8.7 1.5 1.5 1.5h13.1c.8 0 1.5-.7 1.5-1.5v-8.9c2.1-.6 4-1.4 5.9-2.4l6.3 6.3c.6.6 1.5.6 2.1 0l9.3-9.3c.6-.6.6-1.5 0-2.1l-6.3-6.3c1-1.8 1.8-3.8 2.4-5.9h8.9c.8 0 1.5-.7 1.5-1.5v-13.1c0-.8-.7-1.5-1.5-1.5zm-36.7 20.1c-6.6 0-12-5.4-12-12s5.4-12 12-12 12 5.4 12 12-5.3 12-12 12z"/><circle class="st2" cx="318.7" cy="257.5" r="1.8"/><circle class="st2" cx="318.7" cy="257.5" r="1.8"/><ellipse transform="rotate(-45.001 332.651 263.345)" class="st2" cx="332.7" cy="263.3" rx="1.8" ry="1.8"/><circle class="st2" cx="338.4" cy="277.2" r="1.8"/><ellipse transform="rotate(-45.001 332.665 291.117)" class="st2" cx="332.7" cy="291.1" rx="1.8" ry="1.8"/><circle class="st2" cx="318.7" cy="296.8" r="1.8"/><ellipse transform="rotate(-45.001 304.942 291.038)" class="st2" cx="304.9" cy="291" rx="1.8" ry="1.8"/><circle class="st2" cx="299.1" cy="277.2" r="1.8"/><ellipse transform="rotate(-45.001 304.928 263.266)" class="st2" cx="304.9" cy="263.3" rx="1.8" ry="1.8"/><g class="st3"><linearGradient id="SVGID_2_" gradientUnits="userSpaceOnUse" x1="331.014" y1="234.48" x2="348.874" y2="234.48" gradientTransform="matrix(1 0 0 -1 0 356.28)"><stop offset=".004" stop-color="#01e971"/><stop offset=".642" stop-color="#00d351"/><stop offset="1" stop-color="#00cb44"/></linearGradient><circle class="st4" cx="339.9" cy="121.8" r="8.9"/><path class="st5" d="M340.7 121c.2.1.4.1.6.2.2.1.4.2.6.2.2.1.4.2.5.3.2.1.3.3.4.4.1.2.2.3.3.6.1.2.1.5.1.7 0 .4-.1.8-.2 1.1-.1.4-.3.7-.6.9-.3.3-.6.5-1 .7s-.8.3-1.3.3l-.1.9c0 .1-.1.2-.1.3-.1.1-.2.1-.3.1h-.7l.1-1.4c-.2 0-.5-.1-.7-.2s-.5-.2-.7-.3l-.6-.3c-.2-.1-.4-.3-.5-.4l.5-.8c0-.1.1-.1.2-.2.1 0 .2-.1.3-.1s.2 0 .3.1.2.1.4.2c.1.1.3.2.4.3.2.1.4.2.6.2l.2-2.7c-.2-.1-.4-.1-.6-.2-.2-.1-.4-.2-.6-.2-.2-.1-.4-.2-.5-.3-.2-.1-.3-.3-.4-.5l-.3-.6c-.1-.2-.1-.5-.1-.8s.1-.7.2-1 .3-.6.6-.8c.3-.2.6-.5.9-.6.4-.2.8-.3 1.3-.3l.1-.8c0-.1.1-.2.1-.3.1-.1.2-.1.3-.1h.7l-.1 1.3c.5.1.9.2 1.2.4l.9.6-.4.6c-.1.1-.1.2-.2.2s-.2.1-.2.1c-.1 0-.1 0-.2-.1-.1 0-.2-.1-.3-.1-.1-.1-.2-.1-.4-.2-.1-.1-.3-.1-.4-.1l-.3 2.7zm-.9-2.6c-.2 0-.4.1-.6.1-.2.1-.3.1-.4.2-.1.1-.2.2-.2.3 0 .1-.1.2-.1.4 0 .1 0 .3.1.4 0 .1.1.2.2.3.1.1.2.2.3.2.1.1.3.1.4.2l.3-2.1zm.5 6.6c.4-.1.7-.2.9-.4.2-.2.3-.5.3-.9 0-.1 0-.3-.1-.4s-.1-.2-.2-.3c-.1-.1-.2-.2-.3-.2-.1-.1-.3-.1-.4-.2l-.2 2.4z"/></g><linearGradient id="SVGID_3_" gradientUnits="userSpaceOnUse" x1="81.877" y1="239.63" x2="95.75" y2="239.63" gradientTransform="matrix(1 0 0 -1 0 356.28)"><stop offset=".004" stop-color="#01e971"/><stop offset=".642" stop-color="#00d351"/><stop offset="1" stop-color="#00cb44"/></linearGradient><path class="st6" d="M81.8 103.3h13.9V130H81.8z"/><linearGradient id="SVGID_4_" gradientUnits="userSpaceOnUse" x1="98.891" y1="243.83" x2="112.763" y2="243.83" gradientTransform="matrix(1 0 0 -1 0 356.28)"><stop offset=".004" stop-color="#01e971"/><stop offset=".642" stop-color="#00d351"/><stop offset="1" stop-color="#00cb44"/></linearGradient><path class="st7" d="M98.9 94.9h13.9V130H98.9z"/><linearGradient id="SVGID_5_" gradientUnits="userSpaceOnUse" x1="115.904" y1="248.08" x2="129.777" y2="248.08" gradientTransform="matrix(1 0 0 -1 0 356.28)"><stop offset=".004" stop-color="#01e971"/><stop offset=".642" stop-color="#00d351"/><stop offset="1" stop-color="#00cb44"/></linearGradient><path class="st8" d="M115.9 86.4h13.9V130h-13.9z"/><linearGradient id="SVGID_6_" gradientUnits="userSpaceOnUse" x1="132.917" y1="252.28" x2="146.79" y2="252.28" gradientTransform="matrix(1 0 0 -1 0 356.28)"><stop offset=".004" stop-color="#01e971"/><stop offset=".642" stop-color="#00d351"/><stop offset="1" stop-color="#00cb44"/></linearGradient><path class="st9" d="M132.9 78h13.9v52h-13.9z"/><linearGradient id="SVGID_7_" gradientUnits="userSpaceOnUse" x1="81.033" y1="278.28" x2="146.833" y2="278.28" gradientTransform="matrix(1 0 0 -1 0 356.28)"><stop offset=".004" stop-color="#01e971"/><stop offset=".642" stop-color="#00d351"/><stop offset="1" stop-color="#00cb44"/></linearGradient><path class="st10" d="M146.8 61.2L134 57.3l1.1 4.7-23.8 5.5-7 16.5L81 95.2l1.7 3.5 24.6-11.8 6.8-16.1 21.8-5.1 1.1 4.6z"/><g class="st11"><linearGradient id="SVGID_8_" gradientUnits="userSpaceOnUse" x1="330.333" y1="175.78" x2="342.851" y2="175.78" gradientTransform="matrix(1 0 0 -1 0 356.28)"><stop offset=".004" stop-color="#01e971"/><stop offset=".642" stop-color="#00d351"/><stop offset="1" stop-color="#00cb44"/></linearGradient><path class="st12" d="M341.3 182h-9.6c-.8 0-1.5-.7-1.5-1.5s.7-1.5 1.5-1.5h9.6c.8 0 1.5.7 1.5 1.5s-.6 1.5-1.5 1.5z"/></g><g class="st11"><linearGradient id="SVGID_9_" gradientUnits="userSpaceOnUse" x1="41.091" y1="100.78" x2="53.609" y2="100.78" gradientTransform="matrix(1 0 0 -1 0 356.28)"><stop offset="0" stop-color="#fdf83c"/><stop offset=".676" stop-color="#fe9828"/><stop offset="1" stop-color="#ff6f1f"/></linearGradient><path class="st13" d="M52.1 257h-9.6c-.8 0-1.5-.7-1.5-1.5s.7-1.5 1.5-1.5h9.6c.8 0 1.5.7 1.5 1.5s-.7 1.5-1.5 1.5z"/></g><g class="st11"><linearGradient id="SVGID_10_" gradientUnits="userSpaceOnUse" x1="34.833" y1="274.18" x2="47.351" y2="274.18" gradientTransform="matrix(1 0 0 -1 0 356.28)"><stop offset="0" stop-color="#fdf83c"/><stop offset=".676" stop-color="#fe9828"/><stop offset="1" stop-color="#ff6f1f"/></linearGradient><path class="st14" d="M45.8 83.6h-9.5c-.8 0-1.5-.7-1.5-1.5s.7-1.5 1.5-1.5h9.6c.8 0 1.5.7 1.5 1.5-.1.9-.7 1.5-1.6 1.5z"/></g><g><linearGradient id="SVGID_11_" gradientUnits="userSpaceOnUse" x1="195.133" y1="350.98" x2="205.757" y2="350.98" gradientTransform="matrix(1 0 0 -1 0 356.28)"><stop offset=".004" stop-color="#01e971"/><stop offset=".642" stop-color="#00d351"/><stop offset="1" stop-color="#00cb44"/></linearGradient><path class="st15" d="M200.4 10.6c-2.9 0-5.3-2.4-5.3-5.3s2.4-5.3 5.3-5.3 5.3 2.4 5.3 5.3-2.4 5.3-5.3 5.3zm0-8.6c-1.8 0-3.3 1.5-3.3 3.4 0 1.8 1.5 3.4 3.3 3.4s3.4-1.5 3.4-3.4-1.5-3.4-3.4-3.4z"/></g><g><linearGradient id="SVGID_12_" gradientUnits="userSpaceOnUse" x1="285.433" y1="279.38" x2="296.057" y2="279.38" gradientTransform="matrix(1 0 0 -1 0 356.28)"><stop offset="0" stop-color="#fdf83c"/><stop offset=".676" stop-color="#fe9828"/><stop offset="1" stop-color="#ff6f1f"/></linearGradient><path class="st16" d="M290.7 82.2c-2.9 0-5.3-2.4-5.3-5.3s2.4-5.3 5.3-5.3 5.3 2.4 5.3 5.3-2.4 5.3-5.3 5.3zm0-8.7c-1.8 0-3.3 1.5-3.3 3.4 0 1.8 1.5 3.4 3.3 3.4s3.4-1.5 3.4-3.4-1.5-3.4-3.4-3.4z"/></g><g><linearGradient id="SVGID_13_" gradientUnits="userSpaceOnUse" x1="370.149" y1="199.48" x2="380.772" y2="199.48" gradientTransform="matrix(1 0 0 -1 0 356.28)"><stop offset=".004" stop-color="#01e971"/><stop offset=".642" stop-color="#00d351"/><stop offset="1" stop-color="#00cb44"/></linearGradient><path class="st17" d="M375.4 162.1c-2.9 0-5.3-2.4-5.3-5.3s2.4-5.3 5.3-5.3 5.3 2.4 5.3 5.3-2.3 5.3-5.3 5.3zm0-8.7c-1.8 0-3.3 1.5-3.3 3.4 0 1.8 1.5 3.4 3.3 3.4s3.3-1.5 3.3-3.4c.1-1.9-1.4-3.4-3.3-3.4z"/></g><g><linearGradient id="SVGID_14_" gradientUnits="userSpaceOnUse" x1="99.552" y1="310.38" x2="110.175" y2="310.38" gradientTransform="matrix(1 0 0 -1 0 356.28)"><stop offset=".004" stop-color="#01e971"/><stop offset=".642" stop-color="#00d351"/><stop offset="1" stop-color="#00cb44"/></linearGradient><path class="st18" d="M104.8 51.2c-2.9 0-5.3-2.4-5.3-5.3s2.4-5.3 5.3-5.3 5.3 2.4 5.3 5.3-2.3 5.3-5.3 5.3zm0-8.7c-1.8 0-3.3 1.5-3.3 3.4 0 1.8 1.5 3.4 3.3 3.4s3.4-1.5 3.4-3.4-1.5-3.4-3.4-3.4z"/></g><g><linearGradient id="SVGID_15_" gradientUnits="userSpaceOnUse" x1="24.019" y1="145.38" x2="34.642" y2="145.38" gradientTransform="matrix(1 0 0 -1 0 356.28)"><stop offset=".004" stop-color="#01e971"/><stop offset=".642" stop-color="#00d351"/><stop offset="1" stop-color="#00cb44"/></linearGradient><path class="st19" d="M29.3 216.2c-2.9 0-5.3-2.4-5.3-5.3s2.4-5.3 5.3-5.3 5.3 2.4 5.3 5.3-2.4 5.3-5.3 5.3zm0-8.7c-1.8 0-3.3 1.5-3.3 3.3s1.5 3.4 3.3 3.4 3.4-1.5 3.4-3.4c-.1-1.8-1.6-3.3-3.4-3.3z"/></g><g><path class="st20" d="M75.4 107.7c-11.6 1.4-12.7 2.5-14.1 14.1-1.4-11.6-2.5-12.7-14.1-14.1 11.6-1.4 12.7-2.5 14.1-14.1 1.4 11.7 2.6 12.8 14.1 14.1zM223.4 46c-11.6 1.4-12.7 2.5-14.1 14.1-1.4-11.6-2.5-12.7-14.1-14.1 11.6-1.4 12.7-2.5 14.1-14.1 1.4 11.6 2.5 12.7 14.1 14.1z"/></g><g><path class="st21" d="M183.7 189a19.758 19.758 0 0 1 0 0zM188.1 181.5l.2-.2c-.1.1-.1.2-.2.2zM189 180.7l.2-.2c-.1 0-.1.1-.2.2zM185.7 184.6c.1-.1.2-.3.3-.4-.1.2-.2.3-.3.4zM191.6 210.3l-3.4 14.3 3.4-14.3zM194.3 177.3c.1 0 .1-.1.2-.1-.1 0-.1.1-.2.1zM195.5 176.8c.1 0 .1 0 .2-.1-.1.1-.2.1-.2.1zM196.7 176.5c.1 0 .1 0 .2-.1-.1 0-.1.1-.2.1zM199.3 176h.2-.2zM187.2 182.5c.1-.1.1-.2.2-.3 0 .1-.1.2-.2.3zM198 176.2h.2-.2zM186.4 183.5c.1-.1.1-.2.2-.3 0 .1-.1.2-.2.3zM190 179.8c.1 0 .1-.1.2-.2l-.2.2zM218.2 186.1c1.3 2.5 2 5.4 2 8.4 0 5.1-2 9.6-5.3 13-1.5 1.5-3.2 2.8-5.1 3.7l7.6 31.8-7.6-31.8c1.9-.9 3.6-2.2 5.1-3.7 3.3-3.4 5.3-7.9 5.3-13 0-3-.7-5.9-2-8.4-1.5-3-3.9-5.6-6.7-7.4 2.8 1.8 5.2 4.4 6.7 7.4zM191 179.1c.1 0 .1-.1.2-.1-.1 0-.1.1-.2.1zM192 178.4c.1 0 .1-.1.2-.1 0 .1-.1.1-.2.1zM188.4 207.8c.1.1.2.2.3.2-.1-.1-.2-.2-.3-.2zM193.1 177.8c.1 0 .1-.1.2-.1 0 .1-.1.1-.2.1zM184.9 186c.1-.2.2-.5.4-.7-.1.2-.3.4-.4.7zM201.1 175.8h-.5c.2.1.3 0 .5 0z"/><path class="st21" d="M200.6 175.9c-.4 0-.8 0-1.2.1h-.2c-.4 0-.7.1-1.1.2h-.2c-.4.1-.7.1-1.1.2-.1 0-.1 0-.2.1-.3.1-.7.2-1 .3-.1 0-.1 0-.2.1-.3.1-.7.2-1 .4-.1 0-.1.1-.2.1-.3.1-.6.3-1 .4-.1 0-.1.1-.2.1-.3.2-.6.3-.9.5-.1 0-.1.1-.2.1-.3.2-.6.4-.9.5-.1 0-.1.1-.2.1-.3.2-.6.4-.8.6-.1 0-.1.1-.2.2-.3.2-.5.4-.8.6l-.2.2c-.2.2-.5.4-.7.7l-.2.2c-.2.2-.4.5-.6.7-.1.1-.1.2-.2.3-.2.2-.4.5-.6.7-.1.1-.2.2-.2.3-.2.2-.3.5-.5.7-.1.1-.2.3-.3.4-.1.2-.3.4-.4.7-.1.2-.2.5-.4.7-.1.1-.2.3-.2.4-.4.8-.7 1.7-1 2.6-.5 1.7-.8 3.6-.8 5.5 0 2.5.5 4.9 1.4 7.1 1 2.3 2.4 4.4 4.1 6.2.1.1.2.2.3.2.9.9 1.9 1.7 3 2.3l-3.4 14.3-4.4 18.4H217.3l-7.6-31.8c1.9-.9 3.6-2.2 5.1-3.7 3.3-3.4 5.3-7.9 5.3-13 0-3-.7-5.9-2-8.4-1.5-3-3.9-5.6-6.7-7.4-2.9-1.8-6.3-2.9-9.9-2.9h-.5c-.1-.1-.2 0-.4 0z"/><path class="st21" d="M151.5 207.1c0-27.2 22.1-49.2 49.2-49.2v-21.7h-72.5c-9.3 0-16.8 7.5-16.8 16.8v110.2c0 9.3 7.5 16.8 16.8 16.8h72.5v-23.6c-27.2 0-49.2-22.1-49.2-49.3z"/><path class="st21" d="M273.9 136.1h-73.2v21.7c-27.2 0-49.2 22.1-49.2 49.2 0 27.2 22.1 49.2 49.2 49.2v23.6h73.2c9.3 0 16.8-7.5 16.8-16.8V152.9c0-9.2-7.5-16.8-16.8-16.8zm-56.5 107h-33.6l4.4-18.4 3.4-14.3c-1.1-.7-2-1.4-3-2.3-.1-.1-.2-.2-.3-.2-1.8-1.7-3.2-3.9-4.1-6.2-.9-2.2-1.4-4.6-1.4-7.1 0-1.9.3-3.8.8-5.5.3-.9.6-1.7 1-2.6.1-.1.2-.3.2-.4.1-.2.2-.5.4-.7.1-.2.3-.4.4-.7.1-.1.2-.3.3-.4.2-.2.3-.5.5-.7.1-.1.2-.2.2-.3.2-.2.4-.5.6-.7.1-.1.1-.2.2-.3.2-.2.4-.5.7-.7l.2-.2c.2-.2.5-.4.7-.7l.2-.2c.3-.2.5-.4.8-.6l.2-.2c.3-.2.5-.4.8-.6.1-.1.1-.1.2-.1.3-.2.6-.4.9-.5.1 0 .1-.1.2-.1.3-.2.6-.3.9-.5.1 0 .1-.1.2-.1.3-.2.6-.3 1-.4.1 0 .1-.1.2-.1.3-.1.7-.3 1-.4.1 0 .1-.1.2-.1.3-.1.7-.2 1-.3.1 0 .1 0 .2-.1.4-.1.7-.2 1.1-.2h.2c.4-.1.7-.1 1.1-.2h.2c.4-.1.8-.1 1.2-.1h1c3.7 0 7.1 1 9.9 2.9 2.9 1.8 5.2 4.4 6.7 7.4 1.3 2.5 2 5.4 2 8.4 0 5.1-2 9.6-5.3 13-1.5 1.5-3.2 2.8-5.1 3.7l7.4 31.8z"/><path class="st21" d="M188.4 207.8c-1.8-1.7-3.2-3.8-4.1-6.2.9 2.3 2.3 4.4 4.1 6.2zM189.2 180.5c.3-.2.5-.4.8-.6-.3.2-.5.4-.8.6zM187.5 182.2c.2-.2.4-.5.6-.7-.2.3-.4.5-.6.7zM190.2 179.7c.3-.2.5-.4.8-.6-.3.2-.6.4-.8.6zM188.3 181.3l.7-.7c-.2.3-.5.5-.7.7zM185.9 184.2c.2-.2.3-.5.5-.7-.1.3-.3.5-.5.7zM186.7 183.2c.2-.2.4-.5.6-.7-.3.2-.4.5-.6.7zM185.3 185.3c.1-.2.3-.4.4-.7-.1.3-.3.5-.4.7zM184.9 186c-.1.1-.2.3-.2.4-.4.8-.7 1.7-1 2.6.3-.9.6-1.8 1-2.6.1-.1.2-.3.2-.4zM199.4 176c.4 0 .8-.1 1.2-.1-.4 0-.8 0-1.2.1zM183.8 243.1l4.4-18.5-4.4 18.5h16.9zM188.7 208c.9.9 1.9 1.7 3 2.3-1.1-.6-2.1-1.4-3-2.3zM198.2 176.1c.4-.1.7-.1 1.1-.2-.4.1-.8.2-1.1.2zM193.3 177.7c.3-.2.6-.3 1-.4-.3.1-.6.3-1 .4zM192.2 178.3c.3-.2.6-.3.9-.5-.3.2-.6.3-.9.5zM196.9 176.4c.4-.1.7-.2 1.1-.2-.4.1-.7.1-1.1.2zM191.2 179c.3-.2.6-.4.9-.5-.3.1-.6.3-.9.5zM195.7 176.8c.3-.1.7-.2 1-.3-.3.1-.7.2-1 .3zM194.5 177.2c.3-.1.7-.3 1-.4-.4.2-.7.3-1 .4zM200.7 243.1h16.7zM211.5 178.7c-2.9-1.8-6.3-2.9-9.9-2.9h-.4.4c3.6 0 7 1.1 9.9 2.9z"/><path d="M266.8 136.1h-19.7c-1-6.6-3.3-12.8-6.8-18.2-8.2-12.8-22.4-21.3-38.7-21.5h-.4c-16.4 0-30.9 8.6-39.2 21.5-3.5 5.4-5.8 11.6-6.8 18.2h-19.7c.6-6.4 2.2-12.5 4.5-18.2 9.9-24.1 27.2-41.1 52.5-41.1h9.1c27.4.2 50.9 17.1 60.7 41.1 2.3 5.8 3.8 11.9 4.5 18.2z"/><g><path class="st21" d="M175.7 189a19.758 19.758 0 0 1 0 0zM180.1 181.5l.2-.2c-.1.1-.1.2-.2.2zM181 180.7l.2-.2c-.1 0-.1.1-.2.2zM177.7 184.6c.1-.1.2-.3.3-.4-.1.2-.2.3-.3.4zM183.6 210.3l-3.4 14.3 3.4-14.3zM186.3 177.3c.1 0 .1-.1.2-.1-.1 0-.1.1-.2.1zM187.5 176.8c.1 0 .1 0 .2-.1-.1.1-.1.1-.2.1zM188.7 176.5c.1 0 .1 0 .2-.1-.1 0-.1.1-.2.1zM191.3 176h.2-.2zM179.2 182.5c.1-.1.1-.2.2-.3 0 .1-.1.2-.2.3zM190 176.2h.2-.2zM178.4 183.5c.1-.1.1-.2.2-.3 0 .1-.1.2-.2.3zM182 179.8c.1 0 .1-.1.2-.2-.1.1-.1.2-.2.2zM210.2 186.1c1.3 2.5 2 5.4 2 8.4 0 5.1-2 9.6-5.3 13-1.5 1.5-3.2 2.8-5.1 3.7l7.6 31.8-7.6-31.8c1.9-.9 3.6-2.2 5.1-3.7 3.3-3.4 5.3-7.9 5.3-13 0-3-.7-5.9-2-8.4-1.5-3-3.9-5.6-6.7-7.4 2.8 1.8 5.2 4.4 6.7 7.4zM183 179.1c.1 0 .1-.1.2-.1-.1 0-.1.1-.2.1zM184.1 178.4c.1 0 .1-.1.2-.1-.1.1-.2.1-.2.1zM180.4 207.8c.1.1.2.2.3.2-.1-.1-.2-.2-.3-.2zM185.2 177.8c.1 0 .1-.1.2-.1-.1.1-.2.1-.2.1zM176.9 186c.1-.2.2-.5.4-.7-.1.2-.2.4-.4.7zM193.1 175.8h-.5c.2.1.3 0 .5 0z"/><path class="st21" d="M192.6 175.9c-.4 0-.8 0-1.2.1h-.2c-.4 0-.7.1-1.1.2h-.2c-.4.1-.7.1-1.1.2-.1 0-.1 0-.2.1-.3.1-.7.2-1 .3-.1 0-.1 0-.2.1-.3.1-.7.2-1 .4-.1 0-.1.1-.2.1-.3.1-.6.3-1 .4-.1 0-.1.1-.2.1-.3.2-.6.3-.9.5-.1 0-.1.1-.2.1-.3.2-.6.4-.9.5-.1 0-.1.1-.2.1-.3.2-.6.4-.8.6-.1 0-.1.1-.2.2-.3.2-.5.4-.8.6l-.2.2c-.2.2-.5.4-.7.7l-.2.2c-.2.2-.4.5-.6.7-.1.1-.1.2-.2.3-.2.2-.4.5-.6.7-.1.1-.2.2-.2.3-.2.2-.3.5-.5.7-.1.1-.2.3-.3.4-.1.2-.3.4-.4.7-.1.2-.2.5-.4.7-.1.1-.2.3-.2.4-.4.8-.7 1.7-1 2.6-.5 1.7-.8 3.6-.8 5.5 0 2.5.5 4.9 1.4 7.1 1 2.3 2.4 4.4 4.1 6.2.1.1.2.2.3.2.9.9 1.9 1.7 3 2.3l-3.4 14.3-4.4 18.4H209.3l-7.6-31.8c1.9-.9 3.6-2.2 5.1-3.7 3.3-3.4 5.3-7.9 5.3-13 0-3-.7-5.9-2-8.4-1.5-3-3.9-5.6-6.7-7.4-2.9-1.8-6.3-2.9-9.9-2.9h-.5c-.1-.1-.2 0-.4 0z"/><linearGradient id="SVGID_16_" gradientUnits="userSpaceOnUse" x1="258.401" y1="148.18" x2="116.276" y2="148.18" gradientTransform="matrix(1 0 0 -1 0 356.28)"><stop offset="0" stop-color="#e68e3e"/><stop offset="1" stop-color="#fddb47"/></linearGradient><path class="st22" d="M143.5 207.1c0-27.2 22.1-49.2 49.2-49.2v-21.7h-72.5c-9.3 0-16.8 7.5-16.8 16.8v110.2c0 9.3 7.5 16.8 16.8 16.8h72.5v-23.6c-27.2 0-49.2-22.1-49.2-49.3z"/><linearGradient id="SVGID_17_" gradientUnits="userSpaceOnUse" x1="145.272" y1="148.33" x2="361.318" y2="148.33" gradientTransform="matrix(1 0 0 -1 0 356.28)"><stop offset="0" stop-color="#e68e3e"/><stop offset="1" stop-color="#fddb47"/></linearGradient><path class="st23" d="M265.9 136.1h-73.2v21.7c-27.2 0-49.2 22.1-49.2 49.2 0 27.2 22.1 49.2 49.2 49.2v23.6h73.2c9.3 0 16.8-7.5 16.8-16.8V152.9c0-9.2-7.5-16.8-16.8-16.8zm-56.5 107h-33.6l4.4-18.4 3.4-14.3c-1.1-.7-2-1.4-3-2.3-.1-.1-.2-.2-.3-.2-1.8-1.7-3.2-3.9-4.1-6.2-.9-2.2-1.4-4.6-1.4-7.1 0-1.9.3-3.8.8-5.5.3-.9.6-1.7 1-2.6.1-.1.2-.3.2-.4.1-.2.2-.5.4-.7.1-.2.3-.4.4-.7.1-.1.2-.3.3-.4.2-.2.3-.5.5-.7.1-.1.2-.2.2-.3.2-.2.4-.5.6-.7.1-.1.1-.2.2-.3.2-.2.4-.5.7-.7l.2-.2c.2-.2.5-.4.7-.7l.2-.2c.3-.2.5-.4.8-.6l.2-.2c.3-.2.5-.4.8-.6.1-.1.1-.1.2-.1.3-.2.6-.4.9-.5.1 0 .1-.1.2-.1.3-.2.6-.3.9-.5.1 0 .1-.1.2-.1.3-.2.6-.3 1-.4.1 0 .1-.1.2-.1.3-.1.7-.3 1-.4.1 0 .1-.1.2-.1.3-.1.7-.2 1-.3.1 0 .1 0 .2-.1.4-.1.7-.2 1.1-.2h.2c.4-.1.7-.1 1.1-.2h.2c.4-.1.8-.1 1.2-.1h1c3.7 0 7.1 1 9.9 2.9 2.9 1.8 5.2 4.4 6.7 7.4 1.3 2.5 2 5.4 2 8.4 0 5.1-2 9.6-5.3 13-1.5 1.5-3.2 2.8-5.1 3.7l7.4 31.8z"/><path class="st24" d="M180.4 207.8c-1.8-1.7-3.2-3.8-4.1-6.2.9 2.3 2.3 4.4 4.1 6.2zM181.2 180.5c.3-.2.5-.4.8-.6-.3.2-.5.4-.8.6zM179.5 182.2c.2-.2.4-.5.6-.7-.2.3-.4.5-.6.7zM182.2 179.7c.3-.2.5-.4.8-.6-.3.2-.6.4-.8.6zM180.3 181.3l.7-.7c-.2.3-.5.5-.7.7zM178 184.2c.2-.2.3-.5.5-.7-.2.3-.4.5-.5.7zM178.7 183.2c.2-.2.4-.5.6-.7-.2.2-.4.5-.6.7zM177.3 185.3c.1-.2.3-.4.4-.7-.1.3-.3.5-.4.7zM176.9 186c-.1.1-.2.3-.2.4-.4.8-.7 1.7-1 2.6.3-.9.6-1.8 1-2.6.1-.1.2-.3.2-.4zM191.4 176c.4 0 .8-.1 1.2-.1-.4 0-.8 0-1.2.1zM175.8 243.1l4.4-18.5-4.4 18.5h16.9zM180.7 208c.9.9 1.9 1.7 3 2.3-1.1-.6-2.1-1.4-3-2.3zM190.2 176.1c.4-.1.7-.1 1.1-.2-.4.1-.8.2-1.1.2zM185.4 177.7c.3-.2.6-.3 1-.4-.4.1-.7.3-1 .4zM184.2 178.3c.3-.2.6-.3.9-.5-.3.2-.6.3-.9.5zM188.9 176.4c.4-.1.7-.2 1.1-.2-.4.1-.7.1-1.1.2zM183.2 179c.3-.2.6-.4.9-.5-.3.1-.6.3-.9.5zM187.7 176.8c.3-.1.7-.2 1-.3-.3.1-.7.2-1 .3zM186.5 177.2c.3-.1.7-.3 1-.4-.3.2-.7.3-1 .4zM192.7 243.1h16.7zM203.5 178.7c-2.9-1.8-6.3-2.9-9.9-2.9h-.4.4c3.6 0 7 1.1 9.9 2.9z"/><path class="st25" d="M258.8 136.1h-19.7c-1-6.6-3.3-12.8-6.8-18.2-8.2-12.8-22.4-21.3-38.7-21.5h-.4c-16.4 0-30.9 8.6-39.2 21.5-3.5 5.4-5.8 11.6-6.8 18.2h-19.7c.6-6.4 2.2-12.5 4.5-18.2 9.9-24.1 33.6-41.1 61.2-41.1h.4c27.4.2 50.9 17.2 60.7 41.1 2.3 5.8 3.8 11.9 4.5 18.2z"/><path class="st26" d="M245.3 136.1h-6.2c-1-6.6-3.3-12.8-6.8-18.2-8.2-12.8-22.4-21.3-38.7-21.5h-.4c-16.4 0-30.9 8.6-39.2 21.5-3.5 5.4-5.8 11.6-6.8 18.2h-7c.5-5.1 1.8-10 3.6-14.6 7.9-19.3 26.9-32.9 48.9-32.9h.4c21.9.2 40.7 13.7 48.6 32.9 1.8 4.7 3.1 9.5 3.6 14.6z"/></g></g></svg>