<svg id="Слой_1" xmlns="http://www.w3.org/2000/svg" viewBox="0 0 951.5 977.8"><style>.st0{opacity:.41;fill:#99eab8}.st1{fill:url(#SVGID_1_)}.st2{fill:#fde0c1}.st3{opacity:.4}.st4{fill:url(#SVGID_2_)}.st5{fill:#d6e3f7}.st6{fill:url(#SVGID_3_)}.st7{fill:url(#SVGID_4_)}.st8{fill:url(#SVGID_5_)}.st9{fill:url(#SVGID_6_)}.st10{fill:url(#SVGID_7_)}.st11{opacity:.5}.st12{fill:url(#SVGID_8_)}.st13{fill:url(#SVGID_9_)}.st14{fill:url(#SVGID_10_)}.st15{fill:url(#SVGID_11_)}.st16{fill:url(#SVGID_12_)}.st17{fill:url(#SVGID_13_)}.st18{fill:url(#SVGID_14_)}.st19{fill:url(#SVGID_15_)}.st20{fill:#fff}.st21{fill:#d97530}.st22{fill:url(#SVGID_16_)}.st23{fill:url(#SVGID_17_)}.st24{fill:#fca842}.st25{fill:#1f1f1f}.st26{fill:#333}</style><circle class="st0" cx="475.8" cy="488.9" r="173.1"/><linearGradient id="SVGID_1_" gradientUnits="userSpaceOnUse" x1="559.293" y1="587.666" x2="635.597" y2="587.666"><stop offset=".004" stop-color="#01e971"/><stop offset=".642" stop-color="#00d351"/><stop offset="1" stop-color="#00cb44"/></linearGradient><path class="st1" d="M634.1 579.6h-8.9c-.6-2.1-1.4-4-2.4-5.9l6.3-6.3c.6-.6.6-1.5 0-2.1l-9.3-9.3c-.6-.6-1.5-.6-2.1 0l-6.3 6.3c-1.8-1-3.8-1.8-5.9-2.4V551c0-.8-.7-1.5-1.5-1.5h-13.1c-.8 0-1.5.7-1.5 1.5v8.9c-2.1.6-4 1.4-5.9 2.4l-6.3-6.3c-.6-.6-1.5-.6-2.1 0l-9.3 9.3c-.6.6-.6 1.5 0 2.1l6.3 6.3c-1 1.8-1.8 3.8-2.4 5.9h-8.9c-.8 0-1.5.7-1.5 1.5v13.1c0 .8.7 1.5 1.5 1.5h8.9c.6 2.1 1.4 4 2.4 5.9l-6.3 6.3c-.6.6-.6 1.5 0 2.1l9.3 9.3c.6.6 1.5.6 2.1 0l6.3-6.3c1.8 1 3.8 1.8 5.9 2.4v8.9c0 .8.7 1.5 1.5 1.5H604c.8 0 1.5-.7 1.5-1.5v-8.9c2.1-.6 4-1.4 5.9-2.4l6.3 6.3c.6.6 1.5.6 2.1 0l9.3-9.3c.6-.6.6-1.5 0-2.1l-6.3-6.3c1-1.8 1.8-3.8 2.4-5.9h8.9c.8 0 1.5-.7 1.5-1.5v-13.1c0-.8-.7-1.5-1.5-1.5zm-36.7 20.1c-6.6 0-12-5.4-12-12s5.4-12 12-12 12 5.4 12 12-5.3 12-12 12z"/><circle class="st2" cx="597.4" cy="568" r="1.8"/><circle class="st2" cx="597.4" cy="568" r="1.8"/><ellipse transform="rotate(-45.001 611.358 573.796)" class="st2" cx="611.3" cy="573.8" rx="1.8" ry="1.8"/><circle class="st2" cx="617.1" cy="587.7" r="1.8"/><ellipse transform="rotate(-45.001 611.33 601.565)" class="st2" cx="611.3" cy="601.6" rx="1.8" ry="1.8"/><circle class="st2" cx="597.4" cy="607.3" r="1.8"/><ellipse transform="rotate(-45.001 583.525 601.553)" class="st2" cx="583.6" cy="601.6" rx="1.8" ry="1.8"/><circle class="st2" cx="577.8" cy="587.7" r="1.8"/><ellipse transform="rotate(-45.001 583.552 573.786)" class="st2" cx="583.6" cy="573.8" rx="1.8" ry="1.8"/><g class="st3"><linearGradient id="SVGID_2_" gradientUnits="userSpaceOnUse" x1="609.68" y1="432.288" x2="627.541" y2="432.288"><stop offset=".004" stop-color="#01e971"/><stop offset=".642" stop-color="#00d351"/><stop offset="1" stop-color="#00cb44"/></linearGradient><circle class="st4" cx="618.6" cy="432.3" r="8.9"/><path class="st5" d="M619.4 431.5c.2.1.4.1.6.2.2.1.4.2.6.2.2.1.4.2.5.3.2.1.3.3.4.4.1.2.2.3.3.6.1.2.1.5.1.7 0 .4-.1.8-.2 1.1-.1.4-.3.7-.6.9-.3.3-.6.5-1 .7-.4.2-.8.3-1.3.3l-.1.9c0 .1-.1.2-.1.3-.1.1-.2.1-.3.1h-.7l.1-1.4c-.2 0-.5-.1-.7-.2-.2-.1-.5-.2-.7-.3l-.6-.3c-.2-.1-.4-.3-.5-.4l.5-.8c0-.1.1-.1.2-.2.1 0 .2-.1.3-.1.1 0 .2 0 .3.1.1.1.2.1.4.2.1.1.3.2.4.3.2.1.4.2.6.2l.2-2.7c-.2-.1-.4-.1-.6-.2-.2-.1-.4-.2-.6-.2-.2-.1-.4-.2-.5-.3-.2-.1-.3-.3-.4-.5l-.3-.6c-.1-.2-.1-.5-.1-.8 0-.3.1-.7.2-1s.3-.6.6-.8c.3-.2.6-.5.9-.6.4-.2.8-.3 1.3-.3l.1-.8c0-.1.1-.2.1-.3.1-.1.2-.1.3-.1h.7l-.1 1.3c.5.1.9.2 1.2.4l.9.6-.4.6c-.1.1-.1.2-.2.2s-.2.1-.2.1c-.1 0-.1 0-.2-.1-.1 0-.2-.1-.3-.1-.1-.1-.2-.1-.4-.2-.1-.1-.3-.1-.4-.1l-.3 2.7zm-.9-2.6c-.2 0-.4.1-.6.1-.2.1-.3.1-.4.2-.1.1-.2.2-.2.3 0 .1-.1.2-.1.4 0 .1 0 .3.1.4 0 .1.1.2.2.3.1.1.2.2.3.2.1.1.3.1.4.2l.3-2.1zm.5 6.6c.4-.1.7-.2.9-.4.2-.2.3-.5.3-.9 0-.1 0-.3-.1-.4-.1-.1-.1-.2-.2-.3-.1-.1-.2-.2-.3-.2-.1-.1-.3-.1-.4-.2l-.2 2.4z"/></g><linearGradient id="SVGID_3_" gradientUnits="userSpaceOnUse" x1="360.544" y1="427.183" x2="374.417" y2="427.183"><stop offset=".004" stop-color="#01e971"/><stop offset=".642" stop-color="#00d351"/><stop offset="1" stop-color="#00cb44"/></linearGradient><path class="st6" d="M360.5 413.8h13.9v26.7h-13.9z"/><linearGradient id="SVGID_4_" gradientUnits="userSpaceOnUse" x1="377.558" y1="422.962" x2="391.43" y2="422.962"><stop offset=".004" stop-color="#01e971"/><stop offset=".642" stop-color="#00d351"/><stop offset="1" stop-color="#00cb44"/></linearGradient><path class="st7" d="M377.6 405.4h13.9v35.1h-13.9z"/><linearGradient id="SVGID_5_" gradientUnits="userSpaceOnUse" x1="394.571" y1="418.736" x2="408.443" y2="418.736"><stop offset=".004" stop-color="#01e971"/><stop offset=".642" stop-color="#00d351"/><stop offset="1" stop-color="#00cb44"/></linearGradient><path class="st8" d="M394.6 396.9h13.9v43.6h-13.9z"/><linearGradient id="SVGID_6_" gradientUnits="userSpaceOnUse" x1="411.584" y1="414.512" x2="425.457" y2="414.512"><stop offset=".004" stop-color="#01e971"/><stop offset=".642" stop-color="#00d351"/><stop offset="1" stop-color="#00cb44"/></linearGradient><path class="st9" d="M411.6 388.5h13.9v52h-13.9z"/><linearGradient id="SVGID_7_" gradientUnits="userSpaceOnUse" x1="359.715" y1="388.497" x2="425.457" y2="388.497"><stop offset=".004" stop-color="#01e971"/><stop offset=".642" stop-color="#00d351"/><stop offset="1" stop-color="#00cb44"/></linearGradient><path class="st10" d="M425.5 371.7l-12.8-3.9 1.1 4.7L390 378l-7 16.5-23.3 11.2 1.7 3.5 24.6-11.8 6.8-16.1 21.8-5.1 1.1 4.6z"/><g class="st11"><linearGradient id="SVGID_8_" gradientUnits="userSpaceOnUse" x1="609" y1="490.985" x2="621.518" y2="490.985"><stop offset=".004" stop-color="#01e971"/><stop offset=".642" stop-color="#00d351"/><stop offset="1" stop-color="#00cb44"/></linearGradient><path class="st12" d="M620 492.5h-9.6c-.8 0-1.5-.7-1.5-1.5s.7-1.5 1.5-1.5h9.6c.8 0 1.5.7 1.5 1.5s-.6 1.5-1.5 1.5z"/></g><g class="st11"><linearGradient id="SVGID_9_" gradientUnits="userSpaceOnUse" x1="319.758" y1="565.979" x2="332.276" y2="565.979"><stop offset="0" stop-color="#fdf83c"/><stop offset=".676" stop-color="#fe9828"/><stop offset="1" stop-color="#ff6f1f"/></linearGradient><path class="st13" d="M330.8 567.5h-9.6c-.8 0-1.5-.7-1.5-1.5s.7-1.5 1.5-1.5h9.6c.8 0 1.5.7 1.5 1.5s-.7 1.5-1.5 1.5z"/></g><g class="st11"><linearGradient id="SVGID_10_" gradientUnits="userSpaceOnUse" x1="313.499" y1="392.66" x2="326.017" y2="392.66"><stop offset="0" stop-color="#fdf83c"/><stop offset=".676" stop-color="#fe9828"/><stop offset="1" stop-color="#ff6f1f"/></linearGradient><path class="st14" d="M324.5 394.1H315c-.8 0-1.5-.7-1.5-1.5s.7-1.5 1.5-1.5h9.6c.8 0 1.5.7 1.5 1.5-.1.9-.7 1.5-1.6 1.5z"/></g><g><linearGradient id="SVGID_11_" gradientUnits="userSpaceOnUse" x1="473.807" y1="315.819" x2="484.431" y2="315.819"><stop offset=".004" stop-color="#01e971"/><stop offset=".642" stop-color="#00d351"/><stop offset="1" stop-color="#00cb44"/></linearGradient><path class="st15" d="M479.1 321.1c-2.9 0-5.3-2.4-5.3-5.3s2.4-5.3 5.3-5.3 5.3 2.4 5.3 5.3-2.4 5.3-5.3 5.3zm0-8.6c-1.8 0-3.3 1.5-3.3 3.4 0 1.8 1.5 3.4 3.3 3.4 1.8 0 3.4-1.5 3.4-3.4s-1.5-3.4-3.4-3.4z"/></g><g><linearGradient id="SVGID_12_" gradientUnits="userSpaceOnUse" x1="564.1" y1="387.348" x2="574.724" y2="387.348"><stop offset="0" stop-color="#fdf83c"/><stop offset=".676" stop-color="#fe9828"/><stop offset="1" stop-color="#ff6f1f"/></linearGradient><path class="st16" d="M569.4 392.7c-2.9 0-5.3-2.4-5.3-5.3s2.4-5.3 5.3-5.3 5.3 2.4 5.3 5.3-2.4 5.3-5.3 5.3zm0-8.7c-1.8 0-3.3 1.5-3.3 3.4 0 1.8 1.5 3.4 3.3 3.4 1.8 0 3.4-1.5 3.4-3.4s-1.5-3.4-3.4-3.4z"/></g><g><linearGradient id="SVGID_13_" gradientUnits="userSpaceOnUse" x1="648.815" y1="467.276" x2="659.439" y2="467.276"><stop offset=".004" stop-color="#01e971"/><stop offset=".642" stop-color="#00d351"/><stop offset="1" stop-color="#00cb44"/></linearGradient><path class="st17" d="M654.1 472.6c-2.9 0-5.3-2.4-5.3-5.3s2.4-5.3 5.3-5.3 5.3 2.4 5.3 5.3-2.3 5.3-5.3 5.3zm0-8.7c-1.8 0-3.3 1.5-3.3 3.4 0 1.8 1.5 3.4 3.3 3.4 1.8 0 3.3-1.5 3.3-3.4.1-1.9-1.4-3.4-3.3-3.4z"/></g><g><linearGradient id="SVGID_14_" gradientUnits="userSpaceOnUse" x1="378.218" y1="356.386" x2="388.842" y2="356.386"><stop offset=".004" stop-color="#01e971"/><stop offset=".642" stop-color="#00d351"/><stop offset="1" stop-color="#00cb44"/></linearGradient><path class="st18" d="M383.5 361.7c-2.9 0-5.3-2.4-5.3-5.3s2.4-5.3 5.3-5.3 5.3 2.4 5.3 5.3-2.3 5.3-5.3 5.3zm0-8.7c-1.8 0-3.3 1.5-3.3 3.4 0 1.8 1.5 3.4 3.3 3.4 1.8 0 3.4-1.5 3.4-3.4s-1.5-3.4-3.4-3.4z"/></g><g><linearGradient id="SVGID_15_" gradientUnits="userSpaceOnUse" x1="302.685" y1="521.376" x2="313.309" y2="521.376"><stop offset=".004" stop-color="#01e971"/><stop offset=".642" stop-color="#00d351"/><stop offset="1" stop-color="#00cb44"/></linearGradient><path class="st19" d="M308 526.7c-2.9 0-5.3-2.4-5.3-5.3s2.4-5.3 5.3-5.3 5.3 2.4 5.3 5.3-2.4 5.3-5.3 5.3zm0-8.7c-1.8 0-3.3 1.5-3.3 3.3 0 1.8 1.5 3.4 3.3 3.4 1.8 0 3.4-1.5 3.4-3.4-.1-1.8-1.6-3.3-3.4-3.3z"/></g><g><path class="st20" d="M354.1 418.2c-11.6 1.4-12.7 2.5-14.1 14.1-1.4-11.6-2.5-12.7-14.1-14.1 11.6-1.4 12.7-2.5 14.1-14.1 1.4 11.7 2.6 12.8 14.1 14.1zM502.1 356.5c-11.6 1.4-12.7 2.5-14.1 14.1-1.4-11.6-2.5-12.7-14.1-14.1 11.6-1.4 12.7-2.5 14.1-14.1 1.4 11.6 2.5 12.7 14.1 14.1z"/></g><g><path class="st21" d="M462.4 499.5a19.758 19.758 0 0 1 0 0zM466.8 492l.2-.2c-.1.1-.1.2-.2.2zM467.7 491.2l.2-.2c-.1 0-.1.1-.2.2zM464.4 495.1c.1-.1.2-.3.3-.4-.1.2-.2.3-.3.4zM470.3 520.8l-3.4 14.3 3.4-14.3zM473 487.8c.1 0 .1-.1.2-.1-.1 0-.1.1-.2.1zM474.2 487.3c.1 0 .1 0 .2-.1-.1.1-.2.1-.2.1zM475.4 487c.1 0 .1 0 .2-.1-.1 0-.1.1-.2.1zM478 486.5h.2-.2zM465.9 493c.1-.1.1-.2.2-.3 0 .1-.1.2-.2.3zM476.7 486.7h.2-.2zM465.1 494c.1-.1.1-.2.2-.3 0 .1-.1.2-.2.3zM468.7 490.3c.1 0 .1-.1.2-.2l-.2.2zM496.9 496.6c1.3 2.5 2 5.4 2 8.4 0 5.1-2 9.6-5.3 13-1.5 1.5-3.2 2.8-5.1 3.7l7.6 31.8-7.6-31.8c1.9-.9 3.6-2.2 5.1-3.7 3.3-3.4 5.3-7.9 5.3-13 0-3-.7-5.9-2-8.4-1.5-3-3.9-5.6-6.7-7.4 2.8 1.8 5.2 4.4 6.7 7.4zM469.7 489.6c.1 0 .1-.1.2-.1-.1 0-.1.1-.2.1zM470.7 488.9c.1 0 .1-.1.2-.1 0 .1-.1.1-.2.1zM467.1 518.3c.1.1.2.2.3.2-.1-.1-.2-.2-.3-.2zM471.8 488.3c.1 0 .1-.1.2-.1 0 .1-.1.1-.2.1zM463.6 496.5c.1-.2.2-.5.4-.7-.1.2-.3.4-.4.7zM479.8 486.3h-.4-.1c.2.1.3 0 .5 0z"/><path class="st21" d="M479.3 486.4c-.4 0-.8 0-1.2.1h-.2c-.4 0-.7.1-1.1.2h-.2c-.4.1-.7.1-1.1.2-.1 0-.1 0-.2.1-.3.1-.7.2-1 .3-.1 0-.1 0-.2.1-.3.1-.7.2-1 .4-.1 0-.1.1-.2.1-.3.1-.6.3-1 .4-.1 0-.1.1-.2.1-.3.2-.6.3-.9.5-.1 0-.1.1-.2.1-.3.2-.6.4-.9.5-.1 0-.1.1-.2.1-.3.2-.6.4-.8.6-.1 0-.1.1-.2.2-.3.2-.5.4-.8.6l-.2.2c-.2.2-.5.4-.7.7l-.2.2c-.2.2-.4.5-.6.7-.1.1-.1.2-.2.3-.2.2-.4.5-.6.7-.1.1-.2.2-.2.3-.2.2-.3.5-.5.7-.1.1-.2.3-.3.4-.1.2-.3.4-.4.7-.1.2-.2.5-.4.7-.1.1-.2.3-.2.4-.4.8-.7 1.7-1 2.6-.5 1.7-.8 3.6-.8 5.5 0 2.5.5 4.9 1.4 7.1 1 2.3 2.4 4.4 4.1 6.2.1.1.2.2.3.2.9.9 1.9 1.7 3 2.3l-3.4 14.3-4.4 18.4H496l-7.6-31.8c1.9-.9 3.6-2.2 5.1-3.7 3.3-3.4 5.3-7.9 5.3-13 0-3-.7-5.9-2-8.4-1.5-3-3.9-5.6-6.7-7.4-2.9-1.8-6.3-2.9-9.9-2.9h-.4-.1c-.1-.1-.2 0-.4 0z"/><path class="st21" d="M430.2 517.6c0-27.2 22.1-49.2 49.2-49.2v-21.7h-72.5c-9.3 0-16.8 7.5-16.8 16.8v110.2c0 9.3 7.5 16.8 16.8 16.8h72.5v-23.6c-27.2 0-49.2-22.1-49.2-49.3z"/><path class="st21" d="M552.6 446.6h-73.2v21.7c-27.2 0-49.2 22.1-49.2 49.2 0 27.2 22.1 49.2 49.2 49.2v23.6h73.2c9.3 0 16.8-7.5 16.8-16.8V463.4c0-9.2-7.5-16.8-16.8-16.8zm-56.5 107h-33.6l4.4-18.4 3.4-14.3c-1.1-.7-2-1.4-3-2.3-.1-.1-.2-.2-.3-.2-1.8-1.7-3.2-3.9-4.1-6.2-.9-2.2-1.4-4.6-1.4-7.1 0-1.9.3-3.8.8-5.5.3-.9.6-1.7 1-2.6.1-.1.2-.3.2-.4.1-.2.2-.5.4-.7.1-.2.3-.4.4-.7.1-.1.2-.3.3-.4.2-.2.3-.5.5-.7.1-.1.2-.2.2-.3.2-.2.4-.5.6-.7.1-.1.1-.2.2-.3.2-.2.4-.5.7-.7l.2-.2c.2-.2.5-.4.7-.7l.2-.2c.3-.2.5-.4.8-.6l.2-.2c.3-.2.5-.4.8-.6.1-.1.1-.1.2-.1.3-.2.6-.4.9-.5.1 0 .1-.1.2-.1.3-.2.6-.3.9-.5.1 0 .1-.1.2-.1.3-.2.6-.3 1-.4.1 0 .1-.1.2-.1.3-.1.7-.3 1-.4.1 0 .1-.1.2-.1.3-.1.7-.2 1-.3.1 0 .1 0 .2-.1.4-.1.7-.2 1.1-.2h.2c.4-.1.7-.1 1.1-.2h.2c.4-.1.8-.1 1.2-.1h1c3.7 0 7.1 1 9.9 2.9 2.9 1.8 5.2 4.4 6.7 7.4 1.3 2.5 2 5.4 2 8.4 0 5.1-2 9.6-5.3 13-1.5 1.5-3.2 2.8-5.1 3.7l7.4 31.8z"/><path class="st21" d="M467.1 518.3c-1.8-1.7-3.2-3.8-4.1-6.2.9 2.3 2.3 4.4 4.1 6.2zM467.9 491c.3-.2.5-.4.8-.6-.3.2-.5.4-.8.6zM466.2 492.7c.2-.2.4-.5.6-.7-.2.3-.4.5-.6.7zM468.9 490.2c.3-.2.5-.4.8-.6-.3.2-.6.4-.8.6zM467 491.8l.7-.7c-.2.3-.5.5-.7.7zM464.6 494.7c.2-.2.3-.5.5-.7-.1.3-.3.5-.5.7zM465.4 493.7c.2-.2.4-.5.6-.7-.3.2-.4.5-.6.7zM464 495.8c.1-.2.3-.4.4-.7-.1.3-.3.5-.4.7zM463.6 496.5c-.1.1-.2.3-.2.4-.4.8-.7 1.7-1 2.6.3-.9.6-1.8 1-2.6.1-.1.2-.3.2-.4zM478.1 486.5c.4 0 .8-.1 1.2-.1-.4 0-.8 0-1.2.1zM462.5 553.6l4.4-18.5-4.4 18.5h16.9zM467.4 518.5c.9.9 1.9 1.7 3 2.3-1.1-.6-2.1-1.4-3-2.3zM476.9 486.6c.4-.1.7-.1 1.1-.2-.4.1-.8.2-1.1.2zM472 488.2c.3-.2.6-.3 1-.4-.3.1-.6.3-1 .4zM470.9 488.8c.3-.2.6-.3.9-.5-.3.2-.6.3-.9.5zM475.6 486.9c.4-.1.7-.2 1.1-.2-.4.1-.7.1-1.1.2zM469.9 489.5c.3-.2.6-.4.9-.5-.3.1-.6.3-.9.5zM474.4 487.3c.3-.1.7-.2 1-.3-.3.1-.7.2-1 .3zM473.2 487.7c.3-.1.7-.3 1-.4-.4.2-.7.3-1 .4zM490.2 489.2c-2.9-1.8-6.3-2.9-9.9-2.9h-.4.4c3.6 0 7 1.1 9.9 2.9z"/><path d="M545.5 446.6h-19.7c-1-6.6-3.3-12.8-6.8-18.2-8.2-12.8-22.4-21.3-38.7-21.5h-.4c-16.4 0-30.9 8.6-39.2 21.5-3.5 5.4-5.8 11.6-6.8 18.2h-19.7c.6-6.4 2.2-12.5 4.5-18.2 9.9-24.1 27.2-41.1 52.5-41.1h9.1c27.4.2 50.9 17.1 60.7 41.1 2.3 5.8 3.8 11.9 4.5 18.2z"/><g><path class="st21" d="M454.4 499.5a19.758 19.758 0 0 1 0 0zM458.8 492l.2-.2c-.1.1-.1.2-.2.2zM459.7 491.2l.2-.2c-.1 0-.1.1-.2.2zM456.4 495.1c.1-.1.2-.3.3-.4-.1.2-.2.3-.3.4zM462.3 520.8l-3.4 14.3 3.4-14.3zM465 487.8c.1 0 .1-.1.2-.1-.1 0-.1.1-.2.1zM466.2 487.3c.1 0 .1 0 .2-.1-.1.1-.1.1-.2.1zM467.4 487c.1 0 .1 0 .2-.1-.1 0-.1.1-.2.1zM470 486.5h.2-.2zM457.9 493c.1-.1.1-.2.2-.3 0 .1-.1.2-.2.3zM468.7 486.7h.2-.2zM457.1 494c.1-.1.1-.2.2-.3 0 .1-.1.2-.2.3zM460.7 490.3c.1 0 .1-.1.2-.2-.1.1-.1.2-.2.2zM488.9 496.6c1.3 2.5 2 5.4 2 8.4 0 5.1-2 9.6-5.3 13-1.5 1.5-3.2 2.8-5.1 3.7l7.6 31.8-7.6-31.8c1.9-.9 3.6-2.2 5.1-3.7 3.3-3.4 5.3-7.9 5.3-13 0-3-.7-5.9-2-8.4-1.5-3-3.9-5.6-6.7-7.4 2.8 1.8 5.2 4.4 6.7 7.4zM461.7 489.6c.1 0 .1-.1.2-.1-.1 0-.1.1-.2.1zM462.8 488.9c.1 0 .1-.1.2-.1-.1.1-.2.1-.2.1zM459.1 518.3c.1.1.2.2.3.2-.1-.1-.2-.2-.3-.2zM463.9 488.3c.1 0 .1-.1.2-.1-.1.1-.2.1-.2.1zM455.6 496.5c.1-.2.2-.5.4-.7-.1.2-.2.4-.4.7zM471.8 486.3h-.4-.1c.2.1.3 0 .5 0z"/><path class="st21" d="M471.3 486.4c-.4 0-.8 0-1.2.1h-.2c-.4 0-.7.1-1.1.2h-.2c-.4.1-.7.1-1.1.2-.1 0-.1 0-.2.1-.3.1-.7.2-1 .3-.1 0-.1 0-.2.1-.3.1-.7.2-1 .4-.1 0-.1.1-.2.1-.3.1-.6.3-1 .4-.1 0-.1.1-.2.1-.3.2-.6.3-.9.5-.1 0-.1.1-.2.1-.3.2-.6.4-.9.5-.1 0-.1.1-.2.1-.3.2-.6.4-.8.6-.1 0-.1.1-.2.2-.3.2-.5.4-.8.6l-.2.2c-.2.2-.5.4-.7.7l-.2.2c-.2.2-.4.5-.6.7-.1.1-.1.2-.2.3-.2.2-.4.5-.6.7-.1.1-.2.2-.2.3-.2.2-.3.5-.5.7-.1.1-.2.3-.3.4-.1.2-.3.4-.4.7-.1.2-.2.5-.4.7-.1.1-.2.3-.2.4-.4.8-.7 1.7-1 2.6-.5 1.7-.8 3.6-.8 5.5 0 2.5.5 4.9 1.4 7.1 1 2.3 2.4 4.4 4.1 6.2.1.1.2.2.3.2.9.9 1.9 1.7 3 2.3l-3.4 14.3-4.4 18.4H488l-7.6-31.8c1.9-.9 3.6-2.2 5.1-3.7 3.3-3.4 5.3-7.9 5.3-13 0-3-.7-5.9-2-8.4-1.5-3-3.9-5.6-6.7-7.4-2.9-1.8-6.3-2.9-9.9-2.9h-.4-.1c-.1-.1-.2 0-.4 0z"/><linearGradient id="SVGID_16_" gradientUnits="userSpaceOnUse" x1="537.067" y1="518.55" x2="394.943" y2="518.55"><stop offset="0" stop-color="#e68e3e"/><stop offset="1" stop-color="#fddb47"/></linearGradient><path class="st22" d="M422.2 517.6c0-27.2 22.1-49.2 49.2-49.2v-21.7h-72.5c-9.3 0-16.8 7.5-16.8 16.8v110.2c0 9.3 7.5 16.8 16.8 16.8h72.5v-23.6c-27.2 0-49.2-22.1-49.2-49.3z"/><linearGradient id="SVGID_17_" gradientUnits="userSpaceOnUse" x1="423.939" y1="518.55" x2="639.984" y2="518.55"><stop offset="0" stop-color="#e68e3e"/><stop offset="1" stop-color="#fddb47"/></linearGradient><path class="st23" d="M544.6 446.6h-73.2v21.7c-27.2 0-49.2 22.1-49.2 49.2 0 27.2 22.1 49.2 49.2 49.2v23.6h73.2c9.3 0 16.8-7.5 16.8-16.8V463.4c0-9.2-7.5-16.8-16.8-16.8zm-56.5 107h-33.6l4.4-18.4 3.4-14.3c-1.1-.7-2-1.4-3-2.3-.1-.1-.2-.2-.3-.2-1.8-1.7-3.2-3.9-4.1-6.2-.9-2.2-1.4-4.6-1.4-7.1 0-1.9.3-3.8.8-5.5.3-.9.6-1.7 1-2.6.1-.1.2-.3.2-.4.1-.2.2-.5.4-.7.1-.2.3-.4.4-.7.1-.1.2-.3.3-.4.2-.2.3-.5.5-.7.1-.1.2-.2.2-.3.2-.2.4-.5.6-.7.1-.1.1-.2.2-.3.2-.2.4-.5.7-.7l.2-.2c.2-.2.5-.4.7-.7l.2-.2c.3-.2.5-.4.8-.6l.2-.2c.3-.2.5-.4.8-.6.1-.1.1-.1.2-.1.3-.2.6-.4.9-.5.1 0 .1-.1.2-.1.3-.2.6-.3.9-.5.1 0 .1-.1.2-.1.3-.2.6-.3 1-.4.1 0 .1-.1.2-.1.3-.1.7-.3 1-.4.1 0 .1-.1.2-.1.3-.1.7-.2 1-.3.1 0 .1 0 .2-.1.4-.1.7-.2 1.1-.2h.2c.4-.1.7-.1 1.1-.2h.2c.4-.1.8-.1 1.2-.1h1c3.7 0 7.1 1 9.9 2.9 2.9 1.8 5.2 4.4 6.7 7.4 1.3 2.5 2 5.4 2 8.4 0 5.1-2 9.6-5.3 13-1.5 1.5-3.2 2.8-5.1 3.7l7.4 31.8z"/><path class="st24" d="M459.1 518.3c-1.8-1.7-3.2-3.8-4.1-6.2.9 2.3 2.3 4.4 4.1 6.2zM459.9 491c.3-.2.5-.4.8-.6-.3.2-.5.4-.8.6zM458.2 492.7c.2-.2.4-.5.6-.7-.2.3-.4.5-.6.7zM460.9 490.2c.3-.2.5-.4.8-.6-.3.2-.6.4-.8.6zM459 491.8l.7-.7c-.2.3-.5.5-.7.7zM456.7 494.7c.2-.2.3-.5.5-.7-.2.3-.4.5-.5.7zM457.4 493.7c.2-.2.4-.5.6-.7-.2.2-.4.5-.6.7zM456 495.8c.1-.2.3-.4.4-.7-.1.3-.3.5-.4.7zM455.6 496.5c-.1.1-.2.3-.2.4-.4.8-.7 1.7-1 2.6.3-.9.6-1.8 1-2.6.1-.1.2-.3.2-.4zM470.1 486.5c.4 0 .8-.1 1.2-.1-.4 0-.8 0-1.2.1zM454.5 553.6l4.4-18.5-4.4 18.5h16.9zM459.4 518.5c.9.9 1.9 1.7 3 2.3-1.1-.6-2.1-1.4-3-2.3zM468.9 486.6c.4-.1.7-.1 1.1-.2-.4.1-.8.2-1.1.2zM464.1 488.2c.3-.2.6-.3 1-.4-.4.1-.7.3-1 .4zM462.9 488.8c.3-.2.6-.3.9-.5-.3.2-.6.3-.9.5zM467.6 486.9c.4-.1.7-.2 1.1-.2-.4.1-.7.1-1.1.2zM461.9 489.5c.3-.2.6-.4.9-.5-.3.1-.6.3-.9.5zM466.4 487.3c.3-.1.7-.2 1-.3-.3.1-.7.2-1 .3zM465.2 487.7c.3-.1.7-.3 1-.4-.3.2-.7.3-1 .4zM482.2 489.2c-2.9-1.8-6.3-2.9-9.9-2.9h-.4.4c3.6 0 7 1.1 9.9 2.9z"/><path class="st25" d="M537.5 446.6h-19.7c-1-6.6-3.3-12.8-6.8-18.2-8.2-12.8-22.4-21.3-38.7-21.5h-.4c-16.4 0-30.9 8.6-39.2 21.5-3.5 5.4-5.8 11.6-6.8 18.2h-19.7c.6-6.4 2.2-12.5 4.5-18.2 9.9-24.1 33.6-41.1 61.2-41.1h.4c27.4.2 50.9 17.2 60.7 41.1 2.3 5.8 3.8 11.9 4.5 18.2z"/><path class="st26" d="M524 446.6h-6.2c-1-6.6-3.3-12.8-6.8-18.2-8.2-12.8-22.4-21.3-38.7-21.5h-.4c-16.4 0-30.9 8.6-39.2 21.5-3.5 5.4-5.8 11.6-6.8 18.2h-7c.5-5.1 1.8-10 3.6-14.6 7.9-19.3 26.9-32.9 48.9-32.9h.4c21.9.2 40.7 13.7 48.6 32.9 1.8 4.7 3.1 9.5 3.6 14.6z"/></g></g></svg>