<svg version="1" xmlns="http://www.w3.org/2000/svg" width="980" height="944" viewBox="0 0 9800 9440"><g fill="#bcc4cd"><path d="M4577 9133C3390 7965 6 4601 2 4586c-2-8 621-659 979-1021l49-49 137 134c76 74 947 940 1936 1924l1798 1790 1925-1925 1926-1924 524 530c288 292 523 535 521 540-2 8-1764 1762-3667 3650-694 689-1222 1205-1232 1205-4 0-149-138-321-307z"/><path d="M4393 5458C2707 3792 0 1094 2 1084 8 1057 1021 10 1041 10c6 0 876 865 1935 1922l1925 1922 603-604c331-333 1195-1201 1920-1930L8741-5l127 130c70 72 308 316 530 543s402 417 400 421c-9 23-4885 4861-4899 4861-4 0-232-221-506-492z"/></g><g fill="#303030"><path d="M4577 9133C3390 7965 6 4601 2 4586c-2-8 621-659 979-1021l49-49 137 134c76 74 947 940 1936 1924l1798 1790 1925-1925 1926-1924 524 530c288 292 523 535 521 540-2 8-1764 1762-3667 3650-694 689-1222 1205-1232 1205-4 0-149-138-321-307zm933-300c892-880 4280-4246 4280-4252 0-3-235-241-523-529l-522-522-1924 1924-1925 1925-1846-1842C2034 4524 1164 3659 1116 3615l-88-79-172 174c-94 96-324 332-511 523L6 4582l664 662c1104 1098 3131 3109 3694 3664 505 497 530 520 550 506 11-8 280-269 596-581z"/><path d="M4393 5458C2707 3792 0 1094 2 1084 8 1057 1021 10 1041 10c6 0 876 865 1935 1922l1925 1922 603-604c331-333 1195-1201 1920-1930L8741-5l127 130c70 72 308 316 530 543s402 417 400 421c-9 23-4885 4861-4899 4861-4 0-232-221-506-492zm821 175c171-170 1271-1262 2444-2427l2133-2119-113-116c-562-576-931-951-938-951-4 0-866 863-1916 1918-1049 1054-1912 1919-1917 1921s-593-579-1306-1290C2888 1857 2020 991 1672 645L1038 15 862 195C559 504 9 1082 12 1089c7 15 4878 4851 4887 4851 2 0 144-138 315-307z"/></g><g fill="#505050"><path d="M4577 9133C3390 7965 6 4601 2 4586c-2-8 621-659 979-1021l49-49 137 134c76 74 947 940 1936 1924l1798 1790 1925-1925 1926-1924 524 530c288 292 523 535 521 540-2 8-1764 1762-3667 3650-694 689-1222 1205-1232 1205-4 0-149-138-321-307zm794-160c467-460 3951-3918 4259-4227l165-166-525-525-525-525-1922 1922-1923 1923-532-531C2218 4702 1037 3529 1030 3532c-4 2-191 192-415 423s-453 466-509 523L5 4580l310 311c414 415 3664 3640 4174 4142 221 218 406 397 410 397s216-206 472-457z"/><path d="M4393 5458C2707 3792 0 1094 2 1084 8 1057 1021 10 1041 10c6 0 876 865 1935 1922l1925 1922 603-604c331-333 1195-1201 1920-1930L8741-5l127 130c70 72 308 316 530 543s402 417 400 421c-9 23-4885 4861-4899 4861-4 0-232-221-506-492zm1792-785c704-698 1803-1790 2443-2428l1164-1160-253-260c-140-143-376-385-526-538L8741 9 7664 1092c-593 596-1457 1463-1921 1928l-843 845-1622-1620C2385 1354 1516 488 1347 320L1039 15 822 235C463 600 8 1079 12 1090c6 19 4875 4850 4887 4850 4 0 583-570 1286-1267z"/></g><g fill="#707070"><path d="M4577 9133c-559-550-2438-2413-3522-3493-582-580-983-981-890-890 94 91 840 831 1660 1645 1499 1490 2911 2886 3018 2985l57 53 103-99c257-249 2558-2527 3617-3582l1175-1170-525-526-525-526-1922 1922-1923 1923-812-811C2170 4651 1038 3529 1030 3532c-5 2-215 215-465 473-251 259-482 495-513 525-92 90 49-59 458-480 205-212 406-419 446-460l74-74 137 134c76 74 947 940 1936 1924l1798 1790 1925-1925 1926-1924 524 530c288 292 523 535 521 540-2 8-1764 1762-3667 3650-694 689-1222 1205-1232 1205-4 0-149-138-321-307z"/><path d="M4393 5458C3530 4605 0 1097 0 1092c0-4 398 390 2981 2953 954 946 1776 1761 1827 1810l92 89 153-150c353-346 2605-2581 3630-3602l1107-1104-42-47C9681 967 8746 10 8740 10c-3 0-782 782-1732 1738-950 955-1813 1822-1918 1927l-190 190-1693-1690C2277 1245 1408 379 1278 250L1040 15 904 150c-74 74-307 314-516 532C179 901 5 1080 2 1080c-4 0 27-35 69-77 41-43 176-184 299-313 320-336 660-680 671-680 6 0 876 865 1935 1922l1925 1922 603-604c331-333 1195-1201 1920-1930L8741-5l127 130c70 72 308 316 530 543s402 417 400 421c-9 23-4885 4861-4899 4861-4 0-232-221-506-492z"/></g><g fill="#909090"><path d="M4869 9413l-24-28 28 24 28 25 72-70 72-69-70 73c-38 39-72 72-75 72-4 0-17-12-31-27zM4565 9118l-250-253 253 250c138 137 252 251 252 252 0 8-23-15-255-249zM5330 9015c146-146 267-265 270-265s-114 119-260 265-267 265-270 265 114-119 260-265zM3870 8435c-223-223-403-405-400-405s187 182 410 405 403 405 400 405-187-182-410-405zM6065 8290c231-231 422-420 425-420s-184 189-415 420-422 420-425 420 184-189 415-420zM2825 7398l-580-583 583 580c320 319 582 581 582 582 0 7-46-38-585-579zM7235 7130c363-363 662-660 665-660s-292 297-655 660-662 660-665 660 292-297 655-660zM3985 6458l-910-913 913 910 912 910 1925-1925 1925-1925 302 305 303 305-303-300-302-300-1923 1923C5770 6505 4903 7370 4900 7370s-415-411-915-912zM1330 5913l-795-798 798 795c438 437 797 796 797 797 0 2-1 3-3 3-1 0-360-359-797-797zM8795 5580c434-434 792-790 795-790s-351 356-785 790c-434 435-792 790-795 790s351-355 785-790z"/><path d="M4840 5893l-55-58 58 55 57 54 98-94 97-95-95 98c-52 53-97 97-100 97s-30-26-60-57zM4390 5453l-365-368 368 365c202 201 367 366 367 367 0 7-31-23-370-364zM5580 5275c239-239 437-435 440-435s-191 196-430 435-437 435-440 435 191-196 430-435zM2095 4578l-810-813 813 810c446 445 812 811 812 812 0 2-1 3-3 3-1 0-367-366-812-812zM3335 4408l-610-613 613 610c569 567 616 615 609 615-1 0-277-276-612-612zM205 4800C90 4685-3 4590 0 4590s100 95 215 210c115 116 208 210 205 210s-100-94-215-210zM6705 4160c330-330 602-600 605-600s-265 270-595 600-602 600-605 600 265-270 595-600zM9750 4638c24-27 45-48 47-48 8 0 0 9-44 50l-48 45 45-47zM55 4520c33-33 62-60 64-60 3 0-21 27-54 60s-62 60-64 60c-3 0 21-27 54-60zM9640 4423l-155-158 158 155c146 144 162 160 154 160-1 0-72-71-157-157zM305 4260c93-93 172-170 175-170s-72 77-165 170c-93 94-172 170-175 170s72-76 165-170zM665 3890c93-93 172-170 175-170s-72 77-165 170c-93 94-172 170-175 170s72-76 165-170zM5430 3325c294-294 537-535 540-535s-236 241-530 535-537 535-540 535 236-241 530-535zM1143 3638l-113-113-87 85-88 85 88-90 87-90 117 118c65 64 116 117 113 117s-56-51-117-112zM3115 2078L1445 405l1673 1670c919 918 1672 1671 1672 1672 0 2-1 3-3 3-1 0-754-753-1672-1672zM1880 2963l-765-768 768 765c422 421 767 766 767 767 0 2-1 3-3 3-1 0-346-345-767-767zM8355 2520c511-511 932-930 935-930s-414 418-925 930-932 930-935 930 414-418 925-930zM6970 1775c481-481 877-875 880-875s-389 394-870 875-877 875-880 875 389-394 870-875zM500 1593L-5 1085l508 505c279 278 507 506 507 507 0 7-41-33-510-504zM9609 1278c168-170 183-188 171-205-13-17-13-17 5 0 19 17 15 22-170 205l-190 187 184-187zM65 1010c38-38 72-70 74-70 3 0-26 32-64 70-38 39-72 70-74 70-3 0 26-31 64-70zM9570 853l-175-178 178 175c97 96 177 176 177 177 0 8-18-10-180-174zM245 820c55-55 102-100 105-100 2 0-40 45-95 100S153 920 150 920c-2 0 40-45 95-100zM8357 380L8740-5l117 120 118 120-118-115L8740 5l-383 380-382 380 382-385zM455 600c55-55 102-100 105-100 2 0-40 45-95 100S363 700 360 700c-2 0 40-45 95-100zM9180 455c-107-107-193-195-190-195s93 88 200 195 193 195 190 195-93-88-200-195zM725 320c82-82 152-150 155-150 2 0-63 68-145 150-82 83-152 150-155 150-2 0 63-67 145-150zM1215 190C1101 76 1040 22 1030 25c-12 5-13 4-2-7 10-10 46 21 190 165 97 97 175 177 172 177s-82-77-175-170z"/></g><g fill="#b4b4b4"><path d="M4874 9418l-19-23 23 19 23 20 42-40 42-39-40 43c-21 23-42 42-45 42-4 0-15-10-26-22zM4610 9163l-205-208 208 205c114 113 207 206 207 207 0 8-20-12-210-204zM5285 9060c121-121 222-220 225-220s-94 99-215 220-222 220-225 220 94-99 215-220zM3930 8493l-345-348 348 345c191 190 347 346 347 347 0 7-29-22-350-344zM5985 8370c187-187 342-340 345-340s-148 153-335 340-342 340-345 340 148-153 335-340zM2930 7503l-475-478 478 475c443 441 481 480 474 480-1 0-216-215-477-477zM7105 7260c291-291 532-530 535-530s-234 239-525 530c-291 292-532 530-535 530s234-238 525-530zM3985 6458l-910-913 913 910 912 910 1925-1925 1925-1925 302 305 303 305-303-300-302-300-1923 1923C5770 6505 4903 7370 4900 7370s-415-411-915-912zM1445 6028l-680-683 683 680c375 374 682 681 682 682 0 7-53-45-685-679zM8670 5705c366-366 667-665 670-665s-294 299-660 665-667 665-670 665 294-299 660-665z"/><path d="M4869 5923l-24-28 28 24 27 25 63-60 62-59-60 63c-33 34-62 62-65 62-4 0-17-12-31-27zM4470 5535c-157-157-283-285-280-285s133 128 290 285 283 285 280 285-133-128-290-285zM5485 5370c187-187 342-340 345-340s-148 153-335 340-342 340-345 340 148-153 335-340zM3425 4498l-520-523 523 520c287 286 522 521 522 522 0 7-42-34-525-519zM205 4800C90 4685-3 4590 0 4590s100 95 215 210c115 116 208 210 205 210s-100-94-215-210zM1905 4388l-620-623 623 620c342 341 622 621 622 622 0 7-49-41-625-619zM6610 4255c278-278 507-505 510-505s-222 227-500 505-507 505-510 505 222-227 500-505zM9750 4638c24-27 45-48 47-48 8 0 0 9-44 50l-48 45 45-47zM0 4577c0-2 15-16 33-33l32-29-29 33c-28 30-36 37-36 29zM280 4285c80-80 147-145 150-145 2 0-60 65-140 145s-147 145-150 145c-2 0 60-65 140-145zM640 3915c80-80 147-145 150-145 2 0-60 65-140 145s-147 145-150 145c-2 0 60-65 140-145zM5305 3450c225-225 412-410 415-410s-180 185-405 410c-225 226-412 410-415 410s180-184 405-410zM1995 3078l-650-653 653 650c606 604 656 655 649 655-1 0-295-294-652-652zM1118 3613l-88-88-87 85-88 85 88-90 87-90 92 93c51 50 91 92 88 92s-44-39-92-87zM8205 2673c429-431 781-783 782-783 2 0 3 1 3 3 0 1-352 353-782 782l-783 780 780-782zM6845 1900c412-412 752-750 755-750s-333 338-745 750c-412 413-752 750-755 750s333-337 745-750zM2300 1263l-855-858 858 855c471 470 857 856 857 857 0 2-1 3-3 3-1 0-387-386-857-857zM500 1593L-5 1085l508 505c279 278 507 506 507 507 0 7-41-33-510-504zM9610 1275c102-104 187-189 190-187 2 1-81 87-185 190l-190 187 185-190zM50 1025c30-30 57-55 59-55 3 0-19 25-49 55s-57 55-59 55c-3 0 19-25 49-55zM9595 880c-82-82-147-150-145-150 3 0 73 68 155 150 82 83 147 150 145 150-3 0-73-67-155-150zM230 835c47-47 87-85 90-85 2 0-33 38-80 85s-87 85-90 85c-2 0 33-38 80-85zM8357 380L8740-5l117 120 118 120-118-115L8740 5l-383 380-382 380 382-385zM440 615c47-47 87-85 90-85 2 0-33 38-80 85s-87 85-90 85c-2 0 33-38 80-85zM9210 483l-165-168 168 165c92 91 167 166 167 167 0 8-17-9-170-164zM695 350c66-66 122-120 125-120 2 0-49 54-115 120S583 470 580 470c-2 0 49-54 115-120zM1139 115c-58-58-103-105-100-105 4 0 53 47 111 105s102 105 100 105c-3 0-53-47-111-105z"/></g><g fill="#e8e8e8"><path d="M4660 9213l-155-158 158 155c146 144 162 160 154 160-1 0-72-71-157-157zM5235 9110c93-93 172-170 175-170s-72 77-165 170c-93 94-172 170-175 170s72-76 165-170zM4005 8568l-270-273 273 270c149 148 272 271 272 272 0 8-24-16-275-269zM5910 8445c146-146 267-265 270-265s-114 119-260 265-267 265-270 265 114-119 260-265zM3025 7598l-380-383 383 380c355 353 386 385 379 385-1 0-173-172-382-382zM6960 7405c212-212 387-385 390-385s-168 173-380 385-387 385-390 385 168-173 380-385zM3985 6458l-910-913 913 910c501 500 912 911 912 912 0 2-1 3-3 3-1 0-412-411-912-912zM1580 6163l-545-548 548 545c301 300 547 546 547 547 0 7-43-36-550-544zM8520 5855c283-283 517-515 520-515s-227 232-510 515-517 515-520 515 227-232 510-515zM4884 5938c-5-7-3-8 5-3 8 4 25-4 44-21l32-29-29 33c-32 35-41 38-52 20zM4535 5598l-220-223 223 220c206 204 227 225 219 225-1 0-101-100-222-222zM5375 5480c126-126 232-230 235-230s-99 104-225 230c-126 127-232 230-235 230s99-103 225-230zM3530 4603l-415-418 418 415c388 386 421 420 414 420-1 0-189-188-417-417zM205 4800C90 4685-3 4590 0 4590s100 95 215 210c115 116 208 210 205 210s-100-94-215-210zM6110 4757c0-1 177-178 393-392l392-390-390 393c-362 364-395 396-395 389zM9750 4638c24-27 45-48 47-48 8 0 0 9-44 50l-48 45 45-47zM1685 4168l-400-403 403 400c374 372 406 405 399 405-1 0-182-181-402-402zM255 4310c66-66 122-120 125-120 2 0-49 54-115 120s-122 120-125 120c-2 0 49-54 115-120zM9045 3820c-166-165-298-300-295-300s140 135 305 300 298 300 295 300-140-135-305-300zM615 3940c66-66 122-120 125-120 2 0-49 54-115 120s-122 120-125 120c-2 0 49-54 115-120zM5160 3595c146-146 267-265 270-265s-114 119-260 265-267 265-270 265 114-119 260-265zM2130 3213l-515-518 518 515c284 283 517 516 517 517 0 7-41-33-520-514zM942 3605l88-90 67 70 68 70-68-65-67-64-88 84-87 85 87-90zM8030 2845c333-333 607-605 610-605s-267 272-600 605-607 605-610 605 267-272 600-605zM6705 2040c335-335 612-610 615-610s-270 275-605 610c-335 336-612 610-615 610s270-274 605-610zM500 1593L-5 1085l508 505c279 278 507 506 507 507 0 7-41-33-510-504zM2020 983l-575-578 578 575c317 316 577 576 577 577 0 7-46-38-580-574zM9610 1275c102-102 187-185 190-185s-78 83-180 185-187 185-190 185 78-83 180-185zM35 1040c21-22 41-40 44-40s-13 18-34 40-41 40-44 40 13-18 34-40zM9635 918l-110-113 113 110c104 102 117 115 109 115-1 0-52-51-112-112zM215 850c38-38 72-70 74-70 3 0-26 32-64 70-38 39-72 70-74 70-3 0 26-31 64-70zM8357 380L8740-5l117 120 118 120-118-115L8740 5l-383 380-382 380 382-385zM420 635c35-36 67-65 69-65 3 0-24 29-59 65s-67 65-69 65c-3 0 24-29 59-65zM9255 530c-66-66-117-120-115-120 3 0 59 54 125 120s117 120 115 120c-3 0-59-54-125-120zM670 375c52-52 97-95 100-95 2 0-38 43-90 95s-97 95-100 95c-2 0 38-43 90-95zM1090 63l-55-58 58 55c53 50 62 60 54 60-1 0-27-26-57-57z"/></g></svg>