<svg id="Слой_1" xmlns="http://www.w3.org/2000/svg" viewBox="0 0 441 443.5"><style>.st0{opacity:.41;fill:#99eab8}.st1{fill:url(#SVGID_1_)}.st2{fill:url(#SVGID_2_)}.st3{fill:#fff}.st4{fill:#e0eaef}.st5{fill:#696e73}.st6{fill:#373c41}.st7{fill:url(#SVGID_3_)}.st8{fill:url(#SVGID_4_)}</style><circle class="st0" cx="222.1" cy="215.2" r="173.1"/><g id="surface1"><linearGradient id="SVGID_1_" gradientUnits="userSpaceOnUse" x1="79.969" y1="221.134" x2="363.642" y2="221.134"><stop offset=".004" stop-color="#01e971"/><stop offset=".642" stop-color="#00d351"/><stop offset="1" stop-color="#00cb44"/></linearGradient><path class="st1" d="M348.7 277c-9 24.3-22.5 45.4-40.3 62.7-20.2 19.7-46.7 35.4-78.7 46.6-1 .4-2.1.7-3.2.9-1.5.3-2.9.4-4.4.5h-.3c-1.6 0-3.1-.2-4.7-.5-1.1-.2-2.2-.5-3.2-.9-32-11.2-58.5-26.8-78.8-46.6-17.8-17.3-31.3-38.4-40.2-62.7-16.3-44-15.3-92.6-14.6-131.7v-.6c.1-3.2.2-6.6.3-10.4.3-18.4 14.9-33.6 33.2-34.6 38.3-2.1 67.9-14.6 93.2-39.3l.2-.2c4.2-3.9 9.5-5.7 14.8-5.7 5.1.1 10.1 2 14.2 5.7l.2.2c25.3 24.7 54.9 37.2 93.2 39.3 18.4 1 33 16.2 33.2 34.6.1 3.8.1 7.1.3 10.4v.3c1 39.1 1.9 87.8-14.4 132z"/><linearGradient id="SVGID_2_" gradientUnits="userSpaceOnUse" x1="222.095" y1="221.136" x2="363.642" y2="221.136"><stop offset=".004" stop-color="#01e971"/><stop offset=".642" stop-color="#00d351"/><stop offset="1" stop-color="#00cb44"/></linearGradient><path class="st2" d="M348.7 277c-9 24.3-22.5 45.4-40.3 62.7-20.2 19.7-46.7 35.4-78.7 46.6-1 .4-2.1.7-3.2.9-1.5.3-2.9.4-4.4.5V54.6c5.1.1 10.1 2 14.2 5.7l.2.2c25.3 24.7 54.9 37.2 93.2 39.3 18.4 1 33 16.2 33.2 34.6.1 3.8.1 7.1.3 10.4v.3c.9 39 1.8 87.7-14.5 131.9z"/><path class="st3" d="M304.8 221.1c0 45.7-37.1 82.9-82.7 83h-.3c-45.8 0-83-37.2-83-83s37.2-83 83-83h.3c45.6.2 82.7 37.4 82.7 83z"/><path class="st4" d="M304.8 221.1c0 45.7-37.1 82.9-82.7 83v-166c45.6.2 82.7 37.4 82.7 83z"/></g><g id="surface1_1_"><path class="st5" d="M245.2 186.7v24.8h-18.7v-25c0-2.7-2.2-4.9-4.9-5h-.1c-2.7 0-5 2.2-5 5v25h-18.7v-24.8c0-13 10.6-23.6 23.6-23.6h.1c13.2 0 23.7 10.6 23.7 23.6z"/><path class="st6" d="M245.2 186.7v24.8h-18.7v-25c0-2.7-2.2-4.9-4.9-5V163c13.1.1 23.6 10.7 23.6 23.7z"/><linearGradient id="SVGID_3_" gradientUnits="userSpaceOnUse" x1="185.033" y1="242.147" x2="258.11" y2="242.147"><stop offset=".004" stop-color="#01e971"/><stop offset=".642" stop-color="#00d351"/><stop offset="1" stop-color="#00cb44"/></linearGradient><path class="st7" d="M258.1 212.8v58.6c0 2.6-2.1 4.8-4.8 4.8h-63.6c-2.6 0-4.8-2.1-4.8-4.8v-58.6c0-2.6 2.1-4.8 4.8-4.8h63.6c2.7.1 4.8 2.2 4.8 4.8z"/><linearGradient id="SVGID_4_" gradientUnits="userSpaceOnUse" x1="221.671" y1="242.147" x2="258.11" y2="242.147"><stop offset=".004" stop-color="#01e971"/><stop offset=".642" stop-color="#00d351"/><stop offset="1" stop-color="#00cb44"/></linearGradient><path class="st8" d="M258.1 212.8v58.6c0 2.6-2.1 4.8-4.8 4.8h-31.7v-68.1h31.7c2.7 0 4.8 2.1 4.8 4.7z"/><path class="st3" d="M242.5 231.1l-20.8 20.8-5.9 5.9c-.6.6-1.5 1-2.3 1-.8 0-1.7-.3-2.3-1L201 247.6a3.32 3.32 0 0 1 0-4.7c1.3-1.3 3.4-1.3 4.7 0l7.9 7.9 24.4-24.4c1.3-1.3 3.4-1.3 4.7 0 1.1 1.3 1.1 3.4-.2 4.7z"/><path class="st4" d="M242.5 231.1l-20.8 20.8v-9.4l16.1-16.1c1.3-1.3 3.4-1.3 4.7 0 1.3 1.3 1.3 3.4 0 4.7z"/></g></svg>