<svg id="Слой_1" xmlns="http://www.w3.org/2000/svg" viewBox="0 0 428.7 488.9"><style>.st0{opacity:.41;fill:#99eab8}.st1{fill:url(#SVGID_1_)}.st2{fill:url(#SVGID_2_)}.st3{fill:url(#SVGID_3_)}.st4{fill:url(#SVGID_4_)}.st5{fill:url(#SVGID_5_)}.st6{fill:url(#SVGID_6_)}.st7{fill:url(#SVGID_7_)}.st8{fill:url(#SVGID_8_)}.st9{fill:url(#SVGID_9_)}.st10{fill:url(#SVGID_10_)}.st11{fill:url(#SVGID_11_)}.st12{fill:#1f1f1f}.st13{fill:#56cf5e}.st14{opacity:.2;fill:url(#SVGID_12_)}.st15{fill:url(#SVGID_13_)}.st16{fill:url(#SVGID_14_)}.st17{fill:url(#SVGID_15_)}.st18{fill:url(#SVGID_16_)}.st19{opacity:.29;fill:url(#SVGID_17_)}.st20{fill:url(#SVGID_18_)}.st21{fill:url(#SVGID_19_)}.st22{fill:url(#SVGID_20_)}.st23{fill:url(#SVGID_21_)}.st24{fill:url(#SVGID_22_)}.st25{fill:url(#SVGID_23_)}.st26{fill:url(#SVGID_24_)}.st27{fill:url(#SVGID_25_)}.st28{opacity:.65;fill:url(#SVGID_26_)}.st29{fill:url(#SVGID_27_)}.st30{fill:url(#SVGID_28_)}.st31{fill:url(#SVGID_29_)}.st32{fill:url(#SVGID_30_)}.st33{fill:url(#SVGID_31_)}.st34{fill:url(#SVGID_32_)}.st35{fill:url(#SVGID_33_)}.st36{fill:url(#SVGID_34_)}.st37{fill:url(#SVGID_35_)}.st38{fill:url(#SVGID_36_)}.st39{fill:url(#SVGID_37_)}.st40{fill:url(#SVGID_38_)}.st41{opacity:.4;fill:url(#SVGID_39_)}.st42{fill:url(#SVGID_40_)}.st43{fill:url(#SVGID_41_)}.st44{fill:url(#SVGID_42_)}.st45{fill:url(#SVGID_43_)}.st46{opacity:.1;fill:url(#SVGID_44_)}.st47{fill:url(#SVGID_45_)}.st48{fill:url(#SVGID_46_)}.st49{fill:url(#SVGID_47_)}.st50{fill:url(#SVGID_48_)}.st51{fill:url(#SVGID_49_)}.st52{fill:url(#SVGID_50_)}.st53{fill:url(#SVGID_51_)}.st54{fill:url(#SVGID_52_)}.st55{fill:url(#SVGID_53_)}.st56{fill:url(#SVGID_54_)}.st57{fill:url(#SVGID_55_)}.st58{opacity:.29;fill:url(#SVGID_56_)}.st59{opacity:.19;fill:url(#SVGID_57_)}.st60{opacity:.36;fill:url(#SVGID_58_)}.st61,.st62{fill:#1f1f1f;stroke:#3f3f3f;stroke-miterlimit:10}.st62{fill:none;stroke:#666563;stroke-linecap:round;stroke-linejoin:round;stroke-dasharray:3}.st63{fill:#33b442}.st64,.st65{fill:none;stroke:#666563;stroke-linecap:round;stroke-linejoin:round}.st65{stroke-dasharray:3.018,3.018}.st66{fill:url(#SVGID_59_)}.st67{fill:url(#SVGID_60_)}.st68{fill:url(#SVGID_61_)}.st69{fill:url(#SVGID_62_)}.st70{fill:url(#SVGID_63_)}.st71{fill:url(#SVGID_64_)}.st72{fill:url(#SVGID_65_)}.st73{fill:url(#SVGID_66_)}.st74{fill:url(#SVGID_67_)}.st75{fill:url(#SVGID_68_)}.st76{fill:url(#SVGID_69_)}.st77{fill:url(#SVGID_70_)}.st78{fill:url(#SVGID_71_)}.st79{fill:url(#SVGID_72_)}.st80{fill:url(#SVGID_73_)}.st81{fill:url(#SVGID_74_)}.st82{fill:url(#SVGID_75_)}.st83{fill:url(#SVGID_76_)}.st84{fill:url(#SVGID_77_)}.st85{fill:url(#SVGID_78_)}.st86{fill:url(#SVGID_79_)}.st87{fill:url(#SVGID_80_)}.st88{fill:url(#SVGID_81_)}.st89{fill:url(#SVGID_82_)}.st90{fill:url(#SVGID_83_)}.st91{fill:url(#SVGID_84_)}</style><circle class="st0" cx="206.2" cy="295.9" r="173.1"/><linearGradient id="SVGID_1_" gradientUnits="userSpaceOnUse" x1="149.121" y1="110.006" x2="361.495" y2="110.006"><stop offset=".004" stop-color="#01e971"/><stop offset=".642" stop-color="#00d351"/><stop offset="1" stop-color="#00cb44"/></linearGradient><path class="st1" d="M361.5 127.1c-65.6 4.7-116.9 53.9-182.6 58.6-9.9-31-19.9-61.9-29.8-92.9 65.6-4.7 116.9-53.9 182.6-58.6 9.9 31 19.9 62 29.8 92.9z"/><linearGradient id="SVGID_2_" gradientUnits="userSpaceOnUse" x1="294.163" y1="-808.267" x2="465.966" y2="-808.267" gradientTransform="rotate(-17.801 3249.553 49.17)"><stop offset=".004" stop-color="#01d78e"/><stop offset=".078" stop-color="#0bda8e"/><stop offset=".506" stop-color="#41eb90"/><stop offset=".826" stop-color="#62f691"/><stop offset="1" stop-color="#6ffa91"/></linearGradient><path class="st2" d="M346.2 112.2c-6.5-20.3-13-40.6-19.5-60.8-4.6.6-9.5-2.4-11-7C264.6 54.3 221.1 88 170 98c1.5 4.7-1 9.2-5.6 9.8 6.5 20.3 13 40.6 19.5 60.8 4.6-.6 9.5 2.4 11 7 51.1-10 94.6-43.6 145.8-53.7-1.5-4.5.9-9.1 5.5-9.7z"/><linearGradient id="SVGID_3_" gradientUnits="userSpaceOnUse" x1="350.989" y1="-808.267" x2="409.14" y2="-808.267" gradientTransform="rotate(-17.801 3249.553 49.17)"><stop offset=".004" stop-color="#015c71"/><stop offset=".27" stop-color="#018b7c"/><stop offset=".608" stop-color="#00c188"/><stop offset=".862" stop-color="#00e290"/><stop offset="1" stop-color="#00ef93"/></linearGradient><path class="st3" d="M282 98c5.2 16.3-2.6 34.6-17.2 41.5-14.7 6.8-30.9-1.2-36.2-17.6-5.2-16.3 2.6-34.6 17.2-41.5 14.7-6.8 31 1.3 36.2 17.6z"/><linearGradient id="SVGID_4_" gradientUnits="userSpaceOnUse" x1="354.557" y1="-808.267" x2="405.572" y2="-808.267" gradientTransform="rotate(-17.801 3249.553 49.17)"><stop offset="0" stop-color="#00ef93" stop-opacity="0"/><stop offset=".139" stop-color="#00e290" stop-opacity=".139"/><stop offset=".393" stop-color="#00c188" stop-opacity=".393"/><stop offset=".733" stop-color="#018b7c" stop-opacity=".733"/><stop offset="1" stop-color="#015c71"/></linearGradient><path class="st4" d="M278.7 99.5c4.6 14.3-2.2 30.5-15.1 36.5-12.9 6-27.1-1-31.7-15.4-4.6-14.3 2.2-30.5 15.1-36.5 12.9-6 27.1 1 31.7 15.4z"/><linearGradient id="SVGID_5_" gradientUnits="userSpaceOnUse" x1="195.955" y1="-359.315" x2="297.974" y2="-359.315" gradientTransform="rotate(-10.872 2662.758 212.228)"><stop offset="0" stop-color="#fdf83c"/><stop offset=".28" stop-color="#ff9624"/><stop offset=".481" stop-color="#febf2e"/><stop offset=".735" stop-color="#fdf83c"/><stop offset="1" stop-color="#ffb629"/></linearGradient><circle class="st5" cx="182.5" cy="106.6" r="51"/><linearGradient id="SVGID_6_" gradientUnits="userSpaceOnUse" x1="246.964" y1="-301.981" x2="246.964" y2="-404" gradientTransform="rotate(-10.872 2662.758 212.228)"><stop offset="0" stop-color="#fdf83c"/><stop offset=".363" stop-color="#fedf35"/><stop offset="1" stop-color="#ffb629"/></linearGradient><circle class="st6" cx="183.7" cy="112.8" r="51"/><linearGradient id="SVGID_7_" gradientUnits="userSpaceOnUse" x1="246.964" y1="-303.453" x2="246.964" y2="-402.528" gradientTransform="rotate(-10.872 2662.758 212.228)"><stop offset="0" stop-color="#ffb629"/><stop offset=".637" stop-color="#fedf35"/><stop offset="1" stop-color="#fdf83c"/></linearGradient><circle class="st7" cx="183.7" cy="112.8" r="49.5"/><linearGradient id="SVGID_8_" gradientUnits="userSpaceOnUse" x1="246.964" y1="-303.665" x2="246.964" y2="-400.557" gradientTransform="rotate(-10.872 2662.758 212.228)"><stop offset="0" stop-color="#ff6f1f"/><stop offset=".324" stop-color="#fe9828"/><stop offset="1" stop-color="#fdf83c"/></linearGradient><circle class="st8" cx="183.7" cy="112.8" r="41.8"/><linearGradient id="SVGID_9_" gradientUnits="userSpaceOnUse" x1="246.964" y1="-306.68" x2="246.964" y2="-397.648" gradientTransform="rotate(-10.872 2662.758 212.228)"><stop offset="0" stop-color="#fdf83c"/><stop offset=".676" stop-color="#fe9828"/><stop offset="1" stop-color="#ff6f1f"/></linearGradient><circle class="st9" cx="183.7" cy="112.8" r="39.2"/><linearGradient id="SVGID_10_" gradientUnits="userSpaceOnUse" x1="224.616" y1="-329.833" x2="295.578" y2="-394.144" gradientTransform="rotate(-10.872 2662.758 212.228)"><stop offset="0" stop-color="#fdf83b" stop-opacity="0"/><stop offset=".335" stop-color="#fdf83d" stop-opacity=".335"/><stop offset=".523" stop-color="#fdf846" stop-opacity=".523"/><stop offset=".675" stop-color="#fef953" stop-opacity=".675"/><stop offset=".808" stop-color="#fef967" stop-opacity=".808"/><stop offset=".927" stop-color="#fffa80" stop-opacity=".927"/><stop offset="1" stop-color="#fffa94"/></linearGradient><path class="st10" d="M189.5 63.6l-49.3 72.8c5.1 9.5 13.2 16.9 22.7 21.3l54.8-80.9c-7.6-7.2-17.5-12-28.2-13.2zm35.3 21.5l-51.6 76.1c3.2.7 6.5 1.1 9.8 1.1l46.4-68.5c-1.2-3.1-2.8-6-4.6-8.7z"/><linearGradient id="SVGID_11_" gradientUnits="userSpaceOnUse" x1="246.988" y1="-320.174" x2="246.988" y2="-383.985" gradientTransform="rotate(-10.872 2662.758 212.228)"><stop offset="0" stop-color="#ffb629"/><stop offset=".628" stop-color="#fedf44"/><stop offset="1" stop-color="#fdf956"/></linearGradient><path class="st11" d="M199.5 118.6c.7 3.8.3 7.1-1.2 9.7-1.6 2.7-3.7 4.7-6.4 5.9l.9 4.7c.2.9.3 1.6.3 2.1s0 1.1-.1 1.7c-.1.6-.4 1.1-1 1.5-.5.3-1.2.6-2.2.8-.9.2-1.7.2-2.3.1-.6-.1-1.1-.5-1.4-1.1-.3-.6-.6-1.1-.7-1.5-.1-.5-.3-1.2-.5-2.1l-.9-4.5c-1.9-.1-3.7-.5-5.3-1.3-1.7-.7-2.9-1.4-3.6-2.1l-1.1-1.1c-1.2-1.1-1.8-2.1-2-2.8-.2-1.2.2-2.8 1.4-4.7.7-1.1 1.5-1.7 2.5-1.9 1.1-.2 2.5.4 4.4 1.8l.4.3c1.7 1.6 3.5 2.2 5.2 1.9 3.3-.6 4.6-2.4 4.1-5.4-.2-1.1-1-1.8-2.3-2.1-1.4-.3-3-.6-4.8-.7-1.9-.1-3.8-.4-5.7-.8-1.9-.4-3.7-1.5-5.3-3.2-1.6-1.7-2.7-4-3.3-7-.6-2.9-.2-5.7 1-8.3 1.2-2.7 3.3-4.6 6.1-5.9l-.8-4.1c-.2-1-.3-1.7-.3-2.2 0-.5 0-1 .1-1.7.1-.6.4-1.1 1-1.5.5-.4 1.3-.6 2.2-.8 1.2-.2 2.2-.1 2.9.3.7.4 1.2 1 1.4 1.6.2.6.4 1.5.7 2.8l.8 4.1c1.3.1 2.5.3 3.6.6s1.9.6 2.4.9l.7.5.3.2c1.3.9 2.1 1.7 2.2 2.4.2.8-.1 2-.7 3.6-.8 2.2-1.9 3.4-3.1 3.6-.8.2-1.8-.1-3-.6-.1-.1-.3-.2-.7-.5-.4-.2-.7-.4-1-.6-.3-.1-.8-.2-1.4-.3-.6-.1-1.3 0-2.1.1-.8.2-1.6.6-2.2 1.4-.6.8-.9 1.6-.7 2.6.2 1.2.9 2 1.9 2.5 1 .5 2.2.7 3.6.7s2.9 0 4.6.3c1.7.2 3.3.5 4.7.9 1.5.4 2.8 1.4 4.1 3 1.2 1.5 2.1 3.6 2.6 6.2z"/><path class="st12" d="M214.8 183.5L50.6 295.9c-3.8 2.6-5.2 7.9-3.1 12.1l72.3 149.3 171-117c9.6-6.6 12.9-21.1 7.4-32.4l-56.1-115.8c-5.4-11.3-17.7-15.2-27.3-8.6z"/><path class="st13" d="M390.3 282.4L220.7 447.1c-5.7 5.6-14.9 5.4-20.4-.3l-95.8-98.6c-5.6-5.7-5.4-14.9.3-20.4l169.5-164.7c5.7-5.6 14.9-5.4 20.4.3l95.8 98.6c5.6 5.7 5.5 14.9-.2 20.4z"/><linearGradient id="SVGID_12_" gradientUnits="userSpaceOnUse" x1="239.453" y1="209.333" x2="254.322" y2="207.21"><stop offset="0" stop-color="#020e52"/><stop offset=".061" stop-color="#021c57"/><stop offset=".399" stop-color="#016670"/><stop offset=".679" stop-color="#009d82"/><stop offset=".887" stop-color="#00be8e"/><stop offset="1" stop-color="#00cb92"/></linearGradient><path class="st14" d="M237.9 198.6l17.1 13.3-8.5 7.3"/><path class="st13" d="M267.4 169.8L111.7 321.1c-9.5 9.3-9.8 24.5-.5 34l1.2 1.3c-9.3-9.5-9-24.8.5-34l155.7-151.3c9.5-9.3 24.8-9 34 .5l-1.2-1.3c-9.2-9.5-24.4-9.8-34-.5z"/><linearGradient id="SVGID_13_" gradientUnits="userSpaceOnUse" x1="713.165" y1="-1410.043" x2="979.083" y2="-1436.055" gradientTransform="rotate(-44.168 2719.853 161)"><stop offset="0" stop-color="#020e52"/><stop offset=".148" stop-color="#021455"/><stop offset=".348" stop-color="#02255e"/><stop offset=".579" stop-color="#02426c"/><stop offset=".831" stop-color="#016980"/><stop offset="1" stop-color="#018890"/></linearGradient><path class="st15" d="M188.4 434.6l190.2-184.9-22.8-23.5L165.5 411z"/><linearGradient id="SVGID_14_" gradientUnits="userSpaceOnUse" x1="945.865" y1="-1476.616" x2="945.865" y2="-1515.241" gradientTransform="rotate(-44.168 2719.853 161)"><stop offset="0" stop-color="#ffb629"/><stop offset=".637" stop-color="#fedf35"/><stop offset="1" stop-color="#fdf83c"/></linearGradient><circle class="st16" cx="291.4" cy="207.1" r="16.9"/><linearGradient id="SVGID_15_" gradientUnits="userSpaceOnUse" x1="927.658" y1="-1484.406" x2="927.658" y2="-1508.938" gradientTransform="rotate(-44.168 2719.853 161)"><stop offset="0" stop-color="#ee324a"/><stop offset=".238" stop-color="#ee3750"/><stop offset=".56" stop-color="#ee4461"/><stop offset=".929" stop-color="#ee597e"/><stop offset="1" stop-color="#ee5e84"/></linearGradient><circle class="st17" cx="278.3" cy="219.8" r="10.7"/><linearGradient id="SVGID_16_" gradientUnits="userSpaceOnUse" x1="891.966" y1="-1462.532" x2="954.792" y2="-1462.532" gradientTransform="rotate(-44.168 2719.853 161)"><stop offset="0" stop-color="#020e52"/><stop offset=".061" stop-color="#021c57"/><stop offset=".399" stop-color="#016670"/><stop offset=".679" stop-color="#009d82"/><stop offset=".887" stop-color="#00be8e"/><stop offset="1" stop-color="#00cb92"/></linearGradient><path class="st18" d="M321.9 237.6l-28.5 27.7c-3 2.9-7.9 2.9-10.8-.2-2.9-3-2.9-7.9.2-10.8l28.5-27.7c3-2.9 7.9-2.9 10.8.2 2.9 3 2.8 7.8-.2 10.8z"/><linearGradient id="SVGID_17_" gradientUnits="userSpaceOnUse" x1="292.699" y1="-54.703" x2="343.065" y2="-54.703" gradientTransform="rotate(-8.128 2683.504 146.004)"><stop offset="0" stop-color="#020e52"/><stop offset=".061" stop-color="#021c57"/><stop offset=".399" stop-color="#016670"/><stop offset=".679" stop-color="#009d82"/><stop offset=".887" stop-color="#00be8e"/><stop offset="1" stop-color="#00cb92"/></linearGradient><path class="st19" d="M278.8 218.2l42.7 131 23.6-22.9z"/><linearGradient id="SVGID_18_" gradientUnits="userSpaceOnUse" x1="824.235" y1="-1462.534" x2="887.06" y2="-1462.534" gradientTransform="rotate(-44.168 2719.853 161)"><stop offset="0" stop-color="#020e52"/><stop offset=".061" stop-color="#021c57"/><stop offset=".399" stop-color="#016670"/><stop offset=".679" stop-color="#009d82"/><stop offset=".887" stop-color="#00be8e"/><stop offset="1" stop-color="#00cb92"/></linearGradient><path class="st20" d="M273.3 284.8l-28.5 27.7c-3 2.9-7.9 2.9-10.8-.2-2.9-3-2.9-7.9.2-10.8l28.5-27.7c3-2.9 7.9-2.9 10.8.2 2.9 3 2.8 7.8-.2 10.8z"/><linearGradient id="SVGID_19_" gradientUnits="userSpaceOnUse" x1="260.423" y1="-861.697" x2="347.023" y2="-861.697" gradientTransform="rotate(-25.842 2661.428 155.373)"><stop offset="0" stop-color="#fdf83c"/><stop offset=".28" stop-color="#ff9624"/><stop offset=".481" stop-color="#febf2e"/><stop offset=".735" stop-color="#fdf83c"/><stop offset="1" stop-color="#ffb629"/></linearGradient><circle class="st21" cx="96.2" cy="267.7" r="43.3"/><linearGradient id="SVGID_20_" gradientUnits="userSpaceOnUse" x1="303.722" y1="-813.028" x2="303.722" y2="-899.628" gradientTransform="rotate(-25.842 2661.428 155.373)"><stop offset="0" stop-color="#fdf83c"/><stop offset=".363" stop-color="#fedf35"/><stop offset="1" stop-color="#ffb629"/></linearGradient><circle class="st22" cx="98.5" cy="272.6" r="43.3"/><linearGradient id="SVGID_21_" gradientUnits="userSpaceOnUse" x1="303.722" y1="-814.277" x2="303.722" y2="-898.378" gradientTransform="rotate(-25.842 2661.428 155.373)"><stop offset="0" stop-color="#ffb629"/><stop offset=".637" stop-color="#fedf35"/><stop offset="1" stop-color="#fdf83c"/></linearGradient><circle class="st23" cx="98.5" cy="272.6" r="42.1"/><linearGradient id="SVGID_22_" gradientUnits="userSpaceOnUse" x1="303.722" y1="-814.457" x2="303.722" y2="-896.705" gradientTransform="rotate(-25.842 2661.428 155.373)"><stop offset="0" stop-color="#ff6f1f"/><stop offset=".324" stop-color="#fe9828"/><stop offset="1" stop-color="#fdf83c"/></linearGradient><circle class="st24" cx="98.5" cy="272.6" r="35.5"/><linearGradient id="SVGID_23_" gradientUnits="userSpaceOnUse" x1="303.722" y1="-817.017" x2="303.722" y2="-894.236" gradientTransform="rotate(-25.842 2661.428 155.373)"><stop offset="0" stop-color="#fdf83c"/><stop offset=".676" stop-color="#fe9828"/><stop offset="1" stop-color="#ff6f1f"/></linearGradient><circle class="st25" cx="98.5" cy="272.6" r="33.3"/><linearGradient id="SVGID_24_" gradientUnits="userSpaceOnUse" x1="284.752" y1="-836.67" x2="344.989" y2="-891.261" gradientTransform="rotate(-25.842 2661.428 155.373)"><stop offset="0" stop-color="#fdf83b" stop-opacity="0"/><stop offset=".335" stop-color="#fdf83d" stop-opacity=".335"/><stop offset=".523" stop-color="#fdf846" stop-opacity=".523"/><stop offset=".675" stop-color="#fef953" stop-opacity=".675"/><stop offset=".808" stop-color="#fef967" stop-opacity=".808"/><stop offset=".927" stop-color="#fffa80" stop-opacity=".927"/><stop offset="1" stop-color="#fffa94"/></linearGradient><path class="st26" d="M92.4 230.9l-24.5 70.5c6.3 6.6 14.5 11 23.3 12.5l27.2-78.4c-7.8-4.2-16.9-5.9-26-4.6zm33.7 10l-25.6 73.7c2.8-.1 5.6-.5 8.3-1.2l23.1-66.3c-1.7-2.4-3.7-4.4-5.8-6.2z"/><linearGradient id="SVGID_25_" gradientUnits="userSpaceOnUse" x1="303.742" y1="-828.471" x2="303.742" y2="-882.637" gradientTransform="rotate(-25.842 2661.428 155.373)"><stop offset="0" stop-color="#ffb629"/><stop offset=".628" stop-color="#fedf44"/><stop offset="1" stop-color="#fdf956"/></linearGradient><path class="st27" d="M112.7 273.8c1.4 3 1.8 5.7 1.1 8.2-.7 2.5-2 4.6-3.9 6.3l1.8 3.6c.3.7.6 1.3.7 1.7.1.4.2.9.3 1.4 0 .5-.1 1-.5 1.4-.3.4-.9.8-1.6 1.1-.7.4-1.3.5-1.9.6-.5 0-1-.2-1.4-.6-.4-.4-.7-.8-.9-1.1-.2-.3-.5-.9-.9-1.7l-1.7-3.5c-1.6.3-3.1.4-4.7.1-1.5-.2-2.7-.6-3.4-1l-1.1-.6c-1.2-.7-2-1.3-2.2-1.9-.5-.9-.4-2.3.2-4.2.3-1.1.9-1.8 1.6-2.1.8-.4 2.2-.2 4 .5l.4.2c1.8.9 3.3 1.1 4.7.4 2.6-1.2 3.3-3 2.1-5.3-.4-.8-1.2-1.2-2.4-1.2s-2.6.2-4.1.5c-1.6.3-3.2.5-4.8.6-1.7.1-3.4-.4-5-1.4-1.7-1-3.1-2.7-4.2-5-1.1-2.2-1.4-4.6-1-7 .4-2.5 1.7-4.5 3.7-6.2l-1.5-3.2c-.4-.8-.6-1.3-.8-1.7-.1-.4-.2-.8-.3-1.4 0-.5.1-1 .5-1.4a5 5 0 0 1 1.6-1.1c.9-.5 1.7-.6 2.4-.4.7.2 1.2.5 1.5 1 .3.5.7 1.2 1.2 2.1l1.5 3.2c1.1-.2 2.1-.3 3.1-.3s1.7.1 2.2.2l.7.2.3.1c1.3.5 2.1.9 2.3 1.5.3.6.4 1.7.2 3.1-.2 2-.8 3.2-1.7 3.7-.6.3-1.5.3-2.6.1-.1 0-.3-.1-.7-.2-.3-.1-.7-.2-.9-.2-.3-.1-.7 0-1.2 0-.5.1-1.1.3-1.7.6-.7.3-1.2.9-1.5 1.6-.4.8-.4 1.5 0 2.3.4.9 1.1 1.5 2.1 1.6 1 .2 2 .1 3.1-.2 1.1-.3 2.4-.6 3.8-.8 1.4-.2 2.8-.3 4.1-.3 1.3 0 2.6.5 4 1.6 1.3 1 2.4 2.5 3.4 4.5z"/><g><linearGradient id="SVGID_26_" gradientUnits="userSpaceOnUse" x1="73.724" y1="-124.263" x2="165.724" y2="-124.263" gradientTransform="rotate(-8.128 2683.504 146.004)"><stop offset="0" stop-color="#fdf83c"/><stop offset=".28" stop-color="#ff9624"/><stop offset=".481" stop-color="#febf2e"/><stop offset=".735" stop-color="#fdf83c"/><stop offset="1" stop-color="#ffb629"/></linearGradient><path class="st28" d="M98 249.9c12.6 3.6 25.5 3.3 37.2-.2-11.6-18.5-35.5-25.8-55.6-16-2 1-3.9 2.1-5.7 3.3 6.8 5.7 15 10.2 24.1 12.9z"/><linearGradient id="SVGID_27_" gradientUnits="userSpaceOnUse" x1="1838.906" y1="-2272.509" x2="1925.506" y2="-2272.509" gradientTransform="rotate(-73.925 2644.396 142.907)"><stop offset="0" stop-color="#fdf83c"/><stop offset=".28" stop-color="#ff9624"/><stop offset=".481" stop-color="#febf2e"/><stop offset=".735" stop-color="#fdf83c"/><stop offset="1" stop-color="#ffb629"/></linearGradient><circle class="st29" cx="112.4" cy="206.5" r="43.3"/><linearGradient id="SVGID_28_" gradientUnits="userSpaceOnUse" x1="1882.206" y1="-2223.84" x2="1882.206" y2="-2310.44" gradientTransform="rotate(-73.925 2644.396 142.907)"><stop offset="0" stop-color="#fdf83c"/><stop offset=".363" stop-color="#fedf35"/><stop offset="1" stop-color="#ffb629"/></linearGradient><circle class="st30" cx="117.5" cy="208" r="43.3"/><linearGradient id="SVGID_29_" gradientUnits="userSpaceOnUse" x1="1882.206" y1="-2225.089" x2="1882.206" y2="-2309.191" gradientTransform="rotate(-73.925 2644.396 142.907)"><stop offset="0" stop-color="#ffb629"/><stop offset=".637" stop-color="#fedf35"/><stop offset="1" stop-color="#fdf83c"/></linearGradient><circle class="st31" cx="117.5" cy="208" r="42.1"/><linearGradient id="SVGID_30_" gradientUnits="userSpaceOnUse" x1="1882.206" y1="-2225.269" x2="1882.206" y2="-2307.517" gradientTransform="rotate(-73.925 2644.396 142.907)"><stop offset="0" stop-color="#ff6f1f"/><stop offset=".324" stop-color="#fe9828"/><stop offset="1" stop-color="#fdf83c"/></linearGradient><circle class="st32" cx="117.5" cy="208" r="35.5"/><linearGradient id="SVGID_31_" gradientUnits="userSpaceOnUse" x1="1882.206" y1="-2227.829" x2="1882.206" y2="-2305.049" gradientTransform="rotate(-73.925 2644.396 142.907)"><stop offset="0" stop-color="#fdf83c"/><stop offset=".676" stop-color="#fe9828"/><stop offset="1" stop-color="#ff6f1f"/></linearGradient><circle class="st33" cx="117.5" cy="208" r="33.3"/><linearGradient id="SVGID_32_" gradientUnits="userSpaceOnUse" x1="1863.236" y1="-2247.482" x2="1923.472" y2="-2302.074" gradientTransform="rotate(-73.925 2644.396 142.907)"><stop offset="0" stop-color="#fdf83b" stop-opacity="0"/><stop offset=".335" stop-color="#fdf83d" stop-opacity=".335"/><stop offset=".523" stop-color="#fdf846" stop-opacity=".523"/><stop offset=".675" stop-color="#fef953" stop-opacity=".675"/><stop offset=".808" stop-color="#fef967" stop-opacity=".808"/><stop offset=".927" stop-color="#fffa80" stop-opacity=".927"/><stop offset="1" stop-color="#fffa94"/></linearGradient><path class="st34" d="M82.5 184.7l36.1 65.3c9.1-.2 17.9-3.5 24.9-9l-40.1-72.6c-8.4 3-15.8 8.6-20.9 16.3zm29.9-18.5l37.7 68.3c1.8-2.2 3.3-4.5 4.6-7l-34-61.5c-2.7-.2-5.5-.1-8.3.2z"/><linearGradient id="SVGID_33_" gradientUnits="userSpaceOnUse" x1="1882.226" y1="-2239.283" x2="1882.226" y2="-2293.45" gradientTransform="rotate(-73.925 2644.396 142.907)"><stop offset="0" stop-color="#ffb629"/><stop offset=".628" stop-color="#fedf44"/><stop offset="1" stop-color="#fdf956"/></linearGradient><path class="st35" d="M128 198.2c3.2.9 5.5 2.5 6.9 4.7 1.4 2.2 2.1 4.6 2 7.1l3.9 1.1c.8.2 1.4.4 1.7.6.4.2.8.4 1.2.7.4.3.7.8.7 1.3.1.5 0 1.2-.2 1.9-.2.8-.5 1.4-.8 1.8-.3.4-.8.6-1.3.7-.6 0-1 0-1.4-.1-.4-.1-1-.2-1.8-.5l-3.8-1.1c-.8 1.4-1.8 2.6-3 3.6s-2.2 1.6-3 1.9l-1.2.4c-1.3.5-2.3.6-2.9.4-1-.3-2-1.3-3-2.9-.6-1-.7-1.8-.5-2.6.3-.9 1.3-1.8 3.1-2.6l.4-.2c1.9-.7 3-1.8 3.4-3.2.8-2.7-.1-4.4-2.5-5.2-.9-.3-1.7.1-2.5 1s-1.6 2-2.4 3.4c-.8 1.4-1.8 2.7-2.8 4-1.1 1.3-2.6 2.2-4.4 2.8-1.9.6-4.1.5-6.5-.2-2.4-.7-4.4-2-5.9-4s-2.2-4.3-2.1-6.9l-3.4-1c-.8-.2-1.4-.4-1.8-.6-.4-.1-.8-.4-1.2-.7-.4-.3-.7-.8-.7-1.3-.1-.5 0-1.2.2-2 .3-1 .7-1.7 1.3-2 .6-.4 1.2-.5 1.7-.4.5.1 1.3.3 2.3.6l3.4 1c.5-1 1.2-1.8 1.8-2.5.7-.7 1.2-1.2 1.6-1.5l.6-.4.2-.2c1.2-.7 2.1-.9 2.6-.7.6.2 1.5.8 2.5 1.9 1.3 1.5 1.9 2.7 1.6 3.7-.2.7-.7 1.3-1.6 2-.1.1-.3.2-.6.4s-.6.4-.8.5c-.2.2-.5.5-.8.9-.3.4-.5 1-.7 1.7-.2.7-.1 1.4.2 2.2.3.8.9 1.3 1.7 1.5 1 .3 1.8.1 2.6-.5s1.4-1.4 1.9-2.5 1.2-2.2 2-3.4c.8-1.2 1.7-2.3 2.5-3.2.9-.9 2.2-1.6 3.8-1.9 1.7-.2 3.6-.1 5.8.5z"/></g><g><linearGradient id="SVGID_34_" gradientUnits="userSpaceOnUse" x1="58.52" y1="-89.531" x2="150.77" y2="-89.531" gradientTransform="rotate(-8.128 2683.504 146.004)"><stop offset="0" stop-color="#ffb629"/><stop offset=".637" stop-color="#fedf35"/><stop offset="1" stop-color="#fdf83c"/></linearGradient><path class="st36" d="M137.8 254.4l-73.3 45 72.8-14.3 3.7-4.4c1.7-8.6.7-17.7-3.2-26.3z"/><linearGradient id="SVGID_35_" gradientUnits="userSpaceOnUse" x1="170.076" y1="438.53" x2="344.221" y2="438.53" gradientTransform="rotate(4.749 603.034 79.833)"><stop offset=".004" stop-color="#01ed44"/><stop offset=".444" stop-color="#00bc3d"/><stop offset=".804" stop-color="#009b38"/><stop offset="1" stop-color="#008e36"/></linearGradient><path class="st37" d="M311.8 460c-56.7-18.9-116.9 4.5-173.6-14.4 2.4-29.4 4.9-58.9 7.3-88.3 56.7 18.9 116.9-4.5 173.6 14.4-2.5 29.5-4.9 58.9-7.3 88.3z"/><linearGradient id="SVGID_36_" gradientUnits="userSpaceOnUse" x1="179.133" y1="438.53" x2="335.164" y2="438.53" gradientTransform="rotate(4.749 603.034 79.833)"><stop offset=".004" stop-color="#01d78e"/><stop offset=".078" stop-color="#0bda8e"/><stop offset=".506" stop-color="#41eb90"/><stop offset=".826" stop-color="#62f691"/><stop offset="1" stop-color="#6ffa91"/></linearGradient><path class="st38" d="M304.1 442.2c1.6-19.3 3.2-38.6 4.8-57.8-4.1-1.1-7.1-5.3-6.8-9.7-46.4-9.4-94.6 3.7-141-5.8-.4 4.4-4 7.4-8.1 6.3-1.6 19.3-3.2 38.6-4.8 57.8 4.1 1.1 7.1 5.3 6.8 9.7 46.4 9.4 94.6-3.7 141 5.8.4-4.4 4.1-7.4 8.1-6.3z"/><linearGradient id="SVGID_37_" gradientUnits="userSpaceOnUse" x1="230.742" y1="438.53" x2="283.555" y2="438.53" gradientTransform="rotate(4.749 603.034 79.833)"><stop offset=".004" stop-color="#015c71"/><stop offset=".27" stop-color="#018b7c"/><stop offset=".608" stop-color="#00c188"/><stop offset=".862" stop-color="#00e290"/><stop offset="1" stop-color="#00ef93"/></linearGradient><path class="st39" d="M255.2 407.9c-1.3 15.5-14.2 28.2-28.9 28.8-14.7.6-25.5-11.8-24.2-27.3 1.3-15.5 14.2-28.2 28.9-28.8 14.7-.6 25.5 11.8 24.2 27.3z"/><linearGradient id="SVGID_38_" gradientUnits="userSpaceOnUse" x1="233.983" y1="438.53" x2="280.314" y2="438.53" gradientTransform="rotate(4.749 603.034 79.833)"><stop offset="0" stop-color="#00ef93" stop-opacity="0"/><stop offset=".139" stop-color="#00e290" stop-opacity=".139"/><stop offset=".393" stop-color="#00c188" stop-opacity=".393"/><stop offset=".733" stop-color="#018b7c" stop-opacity=".733"/><stop offset="1" stop-color="#015c71"/></linearGradient><path class="st40" d="M251.9 408c-1.1 13.6-12.5 24.8-25.4 25.3-12.9.5-22.4-10.3-21.3-23.9 1.1-13.6 12.5-24.8 25.4-25.3 13-.6 22.5 10.2 21.3 23.9z"/><linearGradient id="SVGID_39_" gradientUnits="userSpaceOnUse" x1="138.031" y1="49.7" x2="310.911" y2="49.7" gradientTransform="rotate(-8.128 2683.504 146.004)"><stop offset=".004" stop-color="#015c71"/><stop offset=".085" stop-color="#016774"/><stop offset=".509" stop-color="#009d84"/><stop offset=".827" stop-color="#00be8e"/><stop offset="1" stop-color="#00cb92"/></linearGradient><path class="st41" d="M155 445.3c54 12.2 104.9-11.9 158.4-5 1.9-22.9 3.8-45.7 5.7-68.6-56-18.7-115.5 4-171.6-13.8 2.5 29.2 5 58.3 7.5 87.4z"/><linearGradient id="SVGID_40_" gradientUnits="userSpaceOnUse" x1="152.722" y1="8.932" x2="326.882" y2="8.932" gradientTransform="rotate(-4.899 4736.728 223.143)"><stop offset=".004" stop-color="#01ed44"/><stop offset=".444" stop-color="#00bc3d"/><stop offset=".804" stop-color="#009b38"/><stop offset="1" stop-color="#008e36"/></linearGradient><path class="st42" d="M328.5 430.4c-59-9.2-114.5 24-173.5 14.9-2.5-29.4-5-58.8-7.6-88.3 59 9.2 114.5-24 173.5-14.9 2.5 29.5 5 58.9 7.6 88.3z"/><linearGradient id="SVGID_41_" gradientUnits="userSpaceOnUse" x1="161.78" y1="8.932" x2="317.824" y2="8.932" gradientTransform="rotate(-4.899 4736.728 223.143)"><stop offset=".004" stop-color="#01d78e"/><stop offset=".078" stop-color="#0bda8e"/><stop offset=".506" stop-color="#41eb90"/><stop offset=".826" stop-color="#62f691"/><stop offset="1" stop-color="#6ffa91"/></linearGradient><path class="st43" d="M318 414.1c-1.7-19.3-3.3-38.5-5-57.8-4.2-.4-7.9-4-8.3-8.5-47.3-1.5-92.6 19.5-139.9 18 .4 4.4-2.7 7.9-6.9 7.6 1.7 19.3 3.3 38.5 5 57.8 4.2.4 7.9 4 8.3 8.5 47.3 1.5 92.6-19.5 139.9-18-.4-4.4 2.7-7.9 6.9-7.6z"/><linearGradient id="SVGID_42_" gradientUnits="userSpaceOnUse" x1="213.394" y1="8.932" x2="266.21" y2="8.932" gradientTransform="rotate(-4.899 4736.728 223.143)"><stop offset=".004" stop-color="#015c71"/><stop offset=".27" stop-color="#018b7c"/><stop offset=".608" stop-color="#00c188"/><stop offset=".862" stop-color="#00e290"/><stop offset="1" stop-color="#00ef93"/></linearGradient><path class="st44" d="M264 388.6c1.3 15.5-9.3 30.2-23.7 33.2-14.4 3.1-27.1-7.4-28.5-22.9-1.3-15.5 9.3-30.2 23.7-33.2 14.4-3.1 27.2 7.3 28.5 22.9z"/><linearGradient id="SVGID_43_" gradientUnits="userSpaceOnUse" x1="216.634" y1="8.932" x2="262.97" y2="8.932" gradientTransform="rotate(-4.899 4736.728 223.143)"><stop offset="0" stop-color="#00ef93" stop-opacity="0"/><stop offset=".139" stop-color="#00e290" stop-opacity=".139"/><stop offset=".393" stop-color="#00c188" stop-opacity=".393"/><stop offset=".733" stop-color="#018b7c" stop-opacity=".733"/><stop offset="1" stop-color="#015c71"/></linearGradient><path class="st45" d="M260.8 389.2c1.2 13.6-8.1 26.5-20.7 29.2-12.6 2.7-23.8-6.4-25-20-1.2-13.6 8.1-26.5 20.7-29.2 12.6-2.8 23.8 6.3 25 20z"/><linearGradient id="SVGID_44_" gradientUnits="userSpaceOnUse" x1="239.983" y1="87.486" x2="239.983" y2="18.006" gradientTransform="rotate(-8.128 2683.504 146.004)"><stop offset=".004" stop-color="#015c71"/><stop offset=".085" stop-color="#016774"/><stop offset=".509" stop-color="#009d84"/><stop offset=".827" stop-color="#00be8e"/><stop offset="1" stop-color="#00cb92"/></linearGradient><path class="st46" d="M262.8 367.2c-.7-.2-1.4-.3-2-.5-.7-.2-1.3-.5-2-.7-18-5.2-36.7 5.2-41.9 23.2-5.2 18 5.2 36.7 23.2 41.9.7.2 1.4.3 2 .5.7.2 1.3.5 2 .7 18 5.2 36.7-5.2 41.9-23.2 5.1-17.9-5.3-36.7-23.2-41.9z"/><g><linearGradient id="SVGID_45_" gradientUnits="userSpaceOnUse" x1="1707.303" y1="-2071.198" x2="1775.048" y2="-2071.198" gradientTransform="rotate(-73.925 2644.396 142.907)"><stop offset="0" stop-color="#fdf83c"/><stop offset=".28" stop-color="#ff9624"/><stop offset=".481" stop-color="#febf2e"/><stop offset=".735" stop-color="#fdf83c"/><stop offset="1" stop-color="#ffb629"/></linearGradient><circle class="st47" cx="266.8" cy="397.7" r="33.9"/><linearGradient id="SVGID_46_" gradientUnits="userSpaceOnUse" x1="1741.176" y1="-2033.126" x2="1741.176" y2="-2100.87" gradientTransform="rotate(-73.925 2644.396 142.907)"><stop offset="0" stop-color="#fdf83c"/><stop offset=".363" stop-color="#fedf35"/><stop offset="1" stop-color="#ffb629"/></linearGradient><circle class="st48" cx="270.8" cy="398.9" r="33.9"/><linearGradient id="SVGID_47_" gradientUnits="userSpaceOnUse" x1="1741.176" y1="-2034.103" x2="1741.176" y2="-2099.893" gradientTransform="rotate(-73.925 2644.396 142.907)"><stop offset="0" stop-color="#ffb629"/><stop offset=".637" stop-color="#fedf35"/><stop offset="1" stop-color="#fdf83c"/></linearGradient><circle class="st49" cx="270.8" cy="398.9" r="32.9"/><linearGradient id="SVGID_48_" gradientUnits="userSpaceOnUse" x1="1741.176" y1="-2034.244" x2="1741.176" y2="-2098.584" gradientTransform="rotate(-73.925 2644.396 142.907)"><stop offset="0" stop-color="#ff6f1f"/><stop offset=".324" stop-color="#fe9828"/><stop offset="1" stop-color="#fdf83c"/></linearGradient><circle class="st50" cx="270.8" cy="398.9" r="27.7"/><linearGradient id="SVGID_49_" gradientUnits="userSpaceOnUse" x1="1741.175" y1="-2036.246" x2="1741.175" y2="-2096.653" gradientTransform="rotate(-73.925 2644.396 142.907)"><stop offset="0" stop-color="#fdf83c"/><stop offset=".676" stop-color="#fe9828"/><stop offset="1" stop-color="#ff6f1f"/></linearGradient><circle class="st51" cx="270.8" cy="398.9" r="26"/><linearGradient id="SVGID_50_" gradientUnits="userSpaceOnUse" x1="1726.335" y1="-2051.621" x2="1773.457" y2="-2094.326" gradientTransform="rotate(-73.925 2644.396 142.907)"><stop offset="0" stop-color="#fdf83b" stop-opacity="0"/><stop offset=".335" stop-color="#fdf83d" stop-opacity=".335"/><stop offset=".523" stop-color="#fdf846" stop-opacity=".523"/><stop offset=".675" stop-color="#fef953" stop-opacity=".675"/><stop offset=".808" stop-color="#fef967" stop-opacity=".808"/><stop offset=".927" stop-color="#fffa80" stop-opacity=".927"/><stop offset="1" stop-color="#fffa94"/></linearGradient><path class="st52" d="M243.4 380.7l28.2 51.1c7.2-.2 14-2.7 19.5-7L259.7 368c-6.6 2.3-12.3 6.7-16.3 12.7zm23.4-14.5l29.5 53.4c1.4-1.7 2.6-3.5 3.6-5.5L273.3 366c-2.2-.1-4.4 0-6.5.2z"/><linearGradient id="SVGID_51_" gradientUnits="userSpaceOnUse" x1="1741.191" y1="-2045.207" x2="1741.191" y2="-2087.58" gradientTransform="rotate(-73.925 2644.396 142.907)"><stop offset="0" stop-color="#ffb629"/><stop offset=".628" stop-color="#fedf44"/><stop offset="1" stop-color="#fdf956"/></linearGradient><path class="st53" d="M279 391.3c2.5.7 4.3 1.9 5.4 3.7 1.1 1.7 1.6 3.6 1.6 5.6l3 .9c.6.2 1.1.3 1.4.4.3.1.6.3 1 .6.3.3.5.6.6 1 .1.4 0 .9-.2 1.5s-.4 1.1-.7 1.4c-.3.3-.6.5-1.1.5h-1.1c-.3-.1-.8-.2-1.4-.4l-2.9-.9c-.6 1.1-1.4 2-2.4 2.8-.9.8-1.7 1.3-2.3 1.5l-1 .3c-1 .4-1.8.5-2.3.3-.8-.2-1.6-1-2.3-2.3-.4-.7-.6-1.4-.4-2 .2-.7 1-1.4 2.4-2.1l.3-.1c1.5-.5 2.4-1.4 2.7-2.5.6-2.1 0-3.5-2-4-.7-.2-1.4 0-2 .7-.6.7-1.2 1.6-1.9 2.6-.6 1.1-1.4 2.1-2.2 3.1-.8 1-2 1.7-3.5 2.2-1.5.4-3.2.4-5.1-.2-1.9-.5-3.4-1.6-4.6-3.1-1.2-1.5-1.8-3.3-1.6-5.4l-2.7-.8c-.6-.2-1.1-.3-1.4-.4-.3-.1-.6-.3-.9-.6-.3-.3-.5-.6-.6-1 0-.4 0-.9.2-1.5.2-.8.6-1.3 1.1-1.6.5-.3.9-.4 1.4-.3.4.1 1 .2 1.8.4l2.7.8c.4-.8.9-1.4 1.4-2 .5-.6 1-.9 1.3-1.1l.5-.3.2-.1c.9-.5 1.6-.7 2.1-.6.5.1 1.2.6 1.9 1.5 1 1.1 1.4 2.1 1.2 2.9-.1.5-.6 1-1.3 1.6-.1 0-.2.1-.5.3-.2.1-.5.3-.6.4-.2.1-.4.4-.6.7-.2.3-.4.8-.6 1.3-.2.5-.1 1.1.1 1.7.3.6.7 1 1.3 1.2.8.2 1.4.1 2-.4.6-.5 1.1-1.1 1.5-1.9.4-.8.9-1.7 1.5-2.6.6-.9 1.3-1.8 2-2.5s1.7-1.2 3-1.5c1.4-.3 2.9-.2 4.6.3z"/></g><g><linearGradient id="SVGID_52_" gradientUnits="userSpaceOnUse" x1="374.342" y1="-1196.69" x2="552.02" y2="-1196.69" gradientTransform="rotate(-30.758 3000.941 52.812)"><stop offset=".004" stop-color="#01ed44"/><stop offset=".444" stop-color="#00bc3d"/><stop offset=".804" stop-color="#009b38"/><stop offset="1" stop-color="#008e36"/></linearGradient><path class="st54" d="M280.6 270.3c-58.3 17.9-94.4 73-152.7 90.9l-46.2-77.7c58.3-17.9 94.4-73 152.7-90.9l46.2 77.7z"/><linearGradient id="SVGID_53_" gradientUnits="userSpaceOnUse" x1="383.583" y1="-1196.69" x2="542.78" y2="-1196.69" gradientTransform="rotate(-30.758 3000.941 52.812)"><stop offset=".004" stop-color="#01d78e"/><stop offset=".078" stop-color="#0bda8e"/><stop offset=".506" stop-color="#41eb90"/><stop offset=".826" stop-color="#62f691"/><stop offset="1" stop-color="#6ffa91"/></linearGradient><path class="st55" d="M263.7 260c-10.1-17-20.2-33.9-30.3-50.9-4 1.5-9.1-.2-11.4-4.1-44.1 19.7-76.4 59.1-120.5 78.7 2.3 3.9 1 8.5-3 10 10.1 17 20.2 33.9 30.3 50.9 4-1.5 9.1.2 11.4 4.1 44.1-19.7 76.4-59.1 120.5-78.7-2.3-3.9-1-8.5 3-10z"/><linearGradient id="SVGID_54_" gradientUnits="userSpaceOnUse" x1="436.239" y1="-1196.69" x2="490.123" y2="-1196.69" gradientTransform="rotate(-30.758 3000.941 52.812)"><stop offset=".004" stop-color="#015c71"/><stop offset=".27" stop-color="#018b7c"/><stop offset=".608" stop-color="#00c188"/><stop offset=".862" stop-color="#00e290"/><stop offset="1" stop-color="#00ef93"/></linearGradient><path class="st56" d="M202.8 260.6c8.1 13.6 4.9 31.8-6.9 41s-28.2 5.3-36.3-8.4c-8.1-13.6-4.9-31.8 6.9-41s28.1-5.3 36.3 8.4z"/><linearGradient id="SVGID_55_" gradientUnits="userSpaceOnUse" x1="439.546" y1="-1196.69" x2="486.817" y2="-1196.69" gradientTransform="rotate(-30.758 3000.941 52.812)"><stop offset="0" stop-color="#00ef93" stop-opacity="0"/><stop offset=".139" stop-color="#00e290" stop-opacity=".139"/><stop offset=".393" stop-color="#00c188" stop-opacity=".393"/><stop offset=".733" stop-color="#018b7c" stop-opacity=".733"/><stop offset="1" stop-color="#015c71"/></linearGradient><path class="st57" d="M200.1 262.5c7.1 11.9 4.3 28-6 36.1-10.4 8.1-24.7 4.7-31.8-7.3-7.1-11.9-4.3-28 6-36.1 10.3-8 24.6-4.7 31.8 7.3z"/></g><linearGradient id="SVGID_56_" gradientUnits="userSpaceOnUse" x1="88.225" y1="296.452" x2="241.754" y2="205.075"><stop offset="0" stop-color="#020e52"/><stop offset=".061" stop-color="#021c57"/><stop offset=".399" stop-color="#016670"/><stop offset=".679" stop-color="#009d82"/><stop offset=".887" stop-color="#00be8e"/><stop offset="1" stop-color="#00cb92"/></linearGradient><path class="st58" d="M245.8 211.9L83.7 286.8l4.2 9.2 28.3-3.9"/><path class="st12" d="M335.1 362.2L123.3 464.8 47.4 307.9l211.8-102.6c6-2.9 13.2-.4 16.1 5.6L340.7 346c2.9 6.1.4 13.3-5.6 16.2z"/><path class="st12" d="M331.1 358l-200.5 97-71.1-146.8 200.5-97c4.4-2.1 9.6-.3 11.8 4.1l63.4 131c2.1 4.3.3 9.5-4.1 11.7z"/><linearGradient id="SVGID_57_" gradientUnits="userSpaceOnUse" x1="67.771" y1="309.607" x2="319.412" y2="273.671"><stop offset="0" stop-color="#fff" stop-opacity="0"/><stop offset="1" stop-color="#fff"/></linearGradient><path class="st59" d="M328.5 337.1s0-.1-.1-.1L273 222.6c-3.5-7.2-12.2-10.2-19.4-6.7L67.3 306.1l6.1 12.5c50.6 22.9 141.8 49.3 255.1 18.5z"/><linearGradient id="SVGID_58_" gradientUnits="userSpaceOnUse" x1="61.5" y1="5.253" x2="120.128" y2="5.253" gradientTransform="rotate(-8.128 2683.504 146.004)"><stop offset="0" stop-color="#c11d11"/><stop offset=".184" stop-color="#c52312"/><stop offset=".432" stop-color="#d23415"/><stop offset=".717" stop-color="#e6511a"/><stop offset="1" stop-color="#ff7420"/></linearGradient><path class="st60" d="M99.4 415.3c18.8-7.3 30.3-27.1 26.4-47.6-4.4-23-26.7-38.1-49.7-33.7-4.9.9-9.5 2.7-13.5 5.1l36.8 76.2z"/><path transform="rotate(-25.842 284.593 350.22)" class="st61" d="M252.7 338.4h63.8V362h-63.8z"/><path transform="rotate(-25.842 284.547 350.24)" class="st62" d="M254.6 340.1h60v20.3h-60z"/><path transform="rotate(-25.842 284.547 350.24)" class="st63" d="M254.6 341.1h60v18.4h-60z"/></g><g><path class="st64" d="M55.6 316.6l1.4-.7"/><path class="st65" d="M59.7 314.6l194.2-94"/><path class="st64" d="M255.3 219.9l1.3-.7"/></g><g><path class="st64" d="M122 453.6l1.3-.7"/><path class="st65" d="M126 451.6l194.3-94"/><path class="st64" d="M321.6 356.9l1.4-.6"/></g><g><linearGradient id="SVGID_59_" gradientUnits="userSpaceOnUse" x1="59.596" y1="-106.393" x2="144.553" y2="-106.393" gradientTransform="rotate(-10.872 2662.758 212.228)"><stop offset="0" stop-color="#fdf83c"/><stop offset=".28" stop-color="#ff9624"/><stop offset=".481" stop-color="#febf2e"/><stop offset=".735" stop-color="#fdf83c"/><stop offset="1" stop-color="#ffb629"/></linearGradient><circle class="st66" cx="87.9" cy="382.3" r="42.5"/><linearGradient id="SVGID_60_" gradientUnits="userSpaceOnUse" x1="102.075" y1="-58.648" x2="102.075" y2="-143.605" gradientTransform="rotate(-10.872 2662.758 212.228)"><stop offset="0" stop-color="#fdf83c"/><stop offset=".363" stop-color="#fedf35"/><stop offset="1" stop-color="#ffb629"/></linearGradient><circle class="st67" cx="88.9" cy="387.4" r="42.5"/><linearGradient id="SVGID_61_" gradientUnits="userSpaceOnUse" x1="102.075" y1="-59.874" x2="102.075" y2="-142.379" gradientTransform="rotate(-10.872 2662.758 212.228)"><stop offset="0" stop-color="#ffb629"/><stop offset=".637" stop-color="#fedf35"/><stop offset="1" stop-color="#fdf83c"/></linearGradient><circle class="st68" cx="88.9" cy="387.4" r="41.3"/><linearGradient id="SVGID_62_" gradientUnits="userSpaceOnUse" x1="102.074" y1="-60.05" x2="102.074" y2="-140.737" gradientTransform="rotate(-10.872 2662.758 212.228)"><stop offset="0" stop-color="#ff6f1f"/><stop offset=".324" stop-color="#fe9828"/><stop offset="1" stop-color="#fdf83c"/></linearGradient><circle class="st69" cx="88.9" cy="387.4" r="34.8"/><linearGradient id="SVGID_63_" gradientUnits="userSpaceOnUse" x1="102.074" y1="-62.561" x2="102.074" y2="-138.315" gradientTransform="rotate(-10.872 2662.758 212.228)"><stop offset="0" stop-color="#fdf83c"/><stop offset=".676" stop-color="#fe9828"/><stop offset="1" stop-color="#ff6f1f"/></linearGradient><circle class="st70" cx="88.9" cy="387.4" r="32.7"/><linearGradient id="SVGID_64_" gradientUnits="userSpaceOnUse" x1="83.464" y1="-81.842" x2="142.557" y2="-135.397" gradientTransform="rotate(-10.872 2662.758 212.228)"><stop offset="0" stop-color="#fdf83b" stop-opacity="0"/><stop offset=".335" stop-color="#fdf83d" stop-opacity=".335"/><stop offset=".523" stop-color="#fdf846" stop-opacity=".523"/><stop offset=".675" stop-color="#fef953" stop-opacity=".675"/><stop offset=".808" stop-color="#fef967" stop-opacity=".808"/><stop offset=".927" stop-color="#fffa80" stop-opacity=".927"/><stop offset="1" stop-color="#fffa94"/></linearGradient><path class="st71" d="M93.7 346.5l-41.1 60.6c4.3 7.9 11 14.1 18.9 17.8l45.7-67.4c-6.3-6-14.6-10-23.5-11zm29.4 17.9l-43 63.4c2.7.6 5.4.9 8.2.9l38.7-57c-1-2.6-2.3-5-3.9-7.3z"/><linearGradient id="SVGID_65_" gradientUnits="userSpaceOnUse" x1="102.095" y1="-73.798" x2="102.095" y2="-126.936" gradientTransform="rotate(-10.872 2662.758 212.228)"><stop offset="0" stop-color="#ffb629"/><stop offset=".628" stop-color="#fedf44"/><stop offset="1" stop-color="#fdf956"/></linearGradient><path class="st72" d="M102.1 392.3c.6 3.2.3 5.9-1 8.1-1.3 2.2-3.1 3.9-5.3 4.9l.7 3.9c.1.8.2 1.4.3 1.8 0 .4 0 .9-.1 1.4-.1.5-.4.9-.8 1.2-.4.3-1 .5-1.8.7-.8.1-1.4.2-1.9.1s-.9-.4-1.2-.9c-.3-.5-.5-.9-.6-1.3-.1-.4-.2-1-.4-1.8l-.7-3.8c-1.6-.1-3.1-.4-4.5-1s-2.4-1.2-3-1.8l-.9-.9c-1-1-1.5-1.7-1.7-2.3-.2-1 .2-2.3 1.2-3.9.6-.9 1.3-1.4 2-1.6.9-.2 2.1.3 3.7 1.5l.3.3c1.4 1.3 2.9 1.8 4.3 1.6 2.7-.5 3.9-2 3.4-4.5-.2-.9-.8-1.5-1.9-1.8-1.1-.3-2.5-.5-4-.6-1.6-.1-3.1-.3-4.7-.7-1.6-.4-3.1-1.2-4.4-2.6-1.3-1.4-2.2-3.3-2.7-5.8-.5-2.4-.2-4.7.9-6.9 1-2.2 2.7-3.9 5.1-4.9l-.7-3.4c-.2-.8-.3-1.4-.3-1.8 0-.4 0-.9.1-1.4.1-.5.4-.9.8-1.2.4-.3 1.1-.5 1.8-.7 1-.2 1.8-.1 2.4.3.6.4 1 .8 1.1 1.3.2.5.4 1.3.6 2.3l.7 3.4c1.1 0 2.1.2 3 .5.9.3 1.6.5 2 .8l.6.4.3.1c1.1.8 1.7 1.4 1.8 2 .1.7-.1 1.7-.6 3-.7 1.8-1.5 2.8-2.6 3-.7.1-1.5-.1-2.5-.5-.1-.1-.3-.2-.6-.4s-.6-.4-.8-.5c-.3-.1-.6-.2-1.1-.3-.5-.1-1.1 0-1.8.1s-1.3.5-1.8 1.1c-.5.6-.7 1.3-.6 2.2.2 1 .7 1.7 1.6 2.1.9.4 1.9.6 3 .6s2.4 0 3.8.2 2.7.4 3.9.8c1.2.4 2.3 1.2 3.4 2.5 1 1.2 1.8 2.9 2.2 5.1z"/></g><linearGradient id="SVGID_66_" gradientUnits="userSpaceOnUse" x1="158.902" y1="-277.828" x2="201.031" y2="-277.828" gradientTransform="rotate(-8.128 2683.504 146.004)"><stop offset="0" stop-color="#ffb629"/><stop offset=".637" stop-color="#fedf35"/><stop offset="1" stop-color="#fdf83c"/></linearGradient><path class="st73" d="M142.2 59.6l5 18.2 18.9-.4-18.2 5 .3 18.9-5-18.2-18.9.3 18.2-5z"/><linearGradient id="SVGID_67_" gradientUnits="userSpaceOnUse" x1="124.023" y1="49.396" x2="139.188" y2="49.396" gradientTransform="rotate(-8.128 2683.504 146.004)"><stop offset="0" stop-color="#ffb629"/><stop offset=".637" stop-color="#fedf35"/><stop offset="1" stop-color="#fdf83c"/></linearGradient><path class="st74" d="M142.5 403.7l1.8 6.5 6.8-.1-6.6 1.8.2 6.8-1.8-6.5-6.8.1 6.5-1.8z"/><linearGradient id="SVGID_68_" gradientUnits="userSpaceOnUse" x1="89.408" y1="54.323" x2="114.428" y2="54.323" gradientTransform="rotate(-8.128 2683.504 146.004)"><stop offset="0" stop-color="#ffb629"/><stop offset=".637" stop-color="#fedf35"/><stop offset="1" stop-color="#fdf83c"/></linearGradient><path class="st75" d="M113.1 407.9l3 10.8 11.2-.2-10.8 3 .2 11.2-3-10.8-11.2.2 10.8-3z"/><linearGradient id="SVGID_69_" gradientUnits="userSpaceOnUse" x1="109.507" y1="41.813" x2="120.649" y2="41.813" gradientTransform="rotate(-8.128 2683.504 146.004)"><stop offset="0" stop-color="#ffb629"/><stop offset=".637" stop-color="#fedf35"/><stop offset="1" stop-color="#fdf83c"/></linearGradient><path class="st76" d="M125.4 400.5l1.3 4.8 5-.1-4.8 1.4v5l-1.3-4.9-5 .1 4.9-1.3z"/><linearGradient id="SVGID_70_" gradientUnits="userSpaceOnUse" x1="131.606" y1="31.316" x2="137.799" y2="31.316" gradientTransform="rotate(-8.128 2683.504 146.004)"><stop offset="0" stop-color="#ffb629"/><stop offset=".637" stop-color="#fedf35"/><stop offset="1" stop-color="#fdf83c"/></linearGradient><path class="st77" d="M143.7 389.8l.7 2.7 2.8-.1-2.7.8v2.7l-.7-2.6H141l2.7-.7z"/><linearGradient id="SVGID_71_" gradientUnits="userSpaceOnUse" x1="83.215" y1="68.272" x2="89.408" y2="68.272" gradientTransform="rotate(-8.128 2683.504 146.004)"><stop offset="0" stop-color="#ffb629"/><stop offset=".637" stop-color="#fedf35"/><stop offset="1" stop-color="#fdf83c"/></linearGradient><path class="st78" d="M101 433.2l.7 2.7h2.8l-2.7.7.1 2.8-.8-2.7h-2.7l2.6-.7z"/><linearGradient id="SVGID_72_" gradientUnits="userSpaceOnUse" x1="125.413" y1="24.268" x2="128.855" y2="24.268" gradientTransform="rotate(-8.128 2683.504 146.004)"><stop offset="0" stop-color="#ffb629"/><stop offset=".637" stop-color="#fedf35"/><stop offset="1" stop-color="#fdf83c"/></linearGradient><path class="st79" d="M135.4 385.3l.4 1.4h1.5l-1.5.4.1 1.6-.5-1.5h-1.5l1.5-.4z"/><linearGradient id="SVGID_73_" gradientUnits="userSpaceOnUse" x1="109.507" y1="69.994" x2="112.949" y2="69.994" gradientTransform="rotate(-8.128 2683.504 146.004)"><stop offset="0" stop-color="#ffb629"/><stop offset=".637" stop-color="#fedf35"/><stop offset="1" stop-color="#fdf83c"/></linearGradient><path class="st80" d="M126.1 432.8l.4 1.5 1.5-.1-1.5.4.1 1.6-.4-1.5h-1.6l1.5-.4z"/><linearGradient id="SVGID_74_" gradientUnits="userSpaceOnUse" x1="75.93" y1="66.832" x2="79.373" y2="66.832" gradientTransform="rotate(-8.128 2683.504 146.004)"><stop offset="0" stop-color="#ffb629"/><stop offset=".637" stop-color="#fedf35"/><stop offset="1" stop-color="#fdf83c"/></linearGradient><path class="st81" d="M92.4 434.4l.4 1.5h1.5l-1.4.4v1.5l-.4-1.5h-1.6l1.5-.4z"/><linearGradient id="SVGID_75_" gradientUnits="userSpaceOnUse" x1="210.434" y1="41.428" x2="225.672" y2="41.428"><stop offset="0" stop-color="#ffb629"/><stop offset=".637" stop-color="#fedf35"/><stop offset="1" stop-color="#fdf83c"/></linearGradient><path class="st82" d="M218.1 33.8l.8 6.8 6.8.8-6.8.9-.8 6.7-.9-6.7-6.8-.9 6.8-.8z"/><linearGradient id="SVGID_76_" gradientUnits="userSpaceOnUse" x1="135.889" y1="-273.118" x2="150.582" y2="-273.118" gradientTransform="rotate(-8.128 2683.504 146.004)"><stop offset="0" stop-color="#ffb629"/><stop offset=".637" stop-color="#fedf35"/><stop offset="1" stop-color="#fdf83c"/></linearGradient><path class="st83" d="M108.5 83l1.7 6.3 6.6-.1-6.4 1.8.1 6.5-1.7-6.3-6.6.1 6.4-1.7z"/><linearGradient id="SVGID_77_" gradientUnits="userSpaceOnUse" x1="148.267" y1="-193.21" x2="162.96" y2="-193.21" gradientTransform="rotate(-8.128 2683.504 146.004)"><stop offset="0" stop-color="#ffb629"/><stop offset=".637" stop-color="#fedf35"/><stop offset="1" stop-color="#fdf83c"/></linearGradient><path class="st84" d="M132 160.4l1.8 6.3 6.5-.1-6.3 1.7.1 6.6-1.7-6.3-6.6.1 6.3-1.8z"/><linearGradient id="SVGID_78_" gradientUnits="userSpaceOnUse" x1="85.368" y1="-213.645" x2="100.061" y2="-213.645" gradientTransform="rotate(-8.128 2683.504 146.004)"><stop offset="0" stop-color="#ffb629"/><stop offset=".637" stop-color="#fedf35"/><stop offset="1" stop-color="#fdf83c"/></linearGradient><path class="st85" d="M66.9 149l1.7 6.4 6.6-.1-6.4 1.7.1 6.6-1.7-6.4-6.6.1 6.4-1.7z"/><linearGradient id="SVGID_79_" gradientUnits="userSpaceOnUse" x1="100.061" y1="-206.298" x2="127.77" y2="-206.298" gradientTransform="rotate(-8.128 2683.504 146.004)"><stop offset="0" stop-color="#ffb629"/><stop offset=".637" stop-color="#fedf35"/><stop offset="1" stop-color="#fdf83c"/></linearGradient><path class="st86" d="M88 146.9l3.2 11.9 12.4-.2-11.9 3.3.2 12.4-3.3-12-12.4.2 12-3.2z"/><linearGradient id="SVGID_80_" gradientUnits="userSpaceOnUse" x1="75.473" y1="-179.357" x2="87.78" y2="-179.357" gradientTransform="rotate(-8.128 2683.504 146.004)"><stop offset="0" stop-color="#ffb629"/><stop offset=".637" stop-color="#fedf35"/><stop offset="1" stop-color="#fdf83c"/></linearGradient><path class="st87" d="M60.9 185.7l1.4 5.3 5.6-.1-5.4 1.5.1 5.5-1.4-5.3-5.5.1 5.3-1.5z"/><linearGradient id="SVGID_81_" gradientUnits="userSpaceOnUse" x1="164.266" y1="-131.716" x2="176.573" y2="-131.716" gradientTransform="rotate(-8.128 2683.504 146.004)"><stop offset="0" stop-color="#ffb629"/><stop offset=".637" stop-color="#fedf35"/><stop offset="1" stop-color="#fdf83c"/></linearGradient><path class="st88" d="M155.5 220.3l1.5 5.3 5.5-.1-5.3 1.5.1 5.5-1.5-5.3-5.5.1 5.3-1.5z"/><linearGradient id="SVGID_82_" gradientUnits="userSpaceOnUse" x1="229.736" y1="41.428" x2="238.205" y2="41.428"><stop offset="0" stop-color="#ffb629"/><stop offset=".637" stop-color="#fedf35"/><stop offset="1" stop-color="#fdf83c"/></linearGradient><path class="st89" d="M234 37.2l.4 3.8 3.8.4-3.8.5-.4 3.8-.5-3.8-3.8-.5 3.8-.4z"/><linearGradient id="SVGID_83_" gradientUnits="userSpaceOnUse" x1="145.787" y1="-256.323" x2="153.954" y2="-256.323" gradientTransform="rotate(-8.128 2683.504 146.004)"><stop offset="0" stop-color="#ffb629"/><stop offset=".637" stop-color="#fedf35"/><stop offset="1" stop-color="#fdf83c"/></linearGradient><path class="st90" d="M117.9 101.9l.9 3.5h3.7l-3.5 1v3.6l-.9-3.5h-3.7l3.5-.9z"/><linearGradient id="SVGID_84_" gradientUnits="userSpaceOnUse" x1="172.669" y1="48.419" x2="181.139" y2="48.419"><stop offset="0" stop-color="#ffb629"/><stop offset=".637" stop-color="#fedf35"/><stop offset="1" stop-color="#fdf83c"/></linearGradient><path class="st91" d="M176.9 44.2l.5 3.7 3.7.5-3.7.5-.5 3.8-.5-3.8-3.7-.5 3.7-.5z"/></svg>