<?xml version="1.0" encoding="utf-8"?>
<!-- Generator: Adobe Illustrator 19.2.0, SVG Export Plug-In . SVG Version: 6.00 Build 0)  -->
<svg version="1.1" id="Слой_1" xmlns="http://www.w3.org/2000/svg" xmlns:xlink="http://www.w3.org/1999/xlink" x="0px" y="0px"
	 viewBox="0 0 951.5 977.8" style="enable-background:new 0 0 951.5 977.8;" xml:space="preserve">
<style type="text/css">
	.st0{opacity:0.41;fill:#99EAB8;}
	.st1{opacity:0.41;fill:#82D8A0;}
	.st2{fill:url(#SVGID_1_);}
	.st3{fill:#188082;}
	.st4{fill:url(#SVGID_2_);}
	.st5{fill:url(#SVGID_3_);}
	.st6{fill:#166B6A;}
	.st7{fill:url(#SVGID_4_);}
	.st8{opacity:0.32;}
	.st9{fill:#FCAA29;}
	.st10{opacity:0.17;}
	.st11{fill:url(#SVGID_5_);}
	.st12{fill:#F4F4F4;}
	.st13{fill:#D6D6D6;}
	.st14{fill:#FFFFFF;}
	.st15{fill:#665840;}
	.st16{fill:url(#SVGID_6_);}
	.st17{fill:url(#SVGID_7_);}
	.st18{fill:#4E9CCB;}
	.st19{fill:url(#SVGID_8_);}
	.st20{fill:#F4CC92;}
	.st21{fill:#F2F5F9;}
	.st22{opacity:0.2;}
	.st23{fill:#C5DCFA;}
	.st24{fill:#B0CAE8;}
	.st25{fill:#CDEAEC;}
	.st26{fill:#0F3349;}
	.st27{fill:url(#SVGID_9_);}
	.st28{fill:url(#SVGID_10_);}
	.st29{fill:#DDB37A;}
	.st30{fill:#3A3839;}
	.st31{fill:#9E754C;}
	.st32{opacity:0.22;}
	.st33{fill:#F792AD;}
	.st34{fill:url(#SVGID_11_);}
	.st35{fill:#5DAFE9;}
	.st36{fill:url(#SVGID_12_);}
	.st37{fill:#9A8AFA;}
	.st38{fill:url(#SVGID_13_);}
	.st39{font-family:'Gilroy-ExtraBold';}
	.st40{font-size:29.0152px;}
	.st41{fill:url(#SVGID_14_);}
	.st42{font-size:26.2598px;}
	.st43{fill:#9CCDD1;}
	.st44{fill:#EEC22F;}
	.st45{fill:#36BA1A;}
	.st46{fill:#161616;}
	.st47{fill:#DFDFE5;}
	.st48{fill:#442F19;}
	.st49{fill:#594024;}
	.st50{fill:#49484C;}
	.st51{font-family:'MyriadPro-Regular';}
	.st52{font-size:54.5031px;}
	.st53{fill:url(#SVGID_15_);}
	.st54{fill:url(#SVGID_16_);}
	.st55{fill:url(#SVGID_17_);}
	.st56{fill:url(#SVGID_18_);}
	.st57{fill:url(#SVGID_19_);}
	.st58{fill:url(#SVGID_20_);}
	.st59{fill:url(#SVGID_21_);}
	.st60{fill:url(#SVGID_22_);}
	.st61{fill:url(#SVGID_23_);}
	.st62{fill:#050505;}
</style>
<circle class="st0" cx="479.3" cy="495" r="396"/>
<g>
	<path class="st1" d="M910.7,775.1H65.6c-4.9,0-8.9-4-8.9-8.9v-5.8c0-4.9,4-8.9,8.9-8.9h845.2c4.9,0,8.9,4,8.9,8.9v5.8
		C919.6,771.1,915.6,775.1,910.7,775.1z"/>
	<g>
		<g>
			<g>
				<linearGradient id="SVGID_1_" gradientUnits="userSpaceOnUse" x1="56.6911" y1="577.1538" x2="112.8619" y2="577.1538">
					<stop  offset="3.745990e-03" style="stop-color:#01E971"/>
					<stop  offset="0.6424" style="stop-color:#00D351"/>
					<stop  offset="1" style="stop-color:#00CB44"/>
				</linearGradient>
				<path class="st2" d="M102.1,686.6c-4.7-12.9-13.6-23.2-20.1-35.1c-6.2-11.3-10-24-11-36.9c-1.4-17.5,4.3-34.1,6.2-51.4
					c1.4-12.9,2.1-26.1-3.1-38.2c-4.5-10.5-11.5-19.7-15.6-30.4c-3.8-10.1-2.3-28,11.9-27.7c11.7,0.2,20.4,7.7,26.3,17.1
					c4.9,7.8,9.1,16.1,11.5,25c2.1,8.2,2.6,16.7,2.9,25.1c0.8,23.2,0.4,46.8-5.6,69.3c-1.8,6.9-4.2,13.6-5.6,20.6
					c-4.5,21.6,0.3,45,13,63.2"/>
			</g>
			<path class="st3" d="M97.9,569.6c3.1-2,7.2-4.9,11.6-8.4c0.6-0.5,1.2-1,1.8-1.5c0-0.4,0-0.9,0-1.3c-0.8,0.7-1.6,1.3-2.5,2
				c-4.4,3.5-8.4,6.5-11.4,8.6c-1.5,1.1-2.8,2-3.6,2.6c0.6-5.4,0.9-10.8,0.8-15.9c0-2.9-0.1-5.7-0.3-8.5c0.7-0.4,2.5-1.6,4.9-3.4
				c3.1-2.3,7.3-5.6,11.8-9.5c0,0,0-0.1,0-0.1c0-0.4,0-0.8,0-1.2c-0.2,0.1-0.3,0.3-0.5,0.4c-4.5,3.9-8.7,7.3-11.7,9.8
				c-2.2,1.8-3.8,3.1-4.5,3.8c-0.6-8.7-2-16.7-3.7-23.4c-0.1-0.4-0.2-0.7-0.3-1c0.6-0.6,2.2-2.4,4.4-4.9c3.9-4.5,7.4-8.5,11-12.7
				c0.3-0.3,0.5-0.6,0.8-0.9c-0.1-0.4-0.3-0.7-0.4-1.1c-0.4,0.4-0.8,0.9-1.2,1.3c-4.3,4.9-8.1,9.5-10.8,12.9c-1.3,1.7-2.4,3.1-3.1,4
				c-0.3,0.5-0.6,0.8-0.8,1.1c-2.1-8.1-4.5-14.4-6.5-18.9c0.1,0,0.1,0,0.1,0c0,0,0,0-0.1-0.1c0.4-0.4,1.4-2.2,2.9-4.9
				c2.7-4.7,4.8-8.4,7-12.2c0.7-1.2,1.3-2.3,2-3.5c-0.2-0.3-0.4-0.6-0.6-0.9c-0.7,1.2-1.5,2.5-2.3,3.9c-2.8,4.8-5.1,9.2-6.7,12.4
				c-1.3,2.7-2.2,4.5-2.4,5.1c0-0.1-0.1-0.2-0.1-0.3c-1-2.4-1.9-4.2-2.5-5.4c-0.6-1.2-1-1.8-1-1.8c0,0,0.2,0.7,0.8,1.9
				c0.6,1.2,1.3,3.1,2.3,5.5c0,0,0,0,0,0.1c-0.9-0.1-2.5-0.3-4.5-0.8c-3.2-0.7-7.7-2-12.7-3.1c-2.1-0.5-4.1-0.8-6-1.2
				c0.2,0.4,0.3,0.7,0.5,1.1c1.7,0.3,3.5,0.7,5.3,1.1c5,1,9.4,2.3,12.8,2.8c2.2,0.4,3.9,0.4,4.8,0.3c1.8,4.4,4,10.7,6,18.6
				c-2.1-0.4-7.9-1.2-14.8-2c-1-0.1-2-0.2-3-0.3c0.2,0.4,0.4,0.7,0.5,1.1c0.8,0.1,1.6,0.2,2.4,0.3c7,0.8,13,1.3,15,1.3
				c0.1,0.5,0.2,0.9,0.3,1.4c1.5,6.6,2.8,14.3,3.4,22.8c-0.7-0.5-1.7-1.1-3-1.9c-2.6-1.5-6.2-3.3-10.3-5.2c-0.7-0.3-1.5-0.7-2.2-1
				c0,0.4,0.1,0.8,0.1,1.2c0.5,0.2,1.1,0.5,1.7,0.7c4.1,1.8,7.7,3.6,10.3,4.9c1.5,0.7,2.7,1.3,3.4,1.6c0.2,2.8,0.3,5.7,0.3,8.7
				c0,5.4-0.4,10.9-1,16.7c-1.4-0.9-6.1-3.3-11.5-6.5c-1.3-0.8-2.6-1.5-3.8-2.3c0,0.4-0.1,0.7-0.1,1.1c1.1,0.7,2.2,1.4,3.4,2.1
				c3.3,1.9,6.4,3.5,8.7,4.5c1.6,0.7,2.7,1.2,3.3,1.3c-0.7,6.6-1.7,13.3-2.7,20.3c-2.1-1.2-6.5-3.4-11.6-6.2
				c-1.6-0.8-3.1-1.6-4.5-2.4c-0.1,0.3-0.1,0.7-0.2,1c1.3,0.7,2.7,1.5,4.2,2.3c3.6,1.9,6.9,3.5,9.3,4.6c1.1,0.5,2,0.9,2.7,1.1
				c-0.1,0.5-0.1,1-0.2,1.5c-0.9,6.7-1.7,13.3-2,19.7c-1.6-1.1-6.2-3.6-11.5-6.6c-1.8-1-3.6-2-5.1-2.9c0,0.4,0,0.7,0,1.1
				c1.4,0.8,3,1.8,4.6,2.7c3.4,1.9,6.5,3.5,8.8,4.6c1.4,0.7,2.5,1.2,3.1,1.4c0,0.1,0,0.3,0,0.4c-0.3,6.4,0,12.7,0.8,18.6
				c-1.3-0.8-5.6-3-10.8-5.4c-1.7-0.8-3.3-1.5-4.7-2.1c0.1,0.4,0.2,0.8,0.2,1.2c1.2,0.6,2.6,1.2,4,1.9c5.4,2.5,9.9,4.4,11.2,4.8
				c0,0.1,0,0.2,0,0.3c0.8,5.5,1.9,10.7,3.3,15.6c-1.3-0.5-5.6-1.5-10.8-2.6c-0.3-0.1-0.6-0.1-0.9-0.2c0.2,0.4,0.4,0.8,0.6,1.2
				c0,0,0.1,0,0.1,0c5.3,1.1,9.9,1.8,11.1,1.8c1.6,5.6,3.6,10.8,5.7,15.2c0.3,0.7,0.7,1.4,1,2.1c-1.3-0.5-4.2-1.2-7.4-1.9
				c0.3,0.4,0.5,0.8,0.8,1.2c3.1,0.6,5.7,1.1,6.9,1.1c3.5,7.1,7.2,12.5,10,16.2c0.7,0.9,1.4,1.8,2,2.6l0.5,0
				c-0.1-0.1-0.1-0.1-0.2-0.2c-0.6-0.9-1.3-1.8-2-2.8c-2.6-3.8-6.2-9.3-9.6-16.5c0.5-0.8,1.3-2.4,2.1-4.5c-0.1-0.5-0.3-1-0.4-1.5
				c-0.9,2.4-1.6,4.4-1.9,5.5c-0.3-0.6-0.6-1.2-0.9-1.9c-2.1-4.6-4-9.8-5.6-15.5c1.1-0.8,3.2-2.5,5.7-4.9c0-0.4,0-0.9,0-1.3
				c-2.6,2.6-4.7,4.6-5.8,5.7c-1.3-4.6-2.3-9.6-3-14.9c0-0.2,0-0.3-0.1-0.5c1.6-1.3,5.4-5,9.8-9.5c0.2-0.2,0.4-0.4,0.6-0.7
				c0.1-0.6,0.3-1.3,0.4-1.9c-0.6,0.6-1.2,1.2-1.8,1.8c-4.2,4.3-7.7,8-9.1,9.7c-0.7-5.7-0.9-11.7-0.7-17.9c0-0.3,0-0.5,0-0.8
				c0.8-0.4,1.9-1.1,3.3-2c2.6-1.7,6.1-4,10-6.8c1.2-0.9,2.4-1.8,3.5-2.6c0.1-0.5,0.3-1,0.4-1.5c-1.6,1.2-3,2.2-4.5,3.3
				c-2.9,2.1-5.8,4.2-9.8,7c-1.2,0.9-2.2,1.6-2.9,2.1c0.3-6.2,1.1-12.6,2-19.1c0.1-0.6,0.2-1.2,0.3-1.9c2-1,7.6-4.4,14.2-8.6
				c1.5-1,3-1.9,4.4-2.8c0.1-0.4,0.1-0.8,0.1-1.2c-1.6,1-3.3,2.1-5.1,3.2c-6.3,4-11.5,7.5-13.6,9c1-7.1,2-14.1,2.7-20.8
				C94.7,571.6,96.1,570.8,97.9,569.6z"/>
			<g>
				<linearGradient id="SVGID_2_" gradientUnits="userSpaceOnUse" x1="125.6985" y1="577.1538" x2="181.8693" y2="577.1538">
					<stop  offset="3.745990e-03" style="stop-color:#01E971"/>
					<stop  offset="0.6424" style="stop-color:#00D351"/>
					<stop  offset="1" style="stop-color:#00CB44"/>
				</linearGradient>
				<path class="st4" d="M136.5,686.6c4.7-12.9,13.6-23.2,20.1-35.1c6.2-11.3,10-24,11-36.9c1.4-17.5-4.3-34.1-6.2-51.4
					c-1.4-12.9-2.1-26.1,3.1-38.2c4.5-10.5,11.5-19.7,15.6-30.4c3.8-10.1,2.3-28-11.9-27.7c-11.7,0.2-20.4,7.7-26.3,17.1
					c-4.9,7.8-9.1,16.1-11.5,25c-2.1,8.2-2.6,16.7-2.9,25.1c-0.8,23.2-0.4,46.8,5.6,69.3c1.8,6.9,4.2,13.6,5.6,20.6
					c4.5,21.6-0.3,45-13,63.2"/>
			</g>
			<path class="st3" d="M140.7,569.6c-3.1-2-7.2-4.9-11.6-8.4c-0.6-0.5-1.2-1-1.8-1.5c0-0.4,0-0.9,0-1.3c0.8,0.7,1.6,1.3,2.5,2
				c4.4,3.5,8.4,6.5,11.4,8.6c1.5,1.1,2.8,2,3.6,2.6c-0.6-5.4-0.9-10.8-0.8-15.9c0-2.9,0.1-5.7,0.3-8.5c-0.7-0.4-2.5-1.6-4.9-3.4
				c-3.1-2.3-7.3-5.6-11.8-9.5c0,0,0-0.1,0-0.1c0-0.4,0-0.8,0-1.2c0.2,0.1,0.3,0.3,0.5,0.4c4.5,3.9,8.7,7.3,11.7,9.8
				c2.2,1.8,3.8,3.1,4.5,3.8c0.6-8.7,2-16.7,3.7-23.4c0.1-0.4,0.2-0.7,0.3-1c-0.6-0.6-2.2-2.4-4.4-4.9c-3.9-4.5-7.4-8.5-11-12.7
				c-0.3-0.3-0.5-0.6-0.8-0.9c0.1-0.4,0.3-0.7,0.4-1.1c0.4,0.4,0.8,0.9,1.2,1.3c4.3,4.9,8.1,9.5,10.8,12.9c1.3,1.7,2.4,3.1,3.1,4
				c0.3,0.5,0.6,0.8,0.8,1.1c2.1-8.1,4.5-14.4,6.5-18.9c-0.1,0-0.1,0-0.1,0c0,0,0,0,0.1-0.1c-0.4-0.4-1.4-2.2-2.9-4.9
				c-2.7-4.7-4.8-8.4-7-12.2c-0.7-1.2-1.3-2.3-2-3.5c0.2-0.3,0.4-0.6,0.6-0.9c0.7,1.2,1.5,2.5,2.3,3.9c2.8,4.8,5.1,9.2,6.7,12.4
				c1.3,2.7,2.2,4.5,2.4,5.1c0-0.1,0.1-0.2,0.1-0.3c1-2.4,1.9-4.2,2.5-5.4c0.6-1.2,1-1.8,1-1.8c0,0-0.2,0.7-0.8,1.9
				c-0.6,1.2-1.3,3.1-2.3,5.5c0,0,0,0,0,0.1c0.9-0.1,2.5-0.3,4.5-0.8c3.2-0.7,7.7-2,12.7-3.1c2.1-0.5,4.1-0.8,6-1.2
				c-0.2,0.4-0.3,0.7-0.5,1.1c-1.7,0.3-3.5,0.7-5.3,1.1c-5,1-9.4,2.3-12.8,2.8c-2.2,0.4-3.9,0.4-4.8,0.3c-1.8,4.4-4,10.7-6,18.6
				c2.1-0.4,7.9-1.2,14.8-2c1-0.1,2-0.2,3-0.3c-0.2,0.4-0.4,0.7-0.5,1.1c-0.8,0.1-1.6,0.2-2.4,0.3c-7,0.8-13,1.3-15,1.3
				c-0.1,0.5-0.2,0.9-0.3,1.4c-1.5,6.6-2.8,14.3-3.4,22.8c0.7-0.5,1.7-1.1,3-1.9c2.6-1.5,6.2-3.3,10.3-5.2c0.7-0.3,1.5-0.7,2.2-1
				c0,0.4-0.1,0.8-0.1,1.2c-0.5,0.2-1.1,0.5-1.7,0.7c-4.1,1.8-7.7,3.6-10.3,4.9c-1.5,0.7-2.7,1.3-3.4,1.6c-0.2,2.8-0.3,5.7-0.3,8.7
				c0,5.4,0.4,10.9,1,16.7c1.4-0.9,6.1-3.3,11.5-6.5c1.3-0.8,2.6-1.5,3.8-2.3c0,0.4,0.1,0.7,0.1,1.1c-1.1,0.7-2.2,1.4-3.4,2.1
				c-3.3,1.9-6.4,3.5-8.7,4.5c-1.6,0.7-2.7,1.2-3.3,1.3c0.7,6.6,1.7,13.3,2.7,20.3c2.1-1.2,6.5-3.4,11.6-6.2
				c1.6-0.8,3.1-1.6,4.5-2.4c0.1,0.3,0.1,0.7,0.2,1c-1.3,0.7-2.7,1.5-4.2,2.3c-3.6,1.9-6.9,3.5-9.3,4.6c-1.1,0.5-2,0.9-2.7,1.1
				c0.1,0.5,0.1,1,0.2,1.5c0.9,6.7,1.7,13.3,2,19.7c1.6-1.1,6.2-3.6,11.5-6.6c1.8-1,3.6-2,5.1-2.9c0,0.4,0,0.7,0,1.1
				c-1.4,0.8-3,1.8-4.6,2.7c-3.4,1.9-6.5,3.5-8.8,4.6c-1.4,0.7-2.5,1.2-3.1,1.4c0,0.1,0,0.3,0,0.4c0.3,6.4,0,12.7-0.8,18.6
				c1.3-0.8,5.6-3,10.8-5.4c1.7-0.8,3.3-1.5,4.7-2.1c-0.1,0.4-0.2,0.8-0.2,1.2c-1.2,0.6-2.6,1.2-4,1.9c-5.4,2.5-9.9,4.4-11.2,4.8
				c0,0.1,0,0.2,0,0.3c-0.8,5.5-1.9,10.7-3.3,15.6c1.3-0.5,5.6-1.5,10.8-2.6c0.3-0.1,0.6-0.1,0.9-0.2c-0.2,0.4-0.4,0.8-0.6,1.2
				c0,0-0.1,0-0.1,0c-5.3,1.1-9.9,1.8-11.1,1.8c-1.6,5.6-3.6,10.8-5.7,15.2c-0.3,0.7-0.7,1.4-1,2.1c1.3-0.5,4.2-1.2,7.4-1.9
				c-0.3,0.4-0.5,0.8-0.8,1.2c-3.1,0.6-5.7,1.1-6.9,1.1c-3.5,7.1-7.2,12.5-10,16.2c-0.7,0.9-1.4,1.8-2,2.6l-0.5,0
				c0.1-0.1,0.1-0.1,0.2-0.2c0.6-0.9,1.3-1.8,2-2.8c2.6-3.8,6.2-9.3,9.6-16.5c-0.5-0.8-1.3-2.4-2.1-4.5c0.1-0.5,0.3-1,0.4-1.5
				c0.9,2.4,1.6,4.4,1.9,5.5c0.3-0.6,0.6-1.2,0.9-1.9c2.1-4.6,4-9.8,5.6-15.5c-1.1-0.8-3.2-2.5-5.7-4.9c0-0.4,0-0.9,0-1.3
				c2.6,2.6,4.7,4.6,5.8,5.7c1.3-4.6,2.3-9.6,3-14.9c0-0.2,0-0.3,0.1-0.5c-1.6-1.3-5.4-5-9.8-9.5c-0.2-0.2-0.4-0.4-0.6-0.7
				c-0.1-0.6-0.3-1.3-0.4-1.9c0.6,0.6,1.2,1.2,1.8,1.8c4.2,4.3,7.7,8,9.1,9.7c0.7-5.7,0.9-11.7,0.7-17.9c0-0.3,0-0.5,0-0.8
				c-0.8-0.4-1.9-1.1-3.3-2c-2.6-1.7-6.1-4-10-6.8c-1.2-0.9-2.4-1.8-3.5-2.6c-0.1-0.5-0.3-1-0.4-1.5c1.6,1.2,3,2.2,4.5,3.3
				c2.9,2.1,5.8,4.2,9.8,7c1.2,0.9,2.2,1.6,2.9,2.1c-0.3-6.2-1.1-12.6-2-19.1c-0.1-0.6-0.2-1.2-0.3-1.9c-2-1-7.6-4.4-14.2-8.6
				c-1.5-1-3-1.9-4.4-2.8c-0.1-0.4-0.1-0.8-0.1-1.2c1.6,1,3.3,2.1,5.1,3.2c6.3,4,11.5,7.5,13.6,9c-1-7.1-2-14.1-2.7-20.8
				C143.8,571.6,142.4,570.8,140.7,569.6z"/>
			<g>
				<linearGradient id="SVGID_3_" gradientUnits="userSpaceOnUse" x1="95.3469" y1="569.9749" x2="152.9046" y2="569.9749">
					<stop  offset="3.745990e-03" style="stop-color:#01E971"/>
					<stop  offset="0.6424" style="stop-color:#00D351"/>
					<stop  offset="1" style="stop-color:#00CB44"/>
				</linearGradient>
				<path class="st5" d="M124.3,691.4c-4-2.7-6.3-7.2-8.2-11.6c-8-18.3-13-39.7-10.5-59.6c2.7-20.9,7.3-42.1,6-63.2
					c-0.7-12-3.4-23.8-7-35.2c-6.4-20.2-18.3-56.6,2.1-73.2c10.3-8.4,21.9,2.6,28.2,10.6c10.7,13.6,14.2,32.5,16.7,49.2
					c5.2,34.8-6.7,68.3-16.7,101.1c-5.1,16.8-9.2,34.4-11,51.9c-0.5,5-0.9,10.1-0.1,15.1c1.2,7.8,5.7,12,10.2,17.9"/>
			</g>
			<path class="st6" d="M124.6,690.3c-0.3-0.8-0.7-1.6-1.1-2.5c-0.4-1-0.8-2.2-1.3-3.5c-1.8-4.8-3.8-11.7-5-20.4
				c0.8-0.4,2.4-1.4,4.5-2.8c0.8-0.5,1.7-1.2,2.7-1.8c0-0.4,0.1-0.9,0.2-1.3c-1.2,0.9-2.3,1.7-3.3,2.5c-1.9,1.4-3.3,2.5-4,3.1
				c-0.1-0.7-0.2-1.4-0.3-2.1c-0.8-6.2-1.1-13.2-0.9-20.9c2.1-1.1,7-4.1,12.9-7.8c0.1-0.5,0.2-1,0.4-1.6c-6.1,3.9-11,7.2-13.2,8.8
				c0.1-4.3,0.4-8.8,0.8-13.5c0.4-3.9,0.9-8,1.4-12.2c0.9-0.7,2.9-2.4,5.9-4.3c3.5-2.3,8.3-5.5,13.5-9c0.2-0.6,0.4-1.2,0.5-1.7
				c-5.7,3.9-10.7,7.4-14.5,10.1c-2,1.5-3.6,2.8-4.6,3.7c-0.3,0.3-0.6,0.6-0.8,0.8c0.4-2.6,0.8-5.2,1.2-7.9
				c0.9-5.5,1.9-11.1,2.8-16.9c1.1-0.5,3-1.5,5.3-2.7c4-2.1,9.5-5.1,15.6-8.5c0.5-0.3,1-0.6,1.5-0.8c0.1-0.5,0.3-1,0.4-1.5
				c-0.8,0.4-1.6,0.9-2.4,1.4c-6.1,3.4-11.5,6.5-15.5,8.8c-2.1,1.2-3.8,2.2-4.8,2.9c0.2-1.5,0.5-3,0.7-4.6c1.2-7.5,2.1-15,2.5-22.2
				c0.1-1.4,0.1-2.8,0.2-4.2c0.3-0.2,0.7-0.4,1.1-0.7c1.3-0.8,3.2-2,5.6-3.6c4.6-3.1,10.9-7.7,17.5-13.2c0.8-0.7,1.6-1.4,2.4-2
				c0-0.5,0.1-1.1,0.1-1.6c-1.1,0.9-2.2,1.8-3.3,2.8c-6.5,5.4-12.7,10.1-17.2,13.4c-1.7,1.3-3.5,2.6-5.3,3.9
				c-0.3,0.2-0.6,0.5-0.9,0.6c0.2-5.6,0.1-11-0.1-16.2c-0.3-5.4-0.8-10.5-1.4-15.4c0.3-0.2,0.8-0.6,1.5-1.3c1.6-1.5,3.1-2.9,4.7-4.3
				c3.9-3.7,9.3-8.7,15.3-14.2c1.7-1.5,3.3-3,4.9-4.4c-0.1-0.4-0.1-0.9-0.2-1.3c-1.8,1.6-3.6,3.2-5.4,4.9
				c-6,5.5-11.3,10.7-15.1,14.5c-1.9,1.9-3.4,3.5-4.4,4.6c-0.5,0.6-0.9,1-1.2,1.3c-0.1-1-0.3-2.1-0.4-3.1
				c-0.8-5.8-1.8-11.2-2.9-16.1c-0.7-3.3-1.4-6.3-2.1-9.1c0.2-0.2,0.5-0.4,0.8-0.7c1.2-1,2.8-2.5,4.8-4.4c4-3.7,9.4-9,15.3-15
				c1.2-1.2,2.4-2.4,3.5-3.6c-0.2-0.4-0.3-0.8-0.5-1.1c-1.3,1.3-2.5,2.6-3.8,4c-5.1,5.2-9.9,10-15,15.2c-1.5,1.5-3,3-4.5,4.6
				c-0.2,0.3-0.4,0.5-0.6,0.7c-1.4-5.4-2.7-9.9-3.8-13.4c-0.8-2.7-1.6-4.7-2.1-6.1c-0.5-1.4-0.8-2.1-0.8-2.1s0.1,0.8,0.5,2.2
				c0.5,1.8,1.1,3.8,1.8,6.2c1,3.5,2.2,7.9,3.5,13.3c-0.9-0.4-2.7-1.3-5.4-2.3c-3.7-1.5-8.8-3.5-14.5-5.5c-0.6-0.2-1.1-0.4-1.7-0.6
				c0.1,0.4,0.1,0.8,0.2,1.3c0.4,0.1,0.7,0.3,1.1,0.4c4.6,1.6,9,3.2,14.6,5.2c2.8,1,4.8,1.6,5.7,1.9c0,0.2,0.1,0.3,0.1,0.5
				c-0.1,0.2-0.2,0.3-0.2,0.3c0,0,0.1,0,0.2-0.1c0.6,2.7,1.3,5.6,1.9,8.7c1,4.9,1.9,10.3,2.7,16.1c0.1,0.8,0.2,1.6,0.3,2.4
				c-0.7-0.4-2.3-1.2-4.5-2.2c-3.1-1.4-7.3-3.3-12-5.3c-1.2-0.5-2.3-1-3.5-1.5c0.1,0.5,0.3,0.9,0.4,1.4c0.8,0.4,1.7,0.7,2.6,1.1
				c4.7,2,9,3.8,12.2,5c2.4,1,4.2,1.6,4.8,1.7c0.6,5.1,1.1,10.4,1.3,16c0.2,5.2,0.3,10.6,0.1,16.1c-0.7-0.5-1.6-1.2-2.8-2.1
				c-4-2.9-6.8-4.9-9.4-6.9c-0.4-0.3-0.9-0.7-1.4-1c0.1,0.5,0.1,1,0.2,1.6c0.2,0.1,0.3,0.2,0.5,0.4c3.7,2.7,7.1,5,9.7,6.6
				c1.4,0.9,2.5,1.5,3.2,1.9c-0.1,1.3-0.1,2.7-0.2,4c-0.4,7.1-1.4,14.5-2.5,22c-0.2,1.4-0.5,2.8-0.7,4.2c-1.4-1.9-4.5-5.7-8.2-10
				c-0.5-0.5-0.9-1-1.3-1.5c0,0.5-0.1,1-0.1,1.6c0.2,0.2,0.4,0.5,0.6,0.7c3.9,4.5,7.4,8.3,9,9.9c-1,5.8-1.9,11.6-2.8,17.2
				c-0.4,2.7-0.8,5.4-1.2,8c-1.3-1.5-4.7-4.8-8.3-8.9c-0.2-0.2-0.4-0.5-0.6-0.7c-0.1,0.5-0.1,1-0.2,1.5c3.9,4.4,7.6,7.6,9.1,8.7
				c-0.6,4.1-1,8.2-1.4,12.1c-0.4,4.9-0.7,9.6-0.8,14.2c-0.4-0.5-1-1.1-1.6-1.8c-1.4-1.8-3.5-4.4-5.9-7c-0.7-0.8-1.4-1.5-2.1-2.2
				c0,0.5,0,1,0,1.6c0.4,0.5,0.9,0.9,1.3,1.4c2.4,2.6,4.5,5,6.1,6.7c0.9,0.9,1.6,1.5,2.2,1.9c-0.1,7.4,0.3,14.3,1.1,20.4
				c0.1,0.6,0.2,1.2,0.3,1.8c-1.1-1.3-4.1-4.3-8.1-8.2c0.1,0.6,0.3,1.3,0.5,1.9c3.8,3.5,6.7,6.1,7.7,6.8c1.4,8.9,3.6,15.9,5.5,20.7
				c0.5,1.3,1,2.5,1.5,3.4c0.4,0.9,0.8,1.7,1.2,2.4c0.3,0.5,0.5,0.9,0.6,1.2l0.2,0.1C125,691.3,124.8,690.9,124.6,690.3z"/>
		</g>
		<g>
			<linearGradient id="SVGID_4_" gradientUnits="userSpaceOnUse" x1="72.248" y1="724.6613" x2="170.2383" y2="724.6613">
				<stop  offset="0" style="stop-color:#FDF83C"/>
				<stop  offset="0.6764" style="stop-color:#FE9828"/>
				<stop  offset="1" style="stop-color:#FF6F1F"/>
			</linearGradient>
			<path class="st7" d="M72.9,683.1c-0.7,6.9-5.1,58.9,22.2,81.2c1.5,1.3,3.5,1.9,5.5,1.9h41.3c2,0,4-0.7,5.5-1.9
				c27.2-22.3,22.9-74.3,22.2-81.2H72.9z"/>
			<g class="st8">
				<g>
					<path class="st9" d="M162.1,719.9c-12.4-9.5-34.3-0.6-45.8,6.6c-12,7.6-19.5,19.7-28.4,30.4c2.1,2.7,4.5,5.2,7.2,7.4
						c0,0,0,0,0,0c2.1-2.4,4.2-4.9,6.2-7.5c6.5-8.5,12.9-16.6,22-22.4c5-3.2,10.6-5.2,16.4-6.6c4.8-1.2,13.8-3,17.3,1.6
						c3.5,4.6,3.3,11.6,3.4,18.1c3.3-6.5,5.5-13.7,7-20.8C166.2,724.1,164.5,721.7,162.1,719.9z"/>
					<path class="st9" d="M158.7,692c-10,3.1-20.3,5.6-30.5,8.2c-18.1,4.7-36,10-52.6,18.7c-0.5,0.3-1,0.5-1.5,0.8
						c5.4-5.9,10.2-12.4,14.8-17.8c5.8-6.6,12-13.1,18.8-18.8H92.3c-6.8,6.8-13.1,14.1-19.2,21.4c-0.2,0.3-0.5,0.5-0.7,0.8
						c0.4,7.7,1.3,16.6,3.5,25.3c4.2-2.4,8.5-4.6,12.6-6.5c17.9-8.3,37.6-12.5,56.6-17.5c7.3-1.9,16.7-3.7,25.1-7
						c0.1-4.6-0.1-8.5-0.3-11.5C166.1,689.9,162,691,158.7,692z"/>
				</g>
				<path class="st9" d="M138.9,740.9c-10.3-0.3-19,5.5-26,12.5c-3.8,3.8-6.5,8.2-8.9,12.9h1.9H116c0.4-0.6,0.7-1.1,1.1-1.7
					c4.7-6.8,15.7-16.3,24.5-12.3c3.9,1.8,6.4,5.7,8.2,10c2.7-2.6,5.1-5.5,7.2-8.6C153.2,747,146.7,741.1,138.9,740.9z"/>
			</g>
			<g class="st10">
				<path class="st9" d="M143.6,732.9c-8.2-1.5-16.7-2.1-24.5-5c-8.7-3.2-16.3-9.5-21.2-17.4c-4.5-7.3-6.7-15.8-8.1-24.3
					c-0.2-1-0.3-2.1-0.5-3.1H72.9c-0.7,6.9-5.1,58.9,22.2,81.2c1.5,1.3,3.5,1.9,5.5,1.9h41.3c2,0,4-0.7,5.5-1.9
					c7.8-6.4,13-15.2,16.4-24.6C157.6,736.3,150.6,734.2,143.6,732.9z"/>
			</g>
			<linearGradient id="SVGID_5_" gradientUnits="userSpaceOnUse" x1="67.0707" y1="683.1608" x2="175.4156" y2="683.1608">
				<stop  offset="0" style="stop-color:#FDF83C"/>
				<stop  offset="0.6764" style="stop-color:#FE9828"/>
				<stop  offset="1" style="stop-color:#FF6F1F"/>
			</linearGradient>
			<path class="st11" d="M170.8,693H71.7c-2.5,0-4.6-2.1-4.6-4.6v-10.4c0-2.5,2.1-4.6,4.6-4.6h99.2c2.5,0,4.6,2.1,4.6,4.6v10.4
				C175.4,690.9,173.4,693,170.8,693z"/>
		</g>
	</g>
	<g>
		<polygon class="st12" points="810.7,661.4 825,763 891.7,763 906,661.4 		"/>
		<path class="st13" d="M891.3,760.5l1.3-4.3l2.3-16.2l-0.5,1.7l-5.5-3.4l1.9-6.1l4.8,3l0.4-2.8l-4.4-2.7l1.9-6.1l3.4,2.1l0.4-2.8
			l-3-1.9l1.9-6.1l2.1,1.3l0.4-2.8l-1.7-1l1.9-6.1l0.7,0.4l0.4-2.8l-0.3-0.2l0.6-1.9l2.4-17l-5.3-3.3l1.9-6.1l4.4,2.7l0.4-2.8
			l-4-2.5l1.9-6.1l3,1.9l0.4-2.8l-2.6-1.6l0.7-2.2h-2.7l-0.3,0.8l-1.3-0.8h-7.7l-1.5,4.7l-5.5-3.4l0.4-1.3h-7.5l4,2.5l-1.9,6.1
			l-5.5-3.4l1.6-5.2H873l-1.2,3.8l-5.5-3.4l0.1-0.4h-5.8l2.5,1.6l-1.9,6.1l-5.5-3.4l1.3-4.3h-2.7l-0.9,2.9l-4.7-2.9h-5l1.1,0.7
			l-1.9,6.1l-5.5-3.4l1.1-3.4H836l-0.6,2l-3.2-2h-5.4l-1.8,5.9l-5.5-3.4l0.8-2.5h-2.7l-0.3,1.1l-1.7-1.1h-4.8l0,0.1l5.7,3.5
			l-1.9,6.1l-2.7-1.7l0.5,3.4l1.4,0.9l-0.9,2.8l1.1,7.7l4.8,3l-1.9,6.1l-1.8-1.1l0.5,3.4l0.5,0.3l-0.3,1.1l0.9,6.1l1.8-5.7l5.5,3.4
			l-1.9,6.1l-5.3-3.3l0.5,3.4l4,2.5l-1.9,6.1l-1-0.6l1.2,8.6l1.2-4l5.5,3.4l-1.9,6.1l-4.4-2.7l0.5,3.4l3.1,1.9l-2,6.3l0.9,6.1
			l0.5-1.6l5.5,3.4l-1.9,6.1l-3.2-2l0.5,3.4l2,1.2l-1.2,4l0.6,4.3h2.2l-1.2-0.7l1.9-6.1l5.5,3.4l-1.1,3.5h2.7l0.6-2.1l3.3,2.1h5.3
			l1.8-6l5.5,3.4l-0.8,2.6h2.7l0.4-1.1l1.8,1.1h7l1.8-5.7l5.5,3.4l-0.7,2.3h2.7l0.3-0.9l1.4,0.9h7.5l1.5-4.8l5.5,3.4l-0.4,1.4h3.9
			l0.3-2.2L891.3,760.5z M893.6,744.2l-1.9,6.1l-5.5-3.4l1.9-6.1L893.6,744.2z M828.8,693.6l5.5,3.4l-1.9,6.1l-5.5-3.4L828.8,693.6z
			 M821.9,686.2l1.9-6.1l5.5,3.4l-1.9,6.1L821.9,686.2z M891.6,691l-1.9,6.1l-5.5-3.4l1.9-6.1L891.6,691z M886.9,685l1.9-6.1
			l5.5,3.4l-1.9,6.1L886.9,685z M888.9,699.7l-1.9,6.1l-5.5-3.4l1.9-6.1L888.9,699.7z M834.7,704.5l1.9-6.1l5.5,3.4l-1.9,6.1
			L834.7,704.5z M839.3,710.5l-1.9,6.1l-5.5-3.4l1.9-6.1L839.3,710.5z M841.6,711.9l5.5,3.4l-1.9,6.1l-5.5-3.4L841.6,711.9z
			 M842.4,709.3l1.9-6.1l5.5,3.4l-1.9,6.1L842.4,709.3z M849.4,716.7l5.5,3.4l-1.9,6.1l-5.5-3.4L849.4,716.7z M850.2,714.1l1.9-6.1
			l5.5,3.4l-1.9,6.1L850.2,714.1z M852.9,705.4l1.9-6.1l5.5,3.4l-1.9,6.1L852.9,705.4z M859.8,712.8l5.5,3.4l-1.9,6.1l-5.5-3.4
			L859.8,712.8z M860.6,710.2l1.9-6.1l5.5,3.4l-1.9,6.1L860.6,710.2z M867.6,717.6l5.5,3.4l-1.9,6.1l-5.5-3.4L867.6,717.6z
			 M868.4,715l1.9-6.1l5.5,3.4l-1.9,6.1L868.4,715z M871.1,706.3l1.9-6.1l5.5,3.4l-1.9,6.1L871.1,706.3z M878,713.7l5.5,3.4
			l-1.9,6.1l-5.5-3.4L878,713.7z M878.8,711.1l1.9-6.1l5.5,3.4l-1.9,6.1L878.8,711.1z M881.9,692.3l-5.5-3.4l1.9-6.1l5.5,3.4
			L881.9,692.3z M881.1,694.9l-1.9,6.1l-5.5-3.4l1.9-6.1L881.1,694.9z M874.2,687.5l-5.5-3.4l1.9-6.1l5.5,3.4L874.2,687.5z
			 M873.4,690.1l-1.9,6.1l-5.5-3.4l1.9-6.1L873.4,690.1z M870.7,698.8l-1.9,6.1l-5.5-3.4l1.9-6.1L870.7,698.8z M863.7,691.4
			l-5.5-3.4l1.9-6.1l5.5,3.4L863.7,691.4z M862.9,694l-1.9,6.1l-5.5-3.4l1.9-6.1L862.9,694z M856,686.6l-5.5-3.4l1.9-6.1l5.5,3.4
			L856,686.6z M855.2,689.1l-1.9,6.1l-5.5-3.4l1.9-6.1L855.2,689.1z M852.5,697.9l-1.9,6.1l-5.5-3.4l1.9-6.1L852.5,697.9z
			 M845.5,690.5l-5.5-3.4l1.9-6.1l5.5,3.4L845.5,690.5z M844.7,693l-1.9,6.1l-5.5-3.4l1.9-6.1L844.7,693z M837.8,685.6l-5.5-3.4
			l1.9-6.1l5.5,3.4L837.8,685.6z M837,688.2l-1.9,6.1l-5.5-3.4l1.9-6.1L837,688.2z M831.6,705.7l-1.9,6.1l-5.5-3.4l1.9-6.1
			L831.6,705.7z M831.2,715.8l5.5,3.4l-1.9,6.1l-5.5-3.4L831.2,715.8z M833.9,727.9L832,734l-5.5-3.4l1.9-6.1L833.9,727.9z
			 M833.5,738.1l5.5,3.4l-2.1,6.8l-5.5-3.4L833.5,738.1z M834.3,735.5l1.9-6.1l5.5,3.4l-1.9,6.1L834.3,735.5z M837,726.8l1.9-6.1
			l5.5,3.4l-1.9,6.1L837,726.8z M844,734.2l5.5,3.4l-1.9,6.1l-5.5-3.4L844,734.2z M844.8,731.6l1.9-6.1l5.5,3.4l-1.9,6.1
			L844.8,731.6z M851.7,739l5.5,3.4l-1.9,6.1l-5.5-3.4L851.7,739z M852.5,736.4l1.9-6.1l5.5,3.4l-1.9,6.1L852.5,736.4z M855.2,727.7
			l1.9-6.1l5.5,3.4l-1.9,6.1L855.2,727.7z M862.2,735.1l5.5,3.4l-1.9,6.1l-5.5-3.4L862.2,735.1z M863,732.5l1.9-6.1l5.5,3.4
			l-1.9,6.1L863,732.5z M869.9,739.9l5.5,3.4l-1.9,6.1L868,746L869.9,739.9z M870.7,737.3l1.9-6.1l5.5,3.4l-1.9,6.1L870.7,737.3z
			 M873.4,728.6l1.9-6.1l5.5,3.4l-1.9,6.1L873.4,728.6z M880.4,736l5.5,3.4l-1.9,6.1l-5.5-3.4L880.4,736z M881.2,733.4l1.9-6.1
			l5.5,3.4l-1.9,6.1L881.2,733.4z M889.4,728.1l-5.5-3.4l1.9-6.1l5.5,3.4L889.4,728.1z M892.1,719.3l-5.5-3.4l1.9-6.1l5.5,3.4
			L892.1,719.3z M894.8,710.6l-5.5-3.4l1.9-6.1l5.5,3.4L894.8,710.6z M897.4,701.9l-5.5-3.4l1.9-6.1l5.5,3.4L897.4,701.9z
			 M902,687.1l-1.9,6.1l-5.5-3.4l1.9-6.1L902,687.1z M894.2,661.4l5.5,3.4l-1.9,6.1l-5.5-3.4L894.2,661.4z M891.5,670.1l5.5,3.4
			l-1.9,6.1l-5.5-3.4L891.5,670.1z M883.8,665.3l5.5,3.4l-1.9,6.1l-5.5-3.4L883.8,665.3z M881.1,674l5.5,3.4l-1.9,6.1l-5.5-3.4
			L881.1,674z M873.3,669.2l5.5,3.4l-1.9,6.1l-5.5-3.4L873.3,669.2z M865.6,664.4l5.5,3.4l-1.9,6.1l-5.5-3.4L865.6,664.4z
			 M862.9,673.1l5.5,3.4l-1.9,6.1l-5.5-3.4L862.9,673.1z M855.1,668.3l5.5,3.4l-1.9,6.1l-5.5-3.4L855.1,668.3z M847.4,663.5l5.5,3.4
			l-1.9,6.1l-5.5-3.4L847.4,663.5z M844.7,672.2l5.5,3.4l-1.9,6.1l-5.5-3.4L844.7,672.2z M836.9,667.4l5.5,3.4l-1.9,6.1l-5.5-3.4
			L836.9,667.4z M829.2,662.6l5.5,3.4l-1.9,6.1l-5.5-3.4L829.2,662.6z M826.5,671.3l5.5,3.4l-1.9,6.1l-5.5-3.4L826.5,671.3z
			 M818.7,666.5l5.5,3.4l-1.9,6.1l-5.5-3.4L818.7,666.5z M814.1,681.4l1.9-6.1l5.5,3.4l-1.9,6.1L814.1,681.4z M819.2,694.9l1.9-6.1
			l5.5,3.4l-1.9,6.1L819.2,694.9z M821.5,717.1l1.9-6.1l5.5,3.4l-1.9,6.1L821.5,717.1z M823.7,740l2.1-6.8l5.5,3.4l-2.1,6.8
			L823.7,740z M834.2,757l-5.5-3.4l1.9-6.1l5.5,3.4L834.2,757z M841.9,761.8l-5.5-3.4l1.9-6.1l5.5,3.4L841.9,761.8z M844.6,753.1
			l-5.5-3.4l2.1-6.8l5.5,3.4L844.6,753.1z M852.4,757.9l-5.5-3.4l2.1-6.8l5.5,3.4L852.4,757.9z M860.1,762.7l-5.5-3.4l2.1-6.8
			l5.5,3.4L860.1,762.7z M863.1,753.3l-5.5-3.4l1.9-6.1l5.5,3.4L863.1,753.3z M870.8,758.1l-5.5-3.4l1.9-6.1l5.5,3.4L870.8,758.1z
			 M878.6,762.9l-5.5-3.4l1.9-6.1l5.5,3.4L878.6,762.9z M881.3,754.2l-5.5-3.4l1.9-6.1l5.5,3.4L881.3,754.2z M889,759l-5.5-3.4
			l1.9-6.1l5.5,3.4L889,759z"/>
		<path class="st14" d="M910.1,663.2H806.6c-0.5,0-1-0.4-1-1v-4.4c0-0.5,0.4-1,1-1h103.5c0.5,0,1,0.4,1,1v4.4
			C911.1,662.8,910.6,663.2,910.1,663.2z"/>
		<path class="st14" d="M893.5,766.2h-70.4c-0.5,0-1-0.4-1-1v-4.4c0-0.5,0.4-1,1-1h70.4c0.5,0,1,0.4,1,1v4.4
			C894.5,765.8,894.1,766.2,893.5,766.2z"/>
	</g>
	<g>
		<g>
			<path class="st14" d="M528,330.6h-17.1h-28.5h-17.1c-35.3,0-63.3,29.7-61.3,64.9l8.6,151.4h69.8h28.5h69.8l8.6-151.4
				C591.3,360.3,563.3,330.6,528,330.6z"/>
			<g>
				<path class="st15" d="M453.2,294.7c-3-11.9-4.1-24.3-2.8-36.5c0.3-2.6,0.7-5.2,2.2-7.3c1.5-2.1,4.5-3.3,6.8-2
					c0.7-5.4,4.2-10.1,8.7-13.3c4.4-3.1,9.8-4.8,15.1-5.9c14.9-3,30.6-1.4,44.6,4.3c3.1,1.3,6.1,2.7,8.5,5c11.7,11,11.9,33.4,8,47.7
					c-0.7,2.7-1.7,5.5-1.4,8.3"/>
			</g>
			<linearGradient id="SVGID_6_" gradientUnits="userSpaceOnUse" x1="414.8492" y1="434.7087" x2="456.4567" y2="434.7087">
				<stop  offset="3.745990e-03" style="stop-color:#01E971"/>
				<stop  offset="0.6424" style="stop-color:#00D351"/>
				<stop  offset="1" style="stop-color:#00CB44"/>
			</linearGradient>
			<path class="st16" d="M430.7,399.4l-15.5,58c-1.7,6.4,3.2,12.7,9.8,12.7l31.4-0.3"/>
			<linearGradient id="SVGID_7_" gradientUnits="userSpaceOnUse" x1="552.6042" y1="434.7087" x2="594.2117" y2="434.7087">
				<stop  offset="3.745990e-03" style="stop-color:#01E971"/>
				<stop  offset="0.6424" style="stop-color:#00D351"/>
				<stop  offset="1" style="stop-color:#00CB44"/>
			</linearGradient>
			<path class="st17" d="M578.4,399.4l15.5,58c1.7,6.4-3.2,12.7-9.8,12.7l-31.4-0.3"/>
			<path class="st18" d="M520.2,345.2h-42.1c4.5,6.4,12.3,11.2,21,11.2C507.9,356.4,515.6,351.6,520.2,345.2z"/>
			<linearGradient id="SVGID_8_" gradientUnits="userSpaceOnUse" x1="444.0438" y1="371.2349" x2="555.2498" y2="371.2349">
				<stop  offset="3.745990e-03" style="stop-color:#01E971"/>
				<stop  offset="0.6424" style="stop-color:#00D351"/>
				<stop  offset="1" style="stop-color:#00CB44"/>
			</linearGradient>
			<path class="st19" d="M555.2,397.3H444v-30.7c0-11.8,9.6-21.4,21.4-21.4h68.4c11.8,0,21.4,9.6,21.4,21.4V397.3z"/>
			<path class="st20" d="M510.9,345.2v-19.5h-22.4v19.5h-3.9c3.5,4,8.9,6.6,15.1,6.6c6.2,0,11.6-2.6,15.1-6.6H510.9z"/>
			<path class="st20" d="M502.7,236.3L502.7,236.3h-6.1h0c-22.9,0-40.4,21.1-37.1,44.6l3.6,25.3c1.9,13.4,13,23.3,26,23.3h7.5h6.1
				h7.5c13,0,24.1-9.9,26-23.3l3.6-25.3C543.1,257.4,525.6,236.3,502.7,236.3z"/>
			
				<ellipse transform="matrix(0.4968 -0.8678 0.8678 0.4968 -30.2927 548.9224)" class="st20" cx="458.2" cy="300.6" rx="10.9" ry="14.3"/>
			
				<ellipse transform="matrix(0.8678 -0.4968 0.4968 0.8678 -77.9335 308.1794)" class="st20" cx="540.3" cy="300.6" rx="14.3" ry="10.9"/>
			<g>
				<g>
					<path class="st14" d="M655.9,459.7H639c-5.6,0-10.2-4.6-10.2-10.2v-10.4c0-5.6,4.6-10.2,10.2-10.2h16.9
						c5.6,0,10.2,4.6,10.2,10.2v10.4C666.1,455.1,661.5,459.7,655.9,459.7z M639,434.1c-2.8,0-5,2.2-5,5v10.4c0,2.8,2.2,5,5,5h16.9
						c2.8,0,5-2.2,5-5v-10.4c0-2.8-2.2-5-5-5H639z"/>
				</g>
				<polygon class="st14" points="632.9,418.9 627.3,418.9 608.4,418.9 613.1,469.8 627.3,469.8 632.9,469.8 647.1,469.8 
					651.8,418.9 				"/>
			</g>
			<g>
				<path class="st21" d="M524.5,364.2h-40.9h-45.1c-6.3,0-11.3,5.3-11,11.6l4.7,83.9c0.3,5.8,5.1,10.4,11,10.4h40.4h40.9h40.4
					c5.9,0,10.7-4.6,11-10.4l4.7-83.9c0.3-6.3-4.7-11.6-11-11.6H524.5z"/>
				<g class="st22">
					<path class="st23" d="M545.1,429.1c-17.7-4.7-35.9-7.1-53.5-12c-10.4-2.9-20.6-6.7-29.4-12.9c-12.3-8.7-21.1-22.2-24.2-37
						c-0.2-1-0.4-2-0.5-2.9c-5.8,0.5-10.3,5.6-10,11.5l4.7,83.9c0.3,5.8,5.1,10.4,11,10.4h40.4h40.9h40.4c5.9,0,10.7-4.6,11-10.4
						l1-18.2C567,435.9,556.1,432,545.1,429.1z"/>
				</g>
				<path class="st24" d="M575.3,470.1H432.7c-1,0-1.8-0.8-1.8-1.8v-5.5c0-1,0.8-1.8,1.8-1.8h142.6c1,0,1.8,0.8,1.8,1.8v5.5
					C577.1,469.3,576.3,470.1,575.3,470.1z"/>
			</g>
			<g>
				<g>
					<path class="st25" d="M320.8,468.2h-92.5v-23.6h92.5c2.9,0,5.2,2.4,5.2,5.2v13.1C326.1,465.8,323.7,468.2,320.8,468.2z"/>
					<g>
						<path class="st25" d="M324.7,459.7c0,1-0.2,2-0.4,2.9c1.1-1.8,1.8-3.9,1.8-6.2c0-6.5-5.3-11.8-11.8-11.8h-86v3.3h84.6
							C319.4,447.9,324.7,453.2,324.7,459.7z"/>
					</g>
					<g>
						<path class="st26" d="M314.3,442.9h-88.2v3.4h88.2c5.6,0,10.1,4.5,10.1,10.1c0,5.6-4.5,10.1-10.1,10.1h-88.2v3.4h88.2
							c7.4,0,13.5-6,13.5-13.5C327.7,449,321.7,442.9,314.3,442.9z"/>
					</g>
					<g>
						<g>
							<path class="st14" d="M312.1,452.1h-78.3c-0.3,0-0.6-0.3-0.6-0.6s0.3-0.6,0.6-0.6h78.3c0.3,0,0.6,0.3,0.6,0.6
								S312.4,452.1,312.1,452.1z"/>
						</g>
						<g>
							<path class="st14" d="M312.1,457h-78.3c-0.3,0-0.6-0.3-0.6-0.6c0-0.3,0.3-0.6,0.6-0.6h78.3c0.3,0,0.6,0.3,0.6,0.6
								C312.6,456.7,312.4,457,312.1,457z"/>
						</g>
						<g>
							<path class="st14" d="M312.1,461.8h-78.3c-0.3,0-0.6-0.3-0.6-0.6c0-0.3,0.3-0.6,0.6-0.6h78.3c0.3,0,0.6,0.3,0.6,0.6
								C312.6,461.6,312.4,461.8,312.1,461.8z"/>
						</g>
					</g>
				</g>
				<g>
					<path class="st25" d="M308.5,422.5h-71.3V402h71.3c2.5,0,4.6,2,4.6,4.6V418C313.1,420.5,311,422.5,308.5,422.5z"/>
					<g>
						<path class="st25" d="M311.9,415.1c0,0.9-0.1,1.7-0.3,2.5c1-1.6,1.5-3.4,1.5-5.3c0-5.7-4.6-10.2-10.2-10.2h-65.6v2.8h64.4
							C307.3,404.9,311.9,409.5,311.9,415.1z"/>
					</g>
					<g>
						<linearGradient id="SVGID_9_" gradientUnits="userSpaceOnUse" x1="235.3075" y1="412.2769" x2="314.5301" y2="412.2769">
							<stop  offset="3.745990e-03" style="stop-color:#01E971"/>
							<stop  offset="0.6424" style="stop-color:#00D351"/>
							<stop  offset="1" style="stop-color:#00CB44"/>
						</linearGradient>
						<path class="st27" d="M302.8,400.6h-67.5v2.9h67.5c4.8,0,8.8,3.9,8.8,8.8c0,4.8-3.9,8.8-8.8,8.8h-67.5v2.9h67.5
							c6.4,0,11.7-5.2,11.7-11.7C314.5,405.8,309.3,400.6,302.8,400.6z"/>
					</g>
					<g>
						<g>
							<path class="st14" d="M300.9,408.5H242c-0.3,0-0.5-0.2-0.5-0.5c0-0.3,0.2-0.5,0.5-0.5h58.9c0.3,0,0.5,0.2,0.5,0.5
								C301.4,408.3,301.2,408.5,300.9,408.5z"/>
						</g>
						<g>
							<path class="st14" d="M300.9,412.8H242c-0.3,0-0.5-0.2-0.5-0.5c0-0.3,0.2-0.5,0.5-0.5h58.9c0.3,0,0.5,0.2,0.5,0.5
								C301.4,412.5,301.2,412.8,300.9,412.8z"/>
						</g>
						<g>
							<path class="st14" d="M300.9,417H242c-0.3,0-0.5-0.2-0.5-0.5c0-0.3,0.2-0.5,0.5-0.5h58.9c0.3,0,0.5,0.2,0.5,0.5
								C301.4,416.8,301.2,417,300.9,417z"/>
						</g>
					</g>
				</g>
				<g>
					<path class="st25" d="M299.6,442.1h-82v-16.9h82c2.1,0,3.8,1.7,3.8,3.8v9.4C303.4,440.4,301.7,442.1,299.6,442.1z"/>
					<g>
						<path class="st25" d="M302.4,436c0,0.7-0.1,1.4-0.3,2.1c0.8-1.3,1.3-2.8,1.3-4.4c0-4.7-3.8-8.5-8.5-8.5h-77.3v2.3h76.4
							C298.6,427.5,302.4,431.3,302.4,436z"/>
					</g>
					<g>
						<linearGradient id="SVGID_10_" gradientUnits="userSpaceOnUse" x1="215.9547" y1="433.6486" x2="304.5726" y2="433.6486">
							<stop  offset="0" style="stop-color:#FDF83C"/>
							<stop  offset="0.6764" style="stop-color:#FE9828"/>
							<stop  offset="1" style="stop-color:#FF6F1F"/>
						</linearGradient>
						<path class="st28" d="M294.9,424h-79v2.4h79c4,0,7.2,3.3,7.2,7.2s-3.3,7.2-7.2,7.2h-79v2.4h79c5.3,0,9.7-4.3,9.7-9.7
							S300.2,424,294.9,424z"/>
					</g>
					<g>
						<g>
							<path class="st14" d="M293.3,430.6h-71.8c-0.2,0-0.4-0.2-0.4-0.4c0-0.2,0.2-0.4,0.4-0.4h71.8c0.2,0,0.4,0.2,0.4,0.4
								C293.7,430.4,293.6,430.6,293.3,430.6z"/>
						</g>
						<g>
							<path class="st14" d="M293.3,434.1h-71.8c-0.2,0-0.4-0.2-0.4-0.4s0.2-0.4,0.4-0.4h71.8c0.2,0,0.4,0.2,0.4,0.4
								S293.6,434.1,293.3,434.1z"/>
						</g>
						<g>
							<path class="st14" d="M293.3,437.5h-71.8c-0.2,0-0.4-0.2-0.4-0.4c0-0.2,0.2-0.4,0.4-0.4h71.8c0.2,0,0.4,0.2,0.4,0.4
								C293.7,437.4,293.6,437.5,293.3,437.5z"/>
						</g>
					</g>
				</g>
			</g>
			<g>
				<g>
					<g>
						<path class="st14" d="M433.8,355.4c-0.7,0-1.2-0.6-1.2-1.2V258c0-5-4.1-9.1-9.1-9.1h-65.3c-0.7,0-1.2-0.6-1.2-1.2
							c0-0.7,0.6-1.2,1.2-1.2h65.3c6.4,0,11.6,5.2,11.6,11.6v96.2C435,354.9,434.5,355.4,433.8,355.4z"/>
					</g>
					<g>
						<path class="st14" d="M422,417H416c-6.6,0-12-5.4-12-12v-62.9c0-5.2-4.3-9.5-9.5-9.5h-74.1c-0.7,0-1.2-0.6-1.2-1.2
							c0-0.7,0.6-1.2,1.2-1.2h74.1c6.6,0,12,5.4,12,12v62.9c0,5.2,4.3,9.5,9.5,9.5h6.1c0.7,0,1.2,0.6,1.2,1.2S422.7,417,422,417z"/>
					</g>
					<g>
						<path class="st14" d="M567.8,358.9c-0.7,0-1.2-0.6-1.2-1.2v-15.7c0-5.2,4.2-9.4,9.4-9.4h85.4c3.8,0,7-3.1,7-7v-14.3
							c0-0.7,0.6-1.2,1.2-1.2c0.7,0,1.2,0.6,1.2,1.2v14.3c0,5.2-4.2,9.4-9.4,9.4H576c-3.8,0-7,3.1-7,7v15.7
							C569.1,358.4,568.5,358.9,567.8,358.9z"/>
					</g>
					<g>
						<path class="st14" d="M692.2,399.9H588.9c-0.7,0-1.2-0.6-1.2-1.2s0.6-1.2,1.2-1.2h103.3c0.7,0,1.2,0.6,1.2,1.2
							S692.9,399.9,692.2,399.9z"/>
					</g>
				</g>
			</g>
			<polygon class="st29" points="499.4,265.8 491.5,298.1 507.8,298.1 			"/>
			<g>
				<g>
					<g>
						<ellipse class="st30" cx="485.1" cy="289.5" rx="2.3" ry="4"/>
					</g>
					<g>
						<ellipse class="st30" cx="514.2" cy="289.5" rx="2.3" ry="4"/>
					</g>
				</g>
				<g>
					<path class="st31" d="M499.6,307.9c-3.4,0-6.3-2.2-7.2-5.6c-0.2-0.7,0.2-1.3,0.9-1.5c0.7-0.2,1.3,0.2,1.5,0.9
						c0.7,2.7,3,3.7,4.8,3.7c1.8,0,4.1-1,4.8-3.7c0.2-0.7,0.8-1.1,1.5-0.9c0.7,0.2,1.1,0.8,0.9,1.5
						C506,305.7,503.1,307.9,499.6,307.9z"/>
				</g>
				<g>
					<g>
						<g>
							<path class="st31" d="M475.8,273.6c3.6-3.2,8.3-4.3,12.9-3.1c2.3,0.6,3.3-3,1-3.6c-5.9-1.6-12-0.1-16.5,4
								C471.4,272.5,474,275.2,475.8,273.6L475.8,273.6z"/>
						</g>
					</g>
					<g>
						<g>
							<path class="st31" d="M523.5,273.6c-3.6-3.2-8.3-4.3-12.9-3.1c-2.3,0.6-3.3-3-1-3.6c5.9-1.6,12-0.1,16.5,4
								C527.9,272.5,525.3,275.2,523.5,273.6L523.5,273.6z"/>
						</g>
					</g>
				</g>
			</g>
			<g class="st32">
				<path class="st33" d="M458.1,291.3c3.1-0.1,5.8-2.1,7.9-4.3c6.9-7,10.7-16.9,10.3-26.7c4.9,2.8,10.8,3.2,16.4,3.2
					c7.5,0,15.1-0.6,21.9-3.7c6.8-3,12.7-8.9,14.1-16.3c-10.2-2-20.5-3.3-30.8-4.3c-6.2-0.6-12.5-1.1-18.7-0.1
					c-5.8,0.9-11.6,3.3-15.3,7.9c-3.7,4.5-4.8,10.6-5.2,16.5c-0.3,5.9,0.1,11.8-1.1,17.5"/>
			</g>
			<g>
				<path class="st15" d="M499.6,230.7c-10.2-0.4-25.8,2.6-33.1,10.4c-5.9,6.3-9.8,14.5-11.8,22.9c-2,8.5-2.7,19,1.4,27
					c0.2,0.4,0.5,0.9,0.9,1.1c0.9,0.5,1.9-0.3,2.6-0.9c4.6-4.2,7.7-9.4,9.7-15.3c1.2-3.5,1.8-7.3,2.2-10.9
					c0.1-1.1,1.3-11.3,0.6-11.5c10.6,3.4,21.9,4.6,33,3.5c4.8-0.5,9.5-1.3,13.9-3.4c4.3-2.1,8.1-5.5,10-9.9
					C521.6,235.6,510.6,231.1,499.6,230.7z"/>
			</g>
			<path class="st14" d="M529.1,274h-14.1c-5.1,0-9.2,3.9-9.6,8.8c-5.5-3-9.4-1.5-11.6,0c-0.4-4.9-4.6-8.8-9.6-8.8h-14.1
				c-5.3,0-9.7,4.3-9.7,9.7v8.2c0,5.3,4.3,9.7,9.7,9.7h14.1c5.3,0,9.7-4.3,9.7-9.7V286c1.6-1.4,5.1-4.5,11.5-0.3v6.2
				c0,5.3,4.3,9.7,9.7,9.7h14.1c5.3,0,9.7-4.3,9.7-9.7v-8.2C538.8,278.3,534.5,274,529.1,274z M490.8,291.9c0,3.6-3,6.6-6.6,6.6
				h-14.1c-3.6,0-6.6-3-6.6-6.6v-8.2c0-3.6,3-6.6,6.6-6.6h14.1c3.6,0,6.6,3,6.6,6.6V291.9z M535.7,291.9c0,3.6-3,6.6-6.6,6.6h-14.1
				c-3.6,0-6.6-3-6.6-6.6v-8.2c0-3.6,3-6.6,6.6-6.6h14.1c3.6,0,6.6,3,6.6,6.6V291.9z"/>
			<g>
				<linearGradient id="SVGID_11_" gradientUnits="userSpaceOnUse" x1="618.4005" y1="272.8198" x2="703.2476" y2="272.8198">
					<stop  offset="3.745990e-03" style="stop-color:#01E971"/>
					<stop  offset="0.6424" style="stop-color:#00D351"/>
					<stop  offset="1" style="stop-color:#00CB44"/>
				</linearGradient>
				<path class="st34" d="M692.2,305.8h-62.7c-6.1,0-11.1-5-11.1-11.1v-43.9c0-6.1,5-11.1,11.1-11.1h62.7c6.1,0,11.1,5,11.1,11.1
					v43.9C703.2,300.9,698.3,305.8,692.2,305.8z"/>
				<g class="st32">
					<path class="st35" d="M690.7,277.2c-12.7-2.3-26-2.9-37.5-8.6c-9.7-4.9-17.6-13.4-21.7-23.5c-0.7-1.7-1.2-3.4-1.7-5.1
						c-6.5,1.1-11.4,6.7-11.4,13.5v38.6c0,7.6,6.1,13.7,13.7,13.7h57.4c7.6,0,13.7-6.1,13.7-13.7v-11.8
						C699.1,279,694.9,278,690.7,277.2z"/>
				</g>
			</g>
			<g>
				<linearGradient id="SVGID_12_" gradientUnits="userSpaceOnUse" x1="701.9797" y1="392.7798" x2="779.2098" y2="392.7798">
					<stop  offset="0" style="stop-color:#FDF83C"/>
					<stop  offset="0.6764" style="stop-color:#FE9828"/>
					<stop  offset="1" style="stop-color:#FF6F1F"/>
				</linearGradient>
				<path class="st36" d="M768.2,419.6H713c-6.1,0-11.1-5-11.1-11.1V377c0-6.1,5-11.1,11.1-11.1h55.1c6.1,0,11.1,5,11.1,11.1v31.5
					C779.2,414.7,774.3,419.6,768.2,419.6z"/>
				<g class="st32">
					<path class="st37" d="M763.7,401.8c-12.3-2.4-24.7-6.4-34.1-14.7c-6.3-5.6-10.8-13.1-13.1-21.2h-0.7c-7.6,0-13.7,6.1-13.7,13.7
						v26.2c0,7.6,6.1,13.7,13.7,13.7h49.8c7.6,0,13.7-6.1,13.7-13.7v-1.6C774,403.6,768.8,402.8,763.7,401.8z"/>
				</g>
			</g>
			<g>
				<linearGradient id="SVGID_13_" gradientUnits="userSpaceOnUse" x1="272.1265" y1="244.2133" x2="347.357" y2="244.2133">
					<stop  offset="0" style="stop-color:#FDF83C"/>
					<stop  offset="0.6764" style="stop-color:#FE9828"/>
					<stop  offset="1" style="stop-color:#FF6F1F"/>
				</linearGradient>
				<path class="st38" d="M336.3,271h-53.1c-6.1,0-11.1-5-11.1-11.1v-31.5c0-6.1,5-11.1,11.1-11.1h53.1c6.1,0,11.1,5,11.1,11.1V260
					C347.4,266.1,342.4,271,336.3,271z"/>
				<text transform="matrix(1 0 0 1 286.8203 253.848)" class="st14 st39 st40">&lt;/&gt;</text>
				<g class="st32">
					<path class="st37" d="M331.2,248c-9.9-1.2-20.4-2.5-27.9-9c-2.5-2.1-4.5-4.8-6.2-7.5c-2.8-4.4-4.9-9.1-6.5-14.1h-4.8
						c-7.6,0-13.7,6.1-13.7,13.7v26.2c0,7.6,6.1,13.7,13.7,13.7h47.8c7.6,0,13.7-6.1,13.7-13.7v-6
						C342.2,249.5,336.6,248.7,331.2,248z"/>
				</g>
			</g>
			<g>
				<linearGradient id="SVGID_14_" gradientUnits="userSpaceOnUse" x1="223.521" y1="331.4885" x2="309.3102" y2="331.4885">
					<stop  offset="3.745990e-03" style="stop-color:#01E971"/>
					<stop  offset="0.6424" style="stop-color:#00D351"/>
					<stop  offset="1" style="stop-color:#00CB44"/>
				</linearGradient>
				<path class="st41" d="M298.3,359.8h-63.7c-6.1,0-11.1-5-11.1-11.1v-34.5c0-6.1,5-11.1,11.1-11.1h63.7c6.1,0,11.1,5,11.1,11.1
					v34.5C309.3,354.8,304.4,359.8,298.3,359.8z"/>
				<text transform="matrix(1 0 0 1 234.0278 341.3724)" class="st14 st39 st42">HTML</text>
				<g class="st32">
					<path class="st35" d="M268,329.3c-8.6-1.7-17.5-4.5-23-11.2c-1.9-2.3-3.3-5-4.4-7.7c-1-2.3-1.8-4.7-2.5-7.2h-0.8
						c-7.6,0-13.7,6.1-13.7,13.7V346c0,7.6,6.1,13.7,13.7,13.7h58.3c7.6,0,13.7-6.1,13.7-13.7v-9.4C296,333,281.7,332,268,329.3z"/>
				</g>
			</g>
			<g>
				<g>
					<rect x="361.4" y="386.5" class="st43" width="6.7" height="57.2"/>
					<rect x="361.4" y="392.7" class="st37" width="6.7" height="55.5"/>
					<rect x="361.4" y="391.6" class="st25" width="6.7" height="2.2"/>
				</g>
				<g>
					
						<rect x="360.7" y="412.6" transform="matrix(5.908605e-02 -0.9983 0.9983 5.908605e-02 -63.8398 769.2661)" class="st44" width="30.9" height="11.8"/>
					<path class="st26" d="M383.1,407.3l-12.5-0.7l0.3-5.3c0-0.8,0.7-1.3,1.4-1.3l9.7,0.6c0.8,0,1.3,0.7,1.3,1.4L383.1,407.3z"/>
					<path class="st26" d="M378.9,416l-1.3-0.1c-0.7,0-1.2-0.6-1.2-1.3l0.6-9.4c0-0.7,0.6-1.2,1.3-1.2l1.3,0.1
						c0.7,0,1.2,0.6,1.2,1.3l-0.6,9.4C380.2,415.6,379.6,416.1,378.9,416z"/>
				</g>
				<g>
					
						<rect x="350.5" y="407.7" transform="matrix(0.9951 -9.899495e-02 9.899495e-02 0.9951 -39.7744 37.205)" class="st35" width="8.9" height="23.4"/>
					<path class="st26" d="M358.9,410.2l-9.4,0.9l-0.4-3.6c-0.1-0.7,0.5-1.4,1.2-1.5l6.7-0.7c0.7-0.1,1.4,0.5,1.5,1.2L358.9,410.2z"
						/>
					<path class="st26" d="M356.3,417.3L356.3,417.3c-0.8,0.1-1.5-0.5-1.6-1.3l-0.6-6.1c-0.1-0.8,0.5-1.5,1.3-1.6h0
						c0.8-0.1,1.5,0.5,1.6,1.3l0.6,6.1C357.7,416.5,357.1,417.2,356.3,417.3z"/>
				</g>
				<polygon class="st45" points="345.1,422.3 348.5,469.8 382.1,469.8 385.5,422.3 				"/>
				<path class="st26" d="M384.5,427.6h-39.5c-1.8,0-3.2-1.4-3.2-3.2l0,0c0-1.8,1.4-3.2,3.2-3.2h39.5c1.8,0,3.2,1.4,3.2,3.2l0,0
					C387.7,426.2,386.2,427.6,384.5,427.6z"/>
				<g class="st32">
					<path class="st35" d="M348.5,469.8h33.6l0.1-1c-5.6-3.7-11.6-6.9-16.5-11.5c-8.1-7.6-12.3-18.7-13.5-29.8
						c-0.2-1.7-0.3-3.5-0.3-5.2h-6.6l-0.1,0.2L348.5,469.8z"/>
				</g>
			</g>
		</g>
		<g>
			<g>
				<path class="st46" d="M429.1,553.2l-19.1,188c-0.1,1.2,0.8,2.3,2.2,2.5l0,0c1.7,0.3,3.4-0.6,3.6-2l27.6-192.1"/>
				<path class="st46" d="M569.2,553.2l19.1,188c0.1,1.2-0.8,2.3-2.2,2.5l0,0c-1.7,0.3-3.4-0.6-3.6-2l-27.6-192.1"/>
			</g>
			<path class="st20" d="M528.1,697.7l1.3,28.4c0,0,22.8,3.6,24,17.7c-40.1,0.3-51.7-2.1-51.7-2.1l8.9-60.1"/>
			<path class="st47" d="M584,554.5H414.3c-6.1,0-11-4.9-11-11v-27.5c0-6.1,4.9-11,11-11H584c6.1,0,11,4.9,11,11v27.5
				C595,549.6,590.1,554.5,584,554.5z"/>
			<polyline class="st48" points="506.5,526.5 504.7,702 534,703 554.9,528.8 			"/>
			<g>
				<path class="st46" d="M553.7,743.7c-1.2-14.3-24.3-17.9-24.3-17.9l-0.5-11.1c-7.8-0.5-15.7-0.6-23.6-0.2l-4,27
					C501.4,741.6,513.1,744.1,553.7,743.7z"/>
			</g>
			<path class="st48" d="M429.6,507.2c0,0,3.6,32.2,18.9,35.2c15.4,3,81.3-4.1,81.3-4.1l-4.2-20.6L429.6,507.2z"/>
			<path class="st20" d="M608.4,557.1l16.4,6.2c0,0-3.7,38.8,11.5,40.9c3.8-27,4.9-55.9,4.9-55.9l-27.3-10"/>
			<path class="st49" d="M449.3,527.4l161.7,36l9.5-25.4l-99.8-43.6l-88.4-4.7C432.3,489.6,419.6,520.7,449.3,527.4z"/>
			<g>
				<path class="st46" d="M627.3,543.2c-2.5,6-4.4,12.3-6.5,18.6l4,1.5c0,0-3.7,38.8,11.5,40.9c3.8-27,4.9-55.9,4.9-55.9
					L627.3,543.2z"/>
			</g>
		</g>
		<g>
			<g>
				<path class="st46" d="M273.5,502l-20.1,260.7c-0.1,1.6,0.9,3.1,2.3,3.5l0,0c1.8,0.5,3.6-0.8,3.8-2.8l32.5-258.1"/>
				<path class="st46" d="M724.8,502l20.1,260.7c0.1,1.6-0.9,3.1-2.3,3.5l0,0c-1.8,0.5-3.6-0.8-3.8-2.8l-32.5-258.1"/>
			</g>
			<path class="st46" d="M768.2,516.7H230.1c-2.8,0-5.1-2.3-5.1-5.1v-32c0-2.8,2.3-5.1,5.1-5.1h538.2c2.8,0,5.1,2.3,5.1,5.1v32
				C773.4,514.4,771.1,516.7,768.2,516.7z"/>
			<path class="st50" d="M807.2,486H191.1c-2.8,0-5.1-2.3-5.1-5.1v-6c0-2.8,2.3-5.1,5.1-5.1h616.1c2.8,0,5.1,2.3,5.1,5.1v6
				C812.3,483.7,810,486,807.2,486z"/>
		</g>
	</g>
</g>
<text transform="matrix(1 0 0 1 641.5136 290.4984)" class="st14 st51 st52">%</text>
<g>
	<path class="st14" d="M758.5,394.5c-0.9-1.2-2.4-2.1-4.3-2.5c2.4-1.2,3.5-3.4,3.2-6.3c-0.1-1.1-0.4-2-0.9-2.8
		c-0.5-0.8-1.2-1.4-2-1.9c-0.9-0.5-1.8-0.9-2.8-1.1c-1-0.3-2.1-0.4-3.4-0.6V373h-3.8v6c-0.7,0-1.7,0-3,0V373h-3.8v6.2
		c-0.5,0-1.3,0-2.4,0l-5.2,0v4h2.7c1.2,0,2,0.6,2.2,1.7v7.1c0.2,0,0.3,0,0.4,0h-0.4v9.9c-0.1,0.8-0.6,1.3-1.4,1.3h-2.7l-0.8,4.5h4.9
		c0.3,0,0.8,0,1.4,0c0.6,0,1,0,1.3,0v6.3h3.8v-6.2c0.7,0,1.7,0,3,0v6.2h3.8v-6.3c1.3-0.1,2.5-0.2,3.6-0.4c1-0.2,2-0.5,3-0.8
		c0.9-0.4,1.7-0.9,2.4-1.4c0.6-0.6,1.2-1.3,1.6-2.2c0.4-0.9,0.7-1.9,0.8-3.1C759.9,397.5,759.5,395.7,758.5,394.5z M741.6,383.5
		c0.1,0,0.4,0,1,0c0.5,0,1,0,1.3,0c0.4,0,0.8,0,1.4,0.1c0.6,0,1.1,0.1,1.5,0.2c0.4,0.1,0.9,0.2,1.4,0.4c0.5,0.2,0.9,0.4,1.2,0.7
		c0.3,0.3,0.5,0.6,0.7,1c0.2,0.4,0.3,0.9,0.3,1.4c0,0.5-0.1,0.9-0.2,1.3c-0.1,0.4-0.4,0.7-0.7,0.9c-0.3,0.3-0.6,0.5-0.9,0.7
		c-0.3,0.2-0.7,0.3-1.2,0.5c-0.5,0.1-0.9,0.2-1.3,0.3c-0.4,0.1-0.8,0.1-1.4,0.1c-0.5,0-1,0-1.2,0c-0.3,0-0.7,0-1.1,0
		c-0.5,0-0.8,0-0.8,0L741.6,383.5L741.6,383.5L741.6,383.5z M751.9,400.3c-0.2,0.4-0.4,0.7-0.6,1c-0.2,0.3-0.6,0.5-1,0.7
		c-0.4,0.2-0.8,0.4-1.2,0.5c-0.4,0.1-0.8,0.2-1.4,0.3c-0.5,0.1-1,0.2-1.4,0.2c-0.4,0-0.9,0.1-1.4,0.1c-0.6,0-1,0-1.3,0
		c-0.3,0-0.7,0-1.2,0c-0.5,0-0.8,0-0.9,0v-8.3c0.1,0,0.5,0,1.2,0c0.6,0,1.2,0,1.6,0c0.4,0,1,0,1.7,0.1c0.7,0,1.3,0.1,1.8,0.2
		c0.5,0.1,1,0.2,1.6,0.5c0.6,0.2,1.1,0.5,1.4,0.7c0.4,0.3,0.7,0.7,0.9,1.1c0.2,0.5,0.4,1,0.4,1.6
		C752.2,399.5,752.1,399.9,751.9,400.3z"/>
</g>
<g>
	<g>
		<linearGradient id="SVGID_15_" gradientUnits="userSpaceOnUse" x1="482.5033" y1="406.3839" x2="504.0515" y2="406.3839">
			<stop  offset="3.745990e-03" style="stop-color:#01E971"/>
			<stop  offset="0.6424" style="stop-color:#00D351"/>
			<stop  offset="1" style="stop-color:#00CB44"/>
		</linearGradient>
		<path class="st53" d="M502.8,414.4c-1.9,1.8-4.5,2.9-7.4,2.9c-6,0-10.9-4.9-10.9-10.9c0-6,4.9-10.9,10.9-10.9
			c2.8,0,5.4,1.1,7.4,2.9c0.4-0.5,0.8-1.1,1.3-1.5c-2.3-2.1-5.3-3.3-8.6-3.3c-7.1,0-12.9,5.8-12.9,12.9s5.8,12.9,12.9,12.9
			c3.3,0,6.3-1.3,8.6-3.3C503.6,415.4,503.2,415,502.8,414.4z"/>
		<g>
			<g>
				<linearGradient id="SVGID_16_" gradientUnits="userSpaceOnUse" x1="488.2073" y1="407.3069" x2="499.719" y2="407.3069">
					<stop  offset="3.745990e-03" style="stop-color:#01E971"/>
					<stop  offset="0.6424" style="stop-color:#00D351"/>
					<stop  offset="1" style="stop-color:#00CB44"/>
				</linearGradient>
				<path class="st54" d="M498.5,408.9c0,0-0.6-0.5-0.7-0.7c-0.1-0.2-0.4-0.2-0.5-0.3c-0.1-0.1-1-0.4-1.2-0.2
					c-0.2,0.2-0.5,0.2-0.6,0c-0.1-0.2-0.2-0.3-0.3-0.3s-0.1-0.2-0.1-0.4c0-0.2-0.1-0.3-0.2-0.2c-0.1,0.1-0.5,0.4-0.5,0.3
					c-0.1-0.2-0.3-0.8,0.1-0.9c0.4-0.1,0.7-0.1,0.8,0.1c0.1,0.1,0.2,0.4,0.3,0.4s0.1-0.3,0.1-0.4c0.1-0.2,0.3-0.4,0.5-0.7
					c0.1-0.3,0.2-0.4,0.3-0.5c0.2-0.1,0.3-0.2,0.4-0.3c0.2-0.1,0.4-0.2,0.5-0.3c0.1-0.1,0.5-0.3,0.6-0.2c0.1,0,0.2,0,0.1-0.2
					c-0.1-0.2-0.3-0.8-0.5-1.1c-0.2-0.3-0.2-0.3-0.3-0.6c-0.1-0.3-0.2-0.5-0.3-0.3s-0.2,0.4-0.3,0.2c-0.1-0.2-0.1-0.2-0.2-0.3
					c-0.1-0.1-0.2-0.1-0.4-0.2c-0.2-0.1-0.3,0-0.3,0.2s-0.2,0.4-0.1,0.6c0.1,0.2,0.2,0.4,0.1,0.5c-0.1,0.1,0,0.5-0.1,0.5
					c-0.1,0-0.2,0-0.2-0.1c0-0.2,0.1-0.4-0.2-0.4c-0.2,0-0.4-0.1-0.6-0.3c-0.2-0.1-0.3-0.1-0.3-0.3c0.1-0.3,0-0.4,0.2-0.5
					c0.2-0.2,0.2-0.3,0.4-0.2c0.2,0.1,0.2,0.1,0.3,0c0.1-0.1,0.3-0.1,0.3-0.2c0-0.1-0.2-0.1-0.2-0.3s0.1-0.1,0.2-0.4
					c0-0.3-0.2-0.7-0.4-0.7s-0.6,0.4-0.7,0.2c-0.1-0.2-0.2-0.1-0.5,0c-0.3,0.1-1.5-0.1-1.6-0.2c0,0-0.2-0.2-0.3-0.1
					c-0.1,0.1-0.5,0.1-0.7,0c-0.1,0-0.3,0.2-0.4,0.1c-0.2-0.1-0.8-0.2-0.9-0.3c-0.1-0.1-0.3-0.1-0.4-0.1c-0.1-0.1-0.4-0.1-0.5,0
					c-0.1,0.1-0.3,0.3-0.4,0.4c-0.1,0.1-0.3,0.1-0.2,0.3c0.1,0.2-0.3,0.4-0.2,0.7c0.1,0.3,0,1,0.4,1.1c0.4,0.1,0.8,0.2,1.1,0
					c0.3-0.2,0.7-0.2,0.8,0c0.1,0.2,0.2,0.6,0.6,0.8c0.4,0.2,0.8,0.8,0.7,1c0,0.3,0,1.1,0.4,1.6c0.4,0.5,0.8,1.4,0.9,1.2
					c0-0.2,0-0.4,0.1-0.3c0.1,0.2,0.3,0.6,0.7,0.7c0.4,0.1,0.6,0.1,0.7,0.2c0.2,0.1,0.3,0.2,0.4,0.3c0.2,0.1,0.5,0.3,0.6,0.4
					c0.1,0.1,0.1,0.3,0,0.5c-0.1,0.2-0.2,0.4-0.1,0.6c0.1,0.2,0.3,0.8,0.5,0.9c0.2,0.1,0.4,0.3,0.3,0.6c-0.1,0.3-0.3,1.5-0.2,1.8
					c0,0.3-0.3,1.2,0,1.6c0.2,0.4,0.6,0.5,0.8,0.4c0.2-0.1,0-0.1-0.1-0.2c-0.1-0.2-0.1-0.4,0-0.5c0.1-0.2,0.1-0.3,0.1-0.4
					s0-0.3,0.1-0.4c0.1-0.1,0.6-0.5,0.7-0.7c0.1-0.2,1-1.3,1.2-1.4c0.1-0.1,0.4-0.3,0.5-0.7c0.1-0.3,0.4-1,0.2-1.2
					C499.4,409,498.5,408.9,498.5,408.9z"/>
			</g>
			<g>
				<linearGradient id="SVGID_17_" gradientUnits="userSpaceOnUse" x1="497.4695" y1="400.4672" x2="500.9956" y2="400.4672">
					<stop  offset="3.745990e-03" style="stop-color:#01E971"/>
					<stop  offset="0.6424" style="stop-color:#00D351"/>
					<stop  offset="1" style="stop-color:#00CB44"/>
				</linearGradient>
				<path class="st55" d="M500.7,399.1c0.1-0.1,0.2-0.4,0.3-0.6h-3.5c0.1,0.2,0.2,0.9,0.2,1.2c0,0.3,0.1,0.2,0.2,0.3
					c0.1,0.1,0.1,0.3,0,0.5c-0.1,0.2-0.1,0.5,0.1,0.9c0.2,0.4,0.4,0.9,0.6,0.9s0.1,0.3,0.3,0.2s0.1-0.3,0.2-0.6
					c0.1-0.3,0.1-0.5,0.4-0.7c0.3-0.2,1-0.7,1.1-0.8c0.2-0.2,0.3-0.2,0.3-0.5C500.7,399.5,500.6,399.2,500.7,399.1z"/>
			</g>
		</g>
		<g>
			<g>
				<linearGradient id="SVGID_18_" gradientUnits="userSpaceOnUse" x1="505.7754" y1="405.3733" x2="521.8699" y2="405.3733">
					<stop  offset="3.745990e-03" style="stop-color:#01E971"/>
					<stop  offset="0.6424" style="stop-color:#00D351"/>
					<stop  offset="1" style="stop-color:#00CB44"/>
				</linearGradient>
				<path class="st56" d="M521.6,401.1c-0.1-0.1-0.9-0.7-1.2-0.6c-0.3,0.1-0.9-0.2-1-0.2c-0.1-0.1-0.8-0.3-1.2-0.3
					c-0.2,0-1-0.2-1.4-0.3c-0.3-0.2-0.7-0.9-1.3-0.8c-0.1,0-0.9,0.1-1.1,0.3s-0.3,0.4-0.4,0.4c-0.1,0.1-0.4,0-0.4,0.2s0.1,0.7,0,0.5
					c-0.1-0.1-0.3-0.3-0.3-0.2c-0.1,0.2-0.2,0.3-0.2,0.2c-0.1-0.1-0.4,0-0.4,0.1c-0.1,0.1-0.4,0.3-0.6,0.4c-0.2,0-0.2,0.1-0.3,0.2
					c-0.1,0.1-0.8,0.4-0.9,0.2c-0.1-0.1-0.2-0.1-0.3,0c0,0-0.2-0.1-0.4-0.2s-0.2-0.1-0.4-0.3c-0.2-0.2-0.2-0.4-0.4-0.3
					s-0.9,0.8-1.2,1.2c-0.3,0.3-0.8,0.7-0.5,0.9c0.3,0.2,0.4,0.2,0.4,0.3c0,0.1,0.1,0.3,0.1,0.3s0.3,0.2,0.4,0
					c0.1-0.3,0.1-0.4,0.3-0.4c0.1,0.1,0.2,0.1,0.1,0.3c-0.1,0.2-0.1,0.5-0.4,0.5c-0.2,0-0.5-0.2-0.6-0.1c-0.1,0-0.1,0.1-0.2,0.2
					c-0.1,0.1-0.4,0.4-0.6,0.5c-0.2,0.1-0.4,0-0.3,0.2c0.1,0.2,0.3,0.5,0.1,0.5c-0.2,0-0.5-0.1-0.5,0.1c0,0.2-0.1,0.3-0.1,0.4
					c0.1,0.1,0.2,0.4,0.3,0.3c0.2-0.1,0.5-0.2,0.5-0.4c0.1-0.2,0.2-0.4,0.4-0.4c0.2,0,0.7,0.3,0.7,0.4c0,0.1-0.1,0.3,0,0.2
					c0.1-0.1,0.2-0.2,0.3-0.2c0.1,0,0.2,0.1,0.2,0.2c0,0.1,0.2,0.2,0.3,0c0.1-0.2,0.1-0.1,0.2,0c0.1,0.1,0.5,0.1,0.5,0.1
					c0.1,0.1,0.2,0.2,0,0.3c-0.1,0.2-0.3,0.2-0.5,0.1c-0.2-0.1-0.5,0.1-0.8,0c-0.3-0.1-0.1-0.3-0.5-0.4c-0.3-0.1-1,0-1.3,0.1
					c-0.2,0.1-0.2,0.1-0.3,0.2c-0.1,0.1-0.7,0.8-0.7,1.2s0.2,1.5,0.9,1.4c0.7-0.1,1.1-0.1,1.1,0.2c-0.1,0.2-0.1,0.3,0.1,0.5
					c0.1,0.2,0.4,1.9,0.5,2.1c0.1,0.3-0.1,0.6,0.3,0.5c0.3-0.1,0.7-0.1,0.8-0.4c0.1-0.3,0.2-0.7,0.3-0.8s0.4-0.2,0.4-0.4
					c0-0.3-0.1-0.9,0.1-1c0.1-0.1,0.7-0.8,0.8-1c0.1-0.3,0.1-0.3-0.1-0.3c-0.2,0-0.6,0-0.7-0.2c-0.1-0.2-0.4-0.6-0.4-0.7
					c0-0.1,0.2-0.1,0.2,0.1c0.1,0.2,0.4,0.8,0.7,0.7s0.8-0.3,0.8-0.5c0-0.2-0.1-0.4-0.3-0.4c-0.2,0-0.3-0.1-0.3-0.2
					c0-0.1,0-0.1,0.2,0c0.2,0.1,0.3,0.2,0.5,0.2c0.3,0,0.6,0.3,0.8,0.4c0.2,0.1,0.4,1,0.5,1.1c0.1,0.1,0.2,0.1,0.2-0.1
					c0.1-0.2,0.4-0.7,0.5-0.9c0.2-0.2,0.2-0.3,0.3-0.2c0.1,0.1,0.5,0.4,0.6,0.6c0,0.2,0,0.6,0.1,0.5c0.1-0.1,0.2-0.4,0.2-0.3
					c0.1,0.1,0.1,0.3,0.3,0.2c0.2-0.1,0.5-0.2,0.3-0.5c-0.2-0.3-0.1-0.5,0.1-0.5c0.1,0,0.9-0.2,0.9-0.6c0-0.4-0.3-0.6-0.1-0.9
					c0.1-0.2,0.3-0.4,0.4-0.3c0.1,0.1-0.1,0.5,0.1,0.5c0.2-0.1,0.4-0.1,0.4-0.2s-0.1-0.4,0.1-0.5c0.1-0.1,0.7-0.7,0.8-0.9
					c0.1-0.2,0.2-0.4,0.1-0.6c-0.1-0.2-0.3-0.1-0.2-0.3c0.2-0.2,0.4-0.4,0.6-0.4c0.6-0.1,0.4,0.7,0.4,0.9s0,0.6,0.1,0.4
					c0.1-0.2,0.2-0.5,0.4-0.7c0.2-0.2,0.3-0.3,0.3-0.5c0-0.2,0-0.2,0.2-0.3c0.2-0.1,0.9-0.4,1-0.6c0.1-0.2-0.1-0.4,0.1-0.4
					c0.2,0,0.4,0.2,0.4,0.1c0.1-0.1,0.3-0.3,0.3-0.4C522,401.5,521.7,401.2,521.6,401.1z"/>
			</g>
			<g>
				<linearGradient id="SVGID_19_" gradientUnits="userSpaceOnUse" x1="517.3296" y1="405.3646" x2="518.5468" y2="405.3646">
					<stop  offset="3.745990e-03" style="stop-color:#01E971"/>
					<stop  offset="0.6424" style="stop-color:#00D351"/>
					<stop  offset="1" style="stop-color:#00CB44"/>
				</linearGradient>
				<path class="st57" d="M518.3,404.7c-0.1,0.1-0.1,0.2-0.2,0.4c-0.1,0.3-0.1,0.2-0.2,0.4c-0.1,0.2-0.2,0.2-0.4,0.3
					c-0.2,0.1-0.2,0.3-0.2,0.3c-0.1,0.2,0.5-0.3,0.8-0.4c0.2-0.1,0.2-0.3,0.2-0.5c0-0.2,0.1-0.3,0.2-0.3c0.1-0.1,0-0.3,0-0.4
					C518.4,404.4,518.3,404.6,518.3,404.7z"/>
			</g>
			<g>
				<linearGradient id="SVGID_20_" gradientUnits="userSpaceOnUse" x1="514.9432" y1="409.0414" x2="516.876" y2="409.0414">
					<stop  offset="3.745990e-03" style="stop-color:#01E971"/>
					<stop  offset="0.6424" style="stop-color:#00D351"/>
					<stop  offset="1" style="stop-color:#00CB44"/>
				</linearGradient>
				<path class="st58" d="M515.5,409.4c0.1-0.1,0.1-0.1,0.3,0c0.1,0.1,0.3,0.2,0.4,0.2c0.1-0.1,0-0.2,0.1-0.2c0.1,0,0.2,0.1,0.3,0
					c0.1-0.1,0.2-0.1,0.2-0.2c0-0.1,0-0.3,0-0.4c0-0.1-0.2-0.1-0.3,0c-0.1,0.1-0.3,0.3-0.3,0.2s0.1-0.2,0.1-0.3
					c-0.1-0.1,0-0.2-0.2-0.1c-0.2,0.1-0.3,0.1-0.4,0.2c-0.1,0.1-0.2,0.3-0.3,0.2c-0.1-0.1-0.5-0.4-0.5-0.4"/>
			</g>
			<g>
				<linearGradient id="SVGID_21_" gradientUnits="userSpaceOnUse" x1="517.5231" y1="409.3105" x2="518.9497" y2="409.3105">
					<stop  offset="3.745990e-03" style="stop-color:#01E971"/>
					<stop  offset="0.6424" style="stop-color:#00D351"/>
					<stop  offset="1" style="stop-color:#00CB44"/>
				</linearGradient>
				<path class="st59" d="M518.7,409.3c-0.2-0.1-0.1-0.2-0.3-0.2c-0.2-0.1-0.4,0-0.5-0.1c-0.1-0.1-0.4-0.2-0.3,0s0.3,0.2,0.4,0.2
					s-0.1,0.1,0,0.2c0.1,0.1,0.2,0.2,0.4,0.2c0.2-0.1,0.2,0.1,0.4,0.1c0.1,0,0.3,0,0.2-0.1c-0.1-0.1-0.1-0.2-0.1-0.2
					C518.8,409.3,518.9,409.3,518.7,409.3z"/>
			</g>
			<g>
				<linearGradient id="SVGID_22_" gradientUnits="userSpaceOnUse" x1="516.0402" y1="410.9964" x2="519.2789" y2="410.9964">
					<stop  offset="3.745990e-03" style="stop-color:#01E971"/>
					<stop  offset="0.6424" style="stop-color:#00D351"/>
					<stop  offset="1" style="stop-color:#00CB44"/>
				</linearGradient>
				<path class="st60" d="M518.6,410.2c-0.1-0.2-0.2-0.6-0.3-0.4s-0.3,0.3-0.4,0.3c-0.1,0-0.1-0.1-0.1-0.2c0-0.1-0.1-0.2-0.3-0.1
					c-0.2,0.1-0.3,0.3-0.3,0.3c-0.1,0-0.2-0.1-0.3,0.1c-0.1,0.1-0.2,0.3-0.3,0.4c-0.1,0.1-0.5,0.1-0.5,0.3c0,0.2,0.1,0.4,0.1,0.6
					c0,0.1-0.2,0.5,0.1,0.5c0.1,0.1,0.2,0.1,0.4,0c0.2-0.1,0.9-0.3,1-0.2c0.1,0.1,0.2,0.3,0.3,0.3c0.1,0.1,0.2,0.3,0.3,0.3
					c0.2,0.1,0.3,0.1,0.4,0.1c0.1,0,0.3-0.1,0.4-0.2c0.1-0.2,0.2-0.5,0.2-0.7s0.1-0.4-0.1-0.5C518.9,410.7,518.6,410.4,518.6,410.2z
					"/>
			</g>
		</g>
		<linearGradient id="SVGID_23_" gradientUnits="userSpaceOnUse" x1="501.0217" y1="406.2795" x2="526.8273" y2="406.2795">
			<stop  offset="3.745990e-03" style="stop-color:#01E971"/>
			<stop  offset="0.6424" style="stop-color:#00D351"/>
			<stop  offset="1" style="stop-color:#00CB44"/>
		</linearGradient>
		<path class="st61" d="M513.9,393.4c-7.1,0-12.9,5.8-12.9,12.9s5.8,12.9,12.9,12.9s12.9-5.8,12.9-12.9S521.1,393.4,513.9,393.4z
			 M513.9,417.2c-6,0-10.9-4.9-10.9-10.9c0-6,4.9-10.9,10.9-10.9c6,0,10.9,4.9,10.9,10.9C524.8,412.3,520,417.2,513.9,417.2z"/>
	</g>
	<g>
		<path class="st62" d="M465.1,434.3h-1.8v-7.2h-2.5v-1.5h6.9v1.5h-2.5V434.3L465.1,434.3z"/>
		<path class="st62" d="M470.9,431.1v3.2H469v-8.7h3.6c1,0,1.8,0.2,2.3,0.7s0.8,1.2,0.8,2c0,0.6-0.1,1.1-0.4,1.5
			c-0.3,0.4-0.7,0.8-1.2,1l1.8,3.5h-2.1l-1.6-3.2H470.9L470.9,431.1z M470.9,427v2.8h1.6c0.5,0,0.8-0.1,1.1-0.4
			c0.2-0.2,0.4-0.6,0.4-1c0-0.4-0.1-0.8-0.4-1s-0.6-0.4-1.1-0.4H470.9z"/>
		<path class="st62" d="M479.1,425.6v5.3c0,0.6,0.2,1,0.5,1.3c0.3,0.3,0.8,0.5,1.3,0.5c0.6,0,1-0.2,1.3-0.5c0.3-0.3,0.5-0.8,0.5-1.3
			v-5.3h1.8v5.5c0,1-0.3,1.7-1,2.3c-0.7,0.6-1.5,0.9-2.7,0.9c-1.1,0-2-0.3-2.7-0.9c-0.7-0.6-1-1.4-1-2.3v-5.5H479.1z"/>
		<path class="st62" d="M486.1,431.7h1.7c0,0.4,0.2,0.6,0.6,0.8c0.3,0.2,0.7,0.3,1.2,0.3c0.5,0,0.8-0.1,1.2-0.3
			c0.3-0.2,0.5-0.5,0.5-0.8c0-0.3-0.1-0.5-0.3-0.7c-0.2-0.2-0.6-0.3-1.1-0.4l-1.1-0.2c-1.6-0.3-2.3-1.1-2.3-2.4
			c0-0.8,0.3-1.4,0.9-1.9c0.6-0.5,1.4-0.7,2.4-0.7c1,0,1.8,0.2,2.4,0.7c0.6,0.5,0.9,1.1,0.9,1.8h-1.7c0-0.4-0.2-0.6-0.5-0.8
			c-0.3-0.2-0.7-0.3-1.1-0.3c-0.4,0-0.8,0.1-1.1,0.3c-0.3,0.2-0.4,0.4-0.4,0.7c0,0.2,0.1,0.5,0.3,0.6c0.2,0.2,0.6,0.3,1.1,0.4l1,0.2
			c0.9,0.2,1.5,0.5,1.9,0.9c0.4,0.4,0.6,0.9,0.6,1.5c0,0.8-0.3,1.5-0.9,1.9c-0.6,0.5-1.5,0.7-2.5,0.7c-1,0-1.8-0.2-2.5-0.7
			C486.4,433.1,486.1,432.5,486.1,431.7z"/>
		<path class="st62" d="M498.7,434.3h-1.8v-7.2h-2.5v-1.5h6.9v1.5h-2.5V434.3z"/>
		<path class="st62" d="M506.5,434.4c-1.2,0-2.1-0.4-2.8-1.2s-1.1-1.9-1.1-3.3s0.4-2.4,1.1-3.3s1.6-1.2,2.8-1.2
			c0.6,0,1.2,0.1,1.7,0.4c0.5,0.2,0.9,0.6,1.2,1c0.3,0.4,0.5,0.9,0.6,1.5h-0.8c-0.1-0.6-0.4-1.1-0.9-1.5c-0.5-0.4-1.1-0.6-1.8-0.6
			c-0.9,0-1.7,0.3-2.2,1c-0.5,0.7-0.8,1.6-0.8,2.7c0,1.1,0.3,2.1,0.8,2.7c0.6,0.7,1.3,1,2.2,1c0.7,0,1.3-0.2,1.8-0.5
			c0.5-0.4,0.8-0.8,0.9-1.4h0.8c-0.1,0.8-0.5,1.5-1.2,2C508.3,434.2,507.5,434.4,506.5,434.4z"/>
		<path class="st62" d="M517.4,434.3l-1-2.7h-3.6l-1,2.7H511l3.2-8.7h0.8l3.2,8.7H517.4z M514.6,426.6l-1.6,4.3h3.2L514.6,426.6
			L514.6,426.6z"/>
		<path class="st62" d="M519.3,425.6h3c0.8,0,1.5,0.2,2,0.7c0.5,0.5,0.8,1.1,0.8,1.9s-0.2,1.5-0.8,1.9c-0.5,0.5-1.2,0.7-2,0.7h-2.1
			v3.3h-0.8L519.3,425.6L519.3,425.6z M520.1,426.3v3.9h1.9c0.7,0,1.2-0.2,1.6-0.5c0.4-0.4,0.6-0.8,0.6-1.5s-0.2-1.1-0.6-1.5
			c-0.4-0.4-0.9-0.5-1.6-0.5H520.1z"/>
		<path class="st62" d="M527.6,434.3h-0.8v-8.7h0.8V434.3z"/>
		<path class="st62" d="M532.4,434.3h-0.8v-7.9h-2.9v-0.7h6.6v0.7h-2.9V434.3z"/>
		<path class="st62" d="M541.7,434.3l-1-2.7h-3.6l-1,2.7h-0.9l3.3-8.7h0.8l3.2,8.7H541.7z M538.9,426.6l-1.6,4.3h3.2L538.9,426.6
			L538.9,426.6z"/>
		<path class="st62" d="M548.6,433.6v0.7h-5.2v-8.7h0.8v7.9H548.6z"/>
	</g>
</g>
</svg>
