<?xml version="1.0" encoding="utf-8"?>
<!-- Generator: Adobe Illustrator 19.2.0, SVG Export Plug-In . SVG Version: 6.00 Build 0)  -->
<svg version="1.1" id="OBJEKTS" xmlns="http://www.w3.org/2000/svg" xmlns:xlink="http://www.w3.org/1999/xlink" x="0px" y="0px"
	 viewBox="0 0 500 500" style="enable-background:new 0 0 500 500;" xml:space="preserve">
<style type="text/css">
	.st0{opacity:0.41;fill:#95EAB6;}
	.st1{fill:none;stroke:#FFFFFF;stroke-width:2;stroke-miterlimit:10;}
	.st2{opacity:0.41;fill:#73D897;}
	.st3{opacity:0.75;fill:none;stroke:#FFFFFF;stroke-miterlimit:10;}
	.st4{fill:#161616;}
	.st5{fill:#49484C;}
	.st6{fill:#FFFFFF;}
	.st7{fill:#F4CC8D;}
	.st8{fill:#F5BA00;}
	.st9{fill:#FF735F;}
	.st10{fill:#E5B97F;}
	.st11{fill:#414142;}
	.st12{fill:none;stroke:#69686D;stroke-miterlimit:10;}
	.st13{fill:url(#SVGID_1_);}
	.st14{fill:url(#SVGID_2_);}
	.st15{fill:url(#SVGID_3_);}
	.st16{fill:#605443;}
	.st17{fill:url(#SVGID_4_);}
	.st18{fill:url(#SVGID_5_);}
	.st19{opacity:0.49;fill:url(#SVGID_6_);}
	.st20{fill:url(#SVGID_7_);}
	.st21{clip-path:url(#SVGID_10_);}
	.st22{opacity:0.41;fill:none;stroke:#66BF85;stroke-miterlimit:10;}
	.st23{fill:url(#SVGID_11_);}
	.st24{fill:none;stroke:#A0A0A0;stroke-width:2;stroke-miterlimit:10;}
	.st25{font-family:'MarkerFelt-Wide';}
	.st26{font-size:38.2521px;}
</style>
<circle class="st0" cx="259.4" cy="262.3" r="158.6"/>
<path class="st1" d="M214.7,268.5h-98c-12.7,0-23-10.3-23-23v-7.8c0-12.7,10.3-23,23-23h75c12.7,0,23,10.3,23,23V268.5z"/>
<path class="st2" d="M387.6,286.6c-0.2-44.7-12.5-87.6-48.9-116.4c-44.9-35.5-107.6-35.1-153.4-1.9c-30,21.7-51,54.3-62.8,89.4
	c-11.8,35.1-14.8,72.6-13.6,109.6l273,0.9c1.1-12.5,2.3-25.1,3.4-37.6C386.6,316,387.7,301.3,387.6,286.6z"/>
<path class="st3" d="M229.7,263.5h-98c-12.7,0-23-10.3-23-23v-7.8c0-12.7,10.3-23,23-23h75c12.7,0,23,10.3,23,23V263.5z"/>
<path class="st3" d="M328.6,174.7H193.5c-16.8,0-30.5-13.6-30.5-30.5v-10.4c0-16.8,13.6-30.5,30.5-30.5h104.7
	c16.8,0,30.5,13.6,30.5,30.5V174.7z"/>
<g>
	<path class="st4" d="M155.4,360.1c-0.3-0.3-0.8-0.6-1.2-0.9c-1.4-1.1-1.7-3.1-1.9-4.9c-1.8-22,1.5-44.2,0.4-66.2
		c-0.2-5.3-4.5-2.7-8-2c-0.5,0.1-7.4,1.4-7.3,0.6c-0.6,6.3-1.4,13-5.6,17.7c-2.9,3.3-7,5.2-10.6,7.6c-13.6,9.2-21.5,26.9-23.4,42.9
		c0-0.4-0.1-0.7-0.1-1.1c-0.3-3.2-0.5-6.4-0.6-9.6c-0.3-6.7-0.4-13.4-0.3-20.1c0.1-5,0.7-10.5-2.3-14.8c-2.6-3.7-5.4-4-9.1-4.3
		c-1-2-0.8-5.9-0.8-7.7c0-2.9,0.5-6.1,2.6-8.3c3.4-3.6,8.7-1.4,13.1-2.5c9.8-2.5,6.3-15,5.7-22.2c-0.4-4.5-7.4-4.5-7,0
		c0.3,3.6,1,7.4,1,11c0,2.3,0,3.8-2.4,4.6c-1,0.3-2.4,0-3.4,0c-5.1,0-9.5,1.1-12.8,5.2c-3.6,4.5-4.1,10.3-3.5,15.8
		c0.4,4.2,0.6,10,5.7,10.9c4.7,0.8,6.2,1.8,6.3,6.8c0.1,3.4-0.2,6.8-0.2,10.2c0,7.7,0.2,15.4,0.8,23c0.3,4.4-0.4,12.3,3.3,15.6
		c1.9,1.6,4.1,1.7,5.9,0.8c5.8,0.3,19.6-0.5,21.1-0.5h17.8c3,0,8.2,1,11.1-0.4c1.5-0.8,4.3-2.2,5.4-3.6
		C156.1,362.8,156.3,361.1,155.4,360.1z"/>
	<path class="st5" d="M153,294.5c0-1.8,0-3.6-0.1-5.4c0-0.3-0.1-0.7-0.1-1c-0.1-0.4-0.2-0.7-0.3-1.1c-1.3-2.5-5.9-0.3-7.7,0.5
		c-2,1-3.8,2.3-5.6,3.6c-1,0.8-2.2,1.7-2.7,2.9c-0.6,1.3-0.2,3.3-0.1,4.7c0.1,1,0.3,2.1,0.9,2.9c0.6,0.8,1.8,1.3,2.7,0.7
		c0.2,1.1,0.4,2.2,0.9,3.2c0.4,0.8,1.1,1.3,2,1.5c0.6,0.2,0.5,0.1,0.7,0.7c0,0,0,0,0,0.1c0.1,0.5,0.3,0.9,0.5,1.3c0,0,0,0.1,0,0.1
		c0.2,0.3,0.3,0.6,0.6,0.8c0.1,0.1,0.3,0.2,0.5,0.3c0,0,0,0,0,0c0,0,0,0,0,0c0.3,0.2,0.7,0.3,1.1,0.4c1,0.1,2.1-0.2,2.6-1.1
		c0.6-1,0.5-2.1,0.4-3.2c0.8,0,1.5-0.4,1.8-1.3c0.4-0.8,0.3-1.9,0.3-2.8c0-1.1,0-2.1-0.1-3.2C153.4,299.2,153,296,153,294.5z"/>
	<path class="st4" d="M129.9,330.3c3.5,2.1,5.9,6.4,5.4,10.6c-0.4,4.3-3.9,7.8-7,10.4c-3.3,2.8-7,5.3-9.1,9.1
		c2.2-0.3,4.4-0.4,6.5-0.5c1.9-0.1,4,0.1,5.1,1.6c1.1,1.6,0.5,3.8,0.8,5.7c0.2,0.1,0.5,0.1,0.7-0.1c0.1,0.5,0.1,0.5,0.6,0.5
		c1.7-0.1,3.2-1.4,4-3c0.8-1.6,1.1-3.3,1.3-5.1c0.7-6.2,1.1-12.5,0.7-18.8c-0.1-2-0.4-4-1.4-5.7C136,332.2,133.2,330.1,129.9,330.3z
		"/>
	<path class="st4" d="M121.2,272.2c-0.1-0.3-0.2-0.6-0.3-0.9c0,0.1,0.8,0.4,1,0.5c0.4,0.2,0.7,0.4,1.1,0.6c0.7,0.4,1.4,0.8,2.1,1.2
		c0.7,0.4,1.4,0.8,2.1,1.3c0.3,0.2,0.5,0.4,0.8,0.3c0.5-0.1,1-0.4,1.5-0.6c0.6-0.2,1.2-0.5,1.8-0.7c1.2-0.5,2.4-1,3.6-1.4
		c2.4-0.9,4.8-1.9,7.1-2.9c0.9-0.4,3-0.9,3.3-1.9c0.1-0.4,0.1-0.7,0.1-1.1c0.1-1.9,0.5-5.5,0.5-5.5s1.4,1.2,1.7,1.5
		c0.5,0.6,1,1.3,1.5,1.9c1,1.3,1.8,2.6,2.6,4.1c1.7,3,3.1,6.1,4.2,9.3c0.9,2.6,1.4,5.2-0.3,7.5c-1.6,2.2-4.2,3.5-6.5,4.7
		c-4.8,2.5-9.9,5.2-15.3,5.7c-1.4,0.1-2.8,0.1-4-0.5c-1.2-0.6-2.1-1.8-2.8-3.1C123.7,285.9,123,278.9,121.2,272.2z"/>
	<path class="st5" d="M147.9,286c-1.6-0.5-3.2-0.6-4.8-1.1c0.1-0.2,0.2-0.3,0.3-0.5c0.2-0.4,0.5-0.8,0.7-1.3c0.2-0.3,0-0.6-0.3-0.7
		c-0.5-0.2-1.4,0.3-1.9,0.5c-0.8,0.3-1.5,0.6-2.2,1c-0.4,0.2-0.3,0.8,0.1,0.9c0.7,0.2,1.3,0.4,2,0.6c-0.7,1.7-1.3,3.4-1.8,5.2
		c-0.2,0.6,0.8,0.9,1,0.3c0.5-1.7,1-3.4,1.7-5c1.6,0.5,3.3,0.6,4.9,1.1C148.2,287.2,148.5,286.2,147.9,286z"/>
	<path class="st6" d="M134.1,281.8c-0.2-0.1-0.5-0.1-0.6,0c-0.1,0-0.3,0-0.4,0.2c-0.1,0.1-0.2,0.3-0.2,0.4c0,0.1-0.1,0.2-0.1,0.2
		c0,0.2,0,0.3,0.1,0.4c0.1,0.1,0.1,0.3,0.3,0.4c0.4,0.4,1.1,0.2,1.4-0.3C135,282.6,134.7,282,134.1,281.8z"/>
	<path class="st6" d="M149.1,275.8c-0.2-0.1-0.5-0.1-0.6,0c-0.1,0-0.3,0-0.4,0.2c-0.1,0.1-0.2,0.3-0.2,0.4c0,0.1-0.1,0.2-0.1,0.2
		c0,0.2,0,0.3,0.1,0.4c0.1,0.1,0.1,0.3,0.3,0.4c0.4,0.4,1.1,0.2,1.4-0.3C150,276.6,149.7,276,149.1,275.8z"/>
</g>
<path class="st3" d="M373.3,230h-71.1v-24.4c0-13.5,10.9-24.4,24.4-24.4h46.7c13.5,0,24.4,10.9,24.4,24.4v0
	C397.7,219.1,386.8,230,373.3,230z"/>
<g>
	<path class="st7" d="M175,340.7c-1.9,6.5-3.5,14.1,0.3,19.7c4.6,6.7,15.3,6.7,22,1.9c6.7-4.7,10.3-12.6,13.4-20.2
		c5.2-12.8,9.8-25.9,11.6-39.6c1.1-8,0.1-17.9-7.1-21.4c-11.2-5.4-20.7,3.2-24.3,12.7C185,309.2,179.7,324.8,175,340.7z"/>
	<path class="st8" d="M208.9,258.2c-2.9,3.1-5.4,6.4-7.7,9.9c-3.1,4.9-5.3,10.1-7.7,15.4c-0.9,1.8-8.1,17.8-6.5,18.9
		c9.1,6.5,18.1,13.7,28.5,17.7c0.4,0.1-1.6,7.8-1.8,8.5c-0.7,2.8-1.4,5.7-1.9,8.5c-1.1,5.7-2,11.5-3,17.2c-0.6,3.2-1.1,6.4-1.6,9.6
		c-0.2,1.4,45.2,4.5,49.3,4.5c12,0.2,30.9,3.6,38.2-8.7c1.7-2.9,2.6-6.2,3.4-9.5c4.5-19.3,6.4-39.2,6-59c-0.1-4.7-0.4-9.3-1.5-13.8
		c-1.6-6.6-5.1-12.5-8.7-18.1c-3.3-5.2-8.5-8-14-10.7c-16.5-7.9-36.5-10.5-53.2-3.1C219.8,248.5,213.9,252.9,208.9,258.2z"/>
	<path class="st9" d="M284.4,305c-0.5,1-0.9,2.1-1.4,3.1c-1.7,4-6.1,11-6.1,15.4c-2,6.4-3,13.3-1.8,19.9c0.5,2.6,1.3,5.2,2.2,7.8
		c1.1,3.2,2.3,6.4,4.3,9.2c1.8,2.4,6.2,6.3,9.6,5c3.5-1.4,6.2-7.8,7.5-11c8-18.8,11.2-39.5,13.1-59.8c0.1-1.4,0.3-2.9,0-4.3
		c-0.4-2.1-1.8-3.8-3.1-5.5c-1.8-2.2-3.8-4.5-6.6-5c-2.6-0.5-5.4,0.9-7.2,2.9c-1.8,2-2.9,4.5-4,7C288.8,294.9,286.6,299.9,284.4,305
		z"/>
	<path class="st8" d="M299,302.9c-1.5-0.4-23.1-5.7-23.1-3c0.2-11.7,0.8-23.4,1.9-35.1c0.4-3.7,0.8-7.5,2.2-10.9
		c1.4-3.5,4-6.6,7.4-7.9c2.6-1,5.4-0.9,8.1-0.3c8.5,1.8,15.6,8.8,17.7,17.2c0.9,3.6,0.9,7.4,0.9,11.1c-0.1,11-0.9,22-1.6,33
		C307.9,306.9,303.4,304.1,299,302.9z"/>
	<path class="st10" d="M309.9,243.5c0.3,1,0.5,2,0.6,3.1c0.5,7-4.2,12.9-8.8,17.6c-1.8,1.9-4.4,3.1-6,5.1c-1.9,2.2-1.8,5.8-5,6.8
		c-1.4,0.4-3-0.1-4-1.2c-1.2-1.3-1.2-2.8-0.6-4.4c0.7-1.9,1.3-4.3,2.5-5.9c0.9-1.3,2.7-2.2,4.1-3c2.7-1.6,4.9-4.7,5.3-7.8
		c0.8-5.9,0-12.6,2-18.2c0.4-1,0.8-1.9,1.6-2.6c0.8-0.7,1.9-1.1,2.9-0.7c1.4,0.5,2,2.2,2.5,3.6C307.9,238.4,309.2,240.9,309.9,243.5
		z"/>
	<path class="st10" d="M302.2,317.8c0.7,12.6,0.5,25.5-2.9,37.8c-1,3.7-2.7,8.9-6.3,10.9c-4,2.3-10.3,0.4-14-1.7
		c-2.5-1.4-4.8-3.1-6.4-5.5c-2.4-3.7-2.6-8.5-2.3-12.9c0.8-12,3.7-23.1,6.1-34.8c2.5-12.7,5.5-25.3,8.9-37.9
		c1.4-5.3,3.3-9.3,7.8-12.7c3.2-2.4,8.5-5.6,8.8,0.7C302.8,280.3,301.2,299,302.2,317.8z"/>
	<path class="st7" d="M251.8,253.8c-0.4,0.7-0.7,1.4-0.9,2.1c-0.2,1-0.1,2,0,2.9c0.9,7.3,2.4,14.5,10.3,16.8
		c5.2,1.5,11.6,1,16.4-1.7c1.5-0.9,3-1.8,4.2-3.1c1.2-1.3,2.1-2.9,2.1-4.7c5.3,1.2,10.7-4.2,13.4-8c6.3-8.8,8.4-19.9,7.4-30.5
		c-0.2-2.6-0.6-5.4-2.2-7.5c-1.1-1.5-2.7-2.5-4.2-3.5c-7.2-4.6-14.9-4.9-22.7-1.2c-7.1,3.3-12.1,10.4-15.5,17.2
		c-1.4,2.9-1.6,6.7-2.8,9.7c-1.3,3.6-3,7.1-5,10.4C252.1,253.2,251.9,253.5,251.8,253.8z"/>
	<path class="st11" d="M261.7,216.8c1.6-3.6,4-7,7-9c5.4-3.8,13.2-3.1,19.3-1.7c3.5,0.8,7,2.3,10.7,2.3c3.3,0,6.7-3.3,9.9-2.2
		c1.4,0.5,2.5,1.7,2.8,3.2c0.5,2.4-1,4.7-2.1,6.9c-0.9,1.7-1.7,3.5-2.8,5.1c-1.5,2-4,3.7-6.5,4c-0.9,0.1-1.7,0-2.6-0.1
		c-5.2-0.5-9.5-2-13.5,2.1c-2.7,2.8-4,6.6-6,9.8c-0.5,0.8-1,1.6-1.8,2.1c-1,0.6-2.4,0.6-3.5,0.9c-5.1,1.2-8.5,9.8-13.9,7.9
		c-4.6-1.6-3.6-5.8-1.8-9.1c2.3-4.2,1.8-9.2,2.5-13.9C259.6,222.4,260.5,219.5,261.7,216.8z"/>
	<path class="st7" d="M263,236.6c-1.2,1.6-1.8,3.5-2.2,5.4c-0.3,1.7-0.5,3.4,0,5s1.8,3.1,3.5,3.4c1.3,0.2,2.7-0.3,3.7-1.2
		c2.4-2.1,5.2-8.5,4.5-11.8C271.5,232.8,265.3,233.6,263,236.6z"/>
	<path class="st12" d="M267.7,238.4c-1.3,0.5-2.3,1.6-3,2.9c-0.6,1.3-0.9,2.7-1.1,4.1"/>
	
		<ellipse transform="matrix(0.9745 -0.2244 0.2244 0.9745 -46.0967 73.5333)" class="st11" cx="300.5" cy="239.6" rx="1.2" ry="1.2"/>
	<ellipse transform="matrix(0.9865 -0.164 0.164 0.9865 -35.5669 50.4001)" class="st11" cx="287.4" cy="240.5" rx="1.2" ry="1.2"/>
	<linearGradient id="SVGID_1_" gradientUnits="userSpaceOnUse" x1="274.649" y1="370.1591" x2="288.863" y2="339.193">
		<stop  offset="0" style="stop-color:#201B59;stop-opacity:0.9148"/>
		<stop  offset="0.5554" style="stop-color:#FFCC00;stop-opacity:0"/>
	</linearGradient>
	<path class="st13" d="M271.5,336.5c-0.5,3.3-0.9,6.5-1.1,9.8c-0.3,4.5-0.2,9.2,2.3,12.9c1.6,2.4,3.9,4.1,6.4,5.5
		c3.7,2.1,10,4,14,1.7c3.5-2,5.2-7.3,6.3-10.9c1.7-6.2,2.6-12.6,3-19H271.5z"/>
	<linearGradient id="SVGID_2_" gradientUnits="userSpaceOnUse" x1="214.5448" y1="314.3124" x2="231.4604" y2="330.5774">
		<stop  offset="0" style="stop-color:#201B59;stop-opacity:0.9148"/>
		<stop  offset="0.5554" style="stop-color:#FFCC00;stop-opacity:0"/>
	</linearGradient>
	<path class="st14" d="M235.6,317.1c-1.8-5.2-3.6-10.4-5.5-15.6c0.1,0.4-1,2.1-1.2,2.5c-0.4,0.9-0.8,1.8-1.2,2.7
		c-0.8,1.9-1.7,3.7-2.5,5.5c-1.6,3.5-3.2,7.1-5.2,10.4c-1.6-0.5-3.1-1.3-4.4-2.4c-0.5,3.2-1.5,6.1-2.2,9.3c-0.3,1.6-0.6,3.3-0.9,4.9
		c-0.2,0.8-0.3,1.7-0.5,2.5c-0.1,0.3-0.2,2.1-0.5,2.3c8.5-5,16.3-11.2,23.1-18.3c0.5-0.6,1.1-1.2,1.2-2
		C236,318.3,235.8,317.7,235.6,317.1z"/>
	<path class="st11" d="M302.5,233c-1.6-0.2-3.2,0.2-4.6,1.1c-0.6,0.4-1,1.2-0.6,1.9c0.3,0.6,1.3,1,1.9,0.6c1-0.7,2-0.9,3.1-0.7
		c0.8,0.1,1.4-0.6,1.5-1.3C303.8,233.6,303.2,233.1,302.5,233z"/>
	<path class="st11" d="M291.1,235.2c-2-0.9-4.1-0.5-6.1,0c-1.5,0.4-1.2,2.9,0.4,2.5c1.6-0.4,3.2-0.9,4.7-0.2
		C291.6,238.2,292.6,235.8,291.1,235.2z"/>
	
		<linearGradient id="SVGID_3_" gradientUnits="userSpaceOnUse" x1="266.9413" y1="236.6636" x2="255.247" y2="250.3626" gradientTransform="matrix(0.9745 -0.2244 0.2244 0.9745 -31.9478 88.9288)">
		<stop  offset="0.2654" style="stop-color:#201B59;stop-opacity:0.9148"/>
		<stop  offset="0.5554" style="stop-color:#FF735F;stop-opacity:0"/>
	</linearGradient>
	<path class="st15" d="M273.5,261.9c-0.1,2.6-0.2,5.2-0.3,7.8c0,1.4-0.1,2.7-0.1,4.1c0,0.2-0.1,0.7-0.1,1.2c1.6-0.4,3.2-0.7,4.7-1.3
		c2.1-1,4.2-2.3,5.3-4.5c0.4-0.8,0.7-1.7,0.9-2.6C280.3,265.8,276.2,264.4,273.5,261.9z"/>
	<path class="st7" d="M246,367.8c13.5,1.6,28.5,3.4,41.5-0.5c-2.1-3-4.2-6-6.9-8.6c-2.7-2.5-6-4.5-9.7-4.9c-1.9-0.2-3.9-0.1-5.8,0.2
		c-3.4,0.4-7.7,2.2-11.1,1.9c-2.8-0.2-6.5-2.7-9.2-3.7c-18.1-7.2-39.6-16.9-59.5-11.7c-10,2.6-16.1,11-9.1,20.4
		c3.9,5.3,10.1,4.3,16.2,4.4c16.4,0.3,32.9,0.1,49.2,2C243.1,367.5,244.5,367.7,246,367.8z"/>
	<g>
		<path class="st16" d="M286.9,255.8l-1-0.2c0.6-2.1,1.3-3.7,2.3-5c1.3-1.6,3-2.7,4.8-2.9c0.6-0.1,1.2,0,1.7,0.1
			c1,0.3,2,1.2,2.5,2.4l-0.9,0.4c-0.4-0.9-1.1-1.6-1.9-1.9c-0.4-0.1-0.8-0.2-1.3-0.1c-1.5,0.2-3,1.1-4.1,2.5
			C288,252.3,287.4,253.8,286.9,255.8z"/>
	</g>
	<linearGradient id="SVGID_4_" gradientUnits="userSpaceOnUse" x1="209.4091" y1="347.5295" x2="200.7093" y2="329.8662">
		<stop  offset="0.2654" style="stop-color:#201B59;stop-opacity:0.9148"/>
		<stop  offset="0.5554" style="stop-color:#FF735F;stop-opacity:0"/>
	</linearGradient>
	<path class="st17" d="M212,334.5c-0.1-0.2-0.3-0.5-0.4-0.7c-0.9-1.5-1.8-3.1-2.7-4.7c-1.3,1.2-2.5,2.4-3.9,3.5
		c-1.9,1.3-3.6,2.9-5.2,4.5c-1,1-1.9,2.1-2.8,3.1c0.2,0.6,0.5,1.1,0.7,1.7c0.1,0.3,0.2,0.6,0.4,0.9c0.6-0.2,1.3-0.4,1.9-0.6
		c3.2-0.9,7.5-2.2,11-1.7c0.2-2,1-3.8,1.1-5.8C212.1,334.7,212,334.6,212,334.5z"/>
	<path class="st10" d="M290.9,259.8c-0.6,0-1.4,0.4-1.7,0.9c-0.1,0.3-0.1,0.6,0.1,0.8c0,0.2,0.2,0.4,0.4,0.4
		c0.7,0.2,1.3-0.2,1.8-0.7C291.9,260.6,291.6,259.8,290.9,259.8z"/>
	<path class="st10" d="M291.9,232.2c-0.7-0.3-1.5-0.5-2.2-0.6c-0.6-0.1-0.6,0.9,0,1c0.7,0.1,1.3,0.3,2,0.5
		C292.2,233.4,292.5,232.5,291.9,232.2z"/>
	<path class="st10" d="M298.1,230.8c-0.5,0.2-1,0.3-1.6,0.5c-0.6,0.2-0.4,1.2,0.3,1c0.5-0.2,1-0.3,1.6-0.5
		C299,231.5,298.7,230.6,298.1,230.8z"/>
</g>
<g>
	<linearGradient id="SVGID_5_" gradientUnits="userSpaceOnUse" x1="153.041" y1="127.0168" x2="318.6283" y2="127.0168">
		<stop  offset="0" style="stop-color:#FCF916"/>
		<stop  offset="0.6786" style="stop-color:#FE9807"/>
		<stop  offset="1" style="stop-color:#FF6F00"/>
	</linearGradient>
	<path class="st18" d="M318.6,162.7H183.5c-16.8,0-30.5-13.6-30.5-30.5v-10.4c0-16.8,13.6-30.5,30.5-30.5h104.7
		c16.8,0,30.5,13.6,30.5,30.5V162.7z"/>
	<g>
		<path class="st6" d="M213.4,133.8h-3.1v5.4h-7.4v-5.4h-11.1v-5.5l11.5-16.9h6.9v16.8h3.1V133.8z M202.9,128.2v-3.2
			c0-0.6,0-1.4,0.1-2.5c0-1,0.1-1.6,0.1-1.6h-0.2c-0.4,1-0.9,1.9-1.5,2.7l-3.1,4.6H202.9z"/>
		<path class="st6" d="M243.1,125.3c0,4.9-0.8,8.5-2.5,10.8c-1.6,2.3-4.2,3.4-7.5,3.4c-3.3,0-5.8-1.2-7.5-3.6
			c-1.7-2.4-2.5-5.9-2.5-10.6c0-4.9,0.8-8.5,2.5-10.8c1.6-2.3,4.2-3.5,7.5-3.5c3.3,0,5.8,1.2,7.5,3.6
			C242.3,117,243.1,120.6,243.1,125.3z M230.5,125.3c0,3.1,0.2,5.3,0.6,6.5c0.4,1.2,1,1.8,2,1.8c0.9,0,1.6-0.6,2-1.8
			c0.4-1.2,0.6-3.3,0.6-6.4c0-3.1-0.2-5.2-0.6-6.5c-0.4-1.2-1-1.8-2-1.8c-0.9,0-1.6,0.6-2,1.8C230.7,120,230.5,122.1,230.5,125.3z"
			/>
		<path class="st6" d="M274.4,133.8h-3.1v5.4H264v-5.4h-11.1v-5.5l11.5-16.9h6.9v16.8h3.1V133.8z M264,128.2v-3.2
			c0-0.6,0-1.4,0.1-2.5c0-1,0.1-1.6,0.1-1.6h-0.2c-0.4,1-0.9,1.9-1.5,2.7l-3.1,4.6H264z"/>
	</g>
</g>
<g>
	<path class="st6" d="M241.7,233.5h-98c-12.7,0-23-10.3-23-23v-7.8c0-12.7,10.3-23,23-23h75c12.7,0,23,10.3,23,23V233.5z"/>
	<g>
		<path class="st9" d="M158.8,212.5c-1.7,0-3-0.5-3.9-1.4c-0.9-0.9-1.4-2.2-1.4-3.9c0-1.7,0.4-3.1,1.3-4c0.9-0.9,2.1-1.4,3.6-1.4
			c1.5,0,2.6,0.4,3.4,1.2c0.8,0.8,1.2,2,1.2,3.4v1.4h-6.7c0,0.8,0.3,1.4,0.7,1.9c0.4,0.4,1.1,0.7,1.9,0.7c0.6,0,1.2-0.1,1.8-0.2
			c0.6-0.1,1.1-0.3,1.7-0.6v2.2c-0.5,0.2-1,0.4-1.6,0.5C160.3,212.4,159.6,212.5,158.8,212.5z M158.4,203.8c-0.6,0-1.1,0.2-1.4,0.6
			c-0.3,0.4-0.5,0.9-0.6,1.6h4c0-0.7-0.2-1.2-0.5-1.6C159.5,204,159,203.8,158.4,203.8z"/>
		<path class="st9" d="M172.9,201.8c0.4,0,0.7,0,1,0.1l-0.2,2.6c-0.2-0.1-0.5-0.1-0.8-0.1c-0.9,0-1.6,0.2-2.1,0.7
			c-0.5,0.5-0.8,1.1-0.8,1.9v5.3h-2.8V202h2.1l0.4,1.7h0.1c0.3-0.6,0.8-1,1.3-1.4C171.7,201.9,172.3,201.8,172.9,201.8z"/>
		<path class="st9" d="M183.4,201.8c0.4,0,0.7,0,1,0.1l-0.2,2.6c-0.2-0.1-0.5-0.1-0.8-0.1c-0.9,0-1.6,0.2-2.1,0.7
			c-0.5,0.5-0.8,1.1-0.8,1.9v5.3h-2.8V202h2.1l0.4,1.7h0.1c0.3-0.6,0.8-1,1.3-1.4C182.2,201.9,182.8,201.8,183.4,201.8z"/>
		<path class="st9" d="M197.5,207.1c0,1.7-0.4,3-1.3,3.9c-0.9,0.9-2.1,1.4-3.7,1.4c-1,0-1.9-0.2-2.6-0.7c-0.8-0.4-1.3-1.1-1.7-1.9
			c-0.4-0.8-0.6-1.8-0.6-2.8c0-1.7,0.4-3,1.3-3.9c0.9-0.9,2.1-1.4,3.7-1.4c1,0,1.9,0.2,2.6,0.6c0.8,0.4,1.3,1,1.7,1.9
			C197.3,205.1,197.5,206,197.5,207.1z M190.4,207.1c0,1,0.2,1.8,0.5,2.3c0.3,0.5,0.9,0.8,1.6,0.8c0.8,0,1.3-0.3,1.6-0.8
			c0.3-0.5,0.5-1.3,0.5-2.3c0-1-0.2-1.8-0.5-2.3c-0.3-0.5-0.9-0.8-1.6-0.8c-0.8,0-1.3,0.3-1.6,0.8
			C190.5,205.3,190.4,206.1,190.4,207.1z"/>
		<path class="st9" d="M207.5,201.8c0.4,0,0.7,0,1,0.1l-0.2,2.6c-0.2-0.1-0.5-0.1-0.8-0.1c-0.9,0-1.6,0.2-2.1,0.7
			c-0.5,0.5-0.8,1.1-0.8,1.9v5.3h-2.8V202h2.1l0.4,1.7h0.1c0.3-0.6,0.8-1,1.3-1.4C206.3,201.9,206.8,201.8,207.5,201.8z"/>
	</g>
</g>
<linearGradient id="SVGID_6_" gradientUnits="userSpaceOnUse" x1="326.1512" y1="303.9766" x2="251.5489" y2="222.8682">
	<stop  offset="4.469140e-03" style="stop-color:#FFFFFF"/>
	<stop  offset="0.551" style="stop-color:#FFFFFF;stop-opacity:0.3"/>
</linearGradient>
<path class="st19" d="M342.8,343.6l-25.9-96.6c-3.6-13.6-15.8-23.1-29.9-23.4h0c-26.7-0.6-42.1,30.1-25.6,51.2
	c27.1,34.5,57,73.3,57,73.3L342.8,343.6z"/>
<linearGradient id="SVGID_7_" gradientUnits="userSpaceOnUse" x1="320.2276" y1="191.3071" x2="410.4081" y2="191.3071">
	<stop  offset="3.745990e-03" style="stop-color:#00EA6B"/>
	<stop  offset="5.475316e-02" style="stop-color:#00E868"/>
	<stop  offset="0.666" style="stop-color:#00D447"/>
	<stop  offset="1" style="stop-color:#00CC3A"/>
</linearGradient>
<path class="st20" d="M391.5,213.4h-71.3v-25.3c0-10.4,8.5-18.9,18.9-18.9h52.4c10.4,0,18.9,8.5,18.9,18.9v6.4
	C410.4,205,402,213.4,391.5,213.4z"/>
<g>
	<g>
		<path class="st6" d="M185.8,354.9c-1.4,0-2.7-0.1-3.8-0.4l0.4-2.1c4.4,0.9,11.5,0,13.5-4.2c0.6-1.3,0.6-2.9,0-4.1
			c-0.7-1.3-1.7-2.2-3.1-2.6c-2.7-0.8-6.2,0.1-8.5,1.4l-1.1-1.9c2.5-1.4,6.7-2.7,10.2-1.6c2,0.6,3.5,1.9,4.4,3.7c0.9,1.9,1,4.2,0,6
			C195.8,353.4,190.4,354.9,185.8,354.9z"/>
	</g>
	<path class="st6" d="M175.6,362.1h-7.4c-7.6,0-13.7-6.1-13.7-13.7v-14.2h34.8v14.2C189.3,356,183.2,362.1,175.6,362.1z"/>
	<path class="st6" d="M199,364.2h-53.5c-0.9,0-1.6-0.7-1.6-1.6l0,0c0-0.9,0.7-1.6,1.6-1.6H199c0.9,0,1.6,0.7,1.6,1.6l0,0
		C200.6,363.5,199.9,364.2,199,364.2z"/>
</g>
<g>
	<g>
		<defs>
			<path id="SVGID_8_" d="M401.1,328.3c0.3-1.9,0.9-3.7,2.5-4.5c2.2-1.3,5.1-0.2,7.6-0.7c7.1-1.3,7-11.2,6.9-16.6
				c-0.1-3.5-0.2-6.9-0.5-10.4c-0.1-0.9-0.1-1.9-0.6-2.7c-0.9-1.4-2.8-1.8-4.4-1.4c-3.1,0.9-4.8,4.2-5.4,7.4
				c-0.5,3.2-0.3,6.5-1.1,9.6c-0.2,0.6-0.4,1.2-0.7,1.7c-0.4,0.6-0.9,1-1.5,1.3c-0.9,0.4-2,0.5-2.9,0c-1-0.6-0.8-1.4-0.8-2.4
				c0-1.1-0.2-2.3-0.3-3.5c-0.3-2.6-0.6-5.2-0.8-7.8c-0.5-5.1-0.9-10.3-1.4-15.4c-0.2-2.3-0.5-4.8-1.7-6.9
				c-5.1-9.1-12.8-1.1-13.5,5.5c-1.6,15.1,6.2,29.3,5.6,44.3c0,0.6-0.1,1.3-0.3,1.9c-1.2,2.4-5,1.9-6.7,0.6
				c-2.7-2.1-1.8-6.8-1.8-9.5c0-2.3-0.7-4.8-2.9-5.9c-2.5-1.2-5.7,0.2-7.2,2.5c-1.8,2.9-1.6,7.8-1.4,11c0.2,2.3,0.7,4.6,2.1,6.6
				c1.4,2,3.6,3.5,6.1,3.6c1.5,0.1,3.1-0.2,4.2,0.7c1.4,1.1,0.9,3,0.9,4.7c0.1,3.2,2.9,6,6.1,7.4c3.2,1.4,6.9,1.6,10.4,1.8
				c3-4.8,3.2-10.4,3.4-15.8C401,333.5,400.8,330.8,401.1,328.3z"/>
		</defs>
		<linearGradient id="SVGID_9_" gradientUnits="userSpaceOnUse" x1="367.5632" y1="311.5439" x2="418.0378" y2="311.5439">
			<stop  offset="3.745990e-03" style="stop-color:#00EA6B"/>
			<stop  offset="5.475316e-02" style="stop-color:#00E868"/>
			<stop  offset="0.666" style="stop-color:#00D447"/>
			<stop  offset="1" style="stop-color:#00CC3A"/>
		</linearGradient>
		<use xlink:href="#SVGID_8_"  style="overflow:visible;fill:url(#SVGID_9_);"/>
		<clipPath id="SVGID_10_">
			<use xlink:href="#SVGID_8_"  style="overflow:visible;"/>
		</clipPath>
		<g class="st21">
			<g>
				<path class="st22" d="M391.6,272.5c3.6,25,6.7,50.5,2.3,75.4"/>
				<path class="st22" d="M388.1,272.4c-1,4.7-2,9.4-2,14.1c0,9.1,3.9,17.7,5.4,26.7c1.7,10,0.4,20.2-0.8,30.3"/>
				<path class="st22" d="M395.9,316.6c4.4-0.6,9.6-1.3,12.3-4.7c0.4-0.5,0.7-1,0.9-1.6c0.7-2.4,0.4-5.1,0.4-7.5c0-2.3,0-6.4,0-9.5"
					/>
				<path class="st22" d="M392,333.2c-3.9,0.6-8.2,1.2-11.6-0.7c-2.1-1.2-3.5-3.2-4.2-5.3c-0.7-2.1-0.9-4.4-0.9-6.6
					c0-2.4,0.2-4.8,0.6-7.2"/>
				<path class="st22" d="M396,320.6c5-0.7,9.9-2,14.5-3.8c1-0.4,2-0.8,2.7-1.5c0.8-0.8,1.1-1.8,1.4-2.8c0.7-2.3,1-17.8,0.2-21.5"/>
			</g>
		</g>
	</g>
	<linearGradient id="SVGID_11_" gradientUnits="userSpaceOnUse" x1="377.4264" y1="353.0828" x2="406.7467" y2="353.0828">
		<stop  offset="0" style="stop-color:#FCF916"/>
		<stop  offset="0.6786" style="stop-color:#FE9807"/>
		<stop  offset="1" style="stop-color:#FF6F00"/>
	</linearGradient>
	<polygon class="st23" points="377.4,342.8 406.7,342.2 403.8,364 381.4,364 	"/>
</g>
<g>
	<path class="st6" d="M370,365.4H246.2c-1.4,0-2.5-1.1-2.5-2.5v-0.9c0-1.4,1.1-2.5,2.5-2.5H370c1.4,0,2.5,1.1,2.5,2.5v0.9
		C372.5,364.3,371.3,365.4,370,365.4z"/>
	<path class="st6" d="M372.9,365.4h-110l9.6-63.2c0.3-2.2,2.2-3.8,4.4-3.8h101.3c2.6,0,4.6,2.4,4.2,5L372.9,365.4z"/>
	<circle class="st24" cx="327.9" cy="327.4" r="5.3"/>
	<g>
		<path class="st1" d="M333.3,293.5c-0.7-2.9-1-5.9-1-8.8c0-2.9,0.4-5,2.4-7.2c1.3-1.5,3.1-3.4,4.7-4.6c4.4-3.5,6.1-9.9,3.9-15.1"/>
		<path class="st1" d="M342.6,285c-0.6-2.5,0.8-5,2.5-6.9c1.7-1.9,3.9-3.4,5.4-5.4c3.2-4.4,3.1-8.5,2.5-16.7
			c-0.4-5.8-0.3-12.3,3.8-16.3"/>
	</g>
</g>
<path class="st5" d="M409.3,370.3H89.9c-1.7,0-3-1.3-3-3v-1c0-1.7,1.3-3,3-3h319.4c1.7,0,3,1.3,3,3v1
	C412.3,369,410.9,370.3,409.3,370.3z"/>
<text transform="matrix(1 0 0 1 356.6611 205.0005)" class="st6 st25 st26">%</text>
</svg>
