<?xml version="1.0" encoding="utf-8"?>
<!-- Generator: Adobe Illustrator 19.2.0, SVG Export Plug-In . SVG Version: 6.00 Build 0)  -->
<svg version="1.1" id="Слой_1" xmlns="http://www.w3.org/2000/svg" xmlns:xlink="http://www.w3.org/1999/xlink" x="0px" y="0px"
	 viewBox="0 0 338.7 392.2" style="enable-background:new 0 0 338.7 392.2;" xml:space="preserve">
<style type="text/css">
	.st0{fill:url(#SVGID_1_);}
	.st1{fill:url(#SVGID_2_);}
	.st2{fill:#FFFFFF;}
	.st3{fill:#E0EAEF;}
	.st4{fill:#696E73;}
	.st5{fill:#373C41;}
	.st6{fill:url(#SVGID_3_);}
	.st7{fill:url(#SVGID_4_);}
</style>
<g id="surface1">
	<linearGradient id="SVGID_1_" gradientUnits="userSpaceOnUse" x1="28.5657" y1="194.8841" x2="312.2383" y2="194.8841">
		<stop  offset="3.745990e-03" style="stop-color:#01E971"/>
		<stop  offset="0.6424" style="stop-color:#00D351"/>
		<stop  offset="1" style="stop-color:#00CB44"/>
	</linearGradient>
	<path class="st0" d="M297.3,250.8c-9,24.3-22.5,45.4-40.3,62.7c-20.2,19.7-46.7,35.4-78.7,46.6c-1,0.4-2.1,0.7-3.2,0.9
		c-1.5,0.3-2.9,0.4-4.4,0.5h-0.3c-1.6,0-3.1-0.2-4.7-0.5c-1.1-0.2-2.2-0.5-3.2-0.9c-32-11.2-58.5-26.8-78.8-46.6
		c-17.8-17.3-31.3-38.4-40.2-62.7C27.2,206.7,28.2,158.1,28.9,119l0-0.6c0.1-3.2,0.2-6.6,0.3-10.4c0.3-18.4,14.9-33.6,33.2-34.6
		c38.3-2.1,67.9-14.6,93.2-39.3l0.2-0.2c4.2-3.9,9.5-5.7,14.8-5.7c5.1,0.1,10.1,2,14.2,5.7l0.2,0.2c25.3,24.7,54.9,37.2,93.2,39.3
		c18.4,1,33,16.2,33.2,34.6c0.1,3.8,0.1,7.1,0.3,10.4l0,0.3C312.7,157.8,313.6,206.5,297.3,250.8z"/>
	<linearGradient id="SVGID_2_" gradientUnits="userSpaceOnUse" x1="170.6917" y1="194.8853" x2="312.2383" y2="194.8853">
		<stop  offset="3.745990e-03" style="stop-color:#01E971"/>
		<stop  offset="0.6424" style="stop-color:#00D351"/>
		<stop  offset="1" style="stop-color:#00CB44"/>
	</linearGradient>
	<path class="st1" d="M297.3,250.8c-9,24.3-22.5,45.4-40.3,62.7c-20.2,19.7-46.7,35.4-78.7,46.6c-1,0.4-2.1,0.7-3.2,0.9
		c-1.5,0.3-2.9,0.4-4.4,0.5V28.3c5.1,0.1,10.1,2,14.2,5.7l0.2,0.2c25.3,24.7,54.9,37.2,93.2,39.3c18.4,1,33,16.2,33.2,34.6
		c0.1,3.8,0.1,7.1,0.3,10.4l0,0.3C312.7,157.8,313.6,206.5,297.3,250.8z"/>
	<path class="st2" d="M253.4,194.9c0,45.7-37.1,82.9-82.7,83h-0.3c-45.8,0-83-37.2-83-83c0-45.8,37.2-83,83-83h0.3
		C216.3,112,253.4,149.2,253.4,194.9z"/>
	<path class="st3" d="M253.4,194.9c0,45.7-37.1,82.9-82.7,83v-166C216.3,112,253.4,149.2,253.4,194.9z"/>
</g>
<g id="surface1_1_">
	<path class="st4" d="M193.8,160.4v24.8l-18.7,0v-25c0-2.7-2.2-4.9-4.9-5c0,0-0.1,0-0.1,0c-2.7,0-5,2.2-5,5v25l-18.7,0v-24.8
		c0-13,10.6-23.6,23.6-23.6h0.1C183.3,136.8,193.8,147.4,193.8,160.4z"/>
	<path class="st5" d="M193.8,160.4v24.8l-18.7,0v-25c0-2.7-2.2-4.9-4.9-5v-18.4C183.3,136.8,193.8,147.4,193.8,160.4z"/>
	<linearGradient id="SVGID_3_" gradientUnits="userSpaceOnUse" x1="133.6293" y1="215.8963" x2="206.7061" y2="215.8963">
		<stop  offset="3.745990e-03" style="stop-color:#01E971"/>
		<stop  offset="0.6424" style="stop-color:#00D351"/>
		<stop  offset="1" style="stop-color:#00CB44"/>
	</linearGradient>
	<path class="st6" d="M206.7,186.6v58.6c0,2.6-2.1,4.8-4.8,4.8h-63.6c-2.6,0-4.8-2.1-4.8-4.8v-58.6c0-2.6,2.1-4.8,4.8-4.8H202
		C204.6,181.8,206.7,184,206.7,186.6z"/>
	<linearGradient id="SVGID_4_" gradientUnits="userSpaceOnUse" x1="170.267" y1="215.8963" x2="206.7061" y2="215.8963">
		<stop  offset="3.745990e-03" style="stop-color:#01E971"/>
		<stop  offset="0.6424" style="stop-color:#00D351"/>
		<stop  offset="1" style="stop-color:#00CB44"/>
	</linearGradient>
	<path class="st7" d="M206.7,186.6v58.6c0,2.6-2.1,4.8-4.8,4.8h-31.7v-68.1H202C204.6,181.8,206.7,184,206.7,186.6z"/>
	<path class="st2" d="M191.1,204.8l-20.8,20.8l-5.9,5.9c-0.6,0.6-1.5,1-2.3,1s-1.7-0.3-2.3-1l-10.2-10.2c-1.3-1.3-1.3-3.4,0-4.7
		c1.3-1.3,3.4-1.3,4.7,0l7.9,7.9l24.4-24.4c1.3-1.3,3.4-1.3,4.7,0C192.4,201.4,192.4,203.5,191.1,204.8z"/>
	<path class="st3" d="M191.1,204.8l-20.8,20.8v-9.4l16.1-16.1c1.3-1.3,3.4-1.3,4.7,0C192.4,201.4,192.4,203.5,191.1,204.8z"/>
</g>
</svg>
