<?xml version="1.0" encoding="utf-8"?>
<!-- Generator: Adobe Illustrator 19.2.0, SVG Export Plug-In . SVG Version: 6.00 Build 0)  -->
<svg version="1.1" id="Слой_1" xmlns="http://www.w3.org/2000/svg" xmlns:xlink="http://www.w3.org/1999/xlink" x="0px" y="0px"
	 viewBox="0 0 505 370.6" style="enable-background:new 0 0 505 370.6;" xml:space="preserve">
<style type="text/css">
	.st0{opacity:0.41;fill:#99EAB8;}
	.st1{opacity:0.4;}
	.st2{fill:url(#SVGID_1_);}
	.st3{fill:#FDE0C1;}
	.st4{opacity:0.5;}
	.st5{fill:url(#SVGID_2_);}
	.st6{fill:url(#SVGID_3_);}
	.st7{fill:url(#SVGID_4_);}
	.st8{fill:url(#SVGID_5_);}
	.st9{fill:url(#SVGID_6_);}
	.st10{fill:url(#SVGID_7_);}
	.st11{fill:#E1E1E1;}
	.st12{fill:#ECECEC;}
	.st13{fill:#F5F5F5;}
	.st14{fill:#FF9E03;}
	.st15{fill:#1B2E35;}
	.st16{fill:url(#SVGID_8_);}
	.st17{fill:url(#SVGID_9_);}
	.st18{fill:#FF515F;}
	.st19{opacity:0.3;}
	.st20{fill:url(#SVGID_10_);}
	.st21{fill:url(#SVGID_11_);}
	.st22{fill:url(#SVGID_12_);}
	.st23{fill:#1F1F1F;}
	.st24{fill:#434443;}
	.st25{fill:#FAFAFA;}
	.st26{fill:#395A64;}
	.st27{fill:url(#SVGID_13_);}
	.st28{fill:#0C0C0C;}
	.st29{fill:#FFBFA0;}
	.st30{fill:#FFFFFF;}
	.st31{fill:#FF9A71;}
	.st32{fill:url(#SVGID_14_);}
	.st33{fill:url(#SVGID_15_);}
	.st34{fill:url(#SVGID_16_);}
	.st35{fill:url(#SVGID_17_);}
	.st36{fill:url(#SVGID_18_);}
	.st37{fill:url(#SVGID_19_);}
	.st38{fill:url(#SVGID_20_);}
	.st39{fill:url(#SVGID_21_);}
	.st40{fill:url(#SVGID_22_);}
	.st41{fill:url(#SVGID_23_);}
	.st42{fill:url(#SVGID_24_);}
	.st43{fill:url(#SVGID_25_);}
	.st44{fill:url(#SVGID_26_);}
	.st45{fill:url(#SVGID_27_);}
	.st46{fill:url(#SVGID_28_);}
	.st47{fill:url(#SVGID_29_);}
	.st48{fill:url(#SVGID_30_);}
	.st49{fill:url(#SVGID_31_);}
	.st50{fill:url(#SVGID_32_);}
	.st51{fill:url(#SVGID_33_);}
	.st52{fill:url(#SVGID_34_);}
	.st53{font-family:'MyriadPro-Bold';}
	.st54{font-size:6px;}
</style>
<g>
	<circle class="st0" cx="261.5" cy="197.5" r="173.1"/>
	<g class="st1">
		<linearGradient id="SVGID_1_" gradientUnits="userSpaceOnUse" x1="93.7755" y1="68.2109" x2="111.6362" y2="68.2109">
			<stop  offset="3.745990e-03" style="stop-color:#01E971"/>
			<stop  offset="0.6424" style="stop-color:#00D351"/>
			<stop  offset="1" style="stop-color:#00CB44"/>
		</linearGradient>
		<circle class="st2" cx="102.7" cy="68.2" r="8.9"/>
		<g>
			<path class="st3" d="M103.5,67.4c0.2,0.1,0.4,0.1,0.6,0.2c0.2,0.1,0.4,0.2,0.6,0.2c0.2,0.1,0.4,0.2,0.5,0.3
				c0.2,0.1,0.3,0.3,0.4,0.4c0.1,0.2,0.2,0.3,0.3,0.6c0.1,0.2,0.1,0.5,0.1,0.7c0,0.4-0.1,0.8-0.2,1.1c-0.1,0.4-0.3,0.7-0.6,0.9
				c-0.3,0.3-0.6,0.5-1,0.7c-0.4,0.2-0.8,0.3-1.3,0.3l-0.1,0.9c0,0.1-0.1,0.2-0.1,0.3c-0.1,0.1-0.2,0.1-0.3,0.1h-0.7l0.1-1.4
				c-0.2,0-0.5-0.1-0.7-0.2c-0.2-0.1-0.5-0.2-0.7-0.3c-0.2-0.1-0.4-0.2-0.6-0.3c-0.2-0.1-0.4-0.3-0.5-0.4l0.5-0.8
				c0-0.1,0.1-0.1,0.2-0.2c0.1,0,0.2-0.1,0.3-0.1c0.1,0,0.2,0,0.3,0.1c0.1,0.1,0.2,0.1,0.4,0.2c0.1,0.1,0.3,0.2,0.4,0.3
				c0.2,0.1,0.4,0.2,0.6,0.2l0.2-2.7c-0.2-0.1-0.4-0.1-0.6-0.2c-0.2-0.1-0.4-0.2-0.6-0.2c-0.2-0.1-0.4-0.2-0.5-0.3
				c-0.2-0.1-0.3-0.3-0.4-0.5c-0.1-0.2-0.2-0.4-0.3-0.6c-0.1-0.2-0.1-0.5-0.1-0.8c0-0.3,0.1-0.7,0.2-1c0.1-0.3,0.3-0.6,0.6-0.8
				c0.3-0.2,0.6-0.5,0.9-0.6c0.4-0.2,0.8-0.3,1.3-0.3l0.1-0.8c0-0.1,0.1-0.2,0.1-0.3c0.1-0.1,0.2-0.1,0.3-0.1h0.7l-0.1,1.3
				c0.5,0.1,0.9,0.2,1.2,0.4c0.3,0.2,0.6,0.4,0.9,0.6l-0.4,0.6c-0.1,0.1-0.1,0.2-0.2,0.2c-0.1,0-0.2,0.1-0.2,0.1
				c-0.1,0-0.1,0-0.2-0.1c-0.1,0-0.2-0.1-0.3-0.1c-0.1-0.1-0.2-0.1-0.4-0.2c-0.1-0.1-0.3-0.1-0.4-0.1L103.5,67.4z M102.6,64.9
				c-0.2,0-0.4,0.1-0.6,0.1c-0.2,0.1-0.3,0.1-0.4,0.2c-0.1,0.1-0.2,0.2-0.2,0.3c0,0.1-0.1,0.2-0.1,0.4c0,0.1,0,0.3,0.1,0.4
				c0,0.1,0.1,0.2,0.2,0.3c0.1,0.1,0.2,0.2,0.3,0.2c0.1,0.1,0.3,0.1,0.4,0.2L102.6,64.9z M103.1,71.4c0.4-0.1,0.7-0.2,0.9-0.4
				c0.2-0.2,0.3-0.5,0.3-0.9c0-0.1,0-0.3-0.1-0.4c-0.1-0.1-0.1-0.2-0.2-0.3c-0.1-0.1-0.2-0.2-0.3-0.2c-0.1-0.1-0.3-0.1-0.4-0.2
				L103.1,71.4z"/>
		</g>
	</g>
	<g class="st4">
		<g>
			<linearGradient id="SVGID_2_" gradientUnits="userSpaceOnUse" x1="222.1889" y1="5.3119" x2="232.8123" y2="5.3119">
				<stop  offset="3.745990e-03" style="stop-color:#01E971"/>
				<stop  offset="0.6424" style="stop-color:#00D351"/>
				<stop  offset="1" style="stop-color:#00CB44"/>
			</linearGradient>
			<path class="st5" d="M227.5,10.6c-2.9,0-5.3-2.4-5.3-5.3c0-2.9,2.4-5.3,5.3-5.3c2.9,0,5.3,2.4,5.3,5.3
				C232.8,8.2,230.4,10.6,227.5,10.6z M227.5,2c-1.8,0-3.3,1.5-3.3,3.4c0,1.8,1.5,3.4,3.3,3.4c1.8,0,3.4-1.5,3.4-3.4
				C230.9,3.5,229.3,2,227.5,2z"/>
		</g>
		<g>
			<linearGradient id="SVGID_3_" gradientUnits="userSpaceOnUse" x1="440.1647" y1="45.8797" x2="450.7881" y2="45.8797">
				<stop  offset="0" style="stop-color:#FDF83C"/>
				<stop  offset="0.6764" style="stop-color:#FE9828"/>
				<stop  offset="1" style="stop-color:#FF6F1F"/>
			</linearGradient>
			<path class="st6" d="M445.5,51.2c-2.9,0-5.3-2.4-5.3-5.3c0-2.9,2.4-5.3,5.3-5.3c2.9,0,5.3,2.4,5.3,5.3
				C450.8,48.8,448.4,51.2,445.5,51.2z M445.5,42.5c-1.8,0-3.3,1.5-3.3,3.4c0,1.8,1.5,3.4,3.3,3.4c1.8,0,3.4-1.5,3.4-3.4
				C448.8,44,447.3,42.5,445.5,42.5z"/>
		</g>
		<g>
			<linearGradient id="SVGID_4_" gradientUnits="userSpaceOnUse" x1="487.2238" y1="153.4195" x2="497.8472" y2="153.4195">
				<stop  offset="3.745990e-03" style="stop-color:#01E971"/>
				<stop  offset="0.6424" style="stop-color:#00D351"/>
				<stop  offset="1" style="stop-color:#00CB44"/>
			</linearGradient>
			<path class="st7" d="M492.5,158.7c-2.9,0-5.3-2.4-5.3-5.3c0-2.9,2.4-5.3,5.3-5.3c2.9,0,5.3,2.4,5.3,5.3
				C497.8,156.3,495.5,158.7,492.5,158.7z M492.5,150.1c-1.8,0-3.3,1.5-3.3,3.4c0,1.8,1.5,3.4,3.3,3.4c1.8,0,3.4-1.5,3.4-3.4
				C495.9,151.6,494.4,150.1,492.5,150.1z"/>
		</g>
		<g>
			<linearGradient id="SVGID_5_" gradientUnits="userSpaceOnUse" x1="126.6001" y1="45.8797" x2="137.2234" y2="45.8797">
				<stop  offset="3.745990e-03" style="stop-color:#01E971"/>
				<stop  offset="0.6424" style="stop-color:#00D351"/>
				<stop  offset="1" style="stop-color:#00CB44"/>
			</linearGradient>
			<path class="st8" d="M131.9,51.2c-2.9,0-5.3-2.4-5.3-5.3c0-2.9,2.4-5.3,5.3-5.3c2.9,0,5.3,2.4,5.3,5.3
				C137.2,48.8,134.8,51.2,131.9,51.2z M131.9,42.5c-1.8,0-3.3,1.5-3.3,3.4c0,1.8,1.5,3.4,3.3,3.4c1.8,0,3.4-1.5,3.4-3.4
				C135.3,44,133.8,42.5,131.9,42.5z"/>
		</g>
		<g>
			<linearGradient id="SVGID_6_" gradientUnits="userSpaceOnUse" x1="6.3353" y1="115.2114" x2="16.9587" y2="115.2114">
				<stop  offset="3.745990e-03" style="stop-color:#01E971"/>
				<stop  offset="0.6424" style="stop-color:#00D351"/>
				<stop  offset="1" style="stop-color:#00CB44"/>
			</linearGradient>
			<path class="st9" d="M11.6,120.5c-2.9,0-5.3-2.4-5.3-5.3c0-2.9,2.4-5.3,5.3-5.3c2.9,0,5.3,2.4,5.3,5.3
				C17,118.1,14.6,120.5,11.6,120.5z M11.6,111.9c-1.8,0-3.3,1.5-3.3,3.4c0,1.8,1.5,3.3,3.3,3.3c1.8,0,3.4-1.5,3.4-3.3
				C15,113.4,13.5,111.9,11.6,111.9z"/>
		</g>
	</g>
	<g>
		<g>
			<g>
				<g>
					<linearGradient id="SVGID_7_" gradientUnits="userSpaceOnUse" x1="19.4639" y1="209.9052" x2="127.4075" y2="209.9052">
						<stop  offset="3.745990e-03" style="stop-color:#01E971"/>
						<stop  offset="0.6424" style="stop-color:#00D351"/>
						<stop  offset="1" style="stop-color:#00CB44"/>
					</linearGradient>
					<path class="st10" d="M110.5,268.3c17.2-15.1,18.8-39.7,15.6-61.3c-0.5-3.6-0.5-7.5-2.6-10.5c-2.1-3-6.3-4.7-9.4-2.8
						c-2.6,1.6-3.4,4.8-4.6,7.6c-1.6,3.7-4.3,6.8-7.6,9.1c-2.2,1.5-5,2.5-7.4,1.5c-3.3-1.4-4.2-5.7-4.5-9.3
						c-0.7-6.7-1.4-13.5-2.1-20.2c-0.4-3.6-0.8-7.3-2.3-10.6c-1.5-3.3-4.3-6.2-7.9-6.8c-3.5-0.6-7.6,1.9-7.9,5.5
						c-0.1,1.5,0.3,3,0.4,4.5c0.1,1.5-0.4,3.2-1.8,3.8c-1.4,0.6-2.9-0.3-4.1-1.2c-4.1-3.2-7.2-7.6-10-12c-2.9-4.4-5.7-8.9-9.5-12.5
						c-3.8-3.6-8.8-6.2-14-6c-5.2,0.3-10.3,4.1-11.1,9.3c-0.7,5.2,2.8,10.1,6.5,13.8c5.5,5.6,11.7,10.4,18.5,14.1
						c1.2,0.7,2.6,1.4,3.1,2.7c1,2.3-1,5-3.3,6c-2.6,1.2-5.5,1.2-8.3,1.9c-2.8,0.6-5.7,2.2-6.5,5c-1.1,3.8,2.4,7.4,5.8,9.6
						c6.6,4.4,14,7.6,21.7,9.5c2.8,0.7,5.6,1.2,8,2.8c2.3,1.6,4,4.7,3,7.4c-1,2.7-4.2,3.9-7.1,3.7c-2.8-0.2-5.5-1.4-8.2-2.1
						c-5.2-1.3-11.5-0.3-14.2,4.4c-1.8,3-1.5,7-0.1,10.2c1.4,3.2,3.9,5.9,6.5,8.3c9,8.4,20,14.8,31.9,17.5
						C88.7,273.8,99.5,273.7,110.5,268.3"/>
				</g>
			</g>
		</g>
		<g>
			<g>
				<g>
					<g>
						<path class="st11" d="M112.5,284.4c-1.7-8.5-4.7-18.5-9.2-29.1c-4.4-10.6-10.2-21.8-16.7-33.4c-1.6-2.9-3.2-5.7-4.8-8.5
							c-1.6-2.8-3.2-5.6-4.9-8.2c-3.4-5.2-7.1-10-10.7-14.5c-3.6-4.4-7.2-8.5-10.6-12.3c-3.4-3.8-6.6-7.3-9.7-10.3
							c-6.1-6.1-11.7-10.4-15.6-13.2c-2-1.4-3.5-2.5-4.6-3.2c-0.5-0.3-0.9-0.6-1.2-0.8c-0.3-0.2-0.4-0.3-0.4-0.2
							c0,0,0.1,0.1,0.4,0.3c0.3,0.2,0.7,0.5,1.2,0.8c1,0.7,2.6,1.8,4.5,3.3c3.9,2.9,9.3,7.2,15.4,13.3c3.1,3,6.3,6.5,9.6,10.3
							c3.4,3.8,6.9,7.9,10.5,12.3c3.6,4.4,7.2,9.2,10.6,14.4c1.7,2.6,3.3,5.4,4.8,8.2c1.6,2.8,3.2,5.6,4.8,8.5
							c6.5,11.5,12.3,22.7,16.7,33.3c4.4,10.6,7.5,20.5,9.3,28.9"/>
					</g>
				</g>
			</g>
		</g>
		<g>
			<g>
				<g>
					<g>
						<path class="st11" d="M76.8,205.2c0,0,0.1-0.6,0.2-1.6c0.1-1,0.1-2.5,0.2-4.3c0.1-3.6,0.1-8.7,0.1-14.2c0-5.6,0-10.6,0.2-14.2
							c0.1-1.8,0.2-3.3,0.2-4.3c0.1-1,0.1-1.6,0-1.6c0,0-0.1,0.6-0.3,1.6c-0.1,1-0.3,2.5-0.4,4.3c-0.3,3.6-0.4,8.7-0.4,14.3
							c0.1,5.5,0.1,10.4,0.1,14.2c0,1.7,0,3.2,0,4.3C76.8,204.6,76.8,205.2,76.8,205.2z"/>
					</g>
				</g>
			</g>
		</g>
		<g>
			<g>
				<g>
					<g>
						<path class="st11" d="M29.5,201.6c0,0,0.7,0,1.9,0c1.2,0,2.9-0.1,5.1-0.1c4.3,0,10.2,0.2,16.8,0.7c6.5,0.5,12.4,1.2,16.7,1.9
							c2.1,0.3,3.8,0.6,5,0.8c1.2,0.2,1.8,0.3,1.9,0.2c0,0-0.6-0.2-1.8-0.5c-1.2-0.3-2.9-0.6-5-1c-4.2-0.8-10.2-1.6-16.7-2.1
							c-6.6-0.5-12.5-0.6-16.8-0.5c-2.2,0-3.9,0.2-5.1,0.3C30.2,201.5,29.5,201.6,29.5,201.6z"/>
					</g>
				</g>
			</g>
		</g>
		<g>
			<g>
				<g>
					<g>
						<path class="st11" d="M102.7,254.5c0,0,0.1-0.2,0.3-0.6c0.2-0.5,0.4-1.1,0.6-1.8c0.5-1.5,1.2-3.8,2-6.6
							c1.7-5.6,3.7-13.3,5.8-21.9c2.1-8.6,4.1-16.3,5.6-21.9c0.8-2.7,1.4-4.9,1.8-6.6c0.2-0.7,0.4-1.3,0.5-1.8
							c0.1-0.4,0.1-0.6,0.1-0.6c0,0-0.1,0.2-0.3,0.6c-0.2,0.5-0.4,1.1-0.6,1.8c-0.5,1.5-1.2,3.8-2,6.6c-1.7,5.6-3.7,13.3-5.8,21.9
							c-2.1,8.6-4.1,16.3-5.6,21.9c-0.8,2.7-1.4,4.9-1.8,6.6c-0.2,0.7-0.4,1.3-0.5,1.8C102.7,254.3,102.7,254.5,102.7,254.5z"/>
					</g>
				</g>
			</g>
		</g>
		<g>
			<g>
				<g>
					<g>
						<path class="st11" d="M38.9,241.4c0,0,0.2,0.1,0.6,0.2c0.5,0.1,1.1,0.2,1.9,0.4c1.7,0.4,4,0.8,6.8,1.4
							c5.8,1.2,13.7,2.9,22.5,4.9c8.8,1.9,16.8,3.6,22.6,4.7c2.9,0.5,5.2,0.9,6.9,1.2c0.8,0.1,1.4,0.2,1.9,0.3
							c0.4,0.1,0.7,0.1,0.7,0.1c0,0-0.2-0.1-0.6-0.2c-0.5-0.1-1.1-0.2-1.9-0.4c-1.7-0.4-4-0.8-6.8-1.4c-5.8-1.2-13.7-2.9-22.5-4.9
							c-8.8-1.9-16.8-3.6-22.6-4.7c-2.9-0.5-5.2-0.9-6.9-1.2c-0.8-0.1-1.4-0.2-1.9-0.3C39.1,241.4,38.9,241.4,38.9,241.4z"/>
					</g>
				</g>
			</g>
		</g>
	</g>
	<g>
		<g>
			<polygon class="st12" points="118.4,0.7 167.2,31.7 147.3,65.6 97.3,32.7 			"/>
		</g>
		<g>
			<g>
				<path class="st11" d="M167.2,31.7c0,0-0.1,0-0.2,0.1c-0.1,0-0.3,0.1-0.5,0.1c-0.5,0.1-1.2,0.2-2.1,0.4c-1.8,0.3-4.5,0.8-7.7,1.3
					c-6.5,1.1-15.5,2.5-25.5,4.2l-0.2,0l-0.1-0.2c-0.1-0.4-0.3-0.8-0.4-1.2c-3.4-9.8-6.5-18.7-8.7-25.2c-1.1-3.2-2-5.8-2.6-7.7
					c-0.3-0.9-0.5-1.6-0.7-2.1c-0.1-0.2-0.1-0.4-0.2-0.5c0-0.1-0.1-0.2,0-0.2c0,0,0,0.1,0.1,0.2c0.1,0.1,0.1,0.3,0.2,0.5
					c0.2,0.5,0.4,1.2,0.8,2.1c0.7,1.8,1.6,4.4,2.7,7.6c2.3,6.5,5.4,15.3,8.8,25.2c0.1,0.4,0.3,0.8,0.4,1.2l-0.2-0.1
					c10-1.6,19-3,25.5-4.1c3.2-0.5,5.8-0.9,7.7-1.2c0.9-0.1,1.6-0.2,2.1-0.3c0.2,0,0.4,0,0.5-0.1C167.2,31.7,167.2,31.7,167.2,31.7z
					"/>
			</g>
		</g>
		<g>
			<g>
				
					<ellipse transform="matrix(0.9702 -0.2425 0.2425 0.9702 -3.6841 28.0537)" class="st11" cx="112.1" cy="29" rx="15.3" ry="0.2"/>
			</g>
		</g>
		<g>
			<g>
				
					<ellipse transform="matrix(0.9882 -0.1533 0.1533 0.9882 -6.0766 22.822)" class="st11" cx="145" cy="50.8" rx="0.2" ry="14.9"/>
			</g>
		</g>
	</g>
	<g>
		<g>
			<polygon class="st13" points="442.1,93.5 488.8,85.9 495,117.5 446.5,124.6 			"/>
		</g>
		<g>
			<g>
				<path class="st11" d="M488.8,85.9c0,0-0.1,0.2-0.3,0.5c-0.3,0.3-0.6,0.8-1.1,1.4c-1,1.2-2.3,2.9-4,5c-3.4,4.2-8.1,10-13.3,16.4
					l-0.1,0.1l-0.2-0.1c-0.3-0.2-0.6-0.3-0.9-0.5c-7.4-4.2-14.1-7.9-19-10.7c-2.4-1.4-4.4-2.5-5.7-3.3c-0.6-0.4-1.2-0.7-1.6-0.9
					c-0.4-0.2-0.5-0.3-0.5-0.3c0,0,0.2,0.1,0.6,0.3c0.4,0.2,0.9,0.5,1.6,0.8c1.4,0.8,3.4,1.8,5.8,3.2c4.9,2.7,11.7,6.5,19.1,10.6
					c0.3,0.2,0.6,0.3,0.9,0.5l-0.3,0.1c5.2-6.4,10-12.2,13.4-16.4c1.7-2,3.1-3.7,4.1-4.9c0.5-0.5,0.8-1,1.1-1.3
					C488.7,86,488.8,85.9,488.8,85.9z"/>
			</g>
		</g>
		<g>
			<g>
				
					<ellipse transform="matrix(0.5641 -0.8257 0.8257 0.5641 103.4354 424.3396)" class="st11" cx="453.6" cy="114.2" rx="12.5" ry="0.2"/>
			</g>
		</g>
		<g>
			<g>
				
					<ellipse transform="matrix(0.6368 -0.771 0.771 0.6368 91.7932 414.2518)" class="st11" cx="485.6" cy="109.7" rx="0.2" ry="12.2"/>
			</g>
		</g>
	</g>
	<g>
		<g>
			<g>
				<g>
					<polygon class="st14" points="312.1,54.6 392,33.2 408.4,87 325.3,107.8 					"/>
				</g>
				<g>
					<g>
						
							<ellipse transform="matrix(0.4782 -0.8782 0.8782 0.4782 96.3818 341.1167)" class="st15" cx="335.3" cy="89.4" rx="20.9" ry="0.2"/>
					</g>
				</g>
				<g>
					<g>
						
							<ellipse transform="matrix(0.5561 -0.8311 0.8311 0.5561 110.9514 357.9057)" class="st15" cx="390.5" cy="75.1" rx="0.2" ry="21.5"/>
					</g>
				</g>
				<g>
					<g>
						<path class="st15" d="M312.1,54.6c0,0,0.1,0,0.3,0.1c0.2,0.1,0.4,0.2,0.8,0.4c0.7,0.3,1.7,0.8,2.9,1.4c2.5,1.2,6.2,3,10.7,5.2
							c9,4.5,21.5,10.6,35.2,17.4c0.1,0.1,0.3,0.1,0.4,0.2l-0.3,0.1c8.2-12.8,15.7-24.3,21.1-32.7c2.7-4.2,4.9-7.5,6.4-9.9
							c0.8-1.1,1.3-2,1.8-2.7c0.2-0.3,0.4-0.5,0.5-0.7c0.1-0.2,0.2-0.2,0.2-0.2c0,0,0,0.1-0.1,0.3c-0.1,0.2-0.3,0.4-0.4,0.7
							c-0.4,0.6-1,1.6-1.7,2.7c-1.5,2.4-3.7,5.8-6.3,9.9c-5.4,8.4-12.8,20-21,32.8l-0.1,0.2l-0.2-0.1c-0.1-0.1-0.3-0.1-0.4-0.2
							c-13.7-6.8-26.1-13-35.1-17.5c-4.5-2.2-8.1-4.1-10.6-5.3c-1.2-0.6-2.2-1.1-2.9-1.5c-0.3-0.2-0.6-0.3-0.7-0.4
							C312.1,54.6,312.1,54.6,312.1,54.6z"/>
					</g>
				</g>
			</g>
		</g>
	</g>
	<g>
		<g>
			<g>
				<g>
					<linearGradient id="SVGID_8_" gradientUnits="userSpaceOnUse" x1="30.2274" y1="107.8292" x2="114.8146" y2="107.8292">
						<stop  offset="3.745990e-03" style="stop-color:#01E971"/>
						<stop  offset="0.6424" style="stop-color:#00D351"/>
						<stop  offset="1" style="stop-color:#00CB44"/>
					</linearGradient>
					<polygon class="st16" points="36.4,77.2 114.8,85 111.3,138.5 30.2,129 					"/>
				</g>
				<g>
					<g>
						
							<ellipse transform="matrix(0.7579 -0.6523 0.6523 0.7579 -64.72 57.6621)" class="st15" cx="45.3" cy="116" rx="19.9" ry="0.2"/>
					</g>
				</g>
				<g>
					<g>
						
							<ellipse transform="matrix(0.8141 -0.5807 0.5807 0.8141 -52.2868 80.3804)" class="st15" cx="99.4" cy="121.9" rx="0.2" ry="20.4"/>
					</g>
				</g>
				<g>
					<g>
						<path class="st15" d="M36.4,77.2c0,0,0.1,0.1,0.2,0.2c0.1,0.1,0.3,0.3,0.6,0.6c0.5,0.5,1.2,1.3,2.1,2.2c1.9,2,4.5,4.8,7.8,8.3
							c6.5,7,15.5,16.7,25.5,27.3c0.1,0.1,0.2,0.2,0.3,0.3l-0.3,0c11.7-8.6,22.2-16.4,29.8-22c3.8-2.8,6.9-5,9.1-6.6
							c1.1-0.8,1.9-1.4,2.5-1.8c0.3-0.2,0.5-0.3,0.6-0.5c0.1-0.1,0.2-0.1,0.2-0.1c0,0-0.1,0.1-0.2,0.2c-0.2,0.1-0.4,0.3-0.6,0.5
							c-0.6,0.4-1.4,1.1-2.4,1.8c-2.1,1.6-5.2,3.9-9,6.7c-7.6,5.7-18.1,13.5-29.8,22.1l-0.2,0.1l-0.1-0.1c-0.1-0.1-0.2-0.2-0.3-0.3
							c-9.9-10.7-18.9-20.4-25.4-27.4c-3.2-3.5-5.8-6.4-7.7-8.3c-0.9-1-1.6-1.7-2.1-2.3c-0.2-0.3-0.4-0.4-0.5-0.6
							C36.5,77.2,36.4,77.2,36.4,77.2z"/>
					</g>
				</g>
			</g>
		</g>
	</g>
	<g>
		<g>
			<linearGradient id="SVGID_9_" gradientUnits="userSpaceOnUse" x1="399.6321" y1="224.6806" x2="487.6225" y2="224.6806">
				<stop  offset="3.745990e-03" style="stop-color:#01E971"/>
				<stop  offset="0.6424" style="stop-color:#00D351"/>
				<stop  offset="1" style="stop-color:#00CB44"/>
			</linearGradient>
			<path class="st17" d="M484.1,157.8c0,0-7-4.6-15.4,12.2c-8.4,16.8-11.5,26.5-11.5,26.5s-2.2,3.5-4.7,1.3
				c-2.4-2.3-5.8-8.7-9.9-7.5c-4.2,1.2-5.6,6-4.7,13c0.9,7,2.2,22.3,2.3,23.7c0.1,1.4-0.6,3.4-2.6,2.1c-1.9-1.3-12.9-13.3-18.3-7.8
				c-5.4,5.6,0.2,24.5,0.8,26.6c0.6,2.1,0.2,3-0.8,3.5c-1,0.5-4.3-3.9-7.6-7.2c-3.3-3.3-7.6-6.5-10.5-3.1
				c-2.8,3.5-3.6,17.8,10.1,40.8l7.1,10.3l12.5-0.8c26.7-3.3,37.4-12.8,38.4-17.1s-4.3-5.8-8.9-6.4c-4.6-0.5-10.1-0.5-10.3-1.6
				c-0.2-1.1,0.3-2,2.3-2.8c2-0.8,20.4-8.1,21.5-15.8c1.1-7.7-15.2-8.9-17.4-9.6c-2.2-0.7-1.1-2.5,0.1-3.3
				c1.2-0.8,14.1-9.1,20.1-12.7c6-3.6,8.9-7.6,7.3-11.7c-1.6-4-8.7-2.6-12-3.1c-3.3-0.5-1.9-4.4-1.9-4.4s5.7-8.4,13.8-25.4
				s-0.1-19.7-0.1-19.7"/>
		</g>
		<g>
			<g>
				<path class="st15" d="M476.6,172.8c0,0,0,0.1-0.1,0.4c-0.1,0.3-0.3,0.6-0.5,1.1c-0.4,0.9-1.1,2.3-1.9,4c-1.6,3.5-4,8.5-7,14.8
					c-6,12.4-14.4,29.5-23.8,48.4c-9.4,18.9-17.8,36-23.9,48.4c-3,6.2-5.5,11.2-7.2,14.7c-0.8,1.7-1.5,3.1-1.9,4
					c-0.2,0.4-0.4,0.8-0.5,1c-0.1,0.2-0.2,0.3-0.2,0.3s0-0.1,0.1-0.4c0.1-0.3,0.3-0.6,0.5-1.1c0.4-0.9,1.1-2.3,1.9-4
					c1.6-3.5,4-8.5,7-14.8c6-12.4,14.4-29.5,23.8-48.4c9.4-18.9,17.8-35.9,23.9-48.3c3-6.2,5.5-11.2,7.2-14.7c0.8-1.7,1.5-3.1,1.9-4
					c0.2-0.4,0.4-0.8,0.5-1C476.5,172.9,476.6,172.8,476.6,172.8z"/>
			</g>
		</g>
		<g>
			<g>
				<path class="st15" d="M447,199.4c0,0,0.1,0.3,0.3,0.8c0.2,0.5,0.4,1.4,0.7,2.3c0.6,2,1.3,4.8,2.1,7.8c0.7,3,1.4,5.8,1.9,7.9
					c0.2,0.9,0.4,1.7,0.6,2.4c0.1,0.6,0.2,0.9,0.2,0.9c0,0-0.1-0.3-0.3-0.8c-0.2-0.6-0.4-1.4-0.7-2.4c-0.6-2-1.3-4.8-2-7.8
					c-0.8-3-1.4-5.7-2-7.9c-0.2-0.9-0.4-1.7-0.6-2.4C447,199.8,446.9,199.5,447,199.4z"/>
			</g>
		</g>
		<g>
			<g>
				
					<ellipse transform="matrix(0.9587 -0.2843 0.2843 0.9587 -42.7417 141.6267)" class="st15" cx="466.6" cy="218.1" rx="13.2" ry="0.2"/>
			</g>
		</g>
		<g>
			<g>
				<path class="st15" d="M438.2,250.1c0,0,0.3,0,0.9-0.1c0.7,0,1.5,0,2.5,0c2.1,0,5,0,8.3-0.2c3.2-0.1,6.1-0.4,8.2-0.6
					c1-0.1,1.8-0.2,2.5-0.2c0.6,0,0.9-0.1,0.9,0c0,0-0.3,0.1-0.9,0.2c-0.6,0.1-1.4,0.2-2.5,0.3c-2.1,0.3-5,0.5-8.3,0.7
					c-3.2,0.2-6.2,0.1-8.3,0.1c-1.1,0-1.9-0.1-2.5-0.1C438.6,250.2,438.2,250.2,438.2,250.1z"/>
			</g>
		</g>
		<g>
			<g>
				<path class="st15" d="M427.5,231.3c0,0,0.2,0.2,0.5,0.7c0.3,0.5,0.7,1.1,1.2,2c1,1.7,2.4,4,3.9,6.6c1.5,2.6,2.9,4.9,3.8,6.6
					c0.5,0.9,0.9,1.5,1.1,2c0.3,0.5,0.4,0.8,0.4,0.8c0,0-0.2-0.2-0.5-0.7c-0.3-0.5-0.7-1.1-1.2-2c-1-1.7-2.4-4-3.9-6.6
					c-1.5-2.6-2.9-4.9-3.8-6.6c-0.5-0.9-0.9-1.5-1.1-2C427.6,231.6,427.5,231.3,427.5,231.3z"/>
			</g>
		</g>
		<g>
			<g>
				<path class="st15" d="M410.5,254.5c0,0,0.2,0.3,0.6,0.9c0.4,0.7,0.9,1.5,1.6,2.5c1.3,2.1,3.1,5.1,5.1,8.4c2,3.3,3.7,6.3,5,8.4
					c0.6,1,1.1,1.9,1.5,2.6c0.3,0.6,0.5,1,0.5,1c0,0-0.2-0.3-0.6-0.9c-0.4-0.7-0.9-1.5-1.6-2.5c-1.3-2.1-3.1-5.1-5.1-8.4
					c-2-3.3-3.7-6.3-5-8.4c-0.6-1-1.1-1.9-1.5-2.6C410.6,254.9,410.5,254.5,410.5,254.5z"/>
			</g>
		</g>
		<g>
			<g>
				<path class="st15" d="M424.5,277.6c0,0,0.4-0.1,1.2-0.1c0.8,0,1.9-0.1,3.2-0.1c2.7-0.1,6.4-0.3,10.5-0.6
					c4.1-0.3,7.8-0.7,10.4-0.9c1.3-0.1,2.3-0.2,3.2-0.3c0.7-0.1,1.2-0.1,1.2-0.1c0,0-0.4,0.1-1.1,0.2c-0.7,0.1-1.8,0.3-3.1,0.5
					c-2.7,0.4-6.4,0.8-10.4,1.1c-4.1,0.3-7.8,0.4-10.5,0.5c-1.3,0-2.4,0-3.2,0C425,277.7,424.5,277.7,424.5,277.6z"/>
			</g>
		</g>
	</g>
	<g>
		<g>
			<path class="st18" d="M75.6,268.9c-3.9,0.5-7.3,2.7-10.1,5.4c-1.5,1.5-2.9,3.2-3.2,5.3c-0.3,2.1,1.1,4.5,3.2,4.6
				c1.2,0.1,2.4-0.6,3.4-1.3c2.4-1.8,4.9-4.1,7.9-4c1.7,0.1,3.5,0.9,5.1,0.4c1.6-0.5,2.5-2.3,2.4-4c-0.1-1.7-1.2-3.2-2.4-4.3
				C81.9,271.1,79.5,268.4,75.6,268.9z"/>
		</g>
		<g class="st19">
			<linearGradient id="SVGID_10_" gradientUnits="userSpaceOnUse" x1="62.2356" y1="276.5496" x2="84.2839" y2="276.5496">
				<stop  offset="0" style="stop-color:#FDF83C"/>
				<stop  offset="0.6764" style="stop-color:#FE9828"/>
				<stop  offset="1" style="stop-color:#FF6F1F"/>
			</linearGradient>
			<path class="st20" d="M75.6,268.9c-3.9,0.5-7.3,2.7-10.1,5.4c-1.5,1.5-2.9,3.2-3.2,5.3c-0.3,2.1,1.1,4.5,3.2,4.6
				c1.2,0.1,2.4-0.6,3.4-1.3c2.4-1.8,4.9-4.1,7.9-4c1.7,0.1,3.5,0.9,5.1,0.4c1.6-0.5,2.5-2.3,2.4-4c-0.1-1.7-1.2-3.2-2.4-4.3
				C81.9,271.1,79.5,268.4,75.6,268.9z"/>
		</g>
		<g>
			<path class="st18" d="M73.3,251.8c0,3.7-3.9,5.2-6.6,4.8c-2.6-0.4-4.8-2.1-6.9-3.8c-4.7-3.8-9.6-7.9-12-13.4
				c-0.7-1.7-1.2-3.5-0.9-5.3c0.3-1.8,1.4-3.5,3.1-4.2c2-0.7,4.2,0.2,6.1,1.2c5.5,3.1,10.3,7.4,14,12.6
				C71.7,246.1,73.2,248.8,73.3,251.8"/>
		</g>
		<g class="st19">
			<linearGradient id="SVGID_11_" gradientUnits="userSpaceOnUse" x1="46.762" y1="243.1432" x2="73.2611" y2="243.1432">
				<stop  offset="0" style="stop-color:#FDF83C"/>
				<stop  offset="0.6764" style="stop-color:#FE9828"/>
				<stop  offset="1" style="stop-color:#FF6F1F"/>
			</linearGradient>
			<path class="st21" d="M73.3,251.8c0,3.7-3.9,5.2-6.6,4.8c-2.6-0.4-4.8-2.1-6.9-3.8c-4.7-3.8-9.6-7.9-12-13.4
				c-0.7-1.7-1.2-3.5-0.9-5.3c0.3-1.8,1.4-3.5,3.1-4.2c2-0.7,4.2,0.2,6.1,1.2c5.5,3.1,10.3,7.4,14,12.6
				C71.7,246.1,73.2,248.8,73.3,251.8"/>
		</g>
		<g>
			<linearGradient id="SVGID_12_" gradientUnits="userSpaceOnUse" x1="72.521" y1="235.2774" x2="90.1327" y2="235.2774">
				<stop  offset="0" style="stop-color:#FDF83C"/>
				<stop  offset="0.6764" style="stop-color:#FE9828"/>
				<stop  offset="1" style="stop-color:#FF6F1F"/>
			</linearGradient>
			<path class="st22" d="M80.5,252c-3.5-0.9-6.1-3.9-7.2-7.3c-1.1-3.4-0.9-7.1-0.1-10.6c1-4.1,2.7-8,5.2-11.4c1-1.3,2.1-2.6,3.5-3.5
				c1.4-0.8,3.3-1.1,4.7-0.3c2.2,1.1,2.8,3.9,3,6.3c0.5,4.3,0.6,8.6,0.4,12.9c-0.2,3.5-0.6,7.1-2.5,9.9c-1.9,2.9-4.8,4.7-7.4,3.8"/>
		</g>
		<g>
			<g>
				<path class="st15" d="M99.6,289.1c0,0-0.4-0.3-0.9-1c-0.7-0.8-1.5-1.7-2.5-2.9c-1.1-1.2-2.3-2.6-3.9-4c-1.5-1.4-3.4-2.8-5.4-4.2
					c-2-1.3-4.1-2.3-6.1-2.9c-2-0.6-3.9-0.7-5.4-0.4c-1.5,0.2-2.7,0.7-3.5,1.1c-0.8,0.4-1.2,0.7-1.2,0.6c0,0,0.4-0.3,1.1-0.8
					c0.8-0.5,2-1,3.6-1.3C77,273,79,273,81,273.6c2.1,0.6,4.2,1.6,6.3,2.9c2,1.4,3.9,2.8,5.4,4.3c1.5,1.5,2.8,2.9,3.8,4.1
					c1,1.2,1.8,2.3,2.3,3C99.4,288.7,99.7,289.1,99.6,289.1z"/>
			</g>
		</g>
		<g>
			<g>
				<path class="st15" d="M97.8,286.9c0,0-0.2-0.2-0.4-0.5c-0.3-0.4-0.6-0.9-1-1.5c-0.9-1.3-2.2-3.2-3.9-5.4
					c-3.4-4.6-8.3-10.7-14-17.2c-5.7-6.5-11.2-12.1-15.3-16c-1-1-2-1.9-2.8-2.6c-0.8-0.8-1.5-1.4-2.2-1.9c-0.6-0.5-1-0.9-1.4-1.2
					c-0.3-0.3-0.5-0.4-0.5-0.5c0,0,0.2,0.1,0.5,0.4c0.4,0.3,0.9,0.7,1.4,1.1c0.6,0.5,1.4,1.1,2.2,1.9c0.9,0.7,1.8,1.6,2.9,2.5
					c4.2,3.8,9.7,9.4,15.5,15.9c5.7,6.5,10.6,12.7,13.9,17.3c1.7,2.3,2.9,4.2,3.8,5.6c0.4,0.6,0.7,1.1,1,1.6
					C97.7,286.7,97.8,286.9,97.8,286.9z"/>
			</g>
		</g>
		<g>
			<g>
				<path class="st15" d="M89,274.5c0,0-0.4-0.5-1.1-1.6c-0.6-1-1.5-2.6-2.5-4.6c-0.9-2-2-4.4-2.9-7.1c-1-2.7-1.9-5.8-2.5-9.1
					c-1.4-6.6-1.4-12.8-0.7-17.1c0.1-1.1,0.4-2.1,0.6-2.9c0.1-0.4,0.2-0.8,0.3-1.2c0.1-0.3,0.2-0.7,0.4-1c0.4-1.2,0.7-1.8,0.7-1.8
					c0.1,0-1,2.5-1.6,6.9c-0.6,4.3-0.5,10.4,0.9,16.9c0.7,3.3,1.5,6.3,2.5,9c0.9,2.7,1.9,5.1,2.8,7.1c0.9,2,1.7,3.6,2.3,4.6
					C88.7,273.9,89.1,274.5,89,274.5z"/>
			</g>
		</g>
	</g>
	<g>
		<g>
			<g>
				<g>
					<path class="st23" d="M407.7,313.3H110.4c-8,0-14.6-6.5-14.6-14.6V112c0-8,6.5-14.6,14.6-14.6h297.3c8,0,14.6,6.5,14.6,14.6
						v186.7C422.3,306.7,415.7,313.3,407.7,313.3z"/>
				</g>
			</g>
			<g>
				<g>
					<path class="st23" d="M418,316.2H100c-9.8,0-17.8-8-17.8-17.8v-1.1h353.6v1.1C435.8,308.2,427.9,316.2,418,316.2z"/>
				</g>
			</g>
			<g>
				<g>
					<rect x="104.6" y="106" class="st24" width="308" height="182.3"/>
				</g>
			</g>
			<g>
				<g>
					<polygon class="st24" points="226.9,297.3 231.3,304.3 293,304.3 297.1,297.3 					"/>
				</g>
			</g>
		</g>
		<g>
			<g>
				<g>
					<g>
						<g>
							<g>
								<path class="st12" d="M403.6,287.7H114.2c-1.8,0-3.3-1.5-3.3-3.3v-169c0-1.8,1.5-3.3,3.3-3.3h289.4c1.8,0,3.3,1.5,3.3,3.3
									v169C406.9,286.2,405.4,287.7,403.6,287.7z"/>
							</g>
						</g>
					</g>
					<g>
						<g>
							<g>
								<rect x="111" y="125" class="st25" width="295.9" height="162.7"/>
							</g>
						</g>
					</g>
					<g>
						<g>
							<g>
								<circle class="st26" cx="132.9" cy="118.9" r="2.4"/>
							</g>
						</g>
					</g>
					<g>
						<g>
							<g>
								<circle class="st26" cx="118.5" cy="118.9" r="2.4"/>
							</g>
						</g>
					</g>
					<g>
						<g>
							<g>
								<circle class="st26" cx="125.4" cy="118.9" r="2.4"/>
							</g>
						</g>
					</g>
				</g>
			</g>
		</g>
		<g>
			<g>
				<path class="st26" d="M419.5,297.3c0,0.1-72.4,0.2-161.8,0.2c-89.4,0-161.8-0.1-161.8-0.2s72.4-0.2,161.8-0.2
					C347,297.1,419.5,297.2,419.5,297.3z"/>
			</g>
		</g>
	</g>
	<g>
		<g>
			<g>
				<g>
					
						<ellipse transform="matrix(6.904656e-02 -0.9976 0.9976 6.904656e-02 -65.5045 377.8234)" class="st25" cx="169.7" cy="224" rx="5.9" ry="0.2"/>
				</g>
			</g>
			<g>
				<linearGradient id="SVGID_13_" gradientUnits="userSpaceOnUse" x1="153.0478" y1="210.7371" x2="386.342" y2="210.7371">
					<stop  offset="3.745990e-03" style="stop-color:#01E971"/>
					<stop  offset="0.6424" style="stop-color:#00D351"/>
					<stop  offset="1" style="stop-color:#00CB44"/>
				</linearGradient>
				<path class="st27" d="M376.8,214.1c-16.6-25.7-33.9-54.5-33.9-54.5c-15-18.3-27.1-24.7-50.8-25.7l0,0l-46-0.2
					c-9.1,0.5-30.1-4.2-49.6,23.8l-0.1-0.1c0,0-17.3,28.8-33.9,54.5c-18.6,28.8-7.5,58.8,12.4,60.5c20.1,1.8,32.6,2.3,39.3,2.5
					l-0.3,12.9l106.8-0.2l-1.1-14.5c10.7,0,40.4-0.1,44.7-0.7C384.2,270,395.5,243,376.8,214.1z M215.8,208.4l-0.7,30l-18.7,0.1
					L215.8,208.4z M321.7,240.6l2.9-28.5l18.4,28.5L321.7,240.6z"/>
			</g>
			<g>
				<g>
					<path class="st15" d="M290.4,132.5c0,0,0,0.2,0,0.7c0,0.4,0,1.1-0.1,1.9c-0.1,0.8-0.3,1.8-0.6,3c-0.3,1.1-0.7,2.4-1.4,3.8
						c-1.3,2.7-3.3,5.7-6.4,8.3c-3.1,2.5-7.3,4.3-11.9,4.6c-4.6,0.3-9-1-12.3-3.2c-3.3-2.2-5.5-5.2-6.8-7.9
						c-1.3-2.7-1.9-5.1-2.1-6.7c-0.1-0.8-0.2-1.5-0.2-1.9c0-0.4,0-0.7,0-0.7c0,0,0,0.2,0.1,0.7c0,0.4,0.1,1.1,0.2,1.9
						c0.3,1.6,0.9,4,2.2,6.6c1.4,2.6,3.5,5.5,6.8,7.7c3.2,2.2,7.6,3.4,12,3.1c4.5-0.3,8.6-2,11.6-4.5c3.1-2.4,5.1-5.4,6.4-8.1
						c0.6-1.3,1.1-2.6,1.4-3.7c0.3-1.1,0.5-2.1,0.6-2.9c0.1-0.8,0.2-1.5,0.2-1.9C290.3,132.8,290.3,132.5,290.4,132.5z"/>
				</g>
			</g>
			<g>
				<g>
					
						<ellipse transform="matrix(4.386675e-02 -0.999 0.999 4.386675e-02 122.6277 505.587)" class="st15" cx="325.5" cy="188.7" rx="27.5" ry="0.2"/>
				</g>
			</g>
			<g>
				<g>
					<path class="st15" d="M218,161.3c0,0,0,0.2,0,0.5c0,0.4,0,0.8,0,1.4c0,1.2,0,3,0,5.2c0,4.4-0.1,10.4-0.4,17.1
						c-0.3,6.7-0.8,12.7-1.2,17c-0.2,2.2-0.4,3.9-0.5,5.1c-0.1,0.6-0.1,1-0.2,1.4c0,0.3-0.1,0.5-0.1,0.5c0,0,0-0.2,0-0.5
						c0-0.4,0.1-0.8,0.1-1.4c0.1-1.3,0.2-3,0.4-5.2c0.3-4.4,0.7-10.4,1-17c0.3-6.7,0.5-12.7,0.5-17c0-2.1,0.1-3.9,0.1-5.2
						c0-0.6,0-1,0-1.4C218,161.4,218,161.3,218,161.3z"/>
				</g>
			</g>
			<g>
				<g>
					<path class="st15" d="M315.7,272c0,0,0-0.2-0.1-0.6c0-0.4-0.1-1-0.2-1.8c-0.1-1.6-0.3-3.8-0.6-6.6c-0.4-5.6-1.1-13.5-1.8-22.5
						l0-0.2l0.2,0c3.3,0.1,6.9,0.1,10.5,0.2c11.6,0.2,22.1,0.4,29.8,0.5c3.8,0.1,6.9,0.2,9,0.2c1,0,1.9,0.1,2.5,0.1
						c0.3,0,0.5,0,0.6,0c0.1,0,0.2,0,0.2,0c0,0-0.1,0-0.2,0c-0.2,0-0.4,0-0.6,0c-0.6,0-1.4,0-2.5,0c-2.2,0-5.2,0-9-0.1
						c-7.6-0.1-18.1-0.3-29.8-0.4c-3.6-0.1-7.2-0.1-10.5-0.2l0.2-0.2c0.7,9,1.2,16.9,1.6,22.5c0.2,2.8,0.3,5,0.4,6.6
						c0,0.7,0.1,1.3,0.1,1.8C315.7,271.8,315.7,272,315.7,272z"/>
				</g>
			</g>
			<g>
				<g>
					<path class="st15" d="M361.8,235.3c0,0.1-1.2,0-3,0.1c-1.8,0.1-4.4,0.4-7.1,1.2c-2.7,0.8-5,2-6.6,2.9c-1.6,0.9-2.5,1.6-2.5,1.6
						c0,0,0.2-0.2,0.6-0.5c0.4-0.3,1-0.8,1.8-1.3c1.6-1,3.9-2.2,6.6-3.1c2.7-0.8,5.3-1.1,7.2-1.1c0.9,0,1.7,0,2.2,0.1
						C361.6,235.2,361.8,235.2,361.8,235.3z"/>
				</g>
			</g>
			<g>
				<g>
					<path class="st15" d="M220.4,275.1c0,0,0-0.1,0-0.2c0-0.1,0-0.3,0.1-0.5c0.1-0.5,0.2-1.2,0.3-2.1c0.3-1.9,0.6-4.5,1-7.8
						c0.9-6.6,2.2-15.8,3.7-26.1l0.2,0.2c-1.8,0-3.7-0.1-5.7-0.1c-11.8-0.1-22.5,0.1-30.2,0.1c-3.9,0-7-0.1-9.2-0.1
						c-1.1,0-1.9-0.1-2.5-0.1c-0.3,0-0.5,0-0.6,0c-0.1,0-0.2,0-0.2,0c0,0,0.1,0,0.2,0c0.2,0,0.4,0,0.6,0c0.6,0,1.4,0,2.5,0
						c2.2,0,5.3,0,9.2,0c7.7,0,18.4-0.3,30.2-0.2c2,0,3.9,0.1,5.7,0.1l0.2,0l0,0.2c-1.5,10.3-2.8,19.5-3.8,26.1
						c-0.5,3.3-0.9,5.9-1.2,7.7c-0.1,0.9-0.3,1.6-0.3,2.1c0,0.2-0.1,0.4-0.1,0.5C220.4,275,220.4,275.1,220.4,275.1z"/>
				</g>
			</g>
			<g>
				<g>
					<path class="st15" d="M196,238.8c0,0-0.7-0.5-1.6-1.4c-1-0.9-2.2-2.2-3.6-3.8c-1.3-1.5-2.4-3-3.2-4.1c-0.8-1.1-1.2-1.8-1.1-1.8
						c0.1,0,0.6,0.6,1.4,1.7c0.8,1,1.9,2.5,3.2,4c1.3,1.5,2.5,2.9,3.4,3.8C195.5,238.1,196,238.7,196,238.8z"/>
				</g>
			</g>
			<g>
				<g>
					
						<ellipse transform="matrix(0.8931 -0.4499 0.4499 0.8931 -47.6433 125.6753)" class="st25" cx="240.6" cy="163.1" rx="0.2" ry="7"/>
				</g>
			</g>
			<g>
				<g>
					<path class="st25" d="M289.5,168.7c0,0-0.6,0.7-1.6,1.7c-1.1,1-2.6,2.3-4.4,3.6c-1.8,1.3-3.5,2.4-4.7,3.1
						c-1.3,0.7-2.1,1.1-2.1,1c0-0.1,0.7-0.5,1.9-1.3c1.2-0.8,2.9-1.9,4.6-3.1c1.8-1.3,3.3-2.5,4.4-3.5
						C288.7,169.3,289.4,168.7,289.5,168.7z"/>
				</g>
			</g>
			<g>
				<g>
					
						<ellipse transform="matrix(0.7968 -0.6042 0.6042 0.7968 -33.6061 217.7207)" class="st25" cx="306.9" cy="158.8" rx="0.2" ry="7.4"/>
				</g>
			</g>
			<g>
				<g>
					
						<ellipse transform="matrix(0.8781 -0.4785 0.4785 0.8781 -56.5812 169.8387)" class="st25" cx="305" cy="196" rx="5.6" ry="0.2"/>
				</g>
			</g>
			<g>
				<g>
					
						<ellipse transform="matrix(2.071974e-02 -0.9998 0.9998 2.071974e-02 146.7977 525.7141)" class="st25" cx="341.8" cy="187.9" rx="7.7" ry="0.2"/>
				</g>
			</g>
			<g>
				<g>
					
						<ellipse transform="matrix(0.9982 -6.007509e-02 6.007509e-02 0.9982 -12.4912 21.2024)" class="st25" cx="346.4" cy="218.3" rx="8.4" ry="0.2"/>
				</g>
			</g>
			<g>
				<g>
					
						<ellipse transform="matrix(0.9979 -6.447850e-02 6.447850e-02 0.9979 -13.8109 24.6812)" class="st25" cx="375.5" cy="226.3" rx="0.2" ry="8"/>
				</g>
			</g>
			<g>
				<g>
					
						<ellipse transform="matrix(0.7232 -0.6906 0.6906 0.7232 -80.145 321.4503)" class="st25" cx="361" cy="260.7" rx="8.4" ry="0.2"/>
				</g>
			</g>
			<g>
				<g>
					<path class="st25" d="M331.7,261.5c0,0-0.6-0.2-1.5-0.7c-0.9-0.5-2.1-1.3-3.2-2.3c-1.1-1.1-2-2.2-2.6-3
						c-0.6-0.8-0.8-1.4-0.8-1.4c0.1-0.1,1.4,2.1,3.7,4.1C329.5,260.3,331.7,261.4,331.7,261.5z"/>
				</g>
			</g>
			<g>
				<g>
					
						<ellipse transform="matrix(0.7601 -0.6498 0.6498 0.7601 -69.1179 197.831)" class="st25" cx="233.4" cy="192.5" rx="7.2" ry="0.2"/>
				</g>
			</g>
			<g>
				<g>
					<path class="st25" d="M261.4,198.9c-0.1,0.1-1.3-1.4-2.2-3.4c-0.9-2.1-1.2-3.9-1.1-3.9c0.1,0,0.6,1.7,1.5,3.7
						C260.5,197.4,261.5,198.9,261.4,198.9z"/>
				</g>
			</g>
			<g>
				<g>
					
						<ellipse transform="matrix(0.7785 -0.6276 0.6276 0.7785 -45.4685 167.789)" class="st25" cx="215" cy="148.3" rx="8.9" ry="0.2"/>
				</g>
			</g>
			<g>
				<g>
					<path class="st25" d="M206.3,185.5c-0.1,0-1-2.7-2.6-5.8c-1.5-3.2-3.1-5.6-3-5.6c0,0,0.5,0.5,1.1,1.5c0.6,1,1.5,2.4,2.2,3.9
						c0.8,1.6,1.4,3.1,1.7,4.2C206.2,184.8,206.3,185.5,206.3,185.5z"/>
				</g>
			</g>
			<g>
				<g>
					<path class="st25" d="M199.8,203.4c0,0-0.7,0.4-2,0.9c-1.3,0.4-3.1,0.9-5.2,1.3c-2.1,0.3-3.9,0.5-5.3,0.4
						c-1.4,0-2.2-0.1-2.2-0.1c0-0.1,0.8-0.1,2.2-0.2c1.3-0.1,3.2-0.2,5.2-0.6c2-0.3,3.8-0.8,5.1-1.2
						C199,203.6,199.8,203.4,199.8,203.4z"/>
				</g>
			</g>
			<g>
				<g>
					
						<ellipse transform="matrix(0.8465 -0.5324 0.5324 0.8465 -107.8295 132.32)" class="st25" cx="175.5" cy="253.1" rx="8.4" ry="0.2"/>
				</g>
			</g>
			<g>
				<g>
					
						<ellipse transform="matrix(0.9404 -0.34 0.34 0.9404 -74.8634 83.7099)" class="st25" cx="201.4" cy="255.5" rx="0.2" ry="10.2"/>
				</g>
			</g>
			<g>
				<g>
					
						<ellipse transform="matrix(0.9076 -0.4198 0.4198 0.9076 -73.806 115.8793)" class="st25" cx="226.4" cy="225.6" rx="0.2" ry="5.8"/>
				</g>
			</g>
			<g>
				<g>
					<path class="st25" d="M319.2,216.2c0.1,0-0.2,0.7-0.7,1.8c-0.5,1.1-1.1,2.6-1.7,4.3c-0.7,1.7-1.2,3.3-1.6,4.4
						c-0.4,1.1-0.7,1.8-0.7,1.8c-0.1,0,0.1-0.7,0.4-1.9c0.3-1.2,0.9-2.7,1.5-4.5c0.7-1.7,1.3-3.2,1.9-4.3
						C318.8,216.8,319.2,216.1,319.2,216.2z"/>
				</g>
			</g>
			<g>
				<g>
					<path class="st25" d="M243.3,282.2c0,0.1-0.9,0-2.2,0c-1.4,0-3.3,0-5.4,0.3c-2.1,0.2-4,0.6-5.3,0.9c-1.3,0.3-2.2,0.5-2.2,0.5
						c0,0,0.8-0.4,2.1-0.8c1.3-0.4,3.2-0.8,5.3-1c2.1-0.2,4-0.2,5.4-0.1C242.4,282,243.3,282.1,243.3,282.2z"/>
				</g>
			</g>
			<g>
				<g>
					<path class="st25" d="M265.2,283.8c-0.1,0.1-1.4-2.2-3.5-4.6c-2.1-2.4-4.2-4-4.1-4.1c0,0,0.6,0.3,1.4,0.9
						c0.8,0.7,1.9,1.6,3,2.9c1.1,1.2,1.9,2.4,2.4,3.3C265,283.1,265.2,283.7,265.2,283.8z"/>
				</g>
			</g>
			<g>
				<g>
					
						<ellipse transform="matrix(0.8569 -0.5156 0.5156 0.8569 -103.8862 186.7082)" class="st25" cx="284.3" cy="280.4" rx="5.9" ry="0.2"/>
				</g>
			</g>
			<g>
				<g>
					
						<ellipse transform="matrix(0.1042 -0.9946 0.9946 0.1042 -1.7292 562.5746)" class="st25" cx="311.4" cy="282.2" rx="0.2" ry="3.6"/>
				</g>
			</g>
		</g>
		<g>
			<g>
				<path class="st28" d="M284,77.1c-0.3,1.4,0.2,2.9,1.3,3.7c1.1,0.8,2.8,0.9,4,0.2c2.3-1.3,2.4-4.6,1.8-7.2
					c-0.6-2.6-1.7-5.3-0.7-7.8c0.7-1.9,2.5-3.2,3.8-4.7c2.3-2.7,3.4-6.5,2.6-9.9c-0.8-3.5-3.6-6.5-7.1-7.2
					c-3.5-0.8-7.8,0.5-10.5-1.8c-2-1.7-2.3-4.7-3.8-6.8c-2.5-3.3-7.3-3.5-11.3-2.7c-4,0.8-8,2.3-12,1.5c-3.3-0.6-6.2-2.8-9.4-4
					c-6.9-2.7-15.4-0.5-20.1,5.1c-4.8,5.6-5.5,14.4-1.7,20.7c1.4,2.3,3.3,4.3,5.8,5.2"/>
			</g>
			<g>
				<g>
					<g>
						<g>
							<path class="st29" d="M270.5,152.6L270.5,152.6c-11.1,0.9-20.9-7.4-21.9-18.5c-0.5-6.4-1-11.7-1-11.7s-16.3-1.4-17.6-17.4
								c-1.3-16.1-1.1-51.1-1.1-51.1l0-2.1c18.1-9.3,39.9-6.4,56.8,4.9l0.2,3.3l3.2,72.2C289.3,142.7,281.1,151.7,270.5,152.6z"/>
						</g>
						<g>
							<g>
								<path class="st15" d="M236.8,78.9c2-0.9,1.9-3.6-0.1-4.4c-0.5-0.2-1.1-0.2-1.7,0.1c-2,0.9-1.9,3.6,0.1,4.4
									C235.7,79.2,236.3,79.2,236.8,78.9z"/>
							</g>
							<g>
								<g>
									<path class="st15" d="M231,75.6c0.3,0.3,1.8-1.1,4-1.2c2.2-0.2,3.9,0.9,4.1,0.6c0.1-0.1-0.2-0.6-0.9-1.1
										c-0.7-0.5-1.9-0.9-3.3-0.8c-1.4,0.1-2.5,0.7-3.1,1.3C231.1,74.9,230.9,75.4,231,75.6z"/>
								</g>
							</g>
						</g>
						<g>
							<g>
								
									<ellipse transform="matrix(0.8131 -0.5821 0.5821 0.8131 3.5827 165.2056)" class="st15" cx="259.1" cy="77" rx="2.3" ry="2.3"/>
							</g>
							<g>
								<g>
									<path class="st15" d="M254.6,75.9c0.3,0.3,1.8-1.1,4-1.2c2.2-0.2,3.9,0.9,4.1,0.6c0.1-0.1-0.2-0.6-0.9-1.1
										c-0.7-0.5-1.9-0.9-3.3-0.8c-1.4,0.1-2.5,0.7-3.1,1.3C254.7,75.3,254.5,75.8,254.6,75.9z"/>
								</g>
							</g>
						</g>
						<g>
							<g>
								<path class="st15" d="M247,94.8c0-0.2-1.4-0.3-3.6-0.5c-0.6,0-1.1-0.1-1.1-0.4c-0.1-0.4,0.1-1,0.3-1.7
									c0.5-1.5,0.9-3,1.4-4.6c2-6.6,3.3-12,3-12.1c-0.3-0.1-2.2,5.2-4.1,11.8c-0.5,1.6-0.9,3.1-1.3,4.7c-0.2,0.7-0.5,1.5-0.2,2.4
									c0.2,0.5,0.7,0.8,1,0.8c0.4,0.1,0.7,0.1,1,0.1C245.6,95.1,247,95,247,94.8z"/>
							</g>
						</g>
						<g>
							<path class="st30" d="M254.4,96.8c2.2-1.5-6.1,3.8-10.6,3.9c0,0,2.9,4,7.4,1.9C255.8,100.5,254.4,96.8,254.4,96.8z"/>
						</g>
						<g>
							<path class="st31" d="M247.6,122.1c0,0,10.2,0.1,20.6-7.4c0,0-4.1,11.9-20.3,11.6L247.6,122.1z"/>
						</g>
					</g>
				</g>
				<g>
					<g>
						<path class="st29" d="M285.7,70.6c0.3-0.1,11.9-1.7,10.9,12c-1,13.7-14.5,8.2-14.5,7.8C282.1,90,285.7,70.6,285.7,70.6z"/>
					</g>
					<g>
						<g>
							<path class="st31" d="M286.7,85.9c0.1,0,0.2,0.2,0.6,0.4c0.4,0.2,1,0.4,1.8,0.2c1.5-0.4,2.9-2.6,3.1-5.1
								c0.1-1.2-0.1-2.5-0.4-3.5c-0.3-1-0.9-1.8-1.7-2c-0.7-0.2-1.3,0.2-1.5,0.6c-0.2,0.4-0.1,0.6-0.2,0.7c0,0-0.3-0.3-0.1-0.8
								c0.1-0.3,0.3-0.6,0.6-0.8c0.3-0.2,0.8-0.3,1.3-0.3c1.1,0.1,1.9,1.2,2.3,2.3c0.5,1.1,0.7,2.5,0.6,3.9
								c-0.3,2.8-1.9,5.2-3.9,5.7c-1,0.2-1.8-0.2-2.2-0.5C286.7,86.2,286.6,85.9,286.7,85.9z"/>
						</g>
					</g>
				</g>
			</g>
			<g>
				<g>
					<path class="st15" d="M264,67.3c-0.4,0.5-2.8-0.7-5.9-0.7c-3.2-0.1-5.6,1.1-5.9,0.6c-0.2-0.2,0.3-0.9,1.3-1.5
						c1-0.6,2.7-1.2,4.6-1.2c1.9,0,3.6,0.6,4.6,1.3C263.7,66.4,264.1,67,264,67.3z"/>
				</g>
			</g>
			<g>
				<g>
					<path class="st15" d="M238.8,68.2c-0.1,0.6-1.9,0.7-3.9,0.7c-2,0-3.7,0-3.9-0.5c-0.2-0.5,1.5-1.5,3.9-1.6
						C237.2,66.8,238.9,67.7,238.8,68.2z"/>
				</g>
			</g>
			<g>
				<g>
					<path class="st15" d="M225.5,60.6c0,0,9.9,4.3,22.3-2.4c8.1-4.5,17.7-6.8,19.9-5.2c2.2,1.6,3,10.1,11.3,12.3
						c0,0,0,16.3,6.5,15.5c6.5-0.8,1.5-26,1.5-26l-15.3-10.2L254.2,42l-19.1,2.8l-10.6,7L225.5,60.6z"/>
				</g>
				<g>
					<g>
						<path class="st15" d="M287.7,41.1c0,0.1-1.7,0-3.6,0.8c-1.9,0.8-2.9,2.2-3,2.1c0,0,0.2-0.4,0.6-0.9c0.5-0.5,1.2-1.1,2.2-1.6
							c1-0.4,2-0.6,2.6-0.6C287.3,40.9,287.7,41.1,287.7,41.1z"/>
					</g>
				</g>
				<g>
					<g>
						<path class="st15" d="M280.7,35c0.1,0,0.2,0.5,0.4,1.5c0.1,0.9,0.3,2.2,0.1,3.6c-0.1,1.4-0.5,2.7-0.9,3.5
							c-0.4,0.8-0.8,1.3-0.8,1.3c-0.1,0,0.2-0.5,0.5-1.4c0.3-0.9,0.7-2.1,0.8-3.4c0.1-1.4,0.1-2.6,0-3.6
							C280.7,35.5,280.7,35,280.7,35z"/>
					</g>
				</g>
			</g>
			<g>
				<g>
					<path class="st26" d="M280.1,41.9c0,0,0,0.1-0.1,0.4c-0.1,0.3-0.2,0.7-0.5,1.2c-0.5,1-1.4,2.6-3.2,3.9c-0.9,0.7-2,1.2-3.3,1.6
						c-1.3,0.4-2.8,0.4-4.3,0.1c-1.5-0.3-3.1-1.1-4.5-2.3c-1.3-1.2-2.5-2.8-3-4.7c-0.3-1-0.3-2-0.2-3c0.2-1,0.6-2.1,1.5-2.8
						c0.8-0.8,1.9-1.3,3.1-1.2c1.2,0.1,2.3,0.8,3,1.7c0.7,1,1.1,2.2,1,3.4c-0.1,1.2-0.6,2.4-1.4,3.4c-1.5,2-3.7,3.4-6.2,4.4
						c-2.4,0.9-5.2,1.3-7.9,1.1c-2.7-0.3-5.5-1.2-7.8-2.8c-1.2-0.8-2.2-1.9-2.9-3.2c-0.3-0.6-0.6-1.3-0.7-2.1
						c-0.1-0.7-0.1-1.5,0.1-2.2c0.2-0.7,0.5-1.4,1-2c0.5-0.6,1.1-1.1,1.9-1.3c1.5-0.5,3.2,0,4.4,0.8c1.3,0.9,2.2,2.2,2.8,3.6
						c0.5,1.4,0.7,3,0.5,4.4c-0.5,3-2.5,5.5-5,6.9c-2.5,1.5-5.5,1.8-8.2,1.4c-2.7-0.4-5.3-1.5-7.3-3.2c-1-0.9-1.8-1.9-2.4-3.1
						c-0.5-1.2-0.7-2.5-0.6-3.7c0.2-1.2,0.7-2.5,1.7-3.3c0.9-0.8,2.2-1.3,3.4-1.1c1.2,0.2,2.2,0.9,2.9,1.9c0.6,1,0.9,2.1,0.8,3.2
						c-0.2,2.2-1.4,4.2-3.1,5.2c-1.7,1.1-3.7,1.3-5.5,1.2c-1.8-0.2-3.4-0.7-4.8-1.5c-2.8-1.5-4.4-4.1-4.6-6.3
						c-0.2-2.2,0.6-3.9,1.4-4.8c0.4-0.4,0.7-0.7,1-0.9c0.2-0.2,0.4-0.2,0.4-0.2c0,0-0.6,0.3-1.3,1.2c-0.7,0.9-1.5,2.5-1.3,4.7
						c0.2,2.2,1.8,4.6,4.5,6.1c1.3,0.7,2.9,1.3,4.7,1.4c1.7,0.1,3.6-0.1,5.3-1.2c1.6-1,2.8-2.9,3-5c0.1-1-0.2-2.1-0.8-3
						c-0.6-0.9-1.5-1.6-2.6-1.7c-1.1-0.2-2.2,0.3-3.1,1.1c-0.9,0.8-1.4,1.9-1.5,3.1c-0.2,1.2,0,2.4,0.5,3.5c0.5,1.1,1.3,2.1,2.3,3
						c1.9,1.6,4.5,2.7,7.1,3.1c2.6,0.4,5.5,0.1,7.9-1.3c2.4-1.4,4.3-3.8,4.8-6.6c0.2-1.4,0.1-2.9-0.5-4.2c-0.5-1.3-1.4-2.6-2.6-3.4
						c-1.2-0.8-2.7-1.2-4.1-0.8c-0.7,0.2-1.2,0.6-1.7,1.2c-0.4,0.5-0.7,1.2-0.9,1.9c-0.2,0.7-0.2,1.4-0.1,2.1c0.1,0.7,0.4,1.3,0.7,2
						c0.7,1.2,1.7,2.2,2.8,3c2.3,1.6,5,2.5,7.6,2.7c2.7,0.2,5.3-0.1,7.7-1c2.4-0.9,4.6-2.3,6-4.3c0.7-1,1.2-2.1,1.3-3.2
						c0.1-1.1-0.2-2.3-0.9-3.2c-0.6-0.9-1.6-1.6-2.7-1.6c-1.1-0.1-2.1,0.4-2.8,1.1c-0.8,0.7-1.2,1.7-1.4,2.7c-0.2,1-0.1,2,0.2,2.9
						c0.5,1.9,1.6,3.4,2.9,4.6c1.3,1.2,2.8,1.9,4.3,2.2c1.5,0.3,3,0.3,4.2,0c1.3-0.3,2.4-0.9,3.3-1.5c1.8-1.3,2.7-2.8,3.2-3.8
						c0.2-0.5,0.4-0.9,0.5-1.2C280,42.1,280.1,41.9,280.1,41.9z"/>
				</g>
			</g>
			<g>
				<g>
					<path class="st26" d="M296,58c0,0,0,0-0.1,0.1c-0.1,0.1-0.2,0.2-0.4,0.3c-0.3,0.3-0.8,0.6-1.6,0.9c-0.7,0.3-1.7,0.5-2.8,0.5
						c-1.1,0-2.4-0.4-3.6-1.2c-1.2-0.8-2.2-2-2.7-3.6c-0.3-0.8-0.4-1.7-0.2-2.6c0.1-0.4,0.3-0.9,0.7-1.2c0.4-0.3,1-0.4,1.5-0.2
						c0.5,0.2,0.8,0.6,1,1.1c0.2,0.4,0.3,0.9,0.4,1.5c0,1-0.2,2-0.7,2.9c-0.9,1.8-2.7,3.3-4.9,3.6c-2.2,0.3-4.4-0.5-5.7-2.1
						c-0.7-0.8-1.1-1.9-0.8-2.9c0.2-1,1-1.9,2-2c1-0.1,2,0.3,2.5,1c0.6,0.7,0.8,1.6,0.8,2.5c0,1.7-1,3.2-2.1,4
						c-1.1,0.9-2.5,1.2-3.6,1.1c-1.1-0.1-2-0.5-2.7-0.9c-0.6-0.5-1-0.9-1.3-1.3c-0.2-0.3-0.3-0.5-0.3-0.5c0,0,0.4,0.8,1.7,1.7
						c0.6,0.4,1.5,0.8,2.6,0.8c1.1,0.1,2.3-0.3,3.4-1.1c1-0.8,1.9-2.2,1.9-3.8c0-0.8-0.2-1.6-0.7-2.2c-0.5-0.6-1.4-1-2.2-0.9
						c-0.8,0.1-1.5,0.9-1.7,1.7c-0.2,0.9,0.2,1.8,0.8,2.5c1.2,1.5,3.3,2.2,5.4,1.9c2-0.2,3.8-1.6,4.6-3.4c0.4-0.9,0.6-1.8,0.6-2.7
						c0-0.9-0.4-1.8-1.1-2.2c-0.4-0.2-0.8-0.1-1.1,0.1c-0.3,0.2-0.5,0.6-0.6,1c-0.2,0.8-0.1,1.6,0.2,2.4c0.5,1.5,1.5,2.7,2.6,3.5
						c1.1,0.8,2.3,1.1,3.4,1.2c1.1,0.1,2-0.1,2.7-0.4C295.4,58.6,296,57.9,296,58z"/>
				</g>
			</g>
		</g>
		<g>
			<g>
				<g>
					<g>
						<linearGradient id="SVGID_14_" gradientUnits="userSpaceOnUse" x1="234.1862" y1="245.0879" x2="304.8997" y2="245.0879">
							<stop  offset="0" style="stop-color:#FDF83C"/>
							<stop  offset="0.6764" style="stop-color:#FE9828"/>
							<stop  offset="1" style="stop-color:#FF6F1F"/>
						</linearGradient>
						<polygon class="st32" points="235.8,221.3 304.1,222.4 304.9,268.9 234.2,266.5 						"/>
					</g>
					<g>
						<polyline class="st29" points="235.8,221.3 271.2,194 304.1,222.4 						"/>
					</g>
					<g>
						<g>
							
								<ellipse transform="matrix(0.7016 -0.7125 0.7125 0.7016 -107.0724 251.5886)" class="st15" cx="246.9" cy="253.6" rx="18.1" ry="0.2"/>
						</g>
					</g>
					<g>
						<g>
							
								<ellipse transform="matrix(0.7635 -0.6458 0.6458 0.7635 -95.5464 249.9383)" class="st15" cx="293.5" cy="255.4" rx="0.2" ry="17.7"/>
						</g>
					</g>
					<g>
						<polyline class="st15" points="304.1,222.4 269.2,249 235.8,221.3 						"/>
					</g>
				</g>
				<g>
					<polygon class="st30" points="239.2,223.9 239.6,204 299.4,204 299.6,225.8 269.2,248.6 					"/>
				</g>
			</g>
			<g>
				<g>
					<path class="st29" d="M235.2,238c0,0-1,10.3,1.5,10.3c4.4-0.1,21.1-4.4,22.3-1.2s-4.3,6.3-4.3,6.3s5.4,1,2.7,3.8
						c-2.6,2.8-11.6,16.5-17.4,16.8c-8.3,0.4-19-2.4-19-2.4l4.4-30.3L235.2,238z"/>
				</g>
				<g>
					<g>
						<path class="st31" d="M256.7,251.8c0,0-0.2,0.2-0.7,0.5c-0.5,0.3-1.2,0.7-2,1.2c-1.8,1-4.3,2.1-7.2,3.2c-2.9,1-5.6,1.7-7.6,2
							c-1,0.2-1.8,0.3-2.3,0.4c-0.6,0.1-0.9,0.1-0.9,0.1c0-0.1,1.2-0.3,3.2-0.7c1.9-0.4,4.6-1.1,7.5-2.1c2.9-1,5.4-2.2,7.2-3
							C255.6,252.4,256.7,251.8,256.7,251.8z"/>
					</g>
				</g>
				<g>
					<g>
						<path class="st31" d="M256.3,259.1c0,0-0.2,0.2-0.6,0.6c-0.4,0.4-1,0.9-1.8,1.5c-1.6,1.2-3.9,2.8-6.7,4
							c-2.8,1.2-5.5,1.8-7.5,2.1c-1,0.1-1.8,0.2-2.4,0.2c-0.6,0-0.9,0-0.9,0c0-0.1,1.2-0.2,3.2-0.5c2-0.3,4.6-1,7.4-2.2
							c2.8-1.2,5.1-2.7,6.7-3.8C255.3,259.9,256.2,259.1,256.3,259.1z"/>
					</g>
				</g>
			</g>
			<g>
				<g>
					<path class="st29" d="M304.4,237.8c0,0,0.9,8.6-2.3,9.8c-4.1,1.5-21.1-4.4-22.3-1.2c-1.2,3.2,4.3,6.3,4.3,6.3s-5.4,1-2.7,3.8
						c2.6,2.8,11.6,16.5,17.4,16.8c8.3,0.4,17-1.2,17-1.2l-2.4-31.5L304.4,237.8z"/>
				</g>
				<g>
					<g>
						<path class="st31" d="M282,251.1c0-0.1,1.1,0.5,2.9,1.4c1.8,0.9,4.3,2,7.2,3c2.9,1,5.5,1.7,7.5,2.1c1.9,0.4,3.2,0.6,3.2,0.7
							c0,0-0.3,0-0.9-0.1c-0.6-0.1-1.4-0.2-2.3-0.4c-2-0.4-4.7-1-7.6-2c-2.9-1-5.4-2.2-7.2-3.2c-0.9-0.5-1.6-0.9-2-1.2
							C282.2,251.3,282,251.1,282,251.1z"/>
					</g>
				</g>
				<g>
					<g>
						<path class="st31" d="M282.9,258.4c0-0.1,0.9,0.8,2.5,1.9c1.6,1.2,3.8,2.6,6.5,3.8c2.7,1.2,5.3,1.9,7.2,2.2
							c1.9,0.3,3.1,0.4,3.1,0.5c0,0-0.3,0-0.9,0c-0.5,0-1.3-0.1-2.3-0.2c-1.9-0.3-4.6-0.9-7.4-2.1c-2.7-1.2-5-2.8-6.5-4
							c-0.8-0.6-1.4-1.1-1.7-1.5C283.1,258.6,282.9,258.4,282.9,258.4z"/>
					</g>
				</g>
			</g>
		</g>
	</g>
	<g>
		<g>
			<g>
				<g>
					<linearGradient id="SVGID_15_" gradientUnits="userSpaceOnUse" x1="126.6117" y1="198.2353" x2="133.6647" y2="198.2353">
						<stop  offset="0" style="stop-color:#FDF83C"/>
						<stop  offset="0.6764" style="stop-color:#FE9828"/>
						<stop  offset="1" style="stop-color:#FF6F1F"/>
					</linearGradient>
					<ellipse class="st33" cx="130.1" cy="198.2" rx="3.5" ry="0.2"/>
				</g>
			</g>
			<g>
				<g>
					<linearGradient id="SVGID_16_" gradientUnits="userSpaceOnUse" x1="137.1984" y1="191.2053" x2="137.6216" y2="191.2053">
						<stop  offset="0" style="stop-color:#FDF83C"/>
						<stop  offset="0.6764" style="stop-color:#FE9828"/>
						<stop  offset="1" style="stop-color:#FF6F1F"/>
					</linearGradient>
					<ellipse class="st34" cx="137.4" cy="191.2" rx="0.2" ry="4.2"/>
				</g>
			</g>
		</g>
		<g>
			<g>
				<g>
					<linearGradient id="SVGID_17_" gradientUnits="userSpaceOnUse" x1="141.3986" y1="197.9669" x2="148.4516" y2="197.9669">
						<stop  offset="0" style="stop-color:#FDF83C"/>
						<stop  offset="0.6764" style="stop-color:#FE9828"/>
						<stop  offset="1" style="stop-color:#FF6F1F"/>
					</linearGradient>
					<ellipse class="st35" cx="144.9" cy="198" rx="3.5" ry="0.2"/>
				</g>
			</g>
			<g>
				<g>
					<linearGradient id="SVGID_18_" gradientUnits="userSpaceOnUse" x1="137.4419" y1="204.9969" x2="137.865" y2="204.9969">
						<stop  offset="0" style="stop-color:#FDF83C"/>
						<stop  offset="0.6764" style="stop-color:#FE9828"/>
						<stop  offset="1" style="stop-color:#FF6F1F"/>
					</linearGradient>
					<ellipse class="st36" cx="137.7" cy="205" rx="0.2" ry="4.2"/>
				</g>
			</g>
		</g>
		<g>
			<g>
				<linearGradient id="SVGID_19_" gradientUnits="userSpaceOnUse" x1="140.8344" y1="202.6152" x2="143.3655" y2="202.6152">
					<stop  offset="0" style="stop-color:#FDF83C"/>
					<stop  offset="0.6764" style="stop-color:#FE9828"/>
					<stop  offset="1" style="stop-color:#FF6F1F"/>
				</linearGradient>
				<path class="st37" d="M143.4,204.4c-0.1,0.1-0.7-0.7-1.4-1.6c-0.7-1-1.2-1.8-1.1-1.9c0.1-0.1,0.7,0.7,1.4,1.6
					C143,203.5,143.4,204.3,143.4,204.4z"/>
			</g>
		</g>
		<g>
			<g>
				<linearGradient id="SVGID_20_" gradientUnits="userSpaceOnUse" x1="140.4104" y1="193.1895" x2="143.0341" y2="193.1895">
					<stop  offset="0" style="stop-color:#FDF83C"/>
					<stop  offset="0.6764" style="stop-color:#FE9828"/>
					<stop  offset="1" style="stop-color:#FF6F1F"/>
				</linearGradient>
				<path class="st38" d="M143,191.7c0.1,0.1-0.4,0.8-1.1,1.7c-0.7,0.8-1.4,1.5-1.5,1.4c-0.1-0.1,0.4-0.8,1.1-1.7
					C142.3,192.2,142.9,191.6,143,191.7z"/>
			</g>
		</g>
		<g>
			<g>
				<linearGradient id="SVGID_21_" gradientUnits="userSpaceOnUse" x1="132.4527" y1="193.6888" x2="134.9492" y2="193.6888">
					<stop  offset="0" style="stop-color:#FDF83C"/>
					<stop  offset="0.6764" style="stop-color:#FE9828"/>
					<stop  offset="1" style="stop-color:#FF6F1F"/>
				</linearGradient>
				<path class="st39" d="M134.9,194.9c-0.1,0.1-0.7-0.4-1.4-1.1c-0.7-0.7-1.2-1.3-1.1-1.4c0.1-0.1,0.7,0.4,1.4,1.1
					C134.5,194.2,135,194.8,134.9,194.9z"/>
			</g>
		</g>
		<g>
			<g>
				<linearGradient id="SVGID_22_" gradientUnits="userSpaceOnUse" x1="132.248" y1="202.0136" x2="134.6349" y2="202.0136">
					<stop  offset="0" style="stop-color:#FDF83C"/>
					<stop  offset="0.6764" style="stop-color:#FE9828"/>
					<stop  offset="1" style="stop-color:#FF6F1F"/>
				</linearGradient>
				<path class="st40" d="M134.6,200.5c0.1,0.1-0.4,0.8-1,1.6c-0.7,0.8-1.3,1.5-1.3,1.4c-0.1-0.1,0.4-0.8,1-1.6
					C133.9,201,134.5,200.4,134.6,200.5z"/>
			</g>
		</g>
	</g>
	<g>
		<g>
			<g>
				<g>
					<linearGradient id="SVGID_23_" gradientUnits="userSpaceOnUse" x1="357.8537" y1="158.4128" x2="362.5706" y2="158.4128">
						<stop  offset="0" style="stop-color:#FDF83C"/>
						<stop  offset="0.6764" style="stop-color:#FE9828"/>
						<stop  offset="1" style="stop-color:#FF6F1F"/>
					</linearGradient>
					<ellipse class="st41" cx="360.2" cy="158.4" rx="2.4" ry="0.2"/>
				</g>
			</g>
			<g>
				<g>
					<linearGradient id="SVGID_24_" gradientUnits="userSpaceOnUse" x1="364.8638" y1="154.39" x2="365.287" y2="154.39">
						<stop  offset="0" style="stop-color:#FDF83C"/>
						<stop  offset="0.6764" style="stop-color:#FE9828"/>
						<stop  offset="1" style="stop-color:#FF6F1F"/>
					</linearGradient>
					<ellipse class="st42" cx="365.1" cy="154.4" rx="0.2" ry="2.4"/>
				</g>
			</g>
		</g>
		<g>
			<g>
				<g>
					<linearGradient id="SVGID_25_" gradientUnits="userSpaceOnUse" x1="367.743" y1="158.2591" x2="372.4599" y2="158.2591">
						<stop  offset="0" style="stop-color:#FDF83C"/>
						<stop  offset="0.6764" style="stop-color:#FE9828"/>
						<stop  offset="1" style="stop-color:#FF6F1F"/>
					</linearGradient>
					<ellipse class="st43" cx="370.1" cy="158.3" rx="2.4" ry="0.2"/>
				</g>
			</g>
			<g>
				<g>
					<linearGradient id="SVGID_26_" gradientUnits="userSpaceOnUse" x1="365.0266" y1="162.2817" x2="365.4498" y2="162.2817">
						<stop  offset="0" style="stop-color:#FDF83C"/>
						<stop  offset="0.6764" style="stop-color:#FE9828"/>
						<stop  offset="1" style="stop-color:#FF6F1F"/>
					</linearGradient>
					<ellipse class="st44" cx="365.2" cy="162.3" rx="0.2" ry="2.4"/>
				</g>
			</g>
		</g>
		<g>
			<g>
				<linearGradient id="SVGID_27_" gradientUnits="userSpaceOnUse" x1="367.3578" y1="160.9189" x2="369.0661" y2="160.9189">
					<stop  offset="0" style="stop-color:#FDF83C"/>
					<stop  offset="0.6764" style="stop-color:#FE9828"/>
					<stop  offset="1" style="stop-color:#FF6F1F"/>
				</linearGradient>
				<path class="st45" d="M369.1,161.9c-0.1,0.1-0.5-0.3-1-0.9c-0.5-0.6-0.8-1.1-0.7-1.1c0.1-0.1,0.5,0.3,1,0.9
					C368.8,161.3,369.1,161.8,369.1,161.9z"/>
			</g>
		</g>
		<g>
			<g>
				<linearGradient id="SVGID_28_" gradientUnits="userSpaceOnUse" x1="367.0758" y1="155.5254" x2="368.843" y2="155.5254">
					<stop  offset="0" style="stop-color:#FDF83C"/>
					<stop  offset="0.6764" style="stop-color:#FE9828"/>
					<stop  offset="1" style="stop-color:#FF6F1F"/>
				</linearGradient>
				<path class="st46" d="M368.8,154.6c0.1,0.1-0.2,0.5-0.7,1c-0.5,0.5-0.9,0.8-1,0.7c-0.1-0.1,0.2-0.5,0.7-1
					C368.3,154.9,368.7,154.6,368.8,154.6z"/>
			</g>
		</g>
		<g>
			<g>
				<linearGradient id="SVGID_29_" gradientUnits="userSpaceOnUse" x1="361.7549" y1="155.8112" x2="363.4349" y2="155.8112">
					<stop  offset="0" style="stop-color:#FDF83C"/>
					<stop  offset="0.6764" style="stop-color:#FE9828"/>
					<stop  offset="1" style="stop-color:#FF6F1F"/>
				</linearGradient>
				<path class="st47" d="M363.4,156.5c-0.1,0.1-0.5-0.1-1-0.5c-0.5-0.4-0.8-0.8-0.7-0.9c0.1-0.1,0.5,0.1,1,0.5
					C363.2,156,363.5,156.4,363.4,156.5z"/>
			</g>
		</g>
		<g>
			<g>
				<linearGradient id="SVGID_30_" gradientUnits="userSpaceOnUse" x1="361.6156" y1="160.5746" x2="363.227" y2="160.5746">
					<stop  offset="0" style="stop-color:#FDF83C"/>
					<stop  offset="0.6764" style="stop-color:#FE9828"/>
					<stop  offset="1" style="stop-color:#FF6F1F"/>
				</linearGradient>
				<path class="st48" d="M363.2,159.7c0.1,0.1-0.2,0.5-0.6,1c-0.4,0.5-0.9,0.8-0.9,0.7c-0.1-0.1,0.2-0.5,0.6-1
					C362.7,160,363.1,159.6,363.2,159.7z"/>
			</g>
		</g>
	</g>
	<g>
		<linearGradient id="SVGID_31_" gradientUnits="userSpaceOnUse" x1="392.9912" y1="155.8111" x2="398.8798" y2="155.8111">
			<stop  offset="0" style="stop-color:#FDF83C"/>
			<stop  offset="0.6764" style="stop-color:#FE9828"/>
			<stop  offset="1" style="stop-color:#FF6F1F"/>
		</linearGradient>
		<path class="st49" d="M395.9,152.9l0.2,0.6c0.4,1,1.2,1.7,2.2,2.1l0.6,0.2l-0.6,0.2c-1,0.4-1.8,1.2-2.2,2.2l-0.2,0.4l-0.2-0.5
			c-0.4-0.9-1.2-1.6-2.2-2L393,156l0.7-0.3c0.9-0.4,1.5-1.1,1.9-2L395.9,152.9z"/>
	</g>
	<g>
		<linearGradient id="SVGID_32_" gradientUnits="userSpaceOnUse" x1="166.2699" y1="166.0349" x2="172.1585" y2="166.0349">
			<stop  offset="0" style="stop-color:#FDF83C"/>
			<stop  offset="0.6764" style="stop-color:#FE9828"/>
			<stop  offset="1" style="stop-color:#FF6F1F"/>
		</linearGradient>
		<path class="st50" d="M169.2,163.2l0.2,0.6c0.4,1,1.2,1.7,2.2,2.1l0.6,0.2l-0.6,0.2c-1,0.4-1.8,1.2-2.2,2.2l-0.2,0.4l-0.2-0.5
			c-0.4-0.9-1.2-1.6-2.2-2l-0.5-0.2l0.7-0.3c0.9-0.4,1.5-1.1,1.9-2L169.2,163.2z"/>
	</g>
	<g>
		<linearGradient id="SVGID_33_" gradientUnits="userSpaceOnUse" x1="138.9484" y1="242.3079" x2="141.8927" y2="242.3079">
			<stop  offset="0" style="stop-color:#FDF83C"/>
			<stop  offset="0.6764" style="stop-color:#FE9828"/>
			<stop  offset="1" style="stop-color:#FF6F1F"/>
		</linearGradient>
		<path class="st51" d="M140.4,240.9l0.1,0.3c0.2,0.5,0.6,0.9,1.1,1.1l0.3,0.1l-0.3,0.1c-0.5,0.2-0.9,0.6-1.1,1.1l-0.1,0.2l-0.1-0.3
			c-0.2-0.5-0.6-0.8-1.1-1l-0.3-0.1l0.3-0.2c0.4-0.2,0.8-0.6,1-1L140.4,240.9z"/>
	</g>
	<g>
		<linearGradient id="SVGID_34_" gradientUnits="userSpaceOnUse" x1="334.4783" y1="131.7476" x2="340.3669" y2="131.7476">
			<stop  offset="0" style="stop-color:#FDF83C"/>
			<stop  offset="0.6764" style="stop-color:#FE9828"/>
			<stop  offset="1" style="stop-color:#FF6F1F"/>
		</linearGradient>
		<path class="st52" d="M337.4,128.9l0.2,0.6c0.4,1,1.2,1.7,2.2,2.1l0.6,0.2l-0.6,0.2c-1,0.4-1.8,1.2-2.2,2.2l-0.2,0.4l-0.2-0.5
			c-0.4-0.9-1.2-1.6-2.2-2l-0.5-0.2l0.7-0.3c0.9-0.4,1.5-1.1,1.9-2L337.4,128.9z"/>
	</g>
	<text transform="matrix(1 0 0 1 242.1642 218.8854)" class="st53 st54">CONGRATULATIONS</text>
</g>
</svg>
