<?xml version="1.0" encoding="utf-8"?>
<!-- Generator: Adobe Illustrator 19.2.0, SVG Export Plug-In . SVG Version: 6.00 Build 0)  -->
<svg version="1.1" id="Слой_1" xmlns="http://www.w3.org/2000/svg" xmlns:xlink="http://www.w3.org/1999/xlink" x="0px" y="0px"
	 viewBox="0 0 283.7 145.3" style="enable-background:new 0 0 283.7 145.3;" xml:space="preserve">
<style type="text/css">
	.st0{fill:#fdf3d8;}
	.st1{fill:#f8d362;}
</style>
<path class="st0" d="M281,137H2.7c-1.5,0-2.7-1.2-2.7-2.7v-33.6l33.7,12l37.7-41l26,12.5L139.1,0l28,35.7l30.3-1L228.7,61
	c0,0,55-53.7,55-51.3v124.6C283.7,135.8,282.5,137,281,137z"/>
<path class="st1" d="M281,145.3H2.7c-1.5,0-2.7-1.2-2.7-2.7V123c8-8,34.7-29.7,34.7-29.7l50.3,23l30.7-28.7l26.2,10.3l35.5-45.3
	l21.3,18.3l35.3-48c0,0,49.7,63.6,49.7,66v53.6C283.7,144.1,282.5,145.3,281,145.3z"/>
</svg>
