<svg version="1.1" id="Слой_1" xmlns="http://www.w3.org/2000/svg" x="0" y="0" viewBox="0 0 951.5 977.8" xml:space="preserve"><style>.st2{fill:#fde0c1}.st11{opacity:.5}.st20{fill:#fff}.st21{fill:#d97530}.st24{fill:#fca842}</style><circle cx="475.8" cy="488.9" r="173.1" opacity=".4" fill="#99eab8"/><linearGradient id="SVGID_1_" gradientUnits="userSpaceOnUse" x1="559.3" y1="587.7" x2="635.6" y2="587.7"><stop offset="0" stop-color="#01e971"/><stop offset=".6" stop-color="#00d351"/><stop offset="1" stop-color="#00cb44"/></linearGradient><path d="M634 580h-9l-2-6 6-7v-2l-9-9h-2l-7 6-5-2v-9l-2-1h-13l-2 1v9l-5 2-7-6h-2l-9 9v2l6 7-2 6h-9l-2 1v13l2 2h9l2 6-6 6v2l9 9h2l7-6 5 2v9l2 2h13l2-2v-9l5-2 7 6h2l9-9v-2l-6-6 2-6h9l2-2v-13l-2-1zm-37 20c-6 0-12-6-12-12s6-12 12-12 12 5 12 12-5 12-12 12z" fill="url(#SVGID_1_)"/><circle class="st2" cx="597.4" cy="568" r="1.8"/><circle class="st2" cx="597.4" cy="568" r="1.8"/><circle transform="rotate(-45 611 574)" class="st2" cx="611.3" cy="573.8" r="1.8"/><circle class="st2" cx="617.1" cy="587.7" r="1.8"/><circle transform="rotate(-45 611 602)" class="st2" cx="611.3" cy="601.6" r="1.8"/><circle class="st2" cx="597.4" cy="607.3" r="1.8"/><circle transform="rotate(-45 584 602)" class="st2" cx="583.6" cy="601.6" r="1.8"/><circle class="st2" cx="577.8" cy="587.7" r="1.8"/><circle transform="rotate(-45 584 574)" class="st2" cx="583.6" cy="573.8" r="1.8"/><g opacity=".4"><linearGradient id="SVGID_2_" gradientUnits="userSpaceOnUse" x1="609.7" y1="432.3" x2="627.5" y2="432.3"><stop offset="0" stop-color="#01e971"/><stop offset=".6" stop-color="#00d351"/><stop offset="1" stop-color="#00cb44"/></linearGradient><circle cx="618.6" cy="432.3" r="8.9" fill="url(#SVGID_2_)"/><path d="M619 432h2l1 1v2l-1 1-1 1h-1v1h-1v-1h-1l-1-1h-1l1-1h2v-2l-1-1h-1v-1-1-1-1h1l2-1v-1h1v1l1 1h1l-1 1h-1l-1 3zm0-3h-1-1v2h1l1-2zm0 7l1-1v-1-1h-1v3z" fill="#d6e3f7"/></g><linearGradient id="SVGID_3_" gradientUnits="userSpaceOnUse" x1="360.5" y1="427.2" x2="374.4" y2="427.2"><stop offset="0" stop-color="#01e971"/><stop offset=".6" stop-color="#00d351"/><stop offset="1" stop-color="#00cb44"/></linearGradient><path fill="url(#SVGID_3_)" d="M361 414h13v27h-13z"/><linearGradient id="SVGID_4_" gradientUnits="userSpaceOnUse" x1="377.6" y1="423" x2="391.4" y2="423"><stop offset="0" stop-color="#01e971"/><stop offset=".6" stop-color="#00d351"/><stop offset="1" stop-color="#00cb44"/></linearGradient><path fill="url(#SVGID_4_)" d="M378 405h14v36h-14z"/><linearGradient id="SVGID_5_" gradientUnits="userSpaceOnUse" x1="394.6" y1="418.7" x2="408.4" y2="418.7"><stop offset="0" stop-color="#01e971"/><stop offset=".6" stop-color="#00d351"/><stop offset="1" stop-color="#00cb44"/></linearGradient><path fill="url(#SVGID_5_)" d="M395 397h14v44h-14z"/><linearGradient id="SVGID_6_" gradientUnits="userSpaceOnUse" x1="411.6" y1="414.5" x2="425.5" y2="414.5"><stop offset="0" stop-color="#01e971"/><stop offset=".6" stop-color="#00d351"/><stop offset="1" stop-color="#00cb44"/></linearGradient><path fill="url(#SVGID_6_)" d="M412 389h14v52h-14z"/><linearGradient id="SVGID_7_" gradientUnits="userSpaceOnUse" x1="359.7" y1="388.5" x2="425.5" y2="388.5"><stop offset="0" stop-color="#01e971"/><stop offset=".6" stop-color="#00d351"/><stop offset="1" stop-color="#00cb44"/></linearGradient><path fill="url(#SVGID_7_)" d="M426 372l-13-4 1 5-24 5-7 17-23 11 1 3 25-12 7-16 22-5 1 5z"/><g class="st11"><linearGradient id="SVGID_8_" gradientUnits="userSpaceOnUse" x1="609" y1="491" x2="621.5" y2="491"><stop offset="0" stop-color="#01e971"/><stop offset=".6" stop-color="#00d351"/><stop offset="1" stop-color="#00cb44"/></linearGradient><path d="M620 493h-10l-1-2 1-1h10l2 1-2 2z" fill="url(#SVGID_8_)"/></g><g class="st11"><linearGradient id="SVGID_9_" gradientUnits="userSpaceOnUse" x1="319.8" y1="566" x2="332.3" y2="566"><stop offset="0" stop-color="#fdf83c"/><stop offset=".7" stop-color="#fe9828"/><stop offset="1" stop-color="#ff6f1f"/></linearGradient><path d="M331 568h-10l-1-2 1-1h10l1 1-1 2z" fill="url(#SVGID_9_)"/></g><g class="st11"><linearGradient id="SVGID_10_" gradientUnits="userSpaceOnUse" x1="313.5" y1="392.7" x2="326" y2="392.7"><stop offset="0" stop-color="#fdf83c"/><stop offset=".7" stop-color="#fe9828"/><stop offset="1" stop-color="#ff6f1f"/></linearGradient><path d="M325 394h-10l-1-1 1-2h10l1 2-1 1z" fill="url(#SVGID_10_)"/></g><g><linearGradient id="SVGID_11_" gradientUnits="userSpaceOnUse" x1="473.8" y1="315.8" x2="484.4" y2="315.8"><stop offset="0" stop-color="#01e971"/><stop offset=".6" stop-color="#00d351"/><stop offset="1" stop-color="#00cb44"/></linearGradient><path d="M479 321c-3 0-5-2-5-5s2-5 5-5 5 2 5 5-2 5-5 5zm0-8c-2 0-3 1-3 3s1 3 3 3 4-1 4-3-2-3-4-3z" fill="url(#SVGID_11_)"/></g><g><linearGradient id="SVGID_12_" gradientUnits="userSpaceOnUse" x1="564.1" y1="387.3" x2="574.7" y2="387.3"><stop offset="0" stop-color="#fdf83c"/><stop offset=".7" stop-color="#fe9828"/><stop offset="1" stop-color="#ff6f1f"/></linearGradient><path d="M569 393c-3 0-5-3-5-6s3-5 5-5c3 0 6 2 6 5s-3 6-6 6zm0-9l-3 3c0 2 2 4 3 4 2 0 4-2 4-4 0-1-2-3-4-3z" fill="url(#SVGID_12_)"/></g><g><linearGradient id="SVGID_13_" gradientUnits="userSpaceOnUse" x1="648.8" y1="467.3" x2="659.4" y2="467.3"><stop offset="0" stop-color="#01e971"/><stop offset=".6" stop-color="#00d351"/><stop offset="1" stop-color="#00cb44"/></linearGradient><path d="M654 473c-3 0-5-3-5-6s2-5 5-5 5 2 5 5-2 6-5 6zm0-9c-2 0-3 1-3 3s1 4 3 4 3-2 3-4c1-2-1-3-3-3z" fill="url(#SVGID_13_)"/></g><g><linearGradient id="SVGID_14_" gradientUnits="userSpaceOnUse" x1="378.2" y1="356.4" x2="388.8" y2="356.4"><stop offset="0" stop-color="#01e971"/><stop offset=".6" stop-color="#00d351"/><stop offset="1" stop-color="#00cb44"/></linearGradient><path d="M384 362c-3 0-6-3-6-6s3-5 5-5c3 0 6 2 6 5s-2 6-5 6zm0-9c-2 0-4 2-4 3 0 2 2 4 3 4 2 0 4-2 4-4l-3-3z" fill="url(#SVGID_14_)"/></g><g><linearGradient id="SVGID_15_" gradientUnits="userSpaceOnUse" x1="302.7" y1="521.4" x2="313.3" y2="521.4"><stop offset="0" stop-color="#01e971"/><stop offset=".6" stop-color="#00d351"/><stop offset="1" stop-color="#00cb44"/></linearGradient><path d="M308 527c-3 0-5-3-5-6 0-2 2-5 5-5s5 3 5 5c0 3-2 6-5 6zm0-9c-2 0-3 2-3 3 0 2 1 4 3 4s3-2 3-4c0-1-1-3-3-3z" fill="url(#SVGID_15_)"/></g><g><path class="st20" d="M354 418c-11 2-13 3-14 14-1-11-2-12-14-14 11-1 13-2 14-14 1 12 3 13 14 14zM502 357c-11 1-13 2-14 14-1-12-2-13-14-14 11-2 13-3 14-15 1 12 3 13 14 15z"/></g><g><path class="st21" d="M462 500zM467 492zM468 491zM464 495h0zM470 521l-3 14 3-14zM473 488zM474 487zM475 487h0zM478 487zM466 493zM477 487zM465 494zM469 490zM497 497l2 8a18 18 0 01-11 17l8 32-8-32a19 19 0 0011-17l-2-8zM470 490zM471 489zM467 518zM472 488zM464 497v-1 1zM480 486h-1 1z"/><path class="st21" d="M479 486h-1v1h-3-1l-1 1h-1l-1 1-1 1h-1l-1 1-1 1-1 1-1 1v1h-1v1l-1 1-1 3a20 20 0 001 12c1 3 2 5 4 6v1l3 2-3 14-5 19h34l-8-32a19 19 0 0011-17l-2-8-7-8c-3-1-6-3-10-3h-1z"/><path class="st21" d="M430 518c0-28 22-50 49-50v-21h-72c-9 0-17 7-17 17v110c0 9 8 17 17 17h72v-24c-27 0-49-22-49-49z"/><path class="st21" d="M553 447h-74v21a49 49 0 000 99v23h74c9 0 16-7 16-16V463c0-9-7-16-16-16zm-57 107h-33l4-19 3-14-3-2v-1c-2-1-3-3-4-6a19 19 0 010-15l1-1v-1h1v-1l1-1 1-1 1-1 1-1h1l1-1 1-1h1l1-1h3l1-1v1l1-1h1c4 0 8 1 10 3a18 18 0 019 16 18 18 0 01-10 17l7 32zM467 518zM468 491l1-1-1 1zM466 493l1-1-1 1zM469 490h1-1zM467 492l1-1-1 1zM465 495v-1 1zM465 494l1-1-1 1zM464 496v-1 1z"/><path class="st21" d="M464 497h-1l-1 2 1-2h1zM478 487l1-1-1 1zM463 554l4-19-4 19h16zM467 519l3 2-3-2zM477 487l1-1-1 1zM472 488h0zM471 489l1-1-1 1zM476 487h1-1zM470 490l1-1-1 1zM474 487h0zM473 488l1-1-1 1zM490 489a19 19 0 010 0z"/><path d="M546 447h-20c-1-7-4-13-7-19a47 47 0 00-85 18h-20c1-6 2-12 5-18 10-24 27-41 52-41h9a66 66 0 0166 60z"/><g><path class="st21" d="M454 500zM459 492zM460 491zM456 495h0zM462 521l-3 14 3-14zM465 488zM466 487zM467 487h0zM470 487zM458 493zM469 487zM457 494zM461 490zM489 497l2 8a18 18 0 01-11 17l8 32-8-32a19 19 0 0011-17l-2-8zM462 490zM463 489zM459 518zM464 488zM456 497v-1 1zM472 486h-1 1z"/><path class="st21" d="M471 486h-1v1h-3-1l-1 1h-1l-1 1-1 1h-1l-1 1-1 1-1 1-1 1v1h-1v1l-1 1-1 3a20 20 0 001 12c1 3 2 5 4 6v1l3 2-3 14-5 19h34l-8-32a19 19 0 0011-17l-2-8-7-8c-3-1-6-3-10-3h-1z"/><linearGradient id="SVGID_16_" gradientUnits="userSpaceOnUse" x1="537.1" y1="518.5" x2="394.9" y2="518.5"><stop offset="0" stop-color="#e68e3e"/><stop offset="1" stop-color="#fddb47"/></linearGradient><path d="M422 518c0-28 22-50 49-50v-21h-72c-9 0-17 7-17 17v110c0 9 8 17 17 17h72v-24c-27 0-49-22-49-49z" fill="url(#SVGID_16_)"/><linearGradient id="SVGID_17_" gradientUnits="userSpaceOnUse" x1="423.9" y1="518.5" x2="640" y2="518.5"><stop offset="0" stop-color="#e68e3e"/><stop offset="1" stop-color="#fddb47"/></linearGradient><path d="M545 447h-74v21a49 49 0 000 99v23h74c9 0 16-7 16-16V463c0-9-7-16-16-16zm-57 107h-33l4-19 3-14-3-2v-1c-2-1-3-3-4-6a19 19 0 010-15l1-1v-1h1v-1l1-1 1-1 1-1 1-1h1l1-1 1-1h1l1-1h3l1-1v1l1-1h1c4 0 8 1 10 3a18 18 0 019 16 18 18 0 01-10 17l7 32z" fill="url(#SVGID_17_)"/><path class="st24" d="M459 518zM460 491l1-1-1 1zM458 493l1-1-1 1zM461 490h1-1zM459 492l1-1-1 1zM457 495v-1 1zM457 494l1-1-1 1zM456 496v-1 1zM456 497h-1l-1 2 1-2h1zM470 487l1-1-1 1zM455 554l4-19-4 19h16zM459 519l3 2-3-2zM469 487l1-1-1 1zM464 488h0zM463 489l1-1-1 1zM468 487h1-1zM462 490l1-1-1 1zM466 487h0zM465 488l1-1-1 1zM482 489a19 19 0 010 0z"/><path d="M538 447h-20c-1-7-4-13-7-19a47 47 0 00-85 18h-20c1-6 2-12 5-18 10-24 33-41 61-41a66 66 0 0166 60z" fill="#1f1f1f"/><path d="M524 447h-6c-1-7-4-13-7-19a47 47 0 00-85 18h-7l3-14c8-19 27-33 49-33h1a53 53 0 0152 48z" fill="#333"/></g></g></svg>