<!DOCTYPE svg PUBLIC "-//W3C//DTD SVG 20010904//EN" "http://www.w3.org/TR/2001/REC-SVG-20010904/DTD/svg10.dtd">
<svg version="1.0" xmlns="http://www.w3.org/2000/svg" width="980px" height="944px" viewBox="0 0 9800 9440" preserveAspectRatio="xMidYMid meet">
<g id="layer101" fill="#bcc4cd" stroke="none">
 <path d="M4577 9133 c-1187 -1168 -4571 -4532 -4575 -4547 -2 -8 621 -659 979 -1021 l49 -49 137 134 c76 74 947 940 1936 1924 l1798 1790 1925 -1925 1926 -1924 524 530 c288 292 523 535 521 540 -2 8 -1764 1762 -3667 3650 -694 689 -1222 1205 -1232 1205 -4 0 -149 -138 -321 -307z"/>
 <path d="M4393 5458 c-1686 -1666 -4393 -4364 -4391 -4374 6 -27 1019 -1074 1039 -1074 6 0 876 865 1935 1922 l1925 1922 603 -604 c331 -333 1195 -1201 1920 -1930 l1317 -1325 127 130 c70 72 308 316 530 543 222 227 402 417 400 421 -9 23 -4885 4861 -4899 4861 -4 0 -232 -221 -506 -492z"/>
 </g>
<g id="layer102" fill="#303030" stroke="none">
 <path d="M4577 9133 c-1187 -1168 -4571 -4532 -4575 -4547 -2 -8 621 -659 979 -1021 l49 -49 137 134 c76 74 947 940 1936 1924 l1798 1790 1925 -1925 1926 -1924 524 530 c288 292 523 535 521 540 -2 8 -1764 1762 -3667 3650 -694 689 -1222 1205 -1232 1205 -4 0 -149 -138 -321 -307z m933 -300 c892 -880 4280 -4246 4280 -4252 0 -3 -235 -241 -523 -529 l-522 -522 -1924 1924 -1925 1925 -1846 -1842 c-1016 -1013 -1886 -1878 -1934 -1922 l-88 -79 -172 174 c-94 96 -324 332 -511 523 l-339 349 664 662 c1104 1098 3131 3109 3694 3664 505 497 530 520 550 506 11 -8 280 -269 596 -581z"/>
 <path d="M4393 5458 c-1686 -1666 -4393 -4364 -4391 -4374 6 -27 1019 -1074 1039 -1074 6 0 876 865 1935 1922 l1925 1922 603 -604 c331 -333 1195 -1201 1920 -1930 l1317 -1325 127 130 c70 72 308 316 530 543 222 227 402 417 400 421 -9 23 -4885 4861 -4899 4861 -4 0 -232 -221 -506 -492z m821 175 c171 -170 1271 -1262 2444 -2427 l2133 -2119 -113 -116 c-562 -576 -931 -951 -938 -951 -4 0 -866 863 -1916 1918 -1049 1054 -1912 1919 -1917 1921 -5 2 -593 -579 -1306 -1290 -713 -712 -1581 -1578 -1929 -1924 l-634 -630 -176 180 c-303 309 -853 887 -850 894 7 15 4878 4851 4887 4851 2 0 144 -138 315 -307z"/>
 </g>
<g id="layer103" fill="#505050" stroke="none">
 <path d="M4577 9133 c-1187 -1168 -4571 -4532 -4575 -4547 -2 -8 621 -659 979 -1021 l49 -49 137 134 c76 74 947 940 1936 1924 l1798 1790 1925 -1925 1926 -1924 524 530 c288 292 523 535 521 540 -2 8 -1764 1762 -3667 3650 -694 689 -1222 1205 -1232 1205 -4 0 -149 -138 -321 -307z m794 -160 c467 -460 3951 -3918 4259 -4227 l165 -166 -525 -525 -525 -525 -1922 1922 -1923 1923 -532 -531 c-2150 -2142 -3331 -3315 -3338 -3312 -4 2 -191 192 -415 423 -224 231 -453 466 -509 523 l-101 102 310 311 c414 415 3664 3640 4174 4142 221 218 406 397 410 397 4 0 216 -206 472 -457z"/>
 <path d="M4393 5458 c-1686 -1666 -4393 -4364 -4391 -4374 6 -27 1019 -1074 1039 -1074 6 0 876 865 1935 1922 l1925 1922 603 -604 c331 -333 1195 -1201 1920 -1930 l1317 -1325 127 130 c70 72 308 316 530 543 222 227 402 417 400 421 -9 23 -4885 4861 -4899 4861 -4 0 -232 -221 -506 -492z m1792 -785 c704 -698 1803 -1790 2443 -2428 l1164 -1160 -253 -260 c-140 -143 -376 -385 -526 -538 l-272 -278 -1077 1083 c-593 596 -1457 1463 -1921 1928 l-843 845 -1622 -1620 c-893 -891 -1762 -1757 -1931 -1925 l-308 -305 -217 220 c-359 365 -814 844 -810 855 6 19 4875 4850 4887 4850 4 0 583 -570 1286 -1267z"/>
 </g>
<g id="layer104" fill="#707070" stroke="none">
 <path d="M4577 9133 c-559 -550 -2438 -2413 -3522 -3493 -582 -580 -983 -981 -890 -890 94 91 840 831 1660 1645 1499 1490 2911 2886 3018 2985 l57 53 103 -99 c257 -249 2558 -2527 3617 -3582 l1175 -1170 -525 -526 -525 -526 -1922 1922 -1923 1923 -812 -811 c-1918 -1913 -3050 -3035 -3058 -3032 -5 2 -215 215 -465 473 -251 259 -482 495 -513 525 -92 90 49 -59 458 -480 205 -212 406 -419 446 -460 l74 -74 137 134 c76 74 947 940 1936 1924 l1798 1790 1925 -1925 1926 -1924 524 530 c288 292 523 535 521 540 -2 8 -1764 1762 -3667 3650 -694 689 -1222 1205 -1232 1205 -4 0 -149 -138 -321 -307z"/>
 <path d="M4393 5458 c-863 -853 -4393 -4361 -4393 -4366 0 -4 398 390 2981 2953 954 946 1776 1761 1827 1810 l92 89 153 -150 c353 -346 2605 -2581 3630 -3602 l1107 -1104 -42 -47 c-67 -74 -1002 -1031 -1008 -1031 -3 0 -782 782 -1732 1738 -950 955 -1813 1822 -1918 1927 l-190 190 -1693 -1690 c-930 -930 -1799 -1796 -1929 -1925 l-238 -235 -136 135 c-74 74 -307 314 -516 532 -209 219 -383 398 -386 398 -4 0 27 -35 69 -77 41 -43 176 -184 299 -313 320 -336 660 -680 671 -680 6 0 876 865 1935 1922 l1925 1922 603 -604 c331 -333 1195 -1201 1920 -1930 l1317 -1325 127 130 c70 72 308 316 530 543 222 227 402 417 400 421 -9 23 -4885 4861 -4899 4861 -4 0 -232 -221 -506 -492z"/>
 </g>
<g id="layer105" fill="#909090" stroke="none">
 <path d="M4869 9413 l-24 -28 28 24 28 25 72 -70 72 -69 -70 73 c-38 39 -72 72 -75 72 -4 0 -17 -12 -31 -27z"/>
 <path d="M4565 9118 l-250 -253 253 250 c138 137 252 251 252 252 0 8 -23 -15 -255 -249z"/>
 <path d="M5330 9015 c146 -146 267 -265 270 -265 3 0 -114 119 -260 265 -146 146 -267 265 -270 265 -3 0 114 -119 260 -265z"/>
 <path d="M3870 8435 c-223 -223 -403 -405 -400 -405 3 0 187 182 410 405 223 223 403 405 400 405 -3 0 -187 -182 -410 -405z"/>
 <path d="M6065 8290 c231 -231 422 -420 425 -420 3 0 -184 189 -415 420 -231 231 -422 420 -425 420 -3 0 184 -189 415 -420z"/>
 <path d="M2825 7398 l-580 -583 583 580 c320 319 582 581 582 582 0 7 -46 -38 -585 -579z"/>
 <path d="M7235 7130 c363 -363 662 -660 665 -660 3 0 -292 297 -655 660 -363 363 -662 660 -665 660 -3 0 292 -297 655 -660z"/>
 <path d="M3985 6458 l-910 -913 913 910 912 910 1925 -1925 1925 -1925 302 305 303 305 -303 -300 -302 -300 -1923 1923 c-1057 1057 -1924 1922 -1927 1922 -3 0 -415 -411 -915 -912z"/>
 <path d="M1330 5913 l-795 -798 798 795 c438 437 797 796 797 797 0 2 -1 3 -3 3 -1 0 -360 -359 -797 -797z"/>
 <path d="M8795 5580 c434 -434 792 -790 795 -790 3 0 -351 356 -785 790 -434 435 -792 790 -795 790 -3 0 351 -355 785 -790z"/>
 <path d="M4840 5893 l-55 -58 58 55 57 54 98 -94 97 -95 -95 98 c-52 53 -97 97 -100 97 -3 0 -30 -26 -60 -57z"/>
 <path d="M4390 5453 l-365 -368 368 365 c202 201 367 366 367 367 0 7 -31 -23 -370 -364z"/>
 <path d="M5580 5275 c239 -239 437 -435 440 -435 3 0 -191 196 -430 435 -239 239 -437 435 -440 435 -3 0 191 -196 430 -435z"/>
 <path d="M2095 4578 l-810 -813 813 810 c446 445 812 811 812 812 0 2 -1 3 -3 3 -1 0 -367 -366 -812 -812z"/>
 <path d="M3335 4408 l-610 -613 613 610 c569 567 616 615 609 615 -1 0 -277 -276 -612 -612z"/>
 <path d="M205 4800 c-115 -115 -208 -210 -205 -210 3 0 100 95 215 210 115 116 208 210 205 210 -3 0 -100 -94 -215 -210z"/>
 <path d="M6705 4160 c330 -330 602 -600 605 -600 3 0 -265 270 -595 600 -330 330 -602 600 -605 600 -3 0 265 -270 595 -600z"/>
 <path d="M9750 4638 c24 -27 45 -48 47 -48 8 0 0 9 -44 50 l-48 45 45 -47z"/>
 <path d="M55 4520 c33 -33 62 -60 64 -60 3 0 -21 27 -54 60 -33 33 -62 60 -64 60 -3 0 21 -27 54 -60z"/>
 <path d="M9640 4423 l-155 -158 158 155 c146 144 162 160 154 160 -1 0 -72 -71 -157 -157z"/>
 <path d="M305 4260 c93 -93 172 -170 175 -170 3 0 -72 77 -165 170 -93 94 -172 170 -175 170 -3 0 72 -76 165 -170z"/>
 <path d="M665 3890 c93 -93 172 -170 175 -170 3 0 -72 77 -165 170 -93 94 -172 170 -175 170 -3 0 72 -76 165 -170z"/>
 <path d="M5430 3325 c294 -294 537 -535 540 -535 3 0 -236 241 -530 535 -294 294 -537 535 -540 535 -3 0 236 -241 530 -535z"/>
 <path d="M1143 3638 l-113 -113 -87 85 -88 85 88 -90 87 -90 117 118 c65 64 116 117 113 117 -3 0 -56 -51 -117 -112z"/>
 <path d="M3115 2078 l-1670 -1673 1673 1670 c919 918 1672 1671 1672 1672 0 2 -1 3 -3 3 -1 0 -754 -753 -1672 -1672z"/>
 <path d="M1880 2963 l-765 -768 768 765 c422 421 767 766 767 767 0 2 -1 3 -3 3 -1 0 -346 -345 -767 -767z"/>
 <path d="M8355 2520 c511 -511 932 -930 935 -930 3 0 -414 418 -925 930 -511 512 -932 930 -935 930 -3 0 414 -418 925 -930z"/>
 <path d="M6970 1775 c481 -481 877 -875 880 -875 3 0 -389 394 -870 875 -481 481 -877 875 -880 875 -3 0 389 -394 870 -875z"/>
 <path d="M500 1593 l-505 -508 508 505 c279 278 507 506 507 507 0 7 -41 -33 -510 -504z"/>
 <path d="M9609 1278 c168 -170 183 -188 171 -205 -13 -17 -13 -17 5 0 19 17 15 22 -170 205 l-190 187 184 -187z"/>
 <path d="M65 1010 c38 -38 72 -70 74 -70 3 0 -26 32 -64 70 -38 39 -72 70 -74 70 -3 0 26 -31 64 -70z"/>
 <path d="M9570 853 l-175 -178 178 175 c97 96 177 176 177 177 0 8 -18 -10 -180 -174z"/>
 <path d="M245 820 c55 -55 102 -100 105 -100 2 0 -40 45 -95 100 -55 55 -102 100 -105 100 -2 0 40 -45 95 -100z"/>
 <path d="M8357 380 l383 -385 117 120 118 120 -118 -115 -117 -115 -383 380 -382 380 382 -385z"/>
 <path d="M455 600 c55 -55 102 -100 105 -100 2 0 -40 45 -95 100 -55 55 -102 100 -105 100 -2 0 40 -45 95 -100z"/>
 <path d="M9180 455 c-107 -107 -193 -195 -190 -195 3 0 93 88 200 195 107 107 193 195 190 195 -3 0 -93 -88 -200 -195z"/>
 <path d="M725 320 c82 -82 152 -150 155 -150 2 0 -63 68 -145 150 -82 83 -152 150 -155 150 -2 0 63 -67 145 -150z"/>
 <path d="M1215 190 c-114 -114 -175 -168 -185 -165 -12 5 -13 4 -2 -7 10 -10 46 21 190 165 97 97 175 177 172 177 -3 0 -82 -77 -175 -170z"/>
 </g>
<g id="layer106" fill="#b4b4b4" stroke="none">
 <path d="M4874 9418 l-19 -23 23 19 23 20 42 -40 42 -39 -40 43 c-21 23 -42 42 -45 42 -4 0 -15 -10 -26 -22z"/>
 <path d="M4610 9163 l-205 -208 208 205 c114 113 207 206 207 207 0 8 -20 -12 -210 -204z"/>
 <path d="M5285 9060 c121 -121 222 -220 225 -220 3 0 -94 99 -215 220 -121 121 -222 220 -225 220 -3 0 94 -99 215 -220z"/>
 <path d="M3930 8493 l-345 -348 348 345 c191 190 347 346 347 347 0 7 -29 -22 -350 -344z"/>
 <path d="M5985 8370 c187 -187 342 -340 345 -340 3 0 -148 153 -335 340 -187 187 -342 340 -345 340 -3 0 148 -153 335 -340z"/>
 <path d="M2930 7503 l-475 -478 478 475 c443 441 481 480 474 480 -1 0 -216 -215 -477 -477z"/>
 <path d="M7105 7260 c291 -291 532 -530 535 -530 3 0 -234 239 -525 530 -291 292 -532 530 -535 530 -3 0 234 -238 525 -530z"/>
 <path d="M3985 6458 l-910 -913 913 910 912 910 1925 -1925 1925 -1925 302 305 303 305 -303 -300 -302 -300 -1923 1923 c-1057 1057 -1924 1922 -1927 1922 -3 0 -415 -411 -915 -912z"/>
 <path d="M1445 6028 l-680 -683 683 680 c375 374 682 681 682 682 0 7 -53 -45 -685 -679z"/>
 <path d="M8670 5705 c366 -366 667 -665 670 -665 3 0 -294 299 -660 665 -366 366 -667 665 -670 665 -3 0 294 -299 660 -665z"/>
 <path d="M4869 5923 l-24 -28 28 24 27 25 63 -60 62 -59 -60 63 c-33 34 -62 62 -65 62 -4 0 -17 -12 -31 -27z"/>
 <path d="M4470 5535 c-157 -157 -283 -285 -280 -285 3 0 133 128 290 285 157 157 283 285 280 285 -3 0 -133 -128 -290 -285z"/>
 <path d="M5485 5370 c187 -187 342 -340 345 -340 3 0 -148 153 -335 340 -187 187 -342 340 -345 340 -3 0 148 -153 335 -340z"/>
 <path d="M3425 4498 l-520 -523 523 520 c287 286 522 521 522 522 0 7 -42 -34 -525 -519z"/>
 <path d="M205 4800 c-115 -115 -208 -210 -205 -210 3 0 100 95 215 210 115 116 208 210 205 210 -3 0 -100 -94 -215 -210z"/>
 <path d="M1905 4388 l-620 -623 623 620 c342 341 622 621 622 622 0 7 -49 -41 -625 -619z"/>
 <path d="M6610 4255 c278 -278 507 -505 510 -505 3 0 -222 227 -500 505 -278 278 -507 505 -510 505 -3 0 222 -227 500 -505z"/>
 <path d="M9750 4638 c24 -27 45 -48 47 -48 8 0 0 9 -44 50 l-48 45 45 -47z"/>
 <path d="M0 4577 c0 -2 15 -16 33 -33 l32 -29 -29 33 c-28 30 -36 37 -36 29z"/>
 <path d="M280 4285 c80 -80 147 -145 150 -145 2 0 -60 65 -140 145 -80 80 -147 145 -150 145 -2 0 60 -65 140 -145z"/>
 <path d="M640 3915 c80 -80 147 -145 150 -145 2 0 -60 65 -140 145 -80 80 -147 145 -150 145 -2 0 60 -65 140 -145z"/>
 <path d="M5305 3450 c225 -225 412 -410 415 -410 3 0 -180 185 -405 410 -225 226 -412 410 -415 410 -3 0 180 -184 405 -410z"/>
 <path d="M1995 3078 l-650 -653 653 650 c606 604 656 655 649 655 -1 0 -295 -294 -652 -652z"/>
 <path d="M1118 3613 l-88 -88 -87 85 -88 85 88 -90 87 -90 92 93 c51 50 91 92 88 92 -3 0 -44 -39 -92 -87z"/>
 <path d="M8205 2673 c429 -431 781 -783 782 -783 2 0 3 1 3 3 0 1 -352 353 -782 782 l-783 780 780 -782z"/>
 <path d="M6845 1900 c412 -412 752 -750 755 -750 3 0 -333 338 -745 750 -412 413 -752 750 -755 750 -3 0 333 -337 745 -750z"/>
 <path d="M2300 1263 l-855 -858 858 855 c471 470 857 856 857 857 0 2 -1 3 -3 3 -1 0 -387 -386 -857 -857z"/>
 <path d="M500 1593 l-505 -508 508 505 c279 278 507 506 507 507 0 7 -41 -33 -510 -504z"/>
 <path d="M9610 1275 c102 -104 187 -189 190 -187 2 1 -81 87 -185 190 l-190 187 185 -190z"/>
 <path d="M50 1025 c30 -30 57 -55 59 -55 3 0 -19 25 -49 55 -30 30 -57 55 -59 55 -3 0 19 -25 49 -55z"/>
 <path d="M9595 880 c-82 -82 -147 -150 -145 -150 3 0 73 68 155 150 82 83 147 150 145 150 -3 0 -73 -67 -155 -150z"/>
 <path d="M230 835 c47 -47 87 -85 90 -85 2 0 -33 38 -80 85 -47 47 -87 85 -90 85 -2 0 33 -38 80 -85z"/>
 <path d="M8357 380 l383 -385 117 120 118 120 -118 -115 -117 -115 -383 380 -382 380 382 -385z"/>
 <path d="M440 615 c47 -47 87 -85 90 -85 2 0 -33 38 -80 85 -47 47 -87 85 -90 85 -2 0 33 -38 80 -85z"/>
 <path d="M9210 483 l-165 -168 168 165 c92 91 167 166 167 167 0 8 -17 -9 -170 -164z"/>
 <path d="M695 350 c66 -66 122 -120 125 -120 2 0 -49 54 -115 120 -66 66 -122 120 -125 120 -2 0 49 -54 115 -120z"/>
 <path d="M1139 115 c-58 -58 -103 -105 -100 -105 4 0 53 47 111 105 58 58 102 105 100 105 -3 0 -53 -47 -111 -105z"/>
 </g>
<g id="layer107" fill="#e8e8e8" stroke="none">
 <path d="M4660 9213 l-155 -158 158 155 c146 144 162 160 154 160 -1 0 -72 -71 -157 -157z"/>
 <path d="M5235 9110 c93 -93 172 -170 175 -170 3 0 -72 77 -165 170 -93 94 -172 170 -175 170 -3 0 72 -76 165 -170z"/>
 <path d="M4005 8568 l-270 -273 273 270 c149 148 272 271 272 272 0 8 -24 -16 -275 -269z"/>
 <path d="M5910 8445 c146 -146 267 -265 270 -265 3 0 -114 119 -260 265 -146 146 -267 265 -270 265 -3 0 114 -119 260 -265z"/>
 <path d="M3025 7598 l-380 -383 383 380 c355 353 386 385 379 385 -1 0 -173 -172 -382 -382z"/>
 <path d="M6960 7405 c212 -212 387 -385 390 -385 3 0 -168 173 -380 385 -212 212 -387 385 -390 385 -3 0 168 -173 380 -385z"/>
 <path d="M3985 6458 l-910 -913 913 910 c501 500 912 911 912 912 0 2 -1 3 -3 3 -1 0 -412 -411 -912 -912z"/>
 <path d="M1580 6163 l-545 -548 548 545 c301 300 547 546 547 547 0 7 -43 -36 -550 -544z"/>
 <path d="M8520 5855 c283 -283 517 -515 520 -515 3 0 -227 232 -510 515 -283 283 -517 515 -520 515 -3 0 227 -232 510 -515z"/>
 <path d="M4884 5938 c-5 -7 -3 -8 5 -3 8 4 25 -4 44 -21 l32 -29 -29 33 c-32 35 -41 38 -52 20z"/>
 <path d="M4535 5598 l-220 -223 223 220 c206 204 227 225 219 225 -1 0 -101 -100 -222 -222z"/>
 <path d="M5375 5480 c126 -126 232 -230 235 -230 3 0 -99 104 -225 230 -126 127 -232 230 -235 230 -3 0 99 -103 225 -230z"/>
 <path d="M3530 4603 l-415 -418 418 415 c388 386 421 420 414 420 -1 0 -189 -188 -417 -417z"/>
 <path d="M205 4800 c-115 -115 -208 -210 -205 -210 3 0 100 95 215 210 115 116 208 210 205 210 -3 0 -100 -94 -215 -210z"/>
 <path d="M6110 4757 c0 -1 177 -178 393 -392 l392 -390 -390 393 c-362 364 -395 396 -395 389z"/>
 <path d="M9750 4638 c24 -27 45 -48 47 -48 8 0 0 9 -44 50 l-48 45 45 -47z"/>
 <path d="M1685 4168 l-400 -403 403 400 c374 372 406 405 399 405 -1 0 -182 -181 -402 -402z"/>
 <path d="M255 4310 c66 -66 122 -120 125 -120 2 0 -49 54 -115 120 -66 66 -122 120 -125 120 -2 0 49 -54 115 -120z"/>
 <path d="M9045 3820 c-166 -165 -298 -300 -295 -300 3 0 140 135 305 300 165 165 298 300 295 300 -3 0 -140 -135 -305 -300z"/>
 <path d="M615 3940 c66 -66 122 -120 125 -120 2 0 -49 54 -115 120 -66 66 -122 120 -125 120 -2 0 49 -54 115 -120z"/>
 <path d="M5160 3595 c146 -146 267 -265 270 -265 3 0 -114 119 -260 265 -146 146 -267 265 -270 265 -3 0 114 -119 260 -265z"/>
 <path d="M2130 3213 l-515 -518 518 515 c284 283 517 516 517 517 0 7 -41 -33 -520 -514z"/>
 <path d="M942 3605 l88 -90 67 70 68 70 -68 -65 -67 -64 -88 84 -87 85 87 -90z"/>
 <path d="M8030 2845 c333 -333 607 -605 610 -605 3 0 -267 272 -600 605 -333 333 -607 605 -610 605 -3 0 267 -272 600 -605z"/>
 <path d="M6705 2040 c335 -335 612 -610 615 -610 3 0 -270 275 -605 610 -335 336 -612 610 -615 610 -3 0 270 -274 605 -610z"/>
 <path d="M500 1593 l-505 -508 508 505 c279 278 507 506 507 507 0 7 -41 -33 -510 -504z"/>
 <path d="M2020 983 l-575 -578 578 575 c317 316 577 576 577 577 0 7 -46 -38 -580 -574z"/>
 <path d="M9610 1275 c102 -102 187 -185 190 -185 3 0 -78 83 -180 185 -102 102 -187 185 -190 185 -3 0 78 -83 180 -185z"/>
 <path d="M35 1040 c21 -22 41 -40 44 -40 3 0 -13 18 -34 40 -21 22 -41 40 -44 40 -3 0 13 -18 34 -40z"/>
 <path d="M9635 918 l-110 -113 113 110 c104 102 117 115 109 115 -1 0 -52 -51 -112 -112z"/>
 <path d="M215 850 c38 -38 72 -70 74 -70 3 0 -26 32 -64 70 -38 39 -72 70 -74 70 -3 0 26 -31 64 -70z"/>
 <path d="M8357 380 l383 -385 117 120 118 120 -118 -115 -117 -115 -383 380 -382 380 382 -385z"/>
 <path d="M420 635 c35 -36 67 -65 69 -65 3 0 -24 29 -59 65 -35 36 -67 65 -69 65 -3 0 24 -29 59 -65z"/>
 <path d="M9255 530 c-66 -66 -117 -120 -115 -120 3 0 59 54 125 120 66 66 117 120 115 120 -3 0 -59 -54 -125 -120z"/>
 <path d="M670 375 c52 -52 97 -95 100 -95 2 0 -38 43 -90 95 -52 52 -97 95 -100 95 -2 0 38 -43 90 -95z"/>
 <path d="M1090 63 l-55 -58 58 55 c53 50 62 60 54 60 -1 0 -27 -26 -57 -57z"/>
 </g>

</svg>