<!DOCTYPE svg PUBLIC "-//W3C//DTD SVG 20010904//EN" "http://www.w3.org/TR/2001/REC-SVG-20010904/DTD/svg10.dtd">
<svg version="1.0" xmlns="http://www.w3.org/2000/svg" width="512px" height="512px" viewBox="0 0 5120 5120" preserveAspectRatio="xMidYMid meet">
<g id="layer101" fill="#b8b8b8" stroke="none">
 <path d="M4895 5109 c-11 -6 -304 -294 -650 -640 l-630 -629 -64 51 c-374 303 -876 479 -1366 479 -999 0 -1873 -677 -2119 -1640 -46 -181 -66 -347 -66 -549 0 -259 29 -446 106 -681 103 -314 271 -593 503 -833 357 -370 810 -595 1321 -657 109 -13 401 -13 510 0 670 81 1264 464 1616 1040 165 272 275 603 305 928 14 147 7 403 -15 542 -61 384 -218 736 -470 1050 l-36 45 635 635 c435 436 636 644 641 663 3 15 4 51 2 78 -4 42 -12 58 -41 87 -33 33 -42 36 -99 39 -35 2 -72 -2 -83 -8z m-2591 -1059 c368 -27 705 -152 996 -369 93 -70 254 -224 330 -316 223 -273 366 -610 411 -968 18 -153 7 -433 -25 -582 -121 -573 -494 -1056 -1011 -1310 -737 -361 -1609 -204 -2176 393 -635 667 -690 1674 -133 2418 77 103 247 274 351 352 294 222 646 356 998 382 55 4 105 8 110 8 6 1 73 -3 149 -8z"/>
 </g>

</svg>