<?xml version="1.0" encoding="utf-8"?>
<!-- Generator: Adobe Illustrator 19.2.0, SVG Export Plug-In . SVG Version: 6.00 Build 0)  -->
<svg version="1.1" id="Слой_1" xmlns="http://www.w3.org/2000/svg" xmlns:xlink="http://www.w3.org/1999/xlink" x="0px" y="0px"
	 viewBox="0 0 441 443.5" style="enable-background:new 0 0 441 443.5;" xml:space="preserve">
<style type="text/css">
	.st0{opacity:0.41;fill:#99EAB8;}
	.st1{fill:url(#SVGID_1_);}
	.st2{fill:url(#SVGID_2_);}
	.st3{fill:#FFFFFF;}
	.st4{fill:#E0EAEF;}
	.st5{fill:#696E73;}
	.st6{fill:#373C41;}
	.st7{fill:url(#SVGID_3_);}
	.st8{fill:url(#SVGID_4_);}
</style>
<circle class="st0" cx="222.1" cy="215.2" r="173.1"/>
<g id="surface1">
	<linearGradient id="SVGID_1_" gradientUnits="userSpaceOnUse" x1="79.9695" y1="221.1344" x2="363.6421" y2="221.1344">
		<stop  offset="3.745990e-03" style="stop-color:#01E971"/>
		<stop  offset="0.6424" style="stop-color:#00D351"/>
		<stop  offset="1" style="stop-color:#00CB44"/>
	</linearGradient>
	<path class="st1" d="M348.7,277c-9,24.3-22.5,45.4-40.3,62.7c-20.2,19.7-46.7,35.4-78.7,46.6c-1,0.4-2.1,0.7-3.2,0.9
		c-1.5,0.3-2.9,0.4-4.4,0.5h-0.3c-1.6,0-3.1-0.2-4.7-0.5c-1.1-0.2-2.2-0.5-3.2-0.9c-32-11.2-58.5-26.8-78.8-46.6
		c-17.8-17.3-31.3-38.4-40.2-62.7C78.6,233,79.6,184.4,80.3,145.3l0-0.6c0.1-3.2,0.2-6.6,0.3-10.4c0.3-18.4,14.9-33.6,33.2-34.6
		c38.3-2.1,67.9-14.6,93.2-39.3l0.2-0.2c4.2-3.9,9.5-5.7,14.8-5.7c5.1,0.1,10.1,2,14.2,5.7l0.2,0.2c25.3,24.7,54.9,37.2,93.2,39.3
		c18.4,1,33,16.2,33.2,34.6c0.1,3.8,0.1,7.1,0.3,10.4l0,0.3C364.1,184.1,365,232.8,348.7,277z"/>
	<linearGradient id="SVGID_2_" gradientUnits="userSpaceOnUse" x1="222.0955" y1="221.1355" x2="363.6421" y2="221.1355">
		<stop  offset="3.745990e-03" style="stop-color:#01E971"/>
		<stop  offset="0.6424" style="stop-color:#00D351"/>
		<stop  offset="1" style="stop-color:#00CB44"/>
	</linearGradient>
	<path class="st2" d="M348.7,277c-9,24.3-22.5,45.4-40.3,62.7c-20.2,19.7-46.7,35.4-78.7,46.6c-1,0.4-2.1,0.7-3.2,0.9
		c-1.5,0.3-2.9,0.4-4.4,0.5V54.6c5.1,0.1,10.1,2,14.2,5.7l0.2,0.2c25.3,24.7,54.9,37.2,93.2,39.3c18.4,1,33,16.2,33.2,34.6
		c0.1,3.8,0.1,7.1,0.3,10.4l0,0.3C364.1,184.1,365,232.8,348.7,277z"/>
	<path class="st3" d="M304.8,221.1c0,45.7-37.1,82.9-82.7,83h-0.3c-45.8,0-83-37.2-83-83c0-45.8,37.2-83,83-83h0.3
		C267.7,138.3,304.8,175.5,304.8,221.1z"/>
	<path class="st4" d="M304.8,221.1c0,45.7-37.1,82.9-82.7,83v-166C267.7,138.3,304.8,175.5,304.8,221.1z"/>
</g>
<g id="surface1_1_">
	<path class="st5" d="M245.2,186.7v24.8l-18.7,0v-25c0-2.7-2.2-4.9-4.9-5c0,0-0.1,0-0.1,0c-2.7,0-5,2.2-5,5v25l-18.7,0v-24.8
		c0-13,10.6-23.6,23.6-23.6h0.1C234.7,163.1,245.2,173.7,245.2,186.7z"/>
	<path class="st6" d="M245.2,186.7v24.8l-18.7,0v-25c0-2.7-2.2-4.9-4.9-5V163C234.7,163.1,245.2,173.7,245.2,186.7z"/>
	<linearGradient id="SVGID_3_" gradientUnits="userSpaceOnUse" x1="185.0331" y1="242.1465" x2="258.1099" y2="242.1465">
		<stop  offset="3.745990e-03" style="stop-color:#01E971"/>
		<stop  offset="0.6424" style="stop-color:#00D351"/>
		<stop  offset="1" style="stop-color:#00CB44"/>
	</linearGradient>
	<path class="st7" d="M258.1,212.8v58.6c0,2.6-2.1,4.8-4.8,4.8h-63.6c-2.6,0-4.8-2.1-4.8-4.8v-58.6c0-2.6,2.1-4.8,4.8-4.8h63.6
		C256,208.1,258.1,210.2,258.1,212.8z"/>
	<linearGradient id="SVGID_4_" gradientUnits="userSpaceOnUse" x1="221.6708" y1="242.1465" x2="258.1099" y2="242.1465">
		<stop  offset="3.745990e-03" style="stop-color:#01E971"/>
		<stop  offset="0.6424" style="stop-color:#00D351"/>
		<stop  offset="1" style="stop-color:#00CB44"/>
	</linearGradient>
	<path class="st8" d="M258.1,212.8v58.6c0,2.6-2.1,4.8-4.8,4.8h-31.7v-68.1h31.7C256,208.1,258.1,210.2,258.1,212.8z"/>
	<path class="st3" d="M242.5,231.1l-20.8,20.8l-5.9,5.9c-0.6,0.6-1.5,1-2.3,1c-0.8,0-1.7-0.3-2.3-1l-10.2-10.2
		c-1.3-1.3-1.3-3.4,0-4.7c1.3-1.3,3.4-1.3,4.7,0l7.9,7.9l24.4-24.4c1.3-1.3,3.4-1.3,4.7,0C243.8,227.7,243.8,229.8,242.5,231.1z"/>
	<path class="st4" d="M242.5,231.1l-20.8,20.8v-9.4l16.1-16.1c1.3-1.3,3.4-1.3,4.7,0C243.8,227.7,243.8,229.8,242.5,231.1z"/>
</g>
</svg>
